M48
; DRILL file {KiCad (6.0.5-0)} date Sunday, July 10, 2022 at 06:26:12 PM
; FORMAT={-:-/ absolute / metric / decimal}
; #@! TF.CreationDate,2022-07-10T18:26:12-04:00
; #@! TF.GenerationSoftware,Kicad,Pcbnew,(6.0.5-0)
; #@! TF.FileFunction,Plated,1,2,PTH
FMAT,2
METRIC
; #@! TA.AperFunction,Plated,PTH,ComponentDrill
T1C0.750
; #@! TA.AperFunction,Plated,PTH,ComponentDrill
T2C0.800
; #@! TA.AperFunction,Plated,PTH,ComponentDrill
T3C1.000
; #@! TA.AperFunction,Plated,PTH,ComponentDrill
T4C1.100
; #@! TA.AperFunction,Plated,PTH,ComponentDrill
T5C1.300
%
G90
G05
T1
X109.45Y-52.13
X109.45Y-53.4
X109.45Y-54.67
X114.53Y-52.13
X114.53Y-53.4
X114.53Y-54.67
X119.61Y-52.13
X119.61Y-53.4
X119.61Y-54.67
T2
X107.63Y-149.86
X109.45Y-36.89
X109.45Y-47.05
X109.45Y-57.21
X109.45Y-67.37
X109.63Y-149.86
X114.53Y-36.89
X114.53Y-47.05
X114.53Y-57.21
X114.53Y-67.37
X119.61Y-36.89
X119.61Y-47.05
X119.61Y-57.21
X119.61Y-67.37
X124.45Y-59.75
X125.73Y-34.29
X125.73Y-44.45
X125.73Y-48.29
X125.73Y-50.83
X125.73Y-53.37
X125.73Y-55.91
X125.79Y-67.31
X128.32Y-149.793
X132.08Y-35.68
X132.08Y-43.18
X133.29Y-67.31
X133.35Y-48.29
X133.35Y-50.83
X133.35Y-53.37
X133.35Y-55.91
X134.61Y-59.75
X135.82Y-149.793
T3
X110.49Y-74.905
X110.52Y-142.215
X113.03Y-74.905
X113.06Y-142.215
X114.3Y-82.55
X114.3Y-85.09
X114.3Y-87.63
X114.3Y-90.17
X114.3Y-92.71
X114.3Y-95.25
X114.3Y-97.79
X114.3Y-100.33
X114.3Y-102.87
X114.3Y-105.41
X114.3Y-107.95
X114.3Y-110.49
X114.3Y-113.03
X114.3Y-115.57
X114.3Y-118.11
X115.57Y-74.905
X115.6Y-142.215
X118.11Y-74.905
X118.14Y-142.215
X120.65Y-74.905
X120.68Y-142.215
X123.19Y-74.905
X123.22Y-142.215
X125.73Y-74.905
X125.76Y-142.215
X128.27Y-74.905
X128.3Y-142.215
X129.54Y-82.55
X129.54Y-85.09
X129.54Y-87.63
X129.54Y-90.17
X129.54Y-92.71
X129.54Y-95.25
X129.54Y-97.79
X129.54Y-100.33
X129.54Y-102.87
X129.54Y-105.41
X129.54Y-107.95
X129.54Y-110.49
X129.54Y-113.03
X129.54Y-115.57
X129.54Y-118.11
X130.81Y-74.905
X130.84Y-142.215
X133.35Y-74.905
X133.38Y-142.215
T4
X113.665Y-147.102
X113.665Y-152.182
X119.38Y-153.035
X121.92Y-153.035
X124.46Y-153.035
T5
X109.41Y-159.453
X109.42Y-27.44
X114.41Y-159.453
X114.42Y-27.44
X119.41Y-159.453
X119.42Y-27.44
X124.41Y-159.453
X124.42Y-27.44
X129.41Y-159.453
X129.42Y-27.44
X134.41Y-159.453
X134.42Y-27.44
T0
M30
