%TF.GenerationSoftware,KiCad,Pcbnew,(6.0.5-0)*%
%TF.CreationDate,2022-07-08T10:13:23-04:00*%
%TF.ProjectId,OBS,4f42532e-6b69-4636-9164-5f7063625858,rev?*%
%TF.SameCoordinates,Original*%
%TF.FileFunction,Soldermask,Bot*%
%TF.FilePolarity,Negative*%
%FSLAX46Y46*%
G04 Gerber Fmt 4.6, Leading zero omitted, Abs format (unit mm)*
G04 Created by KiCad (PCBNEW (6.0.5-0)) date 2022-07-08 10:13:23*
%MOMM*%
%LPD*%
G01*
G04 APERTURE LIST*
%ADD10C,1.600000*%
%ADD11O,1.600000X1.600000*%
%ADD12R,1.500000X1.050000*%
%ADD13O,1.500000X1.050000*%
%ADD14C,2.100000*%
%ADD15R,1.700000X1.700000*%
%ADD16O,1.700000X1.700000*%
%ADD17R,1.600000X1.600000*%
%ADD18R,2.600000X2.600000*%
%ADD19C,2.600000*%
%ADD20R,1.905000X2.000000*%
%ADD21O,1.905000X2.000000*%
G04 APERTURE END LIST*
D10*
%TO.C,R5*%
X119610000Y-36890000D03*
D11*
X119610000Y-47050000D03*
%TD*%
D12*
%TO.C,Q1*%
X119610000Y-52130000D03*
D13*
X119610000Y-53400000D03*
X119610000Y-54670000D03*
%TD*%
D14*
%TO.C,REF\u002A\u002A*%
X135890000Y-167572744D03*
%TD*%
D10*
%TO.C,R4*%
X109450000Y-36890000D03*
D11*
X109450000Y-47050000D03*
%TD*%
D15*
%TO.C,J4*%
X110490000Y-74905000D03*
D16*
X113030000Y-74905000D03*
X115570000Y-74905000D03*
X118110000Y-74905000D03*
X120650000Y-74905000D03*
X123190000Y-74905000D03*
X125730000Y-74905000D03*
X128270000Y-74905000D03*
X130810000Y-74905000D03*
X133350000Y-74905000D03*
%TD*%
D12*
%TO.C,Q2*%
X114530000Y-52130000D03*
D13*
X114530000Y-53400000D03*
X114530000Y-54670000D03*
%TD*%
D14*
%TO.C,REF\u002A\u002A*%
X107950000Y-167572744D03*
%TD*%
D10*
%TO.C,R1*%
X119610000Y-57210000D03*
D11*
X119610000Y-67370000D03*
%TD*%
D17*
%TO.C,C1*%
X109210000Y-149792744D03*
D10*
X111210000Y-149792744D03*
%TD*%
D18*
%TO.C,J1*%
X109410000Y-159452744D03*
D19*
X114410000Y-159452744D03*
X119410000Y-159452744D03*
X124410000Y-159452744D03*
X129410000Y-159452744D03*
X134410000Y-159452744D03*
%TD*%
D14*
%TO.C,REF\u002A\u002A*%
X135890000Y-20320000D03*
%TD*%
D17*
%TO.C,A2*%
X114300000Y-82550000D03*
D11*
X114300000Y-85090000D03*
X114300000Y-87630000D03*
X114300000Y-90170000D03*
X114300000Y-92710000D03*
X114300000Y-95250000D03*
X114300000Y-97790000D03*
X114300000Y-100330000D03*
X114300000Y-102870000D03*
X114300000Y-105410000D03*
X114300000Y-107950000D03*
X114300000Y-110490000D03*
X114300000Y-113030000D03*
X114300000Y-115570000D03*
X114300000Y-118110000D03*
X129540000Y-118110000D03*
X129540000Y-115570000D03*
X129540000Y-113030000D03*
X129540000Y-110490000D03*
X129540000Y-107950000D03*
X129540000Y-105410000D03*
X129540000Y-102870000D03*
X129540000Y-100330000D03*
X129540000Y-97790000D03*
X129540000Y-95250000D03*
X129540000Y-92710000D03*
X129540000Y-90170000D03*
X129540000Y-87630000D03*
X129540000Y-85090000D03*
X129540000Y-82550000D03*
%TD*%
D14*
%TO.C,REF\u002A\u002A*%
X107950000Y-20320000D03*
%TD*%
D15*
%TO.C,J3*%
X110520000Y-142215000D03*
D16*
X113060000Y-142215000D03*
X115600000Y-142215000D03*
X118140000Y-142215000D03*
X120680000Y-142215000D03*
X123220000Y-142215000D03*
X125760000Y-142215000D03*
X128300000Y-142215000D03*
X130840000Y-142215000D03*
X133380000Y-142215000D03*
%TD*%
D20*
%TO.C,A1*%
X119380000Y-153035000D03*
D21*
X121920000Y-153035000D03*
X124460000Y-153035000D03*
%TD*%
D10*
%TO.C,C3*%
X125790000Y-67310000D03*
D11*
X133290000Y-67310000D03*
%TD*%
D12*
%TO.C,Q3*%
X109450000Y-52130000D03*
D13*
X109450000Y-53400000D03*
X109450000Y-54670000D03*
%TD*%
D10*
%TO.C,C4*%
X132080000Y-43180000D03*
D11*
X132080000Y-35680000D03*
%TD*%
D10*
%TO.C,R3*%
X109450000Y-57210000D03*
D11*
X109450000Y-67370000D03*
%TD*%
D10*
%TO.C,R7*%
X134610000Y-59750000D03*
D11*
X124450000Y-59750000D03*
%TD*%
D10*
%TO.C,R8*%
X125730000Y-44450000D03*
D11*
X125730000Y-34290000D03*
%TD*%
D10*
%TO.C,C2*%
X128320000Y-149792744D03*
D11*
X135820000Y-149792744D03*
%TD*%
D18*
%TO.C,J2*%
X109420000Y-27440000D03*
D19*
X114420000Y-27440000D03*
X119420000Y-27440000D03*
X124420000Y-27440000D03*
X129420000Y-27440000D03*
X134420000Y-27440000D03*
%TD*%
D10*
%TO.C,R6*%
X114530000Y-36890000D03*
D11*
X114530000Y-47050000D03*
%TD*%
D17*
%TO.C,U3*%
X125730000Y-48290000D03*
D11*
X125730000Y-50830000D03*
X125730000Y-53370000D03*
X125730000Y-55910000D03*
X133350000Y-55910000D03*
X133350000Y-53370000D03*
X133350000Y-50830000D03*
X133350000Y-48290000D03*
%TD*%
D10*
%TO.C,R2*%
X114530000Y-57210000D03*
D11*
X114530000Y-67370000D03*
%TD*%
M02*
