%TF.GenerationSoftware,KiCad,Pcbnew,(6.0.5-0)*%
%TF.CreationDate,2022-07-10T18:26:10-04:00*%
%TF.ProjectId,OBS,4f42532e-6b69-4636-9164-5f7063625858,rev?*%
%TF.SameCoordinates,Original*%
%TF.FileFunction,Copper,L2,Bot*%
%TF.FilePolarity,Positive*%
%FSLAX46Y46*%
G04 Gerber Fmt 4.6, Leading zero omitted, Abs format (unit mm)*
G04 Created by KiCad (PCBNEW (6.0.5-0)) date 2022-07-10 18:26:10*
%MOMM*%
%LPD*%
G01*
G04 APERTURE LIST*
%TA.AperFunction,ComponentPad*%
%ADD10C,1.600000*%
%TD*%
%TA.AperFunction,ComponentPad*%
%ADD11O,1.600000X1.600000*%
%TD*%
%TA.AperFunction,ComponentPad*%
%ADD12R,1.500000X1.050000*%
%TD*%
%TA.AperFunction,ComponentPad*%
%ADD13O,1.500000X1.050000*%
%TD*%
%TA.AperFunction,ComponentPad*%
%ADD14R,2.200000X2.200000*%
%TD*%
%TA.AperFunction,ComponentPad*%
%ADD15O,2.200000X2.200000*%
%TD*%
%TA.AperFunction,ComponentPad*%
%ADD16R,1.700000X1.700000*%
%TD*%
%TA.AperFunction,ComponentPad*%
%ADD17O,1.700000X1.700000*%
%TD*%
%TA.AperFunction,ComponentPad*%
%ADD18R,1.600000X1.600000*%
%TD*%
%TA.AperFunction,ComponentPad*%
%ADD19R,2.600000X2.600000*%
%TD*%
%TA.AperFunction,ComponentPad*%
%ADD20C,2.600000*%
%TD*%
%TA.AperFunction,ComponentPad*%
%ADD21R,1.905000X2.000000*%
%TD*%
%TA.AperFunction,ComponentPad*%
%ADD22O,1.905000X2.000000*%
%TD*%
%TA.AperFunction,Conductor*%
%ADD23C,0.250000*%
%TD*%
G04 APERTURE END LIST*
D10*
%TO.P,R5,1*%
%TO.N,/LED0*%
X119610000Y-36890000D03*
D11*
%TO.P,R5,2*%
%TO.N,Net-(Q1-Pad1)*%
X119610000Y-47050000D03*
%TD*%
D12*
%TO.P,Q1,1,E*%
%TO.N,Net-(Q1-Pad1)*%
X119610000Y-52130000D03*
D13*
%TO.P,Q1,2,B*%
%TO.N,Net-(Q1-Pad2)*%
X119610000Y-53400000D03*
%TO.P,Q1,3,C*%
%TO.N,Net-(A1-Pad3)*%
X119610000Y-54670000D03*
%TD*%
D14*
%TO.P,D5,1,K*%
%TO.N,/Vin*%
X113665000Y-152182183D03*
D15*
%TO.P,D5,2,A*%
%TO.N,Net-(A1-Pad1)*%
X113665000Y-147102183D03*
%TD*%
D10*
%TO.P,R4,1*%
%TO.N,/LED2*%
X109450000Y-36890000D03*
D11*
%TO.P,R4,2*%
%TO.N,Net-(Q3-Pad1)*%
X109450000Y-47050000D03*
%TD*%
D16*
%TO.P,J4,1,Pin_1*%
%TO.N,Net-(A1-Pad3)*%
X110490000Y-74905000D03*
D17*
%TO.P,J4,2,Pin_2*%
%TO.N,GND*%
X113030000Y-74905000D03*
%TO.P,J4,3,Pin_3*%
%TO.N,Net-(A2-Pad24)*%
X115570000Y-74905000D03*
%TO.P,J4,4,Pin_4*%
%TO.N,Net-(A2-Pad23)*%
X118110000Y-74905000D03*
%TO.P,J4,5,Pin_5*%
%TO.N,GND*%
X120650000Y-74905000D03*
%TO.P,J4,6,Pin_6*%
%TO.N,unconnected-(J4-Pad6)*%
X123190000Y-74905000D03*
%TO.P,J4,7,Pin_7*%
%TO.N,Net-(C4-Pad1)*%
X125730000Y-74905000D03*
%TO.P,J4,8,Pin_8*%
%TO.N,unconnected-(J4-Pad8)*%
X128270000Y-74905000D03*
%TO.P,J4,9,Pin_9*%
%TO.N,unconnected-(J4-Pad9)*%
X130810000Y-74905000D03*
%TO.P,J4,10,Pin_10*%
%TO.N,unconnected-(J4-Pad10)*%
X133350000Y-74905000D03*
%TD*%
D12*
%TO.P,Q2,1,E*%
%TO.N,Net-(Q2-Pad1)*%
X114530000Y-52130000D03*
D13*
%TO.P,Q2,2,B*%
%TO.N,Net-(Q2-Pad2)*%
X114530000Y-53400000D03*
%TO.P,Q2,3,C*%
%TO.N,Net-(A1-Pad3)*%
X114530000Y-54670000D03*
%TD*%
D10*
%TO.P,R1,1*%
%TO.N,Net-(Q1-Pad2)*%
X119610000Y-57210000D03*
D11*
%TO.P,R1,2*%
%TO.N,Net-(A2-Pad5)*%
X119610000Y-67370000D03*
%TD*%
D18*
%TO.P,C1,1*%
%TO.N,Net-(A1-Pad1)*%
X107629888Y-149860000D03*
D10*
%TO.P,C1,2*%
%TO.N,GND*%
X109629888Y-149860000D03*
%TD*%
D19*
%TO.P,J1,1,Pin_1*%
%TO.N,unconnected-(J1-Pad1)*%
X109410000Y-159452744D03*
D20*
%TO.P,J1,2,Pin_2*%
%TO.N,GND*%
X114410000Y-159452744D03*
%TO.P,J1,3,Pin_3*%
%TO.N,/Vin*%
X119410000Y-159452744D03*
%TO.P,J1,4,Pin_4*%
%TO.N,GND*%
X124410000Y-159452744D03*
%TO.P,J1,5,Pin_5*%
%TO.N,/Rx*%
X129410000Y-159452744D03*
%TO.P,J1,6,Pin_6*%
%TO.N,/Tx*%
X134410000Y-159452744D03*
%TD*%
D18*
%TO.P,A2,1,D1/TX*%
%TO.N,Net-(A2-Pad1)*%
X114300000Y-82550000D03*
D11*
%TO.P,A2,2,D0/RX*%
%TO.N,Net-(A2-Pad2)*%
X114300000Y-85090000D03*
%TO.P,A2,3,~{RESET}*%
%TO.N,unconnected-(A2-Pad3)*%
X114300000Y-87630000D03*
%TO.P,A2,4,GND*%
%TO.N,unconnected-(A2-Pad4)*%
X114300000Y-90170000D03*
%TO.P,A2,5,D2*%
%TO.N,Net-(A2-Pad5)*%
X114300000Y-92710000D03*
%TO.P,A2,6,D3*%
%TO.N,Net-(A2-Pad6)*%
X114300000Y-95250000D03*
%TO.P,A2,7,D4*%
%TO.N,Net-(A2-Pad7)*%
X114300000Y-97790000D03*
%TO.P,A2,8,D5*%
%TO.N,unconnected-(A2-Pad8)*%
X114300000Y-100330000D03*
%TO.P,A2,9,D6*%
%TO.N,unconnected-(A2-Pad9)*%
X114300000Y-102870000D03*
%TO.P,A2,10,D7*%
%TO.N,unconnected-(A2-Pad10)*%
X114300000Y-105410000D03*
%TO.P,A2,11,D8*%
%TO.N,unconnected-(A2-Pad11)*%
X114300000Y-107950000D03*
%TO.P,A2,12,D9*%
%TO.N,unconnected-(A2-Pad12)*%
X114300000Y-110490000D03*
%TO.P,A2,13,D10*%
%TO.N,unconnected-(A2-Pad13)*%
X114300000Y-113030000D03*
%TO.P,A2,14,D11*%
%TO.N,unconnected-(A2-Pad14)*%
X114300000Y-115570000D03*
%TO.P,A2,15,D12*%
%TO.N,unconnected-(A2-Pad15)*%
X114300000Y-118110000D03*
%TO.P,A2,16,D13*%
%TO.N,unconnected-(A2-Pad16)*%
X129540000Y-118110000D03*
%TO.P,A2,17,3V3*%
%TO.N,unconnected-(A2-Pad17)*%
X129540000Y-115570000D03*
%TO.P,A2,18,AREF*%
%TO.N,unconnected-(A2-Pad18)*%
X129540000Y-113030000D03*
%TO.P,A2,19,A0*%
%TO.N,unconnected-(A2-Pad19)*%
X129540000Y-110490000D03*
%TO.P,A2,20,A1*%
%TO.N,unconnected-(A2-Pad20)*%
X129540000Y-107950000D03*
%TO.P,A2,21,A2*%
%TO.N,unconnected-(A2-Pad21)*%
X129540000Y-105410000D03*
%TO.P,A2,22,A3*%
%TO.N,unconnected-(A2-Pad22)*%
X129540000Y-102870000D03*
%TO.P,A2,23,A4*%
%TO.N,Net-(A2-Pad23)*%
X129540000Y-100330000D03*
%TO.P,A2,24,A5*%
%TO.N,Net-(A2-Pad24)*%
X129540000Y-97790000D03*
%TO.P,A2,25,A6*%
%TO.N,unconnected-(A2-Pad25)*%
X129540000Y-95250000D03*
%TO.P,A2,26,A7*%
%TO.N,unconnected-(A2-Pad26)*%
X129540000Y-92710000D03*
%TO.P,A2,27,+5V*%
%TO.N,Net-(A1-Pad3)*%
X129540000Y-90170000D03*
%TO.P,A2,28,~{RESET}*%
%TO.N,unconnected-(A2-Pad28)*%
X129540000Y-87630000D03*
%TO.P,A2,29,GND*%
%TO.N,GND*%
X129540000Y-85090000D03*
%TO.P,A2,30,VIN*%
%TO.N,unconnected-(A2-Pad30)*%
X129540000Y-82550000D03*
%TD*%
D16*
%TO.P,J3,1,Pin_1*%
%TO.N,/Tx*%
X110520000Y-142215000D03*
D17*
%TO.P,J3,2,Pin_2*%
%TO.N,unconnected-(J3-Pad2)*%
X113060000Y-142215000D03*
%TO.P,J3,3,Pin_3*%
%TO.N,/Rx*%
X115600000Y-142215000D03*
%TO.P,J3,4,Pin_4*%
%TO.N,unconnected-(J3-Pad4)*%
X118140000Y-142215000D03*
%TO.P,J3,5,Pin_5*%
%TO.N,Net-(A1-Pad3)*%
X120680000Y-142215000D03*
%TO.P,J3,6,Pin_6*%
%TO.N,GND*%
X123220000Y-142215000D03*
%TO.P,J3,7,Pin_7*%
%TO.N,Net-(A2-Pad1)*%
X125760000Y-142215000D03*
%TO.P,J3,8,Pin_8*%
%TO.N,unconnected-(J3-Pad8)*%
X128300000Y-142215000D03*
%TO.P,J3,9,Pin_9*%
%TO.N,Net-(A2-Pad2)*%
X130840000Y-142215000D03*
%TO.P,J3,10,Pin_10*%
%TO.N,unconnected-(J3-Pad10)*%
X133380000Y-142215000D03*
%TD*%
D21*
%TO.P,A1,1,VI*%
%TO.N,Net-(A1-Pad1)*%
X119380000Y-153035000D03*
D22*
%TO.P,A1,2,GND*%
%TO.N,GND*%
X121920000Y-153035000D03*
%TO.P,A1,3,VO*%
%TO.N,Net-(A1-Pad3)*%
X124460000Y-153035000D03*
%TD*%
D10*
%TO.P,C3,1*%
%TO.N,Net-(C3-Pad1)*%
X125790000Y-67310000D03*
D11*
%TO.P,C3,2*%
%TO.N,Net-(C3-Pad2)*%
X133290000Y-67310000D03*
%TD*%
D12*
%TO.P,Q3,1,E*%
%TO.N,Net-(Q3-Pad1)*%
X109450000Y-52130000D03*
D13*
%TO.P,Q3,2,B*%
%TO.N,Net-(Q3-Pad2)*%
X109450000Y-53400000D03*
%TO.P,Q3,3,C*%
%TO.N,Net-(A1-Pad3)*%
X109450000Y-54670000D03*
%TD*%
D10*
%TO.P,C4,1*%
%TO.N,Net-(C4-Pad1)*%
X132080000Y-43180000D03*
D11*
%TO.P,C4,2*%
%TO.N,GND*%
X132080000Y-35680000D03*
%TD*%
D10*
%TO.P,R3,1*%
%TO.N,Net-(Q3-Pad2)*%
X109450000Y-57210000D03*
D11*
%TO.P,R3,2*%
%TO.N,Net-(A2-Pad7)*%
X109450000Y-67370000D03*
%TD*%
D10*
%TO.P,R7,1*%
%TO.N,Net-(C3-Pad2)*%
X134610000Y-59750000D03*
D11*
%TO.P,R7,2*%
%TO.N,Net-(C3-Pad1)*%
X124450000Y-59750000D03*
%TD*%
D10*
%TO.P,R8,1*%
%TO.N,Net-(C3-Pad2)*%
X125730000Y-44450000D03*
D11*
%TO.P,R8,2*%
%TO.N,Net-(C4-Pad1)*%
X125730000Y-34290000D03*
%TD*%
D10*
%TO.P,C2,1*%
%TO.N,GND*%
X128320000Y-149792744D03*
D11*
%TO.P,C2,2*%
%TO.N,Net-(A1-Pad3)*%
X135820000Y-149792744D03*
%TD*%
D19*
%TO.P,J2,1,Pin_1*%
%TO.N,GND*%
X109420000Y-27440000D03*
D20*
%TO.P,J2,2,Pin_2*%
%TO.N,Net-(C3-Pad1)*%
X114420000Y-27440000D03*
%TO.P,J2,3,Pin_3*%
%TO.N,/LED2*%
X119420000Y-27440000D03*
%TO.P,J2,4,Pin_4*%
%TO.N,/LED1*%
X124420000Y-27440000D03*
%TO.P,J2,5,Pin_5*%
%TO.N,/LED0*%
X129420000Y-27440000D03*
%TO.P,J2,6,Pin_6*%
%TO.N,GND*%
X134420000Y-27440000D03*
%TD*%
D10*
%TO.P,R6,1*%
%TO.N,/LED1*%
X114530000Y-36890000D03*
D11*
%TO.P,R6,2*%
%TO.N,Net-(Q2-Pad1)*%
X114530000Y-47050000D03*
%TD*%
D18*
%TO.P,U3,1*%
%TO.N,Net-(C3-Pad2)*%
X125730000Y-48290000D03*
D11*
%TO.P,U3,2,-*%
%TO.N,Net-(C3-Pad1)*%
X125730000Y-50830000D03*
%TO.P,U3,3,+*%
%TO.N,GND*%
X125730000Y-53370000D03*
%TO.P,U3,4,V-*%
X125730000Y-55910000D03*
%TO.P,U3,5*%
%TO.N,N/C*%
X133350000Y-55910000D03*
%TO.P,U3,6*%
X133350000Y-53370000D03*
%TO.P,U3,7*%
X133350000Y-50830000D03*
%TO.P,U3,8,V+*%
%TO.N,Net-(A1-Pad3)*%
X133350000Y-48290000D03*
%TD*%
D10*
%TO.P,R2,1*%
%TO.N,Net-(Q2-Pad2)*%
X114530000Y-57210000D03*
D11*
%TO.P,R2,2*%
%TO.N,Net-(A2-Pad6)*%
X114530000Y-67370000D03*
%TD*%
D23*
%TO.N,GND*%
X132080000Y-134233990D02*
X135890000Y-138043990D01*
X135890000Y-138043990D02*
X135890000Y-144780000D01*
X120650000Y-68369700D02*
X125730000Y-63289700D01*
X120650000Y-76200000D02*
X129540000Y-85090000D01*
X133350000Y-147320000D02*
X128270000Y-147320000D01*
X130955489Y-38649511D02*
X132080000Y-37525000D01*
X129540000Y-85090000D02*
X130810000Y-85090000D01*
X125730000Y-63289700D02*
X125730000Y-55910000D01*
X135890000Y-144780000D02*
X133350000Y-147320000D01*
X120650000Y-74905000D02*
X120650000Y-76200000D01*
X132080000Y-37525000D02*
X132080000Y-35680000D01*
X120650000Y-74905000D02*
X120650000Y-68369700D01*
X113030000Y-74905000D02*
X114204511Y-76079511D01*
X130955489Y-48144511D02*
X130955489Y-38649511D01*
X128270000Y-147320000D02*
X128270000Y-147265000D01*
X123220000Y-142215000D02*
X128320000Y-147315000D01*
X132080000Y-86360000D02*
X132080000Y-134233990D01*
X128270000Y-147265000D02*
X123220000Y-142215000D01*
X130810000Y-85090000D02*
X132080000Y-86360000D01*
X119475489Y-76079511D02*
X120650000Y-74905000D01*
X125730000Y-53370000D02*
X130955489Y-48144511D01*
X128320000Y-147315000D02*
X128320000Y-149792744D01*
X114204511Y-76079511D02*
X119475489Y-76079511D01*
%TO.N,/Vin*%
X113665000Y-153707744D02*
X113665000Y-152182183D01*
X119410000Y-159452744D02*
X113665000Y-153707744D01*
%TO.N,Net-(C4-Pad1)*%
X126975000Y-73660000D02*
X125730000Y-74905000D01*
X128530300Y-73660000D02*
X126975000Y-73660000D01*
X135734511Y-46834511D02*
X135734511Y-66455789D01*
X132080000Y-43180000D02*
X135734511Y-46834511D01*
X135734511Y-66455789D02*
X128530300Y-73660000D01*
%TO.N,Net-(A1-Pad3)*%
X111855489Y-73539511D02*
X110490000Y-74905000D01*
X119610000Y-54670000D02*
X114530000Y-54670000D01*
X124460000Y-153035000D02*
X124460000Y-149802744D01*
X124460000Y-149802744D02*
X120680000Y-146022744D01*
X114530000Y-54670000D02*
X109450000Y-54670000D01*
X120680000Y-142215000D02*
X120680000Y-146022744D01*
X120680000Y-99030000D02*
X128270000Y-91440000D01*
X120680000Y-142215000D02*
X120680000Y-99030000D01*
X109450000Y-54670000D02*
X111855489Y-57075489D01*
X125755000Y-90170000D02*
X110490000Y-74905000D01*
X129540000Y-90170000D02*
X125755000Y-90170000D01*
X133350000Y-48290000D02*
X126970000Y-54670000D01*
X128270000Y-91440000D02*
X129540000Y-90170000D01*
X111855489Y-57075489D02*
X111855489Y-73539511D01*
X126970000Y-54670000D02*
X119610000Y-54670000D01*
%TO.N,Net-(A1-Pad1)*%
X107629888Y-149860000D02*
X109380377Y-151610489D01*
X113665000Y-147102183D02*
X110387705Y-147102183D01*
X117102672Y-150757672D02*
X119380000Y-153035000D01*
X111387672Y-151610489D02*
X112240489Y-150757672D01*
X109380377Y-151610489D02*
X111387672Y-151610489D01*
X112240489Y-150757672D02*
X117102672Y-150757672D01*
X110387705Y-147102183D02*
X107629888Y-149860000D01*
%TD*%
M02*
