%TF.GenerationSoftware,KiCad,Pcbnew,(6.0.5-0)*%
%TF.CreationDate,2022-07-08T10:13:23-04:00*%
%TF.ProjectId,OBS,4f42532e-6b69-4636-9164-5f7063625858,rev?*%
%TF.SameCoordinates,Original*%
%TF.FileFunction,Legend,Top*%
%TF.FilePolarity,Positive*%
%FSLAX46Y46*%
G04 Gerber Fmt 4.6, Leading zero omitted, Abs format (unit mm)*
G04 Created by KiCad (PCBNEW (6.0.5-0)) date 2022-07-08 10:13:23*
%MOMM*%
%LPD*%
G01*
G04 APERTURE LIST*
%ADD10C,0.120000*%
%ADD11C,0.150000*%
G04 APERTURE END LIST*
D10*
X109220000Y-143510000D02*
X134620000Y-143510000D01*
X134620000Y-143510000D02*
X134620000Y-126365000D01*
X134620000Y-126365000D02*
X109220000Y-126365000D01*
X109220000Y-126365000D02*
X109220000Y-143510000D01*
D11*
X123698095Y-165235000D02*
X123602857Y-165187380D01*
X123460000Y-165187380D01*
X123317142Y-165235000D01*
X123221904Y-165330238D01*
X123174285Y-165425476D01*
X123126666Y-165615952D01*
X123126666Y-165758809D01*
X123174285Y-165949285D01*
X123221904Y-166044523D01*
X123317142Y-166139761D01*
X123460000Y-166187380D01*
X123555238Y-166187380D01*
X123698095Y-166139761D01*
X123745714Y-166092142D01*
X123745714Y-165758809D01*
X123555238Y-165758809D01*
X124174285Y-166187380D02*
X124174285Y-165187380D01*
X124745714Y-166187380D01*
X124745714Y-165187380D01*
X125221904Y-166187380D02*
X125221904Y-165187380D01*
X125460000Y-165187380D01*
X125602857Y-165235000D01*
X125698095Y-165330238D01*
X125745714Y-165425476D01*
X125793333Y-165615952D01*
X125793333Y-165758809D01*
X125745714Y-165949285D01*
X125698095Y-166044523D01*
X125602857Y-166139761D01*
X125460000Y-166187380D01*
X125221904Y-166187380D01*
X132000714Y-108116666D02*
X132476904Y-108116666D01*
X131905476Y-108402380D02*
X132238809Y-107402380D01*
X132572142Y-108402380D01*
X133429285Y-108402380D02*
X132857857Y-108402380D01*
X133143571Y-108402380D02*
X133143571Y-107402380D01*
X133048333Y-107545238D01*
X132953095Y-107640476D01*
X132857857Y-107688095D01*
X123340952Y-22677380D02*
X122864761Y-22677380D01*
X122864761Y-21677380D01*
X123674285Y-22153571D02*
X124007619Y-22153571D01*
X124150476Y-22677380D02*
X123674285Y-22677380D01*
X123674285Y-21677380D01*
X124150476Y-21677380D01*
X124579047Y-22677380D02*
X124579047Y-21677380D01*
X124817142Y-21677380D01*
X124960000Y-21725000D01*
X125055238Y-21820238D01*
X125102857Y-21915476D01*
X125150476Y-22105952D01*
X125150476Y-22248809D01*
X125102857Y-22439285D01*
X125055238Y-22534523D01*
X124960000Y-22629761D01*
X124817142Y-22677380D01*
X124579047Y-22677380D01*
X126102857Y-22677380D02*
X125531428Y-22677380D01*
X125817142Y-22677380D02*
X125817142Y-21677380D01*
X125721904Y-21820238D01*
X125626666Y-21915476D01*
X125531428Y-21963095D01*
X132000714Y-110656666D02*
X132476904Y-110656666D01*
X131905476Y-110942380D02*
X132238809Y-109942380D01*
X132572142Y-110942380D01*
X133095952Y-109942380D02*
X133191190Y-109942380D01*
X133286428Y-109990000D01*
X133334047Y-110037619D01*
X133381666Y-110132857D01*
X133429285Y-110323333D01*
X133429285Y-110561428D01*
X133381666Y-110751904D01*
X133334047Y-110847142D01*
X133286428Y-110894761D01*
X133191190Y-110942380D01*
X133095952Y-110942380D01*
X133000714Y-110894761D01*
X132953095Y-110847142D01*
X132905476Y-110751904D01*
X132857857Y-110561428D01*
X132857857Y-110323333D01*
X132905476Y-110132857D01*
X132953095Y-110037619D01*
X133000714Y-109990000D01*
X133095952Y-109942380D01*
X131262380Y-140025238D02*
X130786190Y-140358571D01*
X131262380Y-140596666D02*
X130262380Y-140596666D01*
X130262380Y-140215714D01*
X130310000Y-140120476D01*
X130357619Y-140072857D01*
X130452857Y-140025238D01*
X130595714Y-140025238D01*
X130690952Y-140072857D01*
X130738571Y-140120476D01*
X130786190Y-140215714D01*
X130786190Y-140596666D01*
X131262380Y-139072857D02*
X131262380Y-139644285D01*
X131262380Y-139358571D02*
X130262380Y-139358571D01*
X130405238Y-139453809D01*
X130500476Y-139549047D01*
X130548095Y-139644285D01*
X130262380Y-138453809D02*
X130262380Y-138263333D01*
X130310000Y-138168095D01*
X130405238Y-138072857D01*
X130595714Y-138025238D01*
X130929047Y-138025238D01*
X131119523Y-138072857D01*
X131214761Y-138168095D01*
X131262380Y-138263333D01*
X131262380Y-138453809D01*
X131214761Y-138549047D01*
X131119523Y-138644285D01*
X130929047Y-138691904D01*
X130595714Y-138691904D01*
X130405238Y-138644285D01*
X130310000Y-138549047D01*
X130262380Y-138453809D01*
X130262380Y-137596666D02*
X131071904Y-137596666D01*
X131167142Y-137549047D01*
X131214761Y-137501428D01*
X131262380Y-137406190D01*
X131262380Y-137215714D01*
X131214761Y-137120476D01*
X131167142Y-137072857D01*
X131071904Y-137025238D01*
X130262380Y-137025238D01*
X130262380Y-136691904D02*
X130262380Y-136120476D01*
X131262380Y-136406190D02*
X130262380Y-136406190D01*
X133802380Y-140025238D02*
X133326190Y-140358571D01*
X133802380Y-140596666D02*
X132802380Y-140596666D01*
X132802380Y-140215714D01*
X132850000Y-140120476D01*
X132897619Y-140072857D01*
X132992857Y-140025238D01*
X133135714Y-140025238D01*
X133230952Y-140072857D01*
X133278571Y-140120476D01*
X133326190Y-140215714D01*
X133326190Y-140596666D01*
X132897619Y-139644285D02*
X132850000Y-139596666D01*
X132802380Y-139501428D01*
X132802380Y-139263333D01*
X132850000Y-139168095D01*
X132897619Y-139120476D01*
X132992857Y-139072857D01*
X133088095Y-139072857D01*
X133230952Y-139120476D01*
X133802380Y-139691904D01*
X133802380Y-139072857D01*
X132802380Y-138453809D02*
X132802380Y-138263333D01*
X132850000Y-138168095D01*
X132945238Y-138072857D01*
X133135714Y-138025238D01*
X133469047Y-138025238D01*
X133659523Y-138072857D01*
X133754761Y-138168095D01*
X133802380Y-138263333D01*
X133802380Y-138453809D01*
X133754761Y-138549047D01*
X133659523Y-138644285D01*
X133469047Y-138691904D01*
X133135714Y-138691904D01*
X132945238Y-138644285D01*
X132850000Y-138549047D01*
X132802380Y-138453809D01*
X132802380Y-137596666D02*
X133611904Y-137596666D01*
X133707142Y-137549047D01*
X133754761Y-137501428D01*
X133802380Y-137406190D01*
X133802380Y-137215714D01*
X133754761Y-137120476D01*
X133707142Y-137072857D01*
X133611904Y-137025238D01*
X132802380Y-137025238D01*
X132802380Y-136691904D02*
X132802380Y-136120476D01*
X133802380Y-136406190D02*
X132802380Y-136406190D01*
X136691666Y-143525000D02*
X136691666Y-143048809D01*
X136977380Y-143620238D02*
X135977380Y-143286904D01*
X136977380Y-142953571D01*
X136977380Y-142620238D02*
X135977380Y-142620238D01*
X135977380Y-142382142D01*
X136025000Y-142239285D01*
X136120238Y-142144047D01*
X136215476Y-142096428D01*
X136405952Y-142048809D01*
X136548809Y-142048809D01*
X136739285Y-142096428D01*
X136834523Y-142144047D01*
X136929761Y-142239285D01*
X136977380Y-142382142D01*
X136977380Y-142620238D01*
X136691666Y-141667857D02*
X136691666Y-141191666D01*
X136977380Y-141763095D02*
X135977380Y-141429761D01*
X136977380Y-141096428D01*
X136453571Y-140429761D02*
X136453571Y-140763095D01*
X136977380Y-140763095D02*
X135977380Y-140763095D01*
X135977380Y-140286904D01*
X136977380Y-139334523D02*
X136501190Y-139667857D01*
X136977380Y-139905952D02*
X135977380Y-139905952D01*
X135977380Y-139525000D01*
X136025000Y-139429761D01*
X136072619Y-139382142D01*
X136167857Y-139334523D01*
X136310714Y-139334523D01*
X136405952Y-139382142D01*
X136453571Y-139429761D01*
X136501190Y-139525000D01*
X136501190Y-139905952D01*
X135977380Y-138905952D02*
X136786904Y-138905952D01*
X136882142Y-138858333D01*
X136929761Y-138810714D01*
X136977380Y-138715476D01*
X136977380Y-138525000D01*
X136929761Y-138429761D01*
X136882142Y-138382142D01*
X136786904Y-138334523D01*
X135977380Y-138334523D01*
X136977380Y-137858333D02*
X135977380Y-137858333D01*
X135977380Y-137525000D02*
X135977380Y-136953571D01*
X136977380Y-137239285D02*
X135977380Y-137239285D01*
X137072619Y-136858333D02*
X137072619Y-136096428D01*
X136977380Y-135858333D02*
X135977380Y-135858333D01*
X136691666Y-135525000D01*
X135977380Y-135191666D01*
X136977380Y-135191666D01*
X136691666Y-134763095D02*
X136691666Y-134286904D01*
X136977380Y-134858333D02*
X135977380Y-134525000D01*
X136977380Y-134191666D01*
X135977380Y-133953571D02*
X136977380Y-133286904D01*
X135977380Y-133286904D02*
X136977380Y-133953571D01*
X135977380Y-133001190D02*
X135977380Y-132382142D01*
X136358333Y-132715476D01*
X136358333Y-132572619D01*
X136405952Y-132477380D01*
X136453571Y-132429761D01*
X136548809Y-132382142D01*
X136786904Y-132382142D01*
X136882142Y-132429761D01*
X136929761Y-132477380D01*
X136977380Y-132572619D01*
X136977380Y-132858333D01*
X136929761Y-132953571D01*
X136882142Y-133001190D01*
X136072619Y-132001190D02*
X136025000Y-131953571D01*
X135977380Y-131858333D01*
X135977380Y-131620238D01*
X136025000Y-131525000D01*
X136072619Y-131477380D01*
X136167857Y-131429761D01*
X136263095Y-131429761D01*
X136405952Y-131477380D01*
X136977380Y-132048809D01*
X136977380Y-131429761D01*
X135977380Y-131096428D02*
X135977380Y-130477380D01*
X136358333Y-130810714D01*
X136358333Y-130667857D01*
X136405952Y-130572619D01*
X136453571Y-130525000D01*
X136548809Y-130477380D01*
X136786904Y-130477380D01*
X136882142Y-130525000D01*
X136929761Y-130572619D01*
X136977380Y-130667857D01*
X136977380Y-130953571D01*
X136929761Y-131048809D01*
X136882142Y-131096428D01*
X136072619Y-130096428D02*
X136025000Y-130048809D01*
X135977380Y-129953571D01*
X135977380Y-129715476D01*
X136025000Y-129620238D01*
X136072619Y-129572619D01*
X136167857Y-129525000D01*
X136263095Y-129525000D01*
X136405952Y-129572619D01*
X136977380Y-130144047D01*
X136977380Y-129525000D01*
X131691190Y-82002380D02*
X132024523Y-83002380D01*
X132357857Y-82002380D01*
X132691190Y-83002380D02*
X132691190Y-82335714D01*
X132691190Y-82002380D02*
X132643571Y-82050000D01*
X132691190Y-82097619D01*
X132738809Y-82050000D01*
X132691190Y-82002380D01*
X132691190Y-82097619D01*
X133167380Y-82335714D02*
X133167380Y-83002380D01*
X133167380Y-82430952D02*
X133215000Y-82383333D01*
X133310238Y-82335714D01*
X133453095Y-82335714D01*
X133548333Y-82383333D01*
X133595952Y-82478571D01*
X133595952Y-83002380D01*
X128420952Y-22677380D02*
X127944761Y-22677380D01*
X127944761Y-21677380D01*
X128754285Y-22153571D02*
X129087619Y-22153571D01*
X129230476Y-22677380D02*
X128754285Y-22677380D01*
X128754285Y-21677380D01*
X129230476Y-21677380D01*
X129659047Y-22677380D02*
X129659047Y-21677380D01*
X129897142Y-21677380D01*
X130040000Y-21725000D01*
X130135238Y-21820238D01*
X130182857Y-21915476D01*
X130230476Y-22105952D01*
X130230476Y-22248809D01*
X130182857Y-22439285D01*
X130135238Y-22534523D01*
X130040000Y-22629761D01*
X129897142Y-22677380D01*
X129659047Y-22677380D01*
X130611428Y-21772619D02*
X130659047Y-21725000D01*
X130754285Y-21677380D01*
X130992380Y-21677380D01*
X131087619Y-21725000D01*
X131135238Y-21772619D01*
X131182857Y-21867857D01*
X131182857Y-21963095D01*
X131135238Y-22105952D01*
X130563809Y-22677380D01*
X131182857Y-22677380D01*
X133858095Y-21725000D02*
X133762857Y-21677380D01*
X133620000Y-21677380D01*
X133477142Y-21725000D01*
X133381904Y-21820238D01*
X133334285Y-21915476D01*
X133286666Y-22105952D01*
X133286666Y-22248809D01*
X133334285Y-22439285D01*
X133381904Y-22534523D01*
X133477142Y-22629761D01*
X133620000Y-22677380D01*
X133715238Y-22677380D01*
X133858095Y-22629761D01*
X133905714Y-22582142D01*
X133905714Y-22248809D01*
X133715238Y-22248809D01*
X134334285Y-22677380D02*
X134334285Y-21677380D01*
X134905714Y-22677380D01*
X134905714Y-21677380D01*
X135381904Y-22677380D02*
X135381904Y-21677380D01*
X135620000Y-21677380D01*
X135762857Y-21725000D01*
X135858095Y-21820238D01*
X135905714Y-21915476D01*
X135953333Y-22105952D01*
X135953333Y-22248809D01*
X135905714Y-22439285D01*
X135858095Y-22534523D01*
X135762857Y-22629761D01*
X135620000Y-22677380D01*
X135381904Y-22677380D01*
X113538095Y-165235000D02*
X113442857Y-165187380D01*
X113300000Y-165187380D01*
X113157142Y-165235000D01*
X113061904Y-165330238D01*
X113014285Y-165425476D01*
X112966666Y-165615952D01*
X112966666Y-165758809D01*
X113014285Y-165949285D01*
X113061904Y-166044523D01*
X113157142Y-166139761D01*
X113300000Y-166187380D01*
X113395238Y-166187380D01*
X113538095Y-166139761D01*
X113585714Y-166092142D01*
X113585714Y-165758809D01*
X113395238Y-165758809D01*
X114014285Y-166187380D02*
X114014285Y-165187380D01*
X114585714Y-166187380D01*
X114585714Y-165187380D01*
X115061904Y-166187380D02*
X115061904Y-165187380D01*
X115300000Y-165187380D01*
X115442857Y-165235000D01*
X115538095Y-165330238D01*
X115585714Y-165425476D01*
X115633333Y-165615952D01*
X115633333Y-165758809D01*
X115585714Y-165949285D01*
X115538095Y-166044523D01*
X115442857Y-166139761D01*
X115300000Y-166187380D01*
X115061904Y-166187380D01*
X110577380Y-88082380D02*
X110244047Y-87606190D01*
X110005952Y-88082380D02*
X110005952Y-87082380D01*
X110386904Y-87082380D01*
X110482142Y-87130000D01*
X110529761Y-87177619D01*
X110577380Y-87272857D01*
X110577380Y-87415714D01*
X110529761Y-87510952D01*
X110482142Y-87558571D01*
X110386904Y-87606190D01*
X110005952Y-87606190D01*
X110958333Y-88034761D02*
X111101190Y-88082380D01*
X111339285Y-88082380D01*
X111434523Y-88034761D01*
X111482142Y-87987142D01*
X111529761Y-87891904D01*
X111529761Y-87796666D01*
X111482142Y-87701428D01*
X111434523Y-87653809D01*
X111339285Y-87606190D01*
X111148809Y-87558571D01*
X111053571Y-87510952D01*
X111005952Y-87463333D01*
X110958333Y-87368095D01*
X110958333Y-87272857D01*
X111005952Y-87177619D01*
X111053571Y-87130000D01*
X111148809Y-87082380D01*
X111386904Y-87082380D01*
X111529761Y-87130000D01*
X111815476Y-87082380D02*
X112386904Y-87082380D01*
X112101190Y-88082380D02*
X112101190Y-87082380D01*
X110386904Y-100782380D02*
X110386904Y-99782380D01*
X110625000Y-99782380D01*
X110767857Y-99830000D01*
X110863095Y-99925238D01*
X110910714Y-100020476D01*
X110958333Y-100210952D01*
X110958333Y-100353809D01*
X110910714Y-100544285D01*
X110863095Y-100639523D01*
X110767857Y-100734761D01*
X110625000Y-100782380D01*
X110386904Y-100782380D01*
X111863095Y-99782380D02*
X111386904Y-99782380D01*
X111339285Y-100258571D01*
X111386904Y-100210952D01*
X111482142Y-100163333D01*
X111720238Y-100163333D01*
X111815476Y-100210952D01*
X111863095Y-100258571D01*
X111910714Y-100353809D01*
X111910714Y-100591904D01*
X111863095Y-100687142D01*
X111815476Y-100734761D01*
X111720238Y-100782380D01*
X111482142Y-100782380D01*
X111386904Y-100734761D01*
X111339285Y-100687142D01*
X112482380Y-140620476D02*
X112482380Y-140049047D01*
X113482380Y-140334761D02*
X112482380Y-140334761D01*
X112577619Y-139763333D02*
X112530000Y-139715714D01*
X112482380Y-139620476D01*
X112482380Y-139382380D01*
X112530000Y-139287142D01*
X112577619Y-139239523D01*
X112672857Y-139191904D01*
X112768095Y-139191904D01*
X112910952Y-139239523D01*
X113482380Y-139810952D01*
X113482380Y-139191904D01*
X112482380Y-138572857D02*
X112482380Y-138382380D01*
X112530000Y-138287142D01*
X112625238Y-138191904D01*
X112815714Y-138144285D01*
X113149047Y-138144285D01*
X113339523Y-138191904D01*
X113434761Y-138287142D01*
X113482380Y-138382380D01*
X113482380Y-138572857D01*
X113434761Y-138668095D01*
X113339523Y-138763333D01*
X113149047Y-138810952D01*
X112815714Y-138810952D01*
X112625238Y-138763333D01*
X112530000Y-138668095D01*
X112482380Y-138572857D01*
X112482380Y-137715714D02*
X113291904Y-137715714D01*
X113387142Y-137668095D01*
X113434761Y-137620476D01*
X113482380Y-137525238D01*
X113482380Y-137334761D01*
X113434761Y-137239523D01*
X113387142Y-137191904D01*
X113291904Y-137144285D01*
X112482380Y-137144285D01*
X112482380Y-136810952D02*
X112482380Y-136239523D01*
X113482380Y-136525238D02*
X112482380Y-136525238D01*
X115974761Y-72945476D02*
X116022380Y-72802619D01*
X116022380Y-72564523D01*
X115974761Y-72469285D01*
X115927142Y-72421666D01*
X115831904Y-72374047D01*
X115736666Y-72374047D01*
X115641428Y-72421666D01*
X115593809Y-72469285D01*
X115546190Y-72564523D01*
X115498571Y-72755000D01*
X115450952Y-72850238D01*
X115403333Y-72897857D01*
X115308095Y-72945476D01*
X115212857Y-72945476D01*
X115117619Y-72897857D01*
X115070000Y-72850238D01*
X115022380Y-72755000D01*
X115022380Y-72516904D01*
X115070000Y-72374047D01*
X115927142Y-71374047D02*
X115974761Y-71421666D01*
X116022380Y-71564523D01*
X116022380Y-71659761D01*
X115974761Y-71802619D01*
X115879523Y-71897857D01*
X115784285Y-71945476D01*
X115593809Y-71993095D01*
X115450952Y-71993095D01*
X115260476Y-71945476D01*
X115165238Y-71897857D01*
X115070000Y-71802619D01*
X115022380Y-71659761D01*
X115022380Y-71564523D01*
X115070000Y-71421666D01*
X115117619Y-71374047D01*
X116022380Y-70469285D02*
X116022380Y-70945476D01*
X115022380Y-70945476D01*
X131953095Y-84590000D02*
X131857857Y-84542380D01*
X131715000Y-84542380D01*
X131572142Y-84590000D01*
X131476904Y-84685238D01*
X131429285Y-84780476D01*
X131381666Y-84970952D01*
X131381666Y-85113809D01*
X131429285Y-85304285D01*
X131476904Y-85399523D01*
X131572142Y-85494761D01*
X131715000Y-85542380D01*
X131810238Y-85542380D01*
X131953095Y-85494761D01*
X132000714Y-85447142D01*
X132000714Y-85113809D01*
X131810238Y-85113809D01*
X132429285Y-85542380D02*
X132429285Y-84542380D01*
X133000714Y-85542380D01*
X133000714Y-84542380D01*
X133476904Y-85542380D02*
X133476904Y-84542380D01*
X133715000Y-84542380D01*
X133857857Y-84590000D01*
X133953095Y-84685238D01*
X134000714Y-84780476D01*
X134048333Y-84970952D01*
X134048333Y-85113809D01*
X134000714Y-85304285D01*
X133953095Y-85399523D01*
X133857857Y-85494761D01*
X133715000Y-85542380D01*
X133476904Y-85542380D01*
X132000714Y-95416666D02*
X132476904Y-95416666D01*
X131905476Y-95702380D02*
X132238809Y-94702380D01*
X132572142Y-95702380D01*
X133334047Y-94702380D02*
X133143571Y-94702380D01*
X133048333Y-94750000D01*
X133000714Y-94797619D01*
X132905476Y-94940476D01*
X132857857Y-95130952D01*
X132857857Y-95511904D01*
X132905476Y-95607142D01*
X132953095Y-95654761D01*
X133048333Y-95702380D01*
X133238809Y-95702380D01*
X133334047Y-95654761D01*
X133381666Y-95607142D01*
X133429285Y-95511904D01*
X133429285Y-95273809D01*
X133381666Y-95178571D01*
X133334047Y-95130952D01*
X133238809Y-95083333D01*
X133048333Y-95083333D01*
X132953095Y-95130952D01*
X132905476Y-95178571D01*
X132857857Y-95273809D01*
X132167380Y-88082380D02*
X131834047Y-87606190D01*
X131595952Y-88082380D02*
X131595952Y-87082380D01*
X131976904Y-87082380D01*
X132072142Y-87130000D01*
X132119761Y-87177619D01*
X132167380Y-87272857D01*
X132167380Y-87415714D01*
X132119761Y-87510952D01*
X132072142Y-87558571D01*
X131976904Y-87606190D01*
X131595952Y-87606190D01*
X132548333Y-88034761D02*
X132691190Y-88082380D01*
X132929285Y-88082380D01*
X133024523Y-88034761D01*
X133072142Y-87987142D01*
X133119761Y-87891904D01*
X133119761Y-87796666D01*
X133072142Y-87701428D01*
X133024523Y-87653809D01*
X132929285Y-87606190D01*
X132738809Y-87558571D01*
X132643571Y-87510952D01*
X132595952Y-87463333D01*
X132548333Y-87368095D01*
X132548333Y-87272857D01*
X132595952Y-87177619D01*
X132643571Y-87130000D01*
X132738809Y-87082380D01*
X132976904Y-87082380D01*
X133119761Y-87130000D01*
X133405476Y-87082380D02*
X133976904Y-87082380D01*
X133691190Y-88082380D02*
X133691190Y-87082380D01*
X132000714Y-105576666D02*
X132476904Y-105576666D01*
X131905476Y-105862380D02*
X132238809Y-104862380D01*
X132572142Y-105862380D01*
X132857857Y-104957619D02*
X132905476Y-104910000D01*
X133000714Y-104862380D01*
X133238809Y-104862380D01*
X133334047Y-104910000D01*
X133381666Y-104957619D01*
X133429285Y-105052857D01*
X133429285Y-105148095D01*
X133381666Y-105290952D01*
X132810238Y-105862380D01*
X133429285Y-105862380D01*
X109910714Y-118562380D02*
X109910714Y-117562380D01*
X110148809Y-117562380D01*
X110291666Y-117610000D01*
X110386904Y-117705238D01*
X110434523Y-117800476D01*
X110482142Y-117990952D01*
X110482142Y-118133809D01*
X110434523Y-118324285D01*
X110386904Y-118419523D01*
X110291666Y-118514761D01*
X110148809Y-118562380D01*
X109910714Y-118562380D01*
X111434523Y-118562380D02*
X110863095Y-118562380D01*
X111148809Y-118562380D02*
X111148809Y-117562380D01*
X111053571Y-117705238D01*
X110958333Y-117800476D01*
X110863095Y-117848095D01*
X111815476Y-117657619D02*
X111863095Y-117610000D01*
X111958333Y-117562380D01*
X112196428Y-117562380D01*
X112291666Y-117610000D01*
X112339285Y-117657619D01*
X112386904Y-117752857D01*
X112386904Y-117848095D01*
X112339285Y-117990952D01*
X111767857Y-118562380D01*
X112386904Y-118562380D01*
X110363095Y-89670000D02*
X110267857Y-89622380D01*
X110125000Y-89622380D01*
X109982142Y-89670000D01*
X109886904Y-89765238D01*
X109839285Y-89860476D01*
X109791666Y-90050952D01*
X109791666Y-90193809D01*
X109839285Y-90384285D01*
X109886904Y-90479523D01*
X109982142Y-90574761D01*
X110125000Y-90622380D01*
X110220238Y-90622380D01*
X110363095Y-90574761D01*
X110410714Y-90527142D01*
X110410714Y-90193809D01*
X110220238Y-90193809D01*
X110839285Y-90622380D02*
X110839285Y-89622380D01*
X111410714Y-90622380D01*
X111410714Y-89622380D01*
X111886904Y-90622380D02*
X111886904Y-89622380D01*
X112125000Y-89622380D01*
X112267857Y-89670000D01*
X112363095Y-89765238D01*
X112410714Y-89860476D01*
X112458333Y-90050952D01*
X112458333Y-90193809D01*
X112410714Y-90384285D01*
X112363095Y-90479523D01*
X112267857Y-90574761D01*
X112125000Y-90622380D01*
X111886904Y-90622380D01*
X110386904Y-95702380D02*
X110386904Y-94702380D01*
X110625000Y-94702380D01*
X110767857Y-94750000D01*
X110863095Y-94845238D01*
X110910714Y-94940476D01*
X110958333Y-95130952D01*
X110958333Y-95273809D01*
X110910714Y-95464285D01*
X110863095Y-95559523D01*
X110767857Y-95654761D01*
X110625000Y-95702380D01*
X110386904Y-95702380D01*
X111291666Y-94702380D02*
X111910714Y-94702380D01*
X111577380Y-95083333D01*
X111720238Y-95083333D01*
X111815476Y-95130952D01*
X111863095Y-95178571D01*
X111910714Y-95273809D01*
X111910714Y-95511904D01*
X111863095Y-95607142D01*
X111815476Y-95654761D01*
X111720238Y-95702380D01*
X111434523Y-95702380D01*
X111339285Y-95654761D01*
X111291666Y-95607142D01*
X112530000Y-72516904D02*
X112482380Y-72612142D01*
X112482380Y-72755000D01*
X112530000Y-72897857D01*
X112625238Y-72993095D01*
X112720476Y-73040714D01*
X112910952Y-73088333D01*
X113053809Y-73088333D01*
X113244285Y-73040714D01*
X113339523Y-72993095D01*
X113434761Y-72897857D01*
X113482380Y-72755000D01*
X113482380Y-72659761D01*
X113434761Y-72516904D01*
X113387142Y-72469285D01*
X113053809Y-72469285D01*
X113053809Y-72659761D01*
X113482380Y-72040714D02*
X112482380Y-72040714D01*
X113482380Y-71469285D01*
X112482380Y-71469285D01*
X113482380Y-70993095D02*
X112482380Y-70993095D01*
X112482380Y-70755000D01*
X112530000Y-70612142D01*
X112625238Y-70516904D01*
X112720476Y-70469285D01*
X112910952Y-70421666D01*
X113053809Y-70421666D01*
X113244285Y-70469285D01*
X113339523Y-70516904D01*
X113434761Y-70612142D01*
X113482380Y-70755000D01*
X113482380Y-70993095D01*
X110386904Y-105862380D02*
X110386904Y-104862380D01*
X110625000Y-104862380D01*
X110767857Y-104910000D01*
X110863095Y-105005238D01*
X110910714Y-105100476D01*
X110958333Y-105290952D01*
X110958333Y-105433809D01*
X110910714Y-105624285D01*
X110863095Y-105719523D01*
X110767857Y-105814761D01*
X110625000Y-105862380D01*
X110386904Y-105862380D01*
X111291666Y-104862380D02*
X111958333Y-104862380D01*
X111529761Y-105862380D01*
X131500714Y-118562380D02*
X131500714Y-117562380D01*
X131738809Y-117562380D01*
X131881666Y-117610000D01*
X131976904Y-117705238D01*
X132024523Y-117800476D01*
X132072142Y-117990952D01*
X132072142Y-118133809D01*
X132024523Y-118324285D01*
X131976904Y-118419523D01*
X131881666Y-118514761D01*
X131738809Y-118562380D01*
X131500714Y-118562380D01*
X133024523Y-118562380D02*
X132453095Y-118562380D01*
X132738809Y-118562380D02*
X132738809Y-117562380D01*
X132643571Y-117705238D01*
X132548333Y-117800476D01*
X132453095Y-117848095D01*
X133357857Y-117562380D02*
X133976904Y-117562380D01*
X133643571Y-117943333D01*
X133786428Y-117943333D01*
X133881666Y-117990952D01*
X133929285Y-118038571D01*
X133976904Y-118133809D01*
X133976904Y-118371904D01*
X133929285Y-118467142D01*
X133881666Y-118514761D01*
X133786428Y-118562380D01*
X133500714Y-118562380D01*
X133405476Y-118514761D01*
X133357857Y-118467142D01*
X122690000Y-139191904D02*
X122642380Y-139287142D01*
X122642380Y-139430000D01*
X122690000Y-139572857D01*
X122785238Y-139668095D01*
X122880476Y-139715714D01*
X123070952Y-139763333D01*
X123213809Y-139763333D01*
X123404285Y-139715714D01*
X123499523Y-139668095D01*
X123594761Y-139572857D01*
X123642380Y-139430000D01*
X123642380Y-139334761D01*
X123594761Y-139191904D01*
X123547142Y-139144285D01*
X123213809Y-139144285D01*
X123213809Y-139334761D01*
X123642380Y-138715714D02*
X122642380Y-138715714D01*
X123642380Y-138144285D01*
X122642380Y-138144285D01*
X123642380Y-137668095D02*
X122642380Y-137668095D01*
X122642380Y-137430000D01*
X122690000Y-137287142D01*
X122785238Y-137191904D01*
X122880476Y-137144285D01*
X123070952Y-137096666D01*
X123213809Y-137096666D01*
X123404285Y-137144285D01*
X123499523Y-137191904D01*
X123594761Y-137287142D01*
X123642380Y-137430000D01*
X123642380Y-137668095D01*
X132000714Y-97956666D02*
X132476904Y-97956666D01*
X131905476Y-98242380D02*
X132238809Y-97242380D01*
X132572142Y-98242380D01*
X133381666Y-97242380D02*
X132905476Y-97242380D01*
X132857857Y-97718571D01*
X132905476Y-97670952D01*
X133000714Y-97623333D01*
X133238809Y-97623333D01*
X133334047Y-97670952D01*
X133381666Y-97718571D01*
X133429285Y-97813809D01*
X133429285Y-98051904D01*
X133381666Y-98147142D01*
X133334047Y-98194761D01*
X133238809Y-98242380D01*
X133000714Y-98242380D01*
X132905476Y-98194761D01*
X132857857Y-98147142D01*
X109910714Y-116022380D02*
X109910714Y-115022380D01*
X110148809Y-115022380D01*
X110291666Y-115070000D01*
X110386904Y-115165238D01*
X110434523Y-115260476D01*
X110482142Y-115450952D01*
X110482142Y-115593809D01*
X110434523Y-115784285D01*
X110386904Y-115879523D01*
X110291666Y-115974761D01*
X110148809Y-116022380D01*
X109910714Y-116022380D01*
X111434523Y-116022380D02*
X110863095Y-116022380D01*
X111148809Y-116022380D02*
X111148809Y-115022380D01*
X111053571Y-115165238D01*
X110958333Y-115260476D01*
X110863095Y-115308095D01*
X112386904Y-116022380D02*
X111815476Y-116022380D01*
X112101190Y-116022380D02*
X112101190Y-115022380D01*
X112005952Y-115165238D01*
X111910714Y-115260476D01*
X111815476Y-115308095D01*
X107124761Y-22677380D02*
X107124761Y-21677380D01*
X107505714Y-21677380D01*
X107600952Y-21725000D01*
X107648571Y-21772619D01*
X107696190Y-21867857D01*
X107696190Y-22010714D01*
X107648571Y-22105952D01*
X107600952Y-22153571D01*
X107505714Y-22201190D01*
X107124761Y-22201190D01*
X108124761Y-22677380D02*
X108124761Y-21677380D01*
X108362857Y-21677380D01*
X108505714Y-21725000D01*
X108600952Y-21820238D01*
X108648571Y-21915476D01*
X108696190Y-22105952D01*
X108696190Y-22248809D01*
X108648571Y-22439285D01*
X108600952Y-22534523D01*
X108505714Y-22629761D01*
X108362857Y-22677380D01*
X108124761Y-22677380D01*
X108886666Y-22772619D02*
X109648571Y-22772619D01*
X109839047Y-22391666D02*
X110315238Y-22391666D01*
X109743809Y-22677380D02*
X110077142Y-21677380D01*
X110410476Y-22677380D01*
X110743809Y-22677380D02*
X110743809Y-21677380D01*
X111315238Y-22677380D01*
X111315238Y-21677380D01*
X132000714Y-100496666D02*
X132476904Y-100496666D01*
X131905476Y-100782380D02*
X132238809Y-99782380D01*
X132572142Y-100782380D01*
X133334047Y-100115714D02*
X133334047Y-100782380D01*
X133095952Y-99734761D02*
X132857857Y-100449047D01*
X133476904Y-100449047D01*
X133516666Y-72469285D02*
X133516666Y-71993095D01*
X133802380Y-72564523D02*
X132802380Y-72231190D01*
X133802380Y-71897857D01*
X132802380Y-71659761D02*
X132802380Y-71040714D01*
X133183333Y-71374047D01*
X133183333Y-71231190D01*
X133230952Y-71135952D01*
X133278571Y-71088333D01*
X133373809Y-71040714D01*
X133611904Y-71040714D01*
X133707142Y-71088333D01*
X133754761Y-71135952D01*
X133802380Y-71231190D01*
X133802380Y-71516904D01*
X133754761Y-71612142D01*
X133707142Y-71659761D01*
X132000714Y-92876666D02*
X132476904Y-92876666D01*
X131905476Y-93162380D02*
X132238809Y-92162380D01*
X132572142Y-93162380D01*
X132810238Y-92162380D02*
X133476904Y-92162380D01*
X133048333Y-93162380D01*
X118260952Y-22677380D02*
X117784761Y-22677380D01*
X117784761Y-21677380D01*
X118594285Y-22153571D02*
X118927619Y-22153571D01*
X119070476Y-22677380D02*
X118594285Y-22677380D01*
X118594285Y-21677380D01*
X119070476Y-21677380D01*
X119499047Y-22677380D02*
X119499047Y-21677380D01*
X119737142Y-21677380D01*
X119880000Y-21725000D01*
X119975238Y-21820238D01*
X120022857Y-21915476D01*
X120070476Y-22105952D01*
X120070476Y-22248809D01*
X120022857Y-22439285D01*
X119975238Y-22534523D01*
X119880000Y-22629761D01*
X119737142Y-22677380D01*
X119499047Y-22677380D01*
X120689523Y-21677380D02*
X120784761Y-21677380D01*
X120880000Y-21725000D01*
X120927619Y-21772619D01*
X120975238Y-21867857D01*
X121022857Y-22058333D01*
X121022857Y-22296428D01*
X120975238Y-22486904D01*
X120927619Y-22582142D01*
X120880000Y-22629761D01*
X120784761Y-22677380D01*
X120689523Y-22677380D01*
X120594285Y-22629761D01*
X120546666Y-22582142D01*
X120499047Y-22486904D01*
X120451428Y-22296428D01*
X120451428Y-22058333D01*
X120499047Y-21867857D01*
X120546666Y-21772619D01*
X120594285Y-21725000D01*
X120689523Y-21677380D01*
X132524523Y-89622380D02*
X132048333Y-89622380D01*
X132000714Y-90098571D01*
X132048333Y-90050952D01*
X132143571Y-90003333D01*
X132381666Y-90003333D01*
X132476904Y-90050952D01*
X132524523Y-90098571D01*
X132572142Y-90193809D01*
X132572142Y-90431904D01*
X132524523Y-90527142D01*
X132476904Y-90574761D01*
X132381666Y-90622380D01*
X132143571Y-90622380D01*
X132048333Y-90574761D01*
X132000714Y-90527142D01*
X132857857Y-89622380D02*
X133191190Y-90622380D01*
X133524523Y-89622380D01*
X118356190Y-165187380D02*
X118689523Y-166187380D01*
X119022857Y-165187380D01*
X119356190Y-166187380D02*
X119356190Y-165520714D01*
X119356190Y-165187380D02*
X119308571Y-165235000D01*
X119356190Y-165282619D01*
X119403809Y-165235000D01*
X119356190Y-165187380D01*
X119356190Y-165282619D01*
X119832380Y-165520714D02*
X119832380Y-166187380D01*
X119832380Y-165615952D02*
X119880000Y-165568333D01*
X119975238Y-165520714D01*
X120118095Y-165520714D01*
X120213333Y-165568333D01*
X120260952Y-165663571D01*
X120260952Y-166187380D01*
X132000714Y-103036666D02*
X132476904Y-103036666D01*
X131905476Y-103322380D02*
X132238809Y-102322380D01*
X132572142Y-103322380D01*
X132810238Y-102322380D02*
X133429285Y-102322380D01*
X133095952Y-102703333D01*
X133238809Y-102703333D01*
X133334047Y-102750952D01*
X133381666Y-102798571D01*
X133429285Y-102893809D01*
X133429285Y-103131904D01*
X133381666Y-103227142D01*
X133334047Y-103274761D01*
X133238809Y-103322380D01*
X132953095Y-103322380D01*
X132857857Y-103274761D01*
X132810238Y-103227142D01*
X109863095Y-82002380D02*
X110434523Y-82002380D01*
X110148809Y-83002380D02*
X110148809Y-82002380D01*
X110672619Y-82002380D02*
X111339285Y-83002380D01*
X111339285Y-82002380D02*
X110672619Y-83002380D01*
X111720238Y-83002380D02*
X111720238Y-82002380D01*
X111958333Y-82002380D01*
X112101190Y-82050000D01*
X112196428Y-82145238D01*
X112244047Y-82240476D01*
X112291666Y-82430952D01*
X112291666Y-82573809D01*
X112244047Y-82764285D01*
X112196428Y-82859523D01*
X112101190Y-82954761D01*
X111958333Y-83002380D01*
X111720238Y-83002380D01*
X120102380Y-139453809D02*
X121102380Y-139120476D01*
X120102380Y-138787142D01*
X121102380Y-138453809D02*
X120435714Y-138453809D01*
X120102380Y-138453809D02*
X120150000Y-138501428D01*
X120197619Y-138453809D01*
X120150000Y-138406190D01*
X120102380Y-138453809D01*
X120197619Y-138453809D01*
X120435714Y-137977619D02*
X121102380Y-137977619D01*
X120530952Y-137977619D02*
X120483333Y-137930000D01*
X120435714Y-137834761D01*
X120435714Y-137691904D01*
X120483333Y-137596666D01*
X120578571Y-137549047D01*
X121102380Y-137549047D01*
X118562380Y-139358571D02*
X118086190Y-139691904D01*
X118562380Y-139930000D02*
X117562380Y-139930000D01*
X117562380Y-139549047D01*
X117610000Y-139453809D01*
X117657619Y-139406190D01*
X117752857Y-139358571D01*
X117895714Y-139358571D01*
X117990952Y-139406190D01*
X118038571Y-139453809D01*
X118086190Y-139549047D01*
X118086190Y-139930000D01*
X117657619Y-138977619D02*
X117610000Y-138930000D01*
X117562380Y-138834761D01*
X117562380Y-138596666D01*
X117610000Y-138501428D01*
X117657619Y-138453809D01*
X117752857Y-138406190D01*
X117848095Y-138406190D01*
X117990952Y-138453809D01*
X118562380Y-139025238D01*
X118562380Y-138406190D01*
X118562380Y-137977619D02*
X117562380Y-137977619D01*
X118562380Y-137501428D02*
X117562380Y-137501428D01*
X118562380Y-136930000D01*
X117562380Y-136930000D01*
X125896666Y-72469285D02*
X125896666Y-71993095D01*
X126182380Y-72564523D02*
X125182380Y-72231190D01*
X126182380Y-71897857D01*
X125182380Y-71374047D02*
X125182380Y-71278809D01*
X125230000Y-71183571D01*
X125277619Y-71135952D01*
X125372857Y-71088333D01*
X125563333Y-71040714D01*
X125801428Y-71040714D01*
X125991904Y-71088333D01*
X126087142Y-71135952D01*
X126134761Y-71183571D01*
X126182380Y-71278809D01*
X126182380Y-71374047D01*
X126134761Y-71469285D01*
X126087142Y-71516904D01*
X125991904Y-71564523D01*
X125801428Y-71612142D01*
X125563333Y-71612142D01*
X125372857Y-71564523D01*
X125277619Y-71516904D01*
X125230000Y-71469285D01*
X125182380Y-71374047D01*
X120816666Y-72858095D02*
X120816666Y-72381904D01*
X121102380Y-72953333D02*
X120102380Y-72620000D01*
X121102380Y-72286666D01*
X121102380Y-71953333D02*
X120102380Y-71953333D01*
X120102380Y-71715238D01*
X120150000Y-71572380D01*
X120245238Y-71477142D01*
X120340476Y-71429523D01*
X120530952Y-71381904D01*
X120673809Y-71381904D01*
X120864285Y-71429523D01*
X120959523Y-71477142D01*
X121054761Y-71572380D01*
X121102380Y-71715238D01*
X121102380Y-71953333D01*
X121102380Y-70953333D02*
X120102380Y-70953333D01*
X120102380Y-70715238D01*
X120150000Y-70572380D01*
X120245238Y-70477142D01*
X120340476Y-70429523D01*
X120530952Y-70381904D01*
X120673809Y-70381904D01*
X120864285Y-70429523D01*
X120959523Y-70477142D01*
X121054761Y-70572380D01*
X121102380Y-70715238D01*
X121102380Y-70953333D01*
X121102380Y-69381904D02*
X120626190Y-69715238D01*
X121102380Y-69953333D02*
X120102380Y-69953333D01*
X120102380Y-69572380D01*
X120150000Y-69477142D01*
X120197619Y-69429523D01*
X120292857Y-69381904D01*
X120435714Y-69381904D01*
X120530952Y-69429523D01*
X120578571Y-69477142D01*
X120626190Y-69572380D01*
X120626190Y-69953333D01*
X123356666Y-72643809D02*
X123356666Y-72167619D01*
X123642380Y-72739047D02*
X122642380Y-72405714D01*
X123642380Y-72072380D01*
X123642380Y-71262857D02*
X123642380Y-71739047D01*
X122642380Y-71739047D01*
X123642380Y-70358095D02*
X123166190Y-70691428D01*
X123642380Y-70929523D02*
X122642380Y-70929523D01*
X122642380Y-70548571D01*
X122690000Y-70453333D01*
X122737619Y-70405714D01*
X122832857Y-70358095D01*
X122975714Y-70358095D01*
X123070952Y-70405714D01*
X123118571Y-70453333D01*
X123166190Y-70548571D01*
X123166190Y-70929523D01*
X122642380Y-70072380D02*
X122642380Y-69500952D01*
X123642380Y-69786666D02*
X122642380Y-69786666D01*
X109942380Y-140620476D02*
X109942380Y-140049047D01*
X110942380Y-140334761D02*
X109942380Y-140334761D01*
X110942380Y-139191904D02*
X110942380Y-139763333D01*
X110942380Y-139477619D02*
X109942380Y-139477619D01*
X110085238Y-139572857D01*
X110180476Y-139668095D01*
X110228095Y-139763333D01*
X109942380Y-138572857D02*
X109942380Y-138382380D01*
X109990000Y-138287142D01*
X110085238Y-138191904D01*
X110275714Y-138144285D01*
X110609047Y-138144285D01*
X110799523Y-138191904D01*
X110894761Y-138287142D01*
X110942380Y-138382380D01*
X110942380Y-138572857D01*
X110894761Y-138668095D01*
X110799523Y-138763333D01*
X110609047Y-138810952D01*
X110275714Y-138810952D01*
X110085238Y-138763333D01*
X109990000Y-138668095D01*
X109942380Y-138572857D01*
X109942380Y-137715714D02*
X110751904Y-137715714D01*
X110847142Y-137668095D01*
X110894761Y-137620476D01*
X110942380Y-137525238D01*
X110942380Y-137334761D01*
X110894761Y-137239523D01*
X110847142Y-137191904D01*
X110751904Y-137144285D01*
X109942380Y-137144285D01*
X109942380Y-136810952D02*
X109942380Y-136239523D01*
X110942380Y-136525238D02*
X109942380Y-136525238D01*
X118514761Y-72969285D02*
X118562380Y-72826428D01*
X118562380Y-72588333D01*
X118514761Y-72493095D01*
X118467142Y-72445476D01*
X118371904Y-72397857D01*
X118276666Y-72397857D01*
X118181428Y-72445476D01*
X118133809Y-72493095D01*
X118086190Y-72588333D01*
X118038571Y-72778809D01*
X117990952Y-72874047D01*
X117943333Y-72921666D01*
X117848095Y-72969285D01*
X117752857Y-72969285D01*
X117657619Y-72921666D01*
X117610000Y-72874047D01*
X117562380Y-72778809D01*
X117562380Y-72540714D01*
X117610000Y-72397857D01*
X118562380Y-71969285D02*
X117562380Y-71969285D01*
X117562380Y-71731190D01*
X117610000Y-71588333D01*
X117705238Y-71493095D01*
X117800476Y-71445476D01*
X117990952Y-71397857D01*
X118133809Y-71397857D01*
X118324285Y-71445476D01*
X118419523Y-71493095D01*
X118514761Y-71588333D01*
X118562380Y-71731190D01*
X118562380Y-71969285D01*
X118276666Y-71016904D02*
X118276666Y-70540714D01*
X118562380Y-71112142D02*
X117562380Y-70778809D01*
X118562380Y-70445476D01*
X127722380Y-139953809D02*
X127722380Y-139382380D01*
X128722380Y-139668095D02*
X127722380Y-139668095D01*
X127817619Y-139096666D02*
X127770000Y-139049047D01*
X127722380Y-138953809D01*
X127722380Y-138715714D01*
X127770000Y-138620476D01*
X127817619Y-138572857D01*
X127912857Y-138525238D01*
X128008095Y-138525238D01*
X128150952Y-138572857D01*
X128722380Y-139144285D01*
X128722380Y-138525238D01*
X128722380Y-138096666D02*
X127722380Y-138096666D01*
X128722380Y-137620476D02*
X127722380Y-137620476D01*
X128722380Y-137049047D01*
X127722380Y-137049047D01*
X109942380Y-73088333D02*
X110942380Y-72755000D01*
X109942380Y-72421666D01*
X110942380Y-72088333D02*
X109942380Y-72088333D01*
X109942380Y-71850238D01*
X109990000Y-71707380D01*
X110085238Y-71612142D01*
X110180476Y-71564523D01*
X110370952Y-71516904D01*
X110513809Y-71516904D01*
X110704285Y-71564523D01*
X110799523Y-71612142D01*
X110894761Y-71707380D01*
X110942380Y-71850238D01*
X110942380Y-72088333D01*
X110942380Y-71088333D02*
X109942380Y-71088333D01*
X109942380Y-70850238D01*
X109990000Y-70707380D01*
X110085238Y-70612142D01*
X110180476Y-70564523D01*
X110370952Y-70516904D01*
X110513809Y-70516904D01*
X110704285Y-70564523D01*
X110799523Y-70612142D01*
X110894761Y-70707380D01*
X110942380Y-70850238D01*
X110942380Y-71088333D01*
X132143571Y-113482380D02*
X131810238Y-113006190D01*
X131572142Y-113482380D02*
X131572142Y-112482380D01*
X131953095Y-112482380D01*
X132048333Y-112530000D01*
X132095952Y-112577619D01*
X132143571Y-112672857D01*
X132143571Y-112815714D01*
X132095952Y-112910952D01*
X132048333Y-112958571D01*
X131953095Y-113006190D01*
X131572142Y-113006190D01*
X132572142Y-112958571D02*
X132905476Y-112958571D01*
X133048333Y-113482380D02*
X132572142Y-113482380D01*
X132572142Y-112482380D01*
X133048333Y-112482380D01*
X133810238Y-112958571D02*
X133476904Y-112958571D01*
X133476904Y-113482380D02*
X133476904Y-112482380D01*
X133953095Y-112482380D01*
X125182380Y-139953809D02*
X125182380Y-139382380D01*
X126182380Y-139668095D02*
X125182380Y-139668095D01*
X126182380Y-138525238D02*
X126182380Y-139096666D01*
X126182380Y-138810952D02*
X125182380Y-138810952D01*
X125325238Y-138906190D01*
X125420476Y-139001428D01*
X125468095Y-139096666D01*
X126182380Y-138096666D02*
X125182380Y-138096666D01*
X126182380Y-137620476D02*
X125182380Y-137620476D01*
X126182380Y-137049047D01*
X125182380Y-137049047D01*
X110386904Y-103322380D02*
X110386904Y-102322380D01*
X110625000Y-102322380D01*
X110767857Y-102370000D01*
X110863095Y-102465238D01*
X110910714Y-102560476D01*
X110958333Y-102750952D01*
X110958333Y-102893809D01*
X110910714Y-103084285D01*
X110863095Y-103179523D01*
X110767857Y-103274761D01*
X110625000Y-103322380D01*
X110386904Y-103322380D01*
X111815476Y-102322380D02*
X111625000Y-102322380D01*
X111529761Y-102370000D01*
X111482142Y-102417619D01*
X111386904Y-102560476D01*
X111339285Y-102750952D01*
X111339285Y-103131904D01*
X111386904Y-103227142D01*
X111434523Y-103274761D01*
X111529761Y-103322380D01*
X111720238Y-103322380D01*
X111815476Y-103274761D01*
X111863095Y-103227142D01*
X111910714Y-103131904D01*
X111910714Y-102893809D01*
X111863095Y-102798571D01*
X111815476Y-102750952D01*
X111720238Y-102703333D01*
X111529761Y-102703333D01*
X111434523Y-102750952D01*
X111386904Y-102798571D01*
X111339285Y-102893809D01*
X116022380Y-139358571D02*
X115546190Y-139691904D01*
X116022380Y-139930000D02*
X115022380Y-139930000D01*
X115022380Y-139549047D01*
X115070000Y-139453809D01*
X115117619Y-139406190D01*
X115212857Y-139358571D01*
X115355714Y-139358571D01*
X115450952Y-139406190D01*
X115498571Y-139453809D01*
X115546190Y-139549047D01*
X115546190Y-139930000D01*
X116022380Y-138406190D02*
X116022380Y-138977619D01*
X116022380Y-138691904D02*
X115022380Y-138691904D01*
X115165238Y-138787142D01*
X115260476Y-138882380D01*
X115308095Y-138977619D01*
X116022380Y-137977619D02*
X115022380Y-137977619D01*
X116022380Y-137501428D02*
X115022380Y-137501428D01*
X116022380Y-136930000D01*
X115022380Y-136930000D01*
X133223095Y-165187380D02*
X133794523Y-165187380D01*
X133508809Y-166187380D02*
X133508809Y-165187380D01*
X134032619Y-165187380D02*
X134699285Y-166187380D01*
X134699285Y-165187380D02*
X134032619Y-166187380D01*
X110386904Y-98242380D02*
X110386904Y-97242380D01*
X110625000Y-97242380D01*
X110767857Y-97290000D01*
X110863095Y-97385238D01*
X110910714Y-97480476D01*
X110958333Y-97670952D01*
X110958333Y-97813809D01*
X110910714Y-98004285D01*
X110863095Y-98099523D01*
X110767857Y-98194761D01*
X110625000Y-98242380D01*
X110386904Y-98242380D01*
X111815476Y-97575714D02*
X111815476Y-98242380D01*
X111577380Y-97194761D02*
X111339285Y-97909047D01*
X111958333Y-97909047D01*
X128436666Y-72469285D02*
X128436666Y-71993095D01*
X128722380Y-72564523D02*
X127722380Y-72231190D01*
X128722380Y-71897857D01*
X128722380Y-71040714D02*
X128722380Y-71612142D01*
X128722380Y-71326428D02*
X127722380Y-71326428D01*
X127865238Y-71421666D01*
X127960476Y-71516904D01*
X128008095Y-71612142D01*
X110458333Y-85542380D02*
X110125000Y-85066190D01*
X109886904Y-85542380D02*
X109886904Y-84542380D01*
X110267857Y-84542380D01*
X110363095Y-84590000D01*
X110410714Y-84637619D01*
X110458333Y-84732857D01*
X110458333Y-84875714D01*
X110410714Y-84970952D01*
X110363095Y-85018571D01*
X110267857Y-85066190D01*
X109886904Y-85066190D01*
X110791666Y-84542380D02*
X111458333Y-85542380D01*
X111458333Y-84542380D02*
X110791666Y-85542380D01*
X111839285Y-85542380D02*
X111839285Y-84542380D01*
X112077380Y-84542380D01*
X112220238Y-84590000D01*
X112315476Y-84685238D01*
X112363095Y-84780476D01*
X112410714Y-84970952D01*
X112410714Y-85113809D01*
X112363095Y-85304285D01*
X112315476Y-85399523D01*
X112220238Y-85494761D01*
X112077380Y-85542380D01*
X111839285Y-85542380D01*
X129373333Y-166187380D02*
X129040000Y-165711190D01*
X128801904Y-166187380D02*
X128801904Y-165187380D01*
X129182857Y-165187380D01*
X129278095Y-165235000D01*
X129325714Y-165282619D01*
X129373333Y-165377857D01*
X129373333Y-165520714D01*
X129325714Y-165615952D01*
X129278095Y-165663571D01*
X129182857Y-165711190D01*
X128801904Y-165711190D01*
X129706666Y-165187380D02*
X130373333Y-166187380D01*
X130373333Y-165187380D02*
X129706666Y-166187380D01*
X131476904Y-115022380D02*
X132095952Y-115022380D01*
X131762619Y-115403333D01*
X131905476Y-115403333D01*
X132000714Y-115450952D01*
X132048333Y-115498571D01*
X132095952Y-115593809D01*
X132095952Y-115831904D01*
X132048333Y-115927142D01*
X132000714Y-115974761D01*
X131905476Y-116022380D01*
X131619761Y-116022380D01*
X131524523Y-115974761D01*
X131476904Y-115927142D01*
X132381666Y-115022380D02*
X132715000Y-116022380D01*
X133048333Y-115022380D01*
X133286428Y-115022380D02*
X133905476Y-115022380D01*
X133572142Y-115403333D01*
X133715000Y-115403333D01*
X133810238Y-115450952D01*
X133857857Y-115498571D01*
X133905476Y-115593809D01*
X133905476Y-115831904D01*
X133857857Y-115927142D01*
X133810238Y-115974761D01*
X133715000Y-116022380D01*
X133429285Y-116022380D01*
X133334047Y-115974761D01*
X133286428Y-115927142D01*
X109910714Y-113482380D02*
X109910714Y-112482380D01*
X110148809Y-112482380D01*
X110291666Y-112530000D01*
X110386904Y-112625238D01*
X110434523Y-112720476D01*
X110482142Y-112910952D01*
X110482142Y-113053809D01*
X110434523Y-113244285D01*
X110386904Y-113339523D01*
X110291666Y-113434761D01*
X110148809Y-113482380D01*
X109910714Y-113482380D01*
X111434523Y-113482380D02*
X110863095Y-113482380D01*
X111148809Y-113482380D02*
X111148809Y-112482380D01*
X111053571Y-112625238D01*
X110958333Y-112720476D01*
X110863095Y-112768095D01*
X112053571Y-112482380D02*
X112148809Y-112482380D01*
X112244047Y-112530000D01*
X112291666Y-112577619D01*
X112339285Y-112672857D01*
X112386904Y-112863333D01*
X112386904Y-113101428D01*
X112339285Y-113291904D01*
X112291666Y-113387142D01*
X112244047Y-113434761D01*
X112148809Y-113482380D01*
X112053571Y-113482380D01*
X111958333Y-113434761D01*
X111910714Y-113387142D01*
X111863095Y-113291904D01*
X111815476Y-113101428D01*
X111815476Y-112863333D01*
X111863095Y-112672857D01*
X111910714Y-112577619D01*
X111958333Y-112530000D01*
X112053571Y-112482380D01*
X130976666Y-72469285D02*
X130976666Y-71993095D01*
X131262380Y-72564523D02*
X130262380Y-72231190D01*
X131262380Y-71897857D01*
X130357619Y-71612142D02*
X130310000Y-71564523D01*
X130262380Y-71469285D01*
X130262380Y-71231190D01*
X130310000Y-71135952D01*
X130357619Y-71088333D01*
X130452857Y-71040714D01*
X130548095Y-71040714D01*
X130690952Y-71088333D01*
X131262380Y-71659761D01*
X131262380Y-71040714D01*
X110386904Y-110942380D02*
X110386904Y-109942380D01*
X110625000Y-109942380D01*
X110767857Y-109990000D01*
X110863095Y-110085238D01*
X110910714Y-110180476D01*
X110958333Y-110370952D01*
X110958333Y-110513809D01*
X110910714Y-110704285D01*
X110863095Y-110799523D01*
X110767857Y-110894761D01*
X110625000Y-110942380D01*
X110386904Y-110942380D01*
X111434523Y-110942380D02*
X111625000Y-110942380D01*
X111720238Y-110894761D01*
X111767857Y-110847142D01*
X111863095Y-110704285D01*
X111910714Y-110513809D01*
X111910714Y-110132857D01*
X111863095Y-110037619D01*
X111815476Y-109990000D01*
X111720238Y-109942380D01*
X111529761Y-109942380D01*
X111434523Y-109990000D01*
X111386904Y-110037619D01*
X111339285Y-110132857D01*
X111339285Y-110370952D01*
X111386904Y-110466190D01*
X111434523Y-110513809D01*
X111529761Y-110561428D01*
X111720238Y-110561428D01*
X111815476Y-110513809D01*
X111863095Y-110466190D01*
X111910714Y-110370952D01*
X110386904Y-108402380D02*
X110386904Y-107402380D01*
X110625000Y-107402380D01*
X110767857Y-107450000D01*
X110863095Y-107545238D01*
X110910714Y-107640476D01*
X110958333Y-107830952D01*
X110958333Y-107973809D01*
X110910714Y-108164285D01*
X110863095Y-108259523D01*
X110767857Y-108354761D01*
X110625000Y-108402380D01*
X110386904Y-108402380D01*
X111529761Y-107830952D02*
X111434523Y-107783333D01*
X111386904Y-107735714D01*
X111339285Y-107640476D01*
X111339285Y-107592857D01*
X111386904Y-107497619D01*
X111434523Y-107450000D01*
X111529761Y-107402380D01*
X111720238Y-107402380D01*
X111815476Y-107450000D01*
X111863095Y-107497619D01*
X111910714Y-107592857D01*
X111910714Y-107640476D01*
X111863095Y-107735714D01*
X111815476Y-107783333D01*
X111720238Y-107830952D01*
X111529761Y-107830952D01*
X111434523Y-107878571D01*
X111386904Y-107926190D01*
X111339285Y-108021428D01*
X111339285Y-108211904D01*
X111386904Y-108307142D01*
X111434523Y-108354761D01*
X111529761Y-108402380D01*
X111720238Y-108402380D01*
X111815476Y-108354761D01*
X111863095Y-108307142D01*
X111910714Y-108211904D01*
X111910714Y-108021428D01*
X111863095Y-107926190D01*
X111815476Y-107878571D01*
X111720238Y-107830952D01*
X112228571Y-22677380D02*
X112228571Y-21677380D01*
X112609523Y-21677380D01*
X112704761Y-21725000D01*
X112752380Y-21772619D01*
X112800000Y-21867857D01*
X112800000Y-22010714D01*
X112752380Y-22105952D01*
X112704761Y-22153571D01*
X112609523Y-22201190D01*
X112228571Y-22201190D01*
X113228571Y-22677380D02*
X113228571Y-21677380D01*
X113466666Y-21677380D01*
X113609523Y-21725000D01*
X113704761Y-21820238D01*
X113752380Y-21915476D01*
X113800000Y-22105952D01*
X113800000Y-22248809D01*
X113752380Y-22439285D01*
X113704761Y-22534523D01*
X113609523Y-22629761D01*
X113466666Y-22677380D01*
X113228571Y-22677380D01*
X113990476Y-22772619D02*
X114752380Y-22772619D01*
X115561904Y-22582142D02*
X115514285Y-22629761D01*
X115371428Y-22677380D01*
X115276190Y-22677380D01*
X115133333Y-22629761D01*
X115038095Y-22534523D01*
X114990476Y-22439285D01*
X114942857Y-22248809D01*
X114942857Y-22105952D01*
X114990476Y-21915476D01*
X115038095Y-21820238D01*
X115133333Y-21725000D01*
X115276190Y-21677380D01*
X115371428Y-21677380D01*
X115514285Y-21725000D01*
X115561904Y-21772619D01*
X115942857Y-22391666D02*
X116419047Y-22391666D01*
X115847619Y-22677380D02*
X116180952Y-21677380D01*
X116514285Y-22677380D01*
X110386904Y-93162380D02*
X110386904Y-92162380D01*
X110625000Y-92162380D01*
X110767857Y-92210000D01*
X110863095Y-92305238D01*
X110910714Y-92400476D01*
X110958333Y-92590952D01*
X110958333Y-92733809D01*
X110910714Y-92924285D01*
X110863095Y-93019523D01*
X110767857Y-93114761D01*
X110625000Y-93162380D01*
X110386904Y-93162380D01*
X111339285Y-92257619D02*
X111386904Y-92210000D01*
X111482142Y-92162380D01*
X111720238Y-92162380D01*
X111815476Y-92210000D01*
X111863095Y-92257619D01*
X111910714Y-92352857D01*
X111910714Y-92448095D01*
X111863095Y-92590952D01*
X111291666Y-93162380D01*
X111910714Y-93162380D01*
%TO.C,R5*%
X122432380Y-42136666D02*
X121956190Y-42470000D01*
X122432380Y-42708095D02*
X121432380Y-42708095D01*
X121432380Y-42327142D01*
X121480000Y-42231904D01*
X121527619Y-42184285D01*
X121622857Y-42136666D01*
X121765714Y-42136666D01*
X121860952Y-42184285D01*
X121908571Y-42231904D01*
X121956190Y-42327142D01*
X121956190Y-42708095D01*
X121432380Y-41231904D02*
X121432380Y-41708095D01*
X121908571Y-41755714D01*
X121860952Y-41708095D01*
X121813333Y-41612857D01*
X121813333Y-41374761D01*
X121860952Y-41279523D01*
X121908571Y-41231904D01*
X122003809Y-41184285D01*
X122241904Y-41184285D01*
X122337142Y-41231904D01*
X122384761Y-41279523D01*
X122432380Y-41374761D01*
X122432380Y-41612857D01*
X122384761Y-41708095D01*
X122337142Y-41755714D01*
X118927619Y-44398571D02*
X118880000Y-44350952D01*
X118832380Y-44255714D01*
X118832380Y-44017619D01*
X118880000Y-43922380D01*
X118927619Y-43874761D01*
X119022857Y-43827142D01*
X119118095Y-43827142D01*
X119260952Y-43874761D01*
X119832380Y-44446190D01*
X119832380Y-43827142D01*
X118927619Y-43446190D02*
X118880000Y-43398571D01*
X118832380Y-43303333D01*
X118832380Y-43065238D01*
X118880000Y-42970000D01*
X118927619Y-42922380D01*
X119022857Y-42874761D01*
X119118095Y-42874761D01*
X119260952Y-42922380D01*
X119832380Y-43493809D01*
X119832380Y-42874761D01*
X119737142Y-42446190D02*
X119784761Y-42398571D01*
X119832380Y-42446190D01*
X119784761Y-42493809D01*
X119737142Y-42446190D01*
X119832380Y-42446190D01*
X119832380Y-41446190D02*
X119832380Y-42017619D01*
X119832380Y-41731904D02*
X118832380Y-41731904D01*
X118975238Y-41827142D01*
X119070476Y-41922380D01*
X119118095Y-42017619D01*
X119832380Y-41065238D02*
X119832380Y-40827142D01*
X119641904Y-40827142D01*
X119594285Y-40922380D01*
X119499047Y-41017619D01*
X119356190Y-41065238D01*
X119118095Y-41065238D01*
X118975238Y-41017619D01*
X118880000Y-40922380D01*
X118832380Y-40779523D01*
X118832380Y-40589047D01*
X118880000Y-40446190D01*
X118975238Y-40350952D01*
X119118095Y-40303333D01*
X119356190Y-40303333D01*
X119499047Y-40350952D01*
X119594285Y-40446190D01*
X119641904Y-40541428D01*
X119832380Y-40541428D01*
X119832380Y-40303333D01*
%TO.C,Q1*%
X122467619Y-56610238D02*
X122420000Y-56705476D01*
X122324761Y-56800714D01*
X122181904Y-56943571D01*
X122134285Y-57038809D01*
X122134285Y-57134047D01*
X122372380Y-57086428D02*
X122324761Y-57181666D01*
X122229523Y-57276904D01*
X122039047Y-57324523D01*
X121705714Y-57324523D01*
X121515238Y-57276904D01*
X121420000Y-57181666D01*
X121372380Y-57086428D01*
X121372380Y-56895952D01*
X121420000Y-56800714D01*
X121515238Y-56705476D01*
X121705714Y-56657857D01*
X122039047Y-56657857D01*
X122229523Y-56705476D01*
X122324761Y-56800714D01*
X122372380Y-56895952D01*
X122372380Y-57086428D01*
X122372380Y-55705476D02*
X122372380Y-56276904D01*
X122372380Y-55991190D02*
X121372380Y-55991190D01*
X121515238Y-56086428D01*
X121610476Y-56181666D01*
X121658095Y-56276904D01*
%TO.C,R4*%
X112272380Y-42136666D02*
X111796190Y-42470000D01*
X112272380Y-42708095D02*
X111272380Y-42708095D01*
X111272380Y-42327142D01*
X111320000Y-42231904D01*
X111367619Y-42184285D01*
X111462857Y-42136666D01*
X111605714Y-42136666D01*
X111700952Y-42184285D01*
X111748571Y-42231904D01*
X111796190Y-42327142D01*
X111796190Y-42708095D01*
X111605714Y-41279523D02*
X112272380Y-41279523D01*
X111224761Y-41517619D02*
X111939047Y-41755714D01*
X111939047Y-41136666D01*
X108767619Y-44398571D02*
X108720000Y-44350952D01*
X108672380Y-44255714D01*
X108672380Y-44017619D01*
X108720000Y-43922380D01*
X108767619Y-43874761D01*
X108862857Y-43827142D01*
X108958095Y-43827142D01*
X109100952Y-43874761D01*
X109672380Y-44446190D01*
X109672380Y-43827142D01*
X108767619Y-43446190D02*
X108720000Y-43398571D01*
X108672380Y-43303333D01*
X108672380Y-43065238D01*
X108720000Y-42970000D01*
X108767619Y-42922380D01*
X108862857Y-42874761D01*
X108958095Y-42874761D01*
X109100952Y-42922380D01*
X109672380Y-43493809D01*
X109672380Y-42874761D01*
X109577142Y-42446190D02*
X109624761Y-42398571D01*
X109672380Y-42446190D01*
X109624761Y-42493809D01*
X109577142Y-42446190D01*
X109672380Y-42446190D01*
X109672380Y-41446190D02*
X109672380Y-42017619D01*
X109672380Y-41731904D02*
X108672380Y-41731904D01*
X108815238Y-41827142D01*
X108910476Y-41922380D01*
X108958095Y-42017619D01*
X109672380Y-41065238D02*
X109672380Y-40827142D01*
X109481904Y-40827142D01*
X109434285Y-40922380D01*
X109339047Y-41017619D01*
X109196190Y-41065238D01*
X108958095Y-41065238D01*
X108815238Y-41017619D01*
X108720000Y-40922380D01*
X108672380Y-40779523D01*
X108672380Y-40589047D01*
X108720000Y-40446190D01*
X108815238Y-40350952D01*
X108958095Y-40303333D01*
X109196190Y-40303333D01*
X109339047Y-40350952D01*
X109434285Y-40446190D01*
X109481904Y-40541428D01*
X109672380Y-40541428D01*
X109672380Y-40303333D01*
%TO.C,J4*%
X107172380Y-75238333D02*
X107886666Y-75238333D01*
X108029523Y-75285952D01*
X108124761Y-75381190D01*
X108172380Y-75524047D01*
X108172380Y-75619285D01*
X107505714Y-74333571D02*
X108172380Y-74333571D01*
X107124761Y-74571666D02*
X107839047Y-74809761D01*
X107839047Y-74190714D01*
X136286666Y-78024047D02*
X136286666Y-77547857D01*
X136572380Y-78119285D02*
X135572380Y-77785952D01*
X136572380Y-77452619D01*
X136572380Y-77119285D02*
X135572380Y-77119285D01*
X135572380Y-76881190D01*
X135620000Y-76738333D01*
X135715238Y-76643095D01*
X135810476Y-76595476D01*
X136000952Y-76547857D01*
X136143809Y-76547857D01*
X136334285Y-76595476D01*
X136429523Y-76643095D01*
X136524761Y-76738333D01*
X136572380Y-76881190D01*
X136572380Y-77119285D01*
X136524761Y-76166904D02*
X136572380Y-76024047D01*
X136572380Y-75785952D01*
X136524761Y-75690714D01*
X136477142Y-75643095D01*
X136381904Y-75595476D01*
X136286666Y-75595476D01*
X136191428Y-75643095D01*
X136143809Y-75690714D01*
X136096190Y-75785952D01*
X136048571Y-75976428D01*
X136000952Y-76071666D01*
X135953333Y-76119285D01*
X135858095Y-76166904D01*
X135762857Y-76166904D01*
X135667619Y-76119285D01*
X135620000Y-76071666D01*
X135572380Y-75976428D01*
X135572380Y-75738333D01*
X135620000Y-75595476D01*
X136572380Y-74643095D02*
X136572380Y-75214523D01*
X136572380Y-74928809D02*
X135572380Y-74928809D01*
X135715238Y-75024047D01*
X135810476Y-75119285D01*
X135858095Y-75214523D01*
X136572380Y-73690714D02*
X136572380Y-74262142D01*
X136572380Y-73976428D02*
X135572380Y-73976428D01*
X135715238Y-74071666D01*
X135810476Y-74166904D01*
X135858095Y-74262142D01*
X136572380Y-72738333D02*
X136572380Y-73309761D01*
X136572380Y-73024047D02*
X135572380Y-73024047D01*
X135715238Y-73119285D01*
X135810476Y-73214523D01*
X135858095Y-73309761D01*
X135572380Y-71833571D02*
X135572380Y-72309761D01*
X136048571Y-72357380D01*
X136000952Y-72309761D01*
X135953333Y-72214523D01*
X135953333Y-71976428D01*
X136000952Y-71881190D01*
X136048571Y-71833571D01*
X136143809Y-71785952D01*
X136381904Y-71785952D01*
X136477142Y-71833571D01*
X136524761Y-71881190D01*
X136572380Y-71976428D01*
X136572380Y-72214523D01*
X136524761Y-72309761D01*
X136477142Y-72357380D01*
%TO.C,Q2*%
X117387619Y-56610238D02*
X117340000Y-56705476D01*
X117244761Y-56800714D01*
X117101904Y-56943571D01*
X117054285Y-57038809D01*
X117054285Y-57134047D01*
X117292380Y-57086428D02*
X117244761Y-57181666D01*
X117149523Y-57276904D01*
X116959047Y-57324523D01*
X116625714Y-57324523D01*
X116435238Y-57276904D01*
X116340000Y-57181666D01*
X116292380Y-57086428D01*
X116292380Y-56895952D01*
X116340000Y-56800714D01*
X116435238Y-56705476D01*
X116625714Y-56657857D01*
X116959047Y-56657857D01*
X117149523Y-56705476D01*
X117244761Y-56800714D01*
X117292380Y-56895952D01*
X117292380Y-57086428D01*
X116387619Y-56276904D02*
X116340000Y-56229285D01*
X116292380Y-56134047D01*
X116292380Y-55895952D01*
X116340000Y-55800714D01*
X116387619Y-55753095D01*
X116482857Y-55705476D01*
X116578095Y-55705476D01*
X116720952Y-55753095D01*
X117292380Y-56324523D01*
X117292380Y-55705476D01*
%TO.C,R1*%
X122432380Y-62456666D02*
X121956190Y-62790000D01*
X122432380Y-63028095D02*
X121432380Y-63028095D01*
X121432380Y-62647142D01*
X121480000Y-62551904D01*
X121527619Y-62504285D01*
X121622857Y-62456666D01*
X121765714Y-62456666D01*
X121860952Y-62504285D01*
X121908571Y-62551904D01*
X121956190Y-62647142D01*
X121956190Y-63028095D01*
X122432380Y-61504285D02*
X122432380Y-62075714D01*
X122432380Y-61790000D02*
X121432380Y-61790000D01*
X121575238Y-61885238D01*
X121670476Y-61980476D01*
X121718095Y-62075714D01*
X119832380Y-63237857D02*
X119832380Y-63809285D01*
X119832380Y-63523571D02*
X118832380Y-63523571D01*
X118975238Y-63618809D01*
X119070476Y-63714047D01*
X119118095Y-63809285D01*
X118832380Y-62618809D02*
X118832380Y-62523571D01*
X118880000Y-62428333D01*
X118927619Y-62380714D01*
X119022857Y-62333095D01*
X119213333Y-62285476D01*
X119451428Y-62285476D01*
X119641904Y-62333095D01*
X119737142Y-62380714D01*
X119784761Y-62428333D01*
X119832380Y-62523571D01*
X119832380Y-62618809D01*
X119784761Y-62714047D01*
X119737142Y-62761666D01*
X119641904Y-62809285D01*
X119451428Y-62856904D01*
X119213333Y-62856904D01*
X119022857Y-62809285D01*
X118927619Y-62761666D01*
X118880000Y-62714047D01*
X118832380Y-62618809D01*
X119832380Y-61856904D02*
X118832380Y-61856904D01*
X119832380Y-61285476D02*
X119260952Y-61714047D01*
X118832380Y-61285476D02*
X119403809Y-61856904D01*
X119832380Y-60904523D02*
X119832380Y-60666428D01*
X119641904Y-60666428D01*
X119594285Y-60761666D01*
X119499047Y-60856904D01*
X119356190Y-60904523D01*
X119118095Y-60904523D01*
X118975238Y-60856904D01*
X118880000Y-60761666D01*
X118832380Y-60618809D01*
X118832380Y-60428333D01*
X118880000Y-60285476D01*
X118975238Y-60190238D01*
X119118095Y-60142619D01*
X119356190Y-60142619D01*
X119499047Y-60190238D01*
X119594285Y-60285476D01*
X119641904Y-60380714D01*
X119832380Y-60380714D01*
X119832380Y-60142619D01*
%TO.C,C1*%
X110043333Y-146399886D02*
X109995714Y-146447505D01*
X109852857Y-146495124D01*
X109757619Y-146495124D01*
X109614761Y-146447505D01*
X109519523Y-146352267D01*
X109471904Y-146257029D01*
X109424285Y-146066553D01*
X109424285Y-145923696D01*
X109471904Y-145733220D01*
X109519523Y-145637982D01*
X109614761Y-145542744D01*
X109757619Y-145495124D01*
X109852857Y-145495124D01*
X109995714Y-145542744D01*
X110043333Y-145590363D01*
X110995714Y-146495124D02*
X110424285Y-146495124D01*
X110710000Y-146495124D02*
X110710000Y-145495124D01*
X110614761Y-145637982D01*
X110519523Y-145733220D01*
X110424285Y-145780839D01*
X109067142Y-153995124D02*
X108495714Y-153995124D01*
X108781428Y-153995124D02*
X108781428Y-152995124D01*
X108686190Y-153137982D01*
X108590952Y-153233220D01*
X108495714Y-153280839D01*
X109686190Y-152995124D02*
X109781428Y-152995124D01*
X109876666Y-153042744D01*
X109924285Y-153090363D01*
X109971904Y-153185601D01*
X110019523Y-153376077D01*
X110019523Y-153614172D01*
X109971904Y-153804648D01*
X109924285Y-153899886D01*
X109876666Y-153947505D01*
X109781428Y-153995124D01*
X109686190Y-153995124D01*
X109590952Y-153947505D01*
X109543333Y-153899886D01*
X109495714Y-153804648D01*
X109448095Y-153614172D01*
X109448095Y-153376077D01*
X109495714Y-153185601D01*
X109543333Y-153090363D01*
X109590952Y-153042744D01*
X109686190Y-152995124D01*
X110448095Y-153328458D02*
X110448095Y-154328458D01*
X110924285Y-153852267D02*
X110971904Y-153947505D01*
X111067142Y-153995124D01*
X110448095Y-153852267D02*
X110495714Y-153947505D01*
X110590952Y-153995124D01*
X110781428Y-153995124D01*
X110876666Y-153947505D01*
X110924285Y-153852267D01*
X110924285Y-153328458D01*
X111829047Y-153471315D02*
X111495714Y-153471315D01*
X111495714Y-153995124D02*
X111495714Y-152995124D01*
X111971904Y-152995124D01*
%TO.C,J1*%
X121576666Y-155662380D02*
X121576666Y-156376666D01*
X121529047Y-156519523D01*
X121433809Y-156614761D01*
X121290952Y-156662380D01*
X121195714Y-156662380D01*
X122576666Y-156662380D02*
X122005238Y-156662380D01*
X122290952Y-156662380D02*
X122290952Y-155662380D01*
X122195714Y-155805238D01*
X122100476Y-155900476D01*
X122005238Y-155948095D01*
%TO.C,A2*%
X121205714Y-78271666D02*
X121681904Y-78271666D01*
X121110476Y-78557380D02*
X121443809Y-77557380D01*
X121777142Y-78557380D01*
X122062857Y-77652619D02*
X122110476Y-77605000D01*
X122205714Y-77557380D01*
X122443809Y-77557380D01*
X122539047Y-77605000D01*
X122586666Y-77652619D01*
X122634285Y-77747857D01*
X122634285Y-77843095D01*
X122586666Y-77985952D01*
X122015238Y-78557380D01*
X122634285Y-78557380D01*
X123356666Y-108338095D02*
X123356666Y-107861904D01*
X123642380Y-108433333D02*
X122642380Y-108100000D01*
X123642380Y-107766666D01*
X123642380Y-107433333D02*
X122975714Y-107433333D01*
X123166190Y-107433333D02*
X123070952Y-107385714D01*
X123023333Y-107338095D01*
X122975714Y-107242857D01*
X122975714Y-107147619D01*
X123642380Y-106385714D02*
X122642380Y-106385714D01*
X123594761Y-106385714D02*
X123642380Y-106480952D01*
X123642380Y-106671428D01*
X123594761Y-106766666D01*
X123547142Y-106814285D01*
X123451904Y-106861904D01*
X123166190Y-106861904D01*
X123070952Y-106814285D01*
X123023333Y-106766666D01*
X122975714Y-106671428D01*
X122975714Y-106480952D01*
X123023333Y-106385714D01*
X122975714Y-105480952D02*
X123642380Y-105480952D01*
X122975714Y-105909523D02*
X123499523Y-105909523D01*
X123594761Y-105861904D01*
X123642380Y-105766666D01*
X123642380Y-105623809D01*
X123594761Y-105528571D01*
X123547142Y-105480952D01*
X123642380Y-105004761D02*
X122975714Y-105004761D01*
X122642380Y-105004761D02*
X122690000Y-105052380D01*
X122737619Y-105004761D01*
X122690000Y-104957142D01*
X122642380Y-105004761D01*
X122737619Y-105004761D01*
X122975714Y-104528571D02*
X123642380Y-104528571D01*
X123070952Y-104528571D02*
X123023333Y-104480952D01*
X122975714Y-104385714D01*
X122975714Y-104242857D01*
X123023333Y-104147619D01*
X123118571Y-104100000D01*
X123642380Y-104100000D01*
X123642380Y-103480952D02*
X123594761Y-103576190D01*
X123547142Y-103623809D01*
X123451904Y-103671428D01*
X123166190Y-103671428D01*
X123070952Y-103623809D01*
X123023333Y-103576190D01*
X122975714Y-103480952D01*
X122975714Y-103338095D01*
X123023333Y-103242857D01*
X123070952Y-103195238D01*
X123166190Y-103147619D01*
X123451904Y-103147619D01*
X123547142Y-103195238D01*
X123594761Y-103242857D01*
X123642380Y-103338095D01*
X123642380Y-103480952D01*
X123737619Y-102957142D02*
X123737619Y-102195238D01*
X123642380Y-101957142D02*
X122642380Y-101957142D01*
X123642380Y-101385714D01*
X122642380Y-101385714D01*
X123642380Y-100480952D02*
X123118571Y-100480952D01*
X123023333Y-100528571D01*
X122975714Y-100623809D01*
X122975714Y-100814285D01*
X123023333Y-100909523D01*
X123594761Y-100480952D02*
X123642380Y-100576190D01*
X123642380Y-100814285D01*
X123594761Y-100909523D01*
X123499523Y-100957142D01*
X123404285Y-100957142D01*
X123309047Y-100909523D01*
X123261428Y-100814285D01*
X123261428Y-100576190D01*
X123213809Y-100480952D01*
X122975714Y-100004761D02*
X123642380Y-100004761D01*
X123070952Y-100004761D02*
X123023333Y-99957142D01*
X122975714Y-99861904D01*
X122975714Y-99719047D01*
X123023333Y-99623809D01*
X123118571Y-99576190D01*
X123642380Y-99576190D01*
X123642380Y-98957142D02*
X123594761Y-99052380D01*
X123547142Y-99100000D01*
X123451904Y-99147619D01*
X123166190Y-99147619D01*
X123070952Y-99100000D01*
X123023333Y-99052380D01*
X122975714Y-98957142D01*
X122975714Y-98814285D01*
X123023333Y-98719047D01*
X123070952Y-98671428D01*
X123166190Y-98623809D01*
X123451904Y-98623809D01*
X123547142Y-98671428D01*
X123594761Y-98719047D01*
X123642380Y-98814285D01*
X123642380Y-98957142D01*
X123737619Y-98433333D02*
X123737619Y-97671428D01*
X122975714Y-97528571D02*
X123642380Y-97290476D01*
X122975714Y-97052380D01*
X122642380Y-96766666D02*
X122642380Y-96147619D01*
X123023333Y-96480952D01*
X123023333Y-96338095D01*
X123070952Y-96242857D01*
X123118571Y-96195238D01*
X123213809Y-96147619D01*
X123451904Y-96147619D01*
X123547142Y-96195238D01*
X123594761Y-96242857D01*
X123642380Y-96338095D01*
X123642380Y-96623809D01*
X123594761Y-96719047D01*
X123547142Y-96766666D01*
X123547142Y-95719047D02*
X123594761Y-95671428D01*
X123642380Y-95719047D01*
X123594761Y-95766666D01*
X123547142Y-95719047D01*
X123642380Y-95719047D01*
X123642380Y-95338095D02*
X122975714Y-94814285D01*
X122975714Y-95338095D02*
X123642380Y-94814285D01*
%TO.C,J3*%
X107202380Y-142548333D02*
X107916666Y-142548333D01*
X108059523Y-142595952D01*
X108154761Y-142691190D01*
X108202380Y-142834047D01*
X108202380Y-142929285D01*
X107202380Y-142167380D02*
X107202380Y-141548333D01*
X107583333Y-141881666D01*
X107583333Y-141738809D01*
X107630952Y-141643571D01*
X107678571Y-141595952D01*
X107773809Y-141548333D01*
X108011904Y-141548333D01*
X108107142Y-141595952D01*
X108154761Y-141643571D01*
X108202380Y-141738809D01*
X108202380Y-142024523D01*
X108154761Y-142119761D01*
X108107142Y-142167380D01*
%TO.C,A1*%
X114855714Y-153836666D02*
X115331904Y-153836666D01*
X114760476Y-154122380D02*
X115093809Y-153122380D01*
X115427142Y-154122380D01*
X116284285Y-154122380D02*
X115712857Y-154122380D01*
X115998571Y-154122380D02*
X115998571Y-153122380D01*
X115903333Y-153265238D01*
X115808095Y-153360476D01*
X115712857Y-153408095D01*
X119753333Y-149042380D02*
X119277142Y-149042380D01*
X119277142Y-148042380D01*
X120086666Y-149042380D02*
X120086666Y-148042380D01*
X120420000Y-148756666D01*
X120753333Y-148042380D01*
X120753333Y-149042380D01*
X121134285Y-148042380D02*
X121800952Y-148042380D01*
X121372380Y-149042380D01*
X122324761Y-148470952D02*
X122229523Y-148423333D01*
X122181904Y-148375714D01*
X122134285Y-148280476D01*
X122134285Y-148232857D01*
X122181904Y-148137619D01*
X122229523Y-148090000D01*
X122324761Y-148042380D01*
X122515238Y-148042380D01*
X122610476Y-148090000D01*
X122658095Y-148137619D01*
X122705714Y-148232857D01*
X122705714Y-148280476D01*
X122658095Y-148375714D01*
X122610476Y-148423333D01*
X122515238Y-148470952D01*
X122324761Y-148470952D01*
X122229523Y-148518571D01*
X122181904Y-148566190D01*
X122134285Y-148661428D01*
X122134285Y-148851904D01*
X122181904Y-148947142D01*
X122229523Y-148994761D01*
X122324761Y-149042380D01*
X122515238Y-149042380D01*
X122610476Y-148994761D01*
X122658095Y-148947142D01*
X122705714Y-148851904D01*
X122705714Y-148661428D01*
X122658095Y-148566190D01*
X122610476Y-148518571D01*
X122515238Y-148470952D01*
X123324761Y-148042380D02*
X123420000Y-148042380D01*
X123515238Y-148090000D01*
X123562857Y-148137619D01*
X123610476Y-148232857D01*
X123658095Y-148423333D01*
X123658095Y-148661428D01*
X123610476Y-148851904D01*
X123562857Y-148947142D01*
X123515238Y-148994761D01*
X123420000Y-149042380D01*
X123324761Y-149042380D01*
X123229523Y-148994761D01*
X123181904Y-148947142D01*
X123134285Y-148851904D01*
X123086666Y-148661428D01*
X123086666Y-148423333D01*
X123134285Y-148232857D01*
X123181904Y-148137619D01*
X123229523Y-148090000D01*
X123324761Y-148042380D01*
X124562857Y-148042380D02*
X124086666Y-148042380D01*
X124039047Y-148518571D01*
X124086666Y-148470952D01*
X124181904Y-148423333D01*
X124420000Y-148423333D01*
X124515238Y-148470952D01*
X124562857Y-148518571D01*
X124610476Y-148613809D01*
X124610476Y-148851904D01*
X124562857Y-148947142D01*
X124515238Y-148994761D01*
X124420000Y-149042380D01*
X124181904Y-149042380D01*
X124086666Y-148994761D01*
X124039047Y-148947142D01*
%TO.C,C3*%
X129373333Y-64997142D02*
X129325714Y-65044761D01*
X129182857Y-65092380D01*
X129087619Y-65092380D01*
X128944761Y-65044761D01*
X128849523Y-64949523D01*
X128801904Y-64854285D01*
X128754285Y-64663809D01*
X128754285Y-64520952D01*
X128801904Y-64330476D01*
X128849523Y-64235238D01*
X128944761Y-64140000D01*
X129087619Y-64092380D01*
X129182857Y-64092380D01*
X129325714Y-64140000D01*
X129373333Y-64187619D01*
X129706666Y-64092380D02*
X130325714Y-64092380D01*
X129992380Y-64473333D01*
X130135238Y-64473333D01*
X130230476Y-64520952D01*
X130278095Y-64568571D01*
X130325714Y-64663809D01*
X130325714Y-64901904D01*
X130278095Y-64997142D01*
X130230476Y-65044761D01*
X130135238Y-65092380D01*
X129849523Y-65092380D01*
X129754285Y-65044761D01*
X129706666Y-64997142D01*
X127897142Y-66857619D02*
X127944761Y-66810000D01*
X128040000Y-66762380D01*
X128278095Y-66762380D01*
X128373333Y-66810000D01*
X128420952Y-66857619D01*
X128468571Y-66952857D01*
X128468571Y-67048095D01*
X128420952Y-67190952D01*
X127849523Y-67762380D01*
X128468571Y-67762380D01*
X128849523Y-66857619D02*
X128897142Y-66810000D01*
X128992380Y-66762380D01*
X129230476Y-66762380D01*
X129325714Y-66810000D01*
X129373333Y-66857619D01*
X129420952Y-66952857D01*
X129420952Y-67048095D01*
X129373333Y-67190952D01*
X128801904Y-67762380D01*
X129420952Y-67762380D01*
X129849523Y-67095714D02*
X129849523Y-68095714D01*
X129849523Y-67143333D02*
X129944761Y-67095714D01*
X130135238Y-67095714D01*
X130230476Y-67143333D01*
X130278095Y-67190952D01*
X130325714Y-67286190D01*
X130325714Y-67571904D01*
X130278095Y-67667142D01*
X130230476Y-67714761D01*
X130135238Y-67762380D01*
X129944761Y-67762380D01*
X129849523Y-67714761D01*
X131087619Y-67238571D02*
X130754285Y-67238571D01*
X130754285Y-67762380D02*
X130754285Y-66762380D01*
X131230476Y-66762380D01*
%TO.C,Q3*%
X112307619Y-56610238D02*
X112260000Y-56705476D01*
X112164761Y-56800714D01*
X112021904Y-56943571D01*
X111974285Y-57038809D01*
X111974285Y-57134047D01*
X112212380Y-57086428D02*
X112164761Y-57181666D01*
X112069523Y-57276904D01*
X111879047Y-57324523D01*
X111545714Y-57324523D01*
X111355238Y-57276904D01*
X111260000Y-57181666D01*
X111212380Y-57086428D01*
X111212380Y-56895952D01*
X111260000Y-56800714D01*
X111355238Y-56705476D01*
X111545714Y-56657857D01*
X111879047Y-56657857D01*
X112069523Y-56705476D01*
X112164761Y-56800714D01*
X112212380Y-56895952D01*
X112212380Y-57086428D01*
X111212380Y-56324523D02*
X111212380Y-55705476D01*
X111593333Y-56038809D01*
X111593333Y-55895952D01*
X111640952Y-55800714D01*
X111688571Y-55753095D01*
X111783809Y-55705476D01*
X112021904Y-55705476D01*
X112117142Y-55753095D01*
X112164761Y-55800714D01*
X112212380Y-55895952D01*
X112212380Y-56181666D01*
X112164761Y-56276904D01*
X112117142Y-56324523D01*
%TO.C,C4*%
X129767142Y-39596666D02*
X129814761Y-39644285D01*
X129862380Y-39787142D01*
X129862380Y-39882380D01*
X129814761Y-40025238D01*
X129719523Y-40120476D01*
X129624285Y-40168095D01*
X129433809Y-40215714D01*
X129290952Y-40215714D01*
X129100476Y-40168095D01*
X129005238Y-40120476D01*
X128910000Y-40025238D01*
X128862380Y-39882380D01*
X128862380Y-39787142D01*
X128910000Y-39644285D01*
X128957619Y-39596666D01*
X129195714Y-38739523D02*
X129862380Y-38739523D01*
X128814761Y-38977619D02*
X129529047Y-39215714D01*
X129529047Y-38596666D01*
X132437142Y-40858571D02*
X132484761Y-40810952D01*
X132532380Y-40858571D01*
X132484761Y-40906190D01*
X132437142Y-40858571D01*
X132532380Y-40858571D01*
X132532380Y-39858571D02*
X132532380Y-40430000D01*
X132532380Y-40144285D02*
X131532380Y-40144285D01*
X131675238Y-40239523D01*
X131770476Y-40334761D01*
X131818095Y-40430000D01*
X131865714Y-39430000D02*
X132865714Y-39430000D01*
X132389523Y-38953809D02*
X132484761Y-38906190D01*
X132532380Y-38810952D01*
X132389523Y-39430000D02*
X132484761Y-39382380D01*
X132532380Y-39287142D01*
X132532380Y-39096666D01*
X132484761Y-39001428D01*
X132389523Y-38953809D01*
X131865714Y-38953809D01*
X132008571Y-38049047D02*
X132008571Y-38382380D01*
X132532380Y-38382380D02*
X131532380Y-38382380D01*
X131532380Y-37906190D01*
%TO.C,R3*%
X112272380Y-62456666D02*
X111796190Y-62790000D01*
X112272380Y-63028095D02*
X111272380Y-63028095D01*
X111272380Y-62647142D01*
X111320000Y-62551904D01*
X111367619Y-62504285D01*
X111462857Y-62456666D01*
X111605714Y-62456666D01*
X111700952Y-62504285D01*
X111748571Y-62551904D01*
X111796190Y-62647142D01*
X111796190Y-63028095D01*
X111272380Y-62123333D02*
X111272380Y-61504285D01*
X111653333Y-61837619D01*
X111653333Y-61694761D01*
X111700952Y-61599523D01*
X111748571Y-61551904D01*
X111843809Y-61504285D01*
X112081904Y-61504285D01*
X112177142Y-61551904D01*
X112224761Y-61599523D01*
X112272380Y-61694761D01*
X112272380Y-61980476D01*
X112224761Y-62075714D01*
X112177142Y-62123333D01*
X109672380Y-63237857D02*
X109672380Y-63809285D01*
X109672380Y-63523571D02*
X108672380Y-63523571D01*
X108815238Y-63618809D01*
X108910476Y-63714047D01*
X108958095Y-63809285D01*
X108672380Y-62618809D02*
X108672380Y-62523571D01*
X108720000Y-62428333D01*
X108767619Y-62380714D01*
X108862857Y-62333095D01*
X109053333Y-62285476D01*
X109291428Y-62285476D01*
X109481904Y-62333095D01*
X109577142Y-62380714D01*
X109624761Y-62428333D01*
X109672380Y-62523571D01*
X109672380Y-62618809D01*
X109624761Y-62714047D01*
X109577142Y-62761666D01*
X109481904Y-62809285D01*
X109291428Y-62856904D01*
X109053333Y-62856904D01*
X108862857Y-62809285D01*
X108767619Y-62761666D01*
X108720000Y-62714047D01*
X108672380Y-62618809D01*
X109672380Y-61856904D02*
X108672380Y-61856904D01*
X109672380Y-61285476D02*
X109100952Y-61714047D01*
X108672380Y-61285476D02*
X109243809Y-61856904D01*
X109672380Y-60904523D02*
X109672380Y-60666428D01*
X109481904Y-60666428D01*
X109434285Y-60761666D01*
X109339047Y-60856904D01*
X109196190Y-60904523D01*
X108958095Y-60904523D01*
X108815238Y-60856904D01*
X108720000Y-60761666D01*
X108672380Y-60618809D01*
X108672380Y-60428333D01*
X108720000Y-60285476D01*
X108815238Y-60190238D01*
X108958095Y-60142619D01*
X109196190Y-60142619D01*
X109339047Y-60190238D01*
X109434285Y-60285476D01*
X109481904Y-60380714D01*
X109672380Y-60380714D01*
X109672380Y-60142619D01*
%TO.C,R7*%
X129363333Y-62572380D02*
X129030000Y-62096190D01*
X128791904Y-62572380D02*
X128791904Y-61572380D01*
X129172857Y-61572380D01*
X129268095Y-61620000D01*
X129315714Y-61667619D01*
X129363333Y-61762857D01*
X129363333Y-61905714D01*
X129315714Y-62000952D01*
X129268095Y-62048571D01*
X129172857Y-62096190D01*
X128791904Y-62096190D01*
X129696666Y-61572380D02*
X130363333Y-61572380D01*
X129934761Y-62572380D01*
X127815714Y-60142380D02*
X127244285Y-60142380D01*
X127530000Y-60142380D02*
X127530000Y-59142380D01*
X127434761Y-59285238D01*
X127339523Y-59380476D01*
X127244285Y-59428095D01*
X128434761Y-59142380D02*
X128530000Y-59142380D01*
X128625238Y-59190000D01*
X128672857Y-59237619D01*
X128720476Y-59332857D01*
X128768095Y-59523333D01*
X128768095Y-59761428D01*
X128720476Y-59951904D01*
X128672857Y-60047142D01*
X128625238Y-60094761D01*
X128530000Y-60142380D01*
X128434761Y-60142380D01*
X128339523Y-60094761D01*
X128291904Y-60047142D01*
X128244285Y-59951904D01*
X128196666Y-59761428D01*
X128196666Y-59523333D01*
X128244285Y-59332857D01*
X128291904Y-59237619D01*
X128339523Y-59190000D01*
X128434761Y-59142380D01*
X129196666Y-60142380D02*
X129196666Y-59142380D01*
X129530000Y-59856666D01*
X129863333Y-59142380D01*
X129863333Y-60142380D01*
X130291904Y-60142380D02*
X130530000Y-60142380D01*
X130530000Y-59951904D01*
X130434761Y-59904285D01*
X130339523Y-59809047D01*
X130291904Y-59666190D01*
X130291904Y-59428095D01*
X130339523Y-59285238D01*
X130434761Y-59190000D01*
X130577619Y-59142380D01*
X130768095Y-59142380D01*
X130910952Y-59190000D01*
X131006190Y-59285238D01*
X131053809Y-59428095D01*
X131053809Y-59666190D01*
X131006190Y-59809047D01*
X130910952Y-59904285D01*
X130815714Y-59951904D01*
X130815714Y-60142380D01*
X131053809Y-60142380D01*
%TO.C,R8*%
X123812380Y-39536666D02*
X123336190Y-39870000D01*
X123812380Y-40108095D02*
X122812380Y-40108095D01*
X122812380Y-39727142D01*
X122860000Y-39631904D01*
X122907619Y-39584285D01*
X123002857Y-39536666D01*
X123145714Y-39536666D01*
X123240952Y-39584285D01*
X123288571Y-39631904D01*
X123336190Y-39727142D01*
X123336190Y-40108095D01*
X123240952Y-38965238D02*
X123193333Y-39060476D01*
X123145714Y-39108095D01*
X123050476Y-39155714D01*
X123002857Y-39155714D01*
X122907619Y-39108095D01*
X122860000Y-39060476D01*
X122812380Y-38965238D01*
X122812380Y-38774761D01*
X122860000Y-38679523D01*
X122907619Y-38631904D01*
X123002857Y-38584285D01*
X123050476Y-38584285D01*
X123145714Y-38631904D01*
X123193333Y-38679523D01*
X123240952Y-38774761D01*
X123240952Y-38965238D01*
X123288571Y-39060476D01*
X123336190Y-39108095D01*
X123431428Y-39155714D01*
X123621904Y-39155714D01*
X123717142Y-39108095D01*
X123764761Y-39060476D01*
X123812380Y-38965238D01*
X123812380Y-38774761D01*
X123764761Y-38679523D01*
X123717142Y-38631904D01*
X123621904Y-38584285D01*
X123431428Y-38584285D01*
X123336190Y-38631904D01*
X123288571Y-38679523D01*
X123240952Y-38774761D01*
X126182380Y-41727142D02*
X126182380Y-42298571D01*
X126182380Y-42012857D02*
X125182380Y-42012857D01*
X125325238Y-42108095D01*
X125420476Y-42203333D01*
X125468095Y-42298571D01*
X126087142Y-41298571D02*
X126134761Y-41250952D01*
X126182380Y-41298571D01*
X126134761Y-41346190D01*
X126087142Y-41298571D01*
X126182380Y-41298571D01*
X125610952Y-40679523D02*
X125563333Y-40774761D01*
X125515714Y-40822380D01*
X125420476Y-40870000D01*
X125372857Y-40870000D01*
X125277619Y-40822380D01*
X125230000Y-40774761D01*
X125182380Y-40679523D01*
X125182380Y-40489047D01*
X125230000Y-40393809D01*
X125277619Y-40346190D01*
X125372857Y-40298571D01*
X125420476Y-40298571D01*
X125515714Y-40346190D01*
X125563333Y-40393809D01*
X125610952Y-40489047D01*
X125610952Y-40679523D01*
X125658571Y-40774761D01*
X125706190Y-40822380D01*
X125801428Y-40870000D01*
X125991904Y-40870000D01*
X126087142Y-40822380D01*
X126134761Y-40774761D01*
X126182380Y-40679523D01*
X126182380Y-40489047D01*
X126134761Y-40393809D01*
X126087142Y-40346190D01*
X125991904Y-40298571D01*
X125801428Y-40298571D01*
X125706190Y-40346190D01*
X125658571Y-40393809D01*
X125610952Y-40489047D01*
X125182380Y-39393809D02*
X125182380Y-39870000D01*
X125658571Y-39917619D01*
X125610952Y-39870000D01*
X125563333Y-39774761D01*
X125563333Y-39536666D01*
X125610952Y-39441428D01*
X125658571Y-39393809D01*
X125753809Y-39346190D01*
X125991904Y-39346190D01*
X126087142Y-39393809D01*
X126134761Y-39441428D01*
X126182380Y-39536666D01*
X126182380Y-39774761D01*
X126134761Y-39870000D01*
X126087142Y-39917619D01*
X126182380Y-38155714D02*
X125182380Y-38155714D01*
X126182380Y-37584285D02*
X125610952Y-38012857D01*
X125182380Y-37584285D02*
X125753809Y-38155714D01*
X126182380Y-37203333D02*
X126182380Y-36965238D01*
X125991904Y-36965238D01*
X125944285Y-37060476D01*
X125849047Y-37155714D01*
X125706190Y-37203333D01*
X125468095Y-37203333D01*
X125325238Y-37155714D01*
X125230000Y-37060476D01*
X125182380Y-36917619D01*
X125182380Y-36727142D01*
X125230000Y-36584285D01*
X125325238Y-36489047D01*
X125468095Y-36441428D01*
X125706190Y-36441428D01*
X125849047Y-36489047D01*
X125944285Y-36584285D01*
X125991904Y-36679523D01*
X126182380Y-36679523D01*
X126182380Y-36441428D01*
%TO.C,C2*%
X131903333Y-147479886D02*
X131855714Y-147527505D01*
X131712857Y-147575124D01*
X131617619Y-147575124D01*
X131474761Y-147527505D01*
X131379523Y-147432267D01*
X131331904Y-147337029D01*
X131284285Y-147146553D01*
X131284285Y-147003696D01*
X131331904Y-146813220D01*
X131379523Y-146717982D01*
X131474761Y-146622744D01*
X131617619Y-146575124D01*
X131712857Y-146575124D01*
X131855714Y-146622744D01*
X131903333Y-146670363D01*
X132284285Y-146670363D02*
X132331904Y-146622744D01*
X132427142Y-146575124D01*
X132665238Y-146575124D01*
X132760476Y-146622744D01*
X132808095Y-146670363D01*
X132855714Y-146765601D01*
X132855714Y-146860839D01*
X132808095Y-147003696D01*
X132236666Y-147575124D01*
X132855714Y-147575124D01*
X130641428Y-150217142D02*
X130689047Y-150264761D01*
X130641428Y-150312380D01*
X130593809Y-150264761D01*
X130641428Y-150217142D01*
X130641428Y-150312380D01*
X131641428Y-150312380D02*
X131070000Y-150312380D01*
X131355714Y-150312380D02*
X131355714Y-149312380D01*
X131260476Y-149455238D01*
X131165238Y-149550476D01*
X131070000Y-149598095D01*
X132070000Y-149645714D02*
X132070000Y-150645714D01*
X132546190Y-150169523D02*
X132593809Y-150264761D01*
X132689047Y-150312380D01*
X132070000Y-150169523D02*
X132117619Y-150264761D01*
X132212857Y-150312380D01*
X132403333Y-150312380D01*
X132498571Y-150264761D01*
X132546190Y-150169523D01*
X132546190Y-149645714D01*
X133450952Y-149788571D02*
X133117619Y-149788571D01*
X133117619Y-150312380D02*
X133117619Y-149312380D01*
X133593809Y-149312380D01*
%TO.C,J2*%
X121586666Y-33107380D02*
X121586666Y-33821666D01*
X121539047Y-33964523D01*
X121443809Y-34059761D01*
X121300952Y-34107380D01*
X121205714Y-34107380D01*
X122015238Y-33202619D02*
X122062857Y-33155000D01*
X122158095Y-33107380D01*
X122396190Y-33107380D01*
X122491428Y-33155000D01*
X122539047Y-33202619D01*
X122586666Y-33297857D01*
X122586666Y-33393095D01*
X122539047Y-33535952D01*
X121967619Y-34107380D01*
X122586666Y-34107380D01*
%TO.C,R6*%
X117352380Y-42136666D02*
X116876190Y-42470000D01*
X117352380Y-42708095D02*
X116352380Y-42708095D01*
X116352380Y-42327142D01*
X116400000Y-42231904D01*
X116447619Y-42184285D01*
X116542857Y-42136666D01*
X116685714Y-42136666D01*
X116780952Y-42184285D01*
X116828571Y-42231904D01*
X116876190Y-42327142D01*
X116876190Y-42708095D01*
X116352380Y-41279523D02*
X116352380Y-41470000D01*
X116400000Y-41565238D01*
X116447619Y-41612857D01*
X116590476Y-41708095D01*
X116780952Y-41755714D01*
X117161904Y-41755714D01*
X117257142Y-41708095D01*
X117304761Y-41660476D01*
X117352380Y-41565238D01*
X117352380Y-41374761D01*
X117304761Y-41279523D01*
X117257142Y-41231904D01*
X117161904Y-41184285D01*
X116923809Y-41184285D01*
X116828571Y-41231904D01*
X116780952Y-41279523D01*
X116733333Y-41374761D01*
X116733333Y-41565238D01*
X116780952Y-41660476D01*
X116828571Y-41708095D01*
X116923809Y-41755714D01*
X113847619Y-44398571D02*
X113800000Y-44350952D01*
X113752380Y-44255714D01*
X113752380Y-44017619D01*
X113800000Y-43922380D01*
X113847619Y-43874761D01*
X113942857Y-43827142D01*
X114038095Y-43827142D01*
X114180952Y-43874761D01*
X114752380Y-44446190D01*
X114752380Y-43827142D01*
X113847619Y-43446190D02*
X113800000Y-43398571D01*
X113752380Y-43303333D01*
X113752380Y-43065238D01*
X113800000Y-42970000D01*
X113847619Y-42922380D01*
X113942857Y-42874761D01*
X114038095Y-42874761D01*
X114180952Y-42922380D01*
X114752380Y-43493809D01*
X114752380Y-42874761D01*
X114657142Y-42446190D02*
X114704761Y-42398571D01*
X114752380Y-42446190D01*
X114704761Y-42493809D01*
X114657142Y-42446190D01*
X114752380Y-42446190D01*
X114752380Y-41446190D02*
X114752380Y-42017619D01*
X114752380Y-41731904D02*
X113752380Y-41731904D01*
X113895238Y-41827142D01*
X113990476Y-41922380D01*
X114038095Y-42017619D01*
X114752380Y-41065238D02*
X114752380Y-40827142D01*
X114561904Y-40827142D01*
X114514285Y-40922380D01*
X114419047Y-41017619D01*
X114276190Y-41065238D01*
X114038095Y-41065238D01*
X113895238Y-41017619D01*
X113800000Y-40922380D01*
X113752380Y-40779523D01*
X113752380Y-40589047D01*
X113800000Y-40446190D01*
X113895238Y-40350952D01*
X114038095Y-40303333D01*
X114276190Y-40303333D01*
X114419047Y-40350952D01*
X114514285Y-40446190D01*
X114561904Y-40541428D01*
X114752380Y-40541428D01*
X114752380Y-40303333D01*
%TO.C,U3*%
X130058095Y-45472380D02*
X130058095Y-46281904D01*
X130105714Y-46377142D01*
X130153333Y-46424761D01*
X130248571Y-46472380D01*
X130439047Y-46472380D01*
X130534285Y-46424761D01*
X130581904Y-46377142D01*
X130629523Y-46281904D01*
X130629523Y-45472380D01*
X131010476Y-45472380D02*
X131629523Y-45472380D01*
X131296190Y-45853333D01*
X131439047Y-45853333D01*
X131534285Y-45900952D01*
X131581904Y-45948571D01*
X131629523Y-46043809D01*
X131629523Y-46281904D01*
X131581904Y-46377142D01*
X131534285Y-46424761D01*
X131439047Y-46472380D01*
X131153333Y-46472380D01*
X131058095Y-46424761D01*
X131010476Y-46377142D01*
X128992380Y-54689047D02*
X128992380Y-54117619D01*
X129992380Y-54403333D02*
X128992380Y-54403333D01*
X129992380Y-53308095D02*
X129992380Y-53784285D01*
X128992380Y-53784285D01*
X129897142Y-52403333D02*
X129944761Y-52450952D01*
X129992380Y-52593809D01*
X129992380Y-52689047D01*
X129944761Y-52831904D01*
X129849523Y-52927142D01*
X129754285Y-52974761D01*
X129563809Y-53022380D01*
X129420952Y-53022380D01*
X129230476Y-52974761D01*
X129135238Y-52927142D01*
X129040000Y-52831904D01*
X128992380Y-52689047D01*
X128992380Y-52593809D01*
X129040000Y-52450952D01*
X129087619Y-52403333D01*
X129087619Y-52022380D02*
X129040000Y-51974761D01*
X128992380Y-51879523D01*
X128992380Y-51641428D01*
X129040000Y-51546190D01*
X129087619Y-51498571D01*
X129182857Y-51450952D01*
X129278095Y-51450952D01*
X129420952Y-51498571D01*
X129992380Y-52070000D01*
X129992380Y-51450952D01*
X128992380Y-51117619D02*
X128992380Y-50450952D01*
X129992380Y-50879523D01*
X129087619Y-50117619D02*
X129040000Y-50070000D01*
X128992380Y-49974761D01*
X128992380Y-49736666D01*
X129040000Y-49641428D01*
X129087619Y-49593809D01*
X129182857Y-49546190D01*
X129278095Y-49546190D01*
X129420952Y-49593809D01*
X129992380Y-50165238D01*
X129992380Y-49546190D01*
%TO.C,R2*%
X117352380Y-62456666D02*
X116876190Y-62790000D01*
X117352380Y-63028095D02*
X116352380Y-63028095D01*
X116352380Y-62647142D01*
X116400000Y-62551904D01*
X116447619Y-62504285D01*
X116542857Y-62456666D01*
X116685714Y-62456666D01*
X116780952Y-62504285D01*
X116828571Y-62551904D01*
X116876190Y-62647142D01*
X116876190Y-63028095D01*
X116447619Y-62075714D02*
X116400000Y-62028095D01*
X116352380Y-61932857D01*
X116352380Y-61694761D01*
X116400000Y-61599523D01*
X116447619Y-61551904D01*
X116542857Y-61504285D01*
X116638095Y-61504285D01*
X116780952Y-61551904D01*
X117352380Y-62123333D01*
X117352380Y-61504285D01*
X114752380Y-63237857D02*
X114752380Y-63809285D01*
X114752380Y-63523571D02*
X113752380Y-63523571D01*
X113895238Y-63618809D01*
X113990476Y-63714047D01*
X114038095Y-63809285D01*
X113752380Y-62618809D02*
X113752380Y-62523571D01*
X113800000Y-62428333D01*
X113847619Y-62380714D01*
X113942857Y-62333095D01*
X114133333Y-62285476D01*
X114371428Y-62285476D01*
X114561904Y-62333095D01*
X114657142Y-62380714D01*
X114704761Y-62428333D01*
X114752380Y-62523571D01*
X114752380Y-62618809D01*
X114704761Y-62714047D01*
X114657142Y-62761666D01*
X114561904Y-62809285D01*
X114371428Y-62856904D01*
X114133333Y-62856904D01*
X113942857Y-62809285D01*
X113847619Y-62761666D01*
X113800000Y-62714047D01*
X113752380Y-62618809D01*
X114752380Y-61856904D02*
X113752380Y-61856904D01*
X114752380Y-61285476D02*
X114180952Y-61714047D01*
X113752380Y-61285476D02*
X114323809Y-61856904D01*
X114752380Y-60904523D02*
X114752380Y-60666428D01*
X114561904Y-60666428D01*
X114514285Y-60761666D01*
X114419047Y-60856904D01*
X114276190Y-60904523D01*
X114038095Y-60904523D01*
X113895238Y-60856904D01*
X113800000Y-60761666D01*
X113752380Y-60618809D01*
X113752380Y-60428333D01*
X113800000Y-60285476D01*
X113895238Y-60190238D01*
X114038095Y-60142619D01*
X114276190Y-60142619D01*
X114419047Y-60190238D01*
X114514285Y-60285476D01*
X114561904Y-60380714D01*
X114752380Y-60380714D01*
X114752380Y-60142619D01*
D10*
%TO.C,R5*%
X118240000Y-45240000D02*
X120980000Y-45240000D01*
X119610000Y-46010000D02*
X119610000Y-45240000D01*
X120980000Y-45240000D02*
X120980000Y-38700000D01*
X118240000Y-38700000D02*
X118240000Y-45240000D01*
X120980000Y-38700000D02*
X118240000Y-38700000D01*
X119610000Y-37930000D02*
X119610000Y-38700000D01*
%TO.C,Q1*%
X117760000Y-51600000D02*
X117760000Y-55200000D01*
X122210001Y-53400000D02*
G75*
G03*
X117771522Y-51561522I-2600001J0D01*
G01*
X117771522Y-55238478D02*
G75*
G03*
X122210000Y-53400000I1838478J1838478D01*
G01*
%TO.C,R4*%
X109450000Y-46010000D02*
X109450000Y-45240000D01*
X110820000Y-45240000D02*
X110820000Y-38700000D01*
X110820000Y-38700000D02*
X108080000Y-38700000D01*
X108080000Y-38700000D02*
X108080000Y-45240000D01*
X109450000Y-37930000D02*
X109450000Y-38700000D01*
X108080000Y-45240000D02*
X110820000Y-45240000D01*
%TO.C,J4*%
X111760000Y-76235000D02*
X134680000Y-76235000D01*
X111760000Y-73575000D02*
X134680000Y-73575000D01*
X111760000Y-76235000D02*
X111760000Y-73575000D01*
X109160000Y-73575000D02*
X110490000Y-73575000D01*
X109160000Y-74905000D02*
X109160000Y-73575000D01*
X134680000Y-76235000D02*
X134680000Y-73575000D01*
%TO.C,Q2*%
X112680000Y-51600000D02*
X112680000Y-55200000D01*
X112691522Y-55238478D02*
G75*
G03*
X117130000Y-53400000I1838478J1838478D01*
G01*
X117130001Y-53400000D02*
G75*
G03*
X112691522Y-51561522I-2600001J0D01*
G01*
%TO.C,R1*%
X120980000Y-59020000D02*
X118240000Y-59020000D01*
X118240000Y-65560000D02*
X120980000Y-65560000D01*
X120980000Y-65560000D02*
X120980000Y-59020000D01*
X119610000Y-66330000D02*
X119610000Y-65560000D01*
X119610000Y-58250000D02*
X119610000Y-59020000D01*
X118240000Y-59020000D02*
X118240000Y-65560000D01*
%TO.C,C1*%
X111251000Y-147427744D02*
X111251000Y-148752744D01*
X110210000Y-150832744D02*
X110210000Y-152372744D01*
X111331000Y-150832744D02*
X111331000Y-152121744D01*
X112251000Y-148187744D02*
X112251000Y-151397744D01*
X111131000Y-147378744D02*
X111131000Y-148752744D01*
X110730000Y-147264744D02*
X110730000Y-148752744D01*
X110850000Y-150832744D02*
X110850000Y-152293744D01*
X112691000Y-148987744D02*
X112691000Y-150597744D01*
X111611000Y-147617744D02*
X111611000Y-148752744D01*
X111531000Y-150832744D02*
X111531000Y-152016744D01*
X110290000Y-150832744D02*
X110290000Y-152371744D01*
X112091000Y-150832744D02*
X112091000Y-151577744D01*
X111891000Y-147821744D02*
X111891000Y-148752744D01*
X111491000Y-150832744D02*
X111491000Y-152039744D01*
X111851000Y-147788744D02*
X111851000Y-148752744D01*
X111531000Y-147568744D02*
X111531000Y-148752744D01*
X111251000Y-150832744D02*
X111251000Y-152157744D01*
X111851000Y-150832744D02*
X111851000Y-151796744D01*
X112011000Y-150832744D02*
X112011000Y-151656744D01*
X111811000Y-150832744D02*
X111811000Y-151827744D01*
X111571000Y-147592744D02*
X111571000Y-148752744D01*
X110650000Y-147249744D02*
X110650000Y-148752744D01*
X110450000Y-147223744D02*
X110450000Y-148752744D01*
X111971000Y-150832744D02*
X111971000Y-151693744D01*
X112131000Y-148049744D02*
X112131000Y-148752744D01*
X112051000Y-150832744D02*
X112051000Y-151618744D01*
X110770000Y-150832744D02*
X110770000Y-152312744D01*
X112651000Y-148877744D02*
X112651000Y-150707744D01*
X111931000Y-147855744D02*
X111931000Y-148752744D01*
X110971000Y-150832744D02*
X110971000Y-152260744D01*
X112451000Y-148473744D02*
X112451000Y-151111744D01*
X110810000Y-150832744D02*
X110810000Y-152303744D01*
X110690000Y-147256744D02*
X110690000Y-148752744D01*
X112771000Y-149274744D02*
X112771000Y-150310744D01*
X112731000Y-149115744D02*
X112731000Y-150469744D01*
X110210000Y-147212744D02*
X110210000Y-148752744D01*
X111171000Y-147394744D02*
X111171000Y-148752744D01*
X110610000Y-150832744D02*
X110610000Y-152342744D01*
X110290000Y-147213744D02*
X110290000Y-148752744D01*
X110490000Y-147227744D02*
X110490000Y-148752744D01*
X111331000Y-147463744D02*
X111331000Y-148752744D01*
X110850000Y-147291744D02*
X110850000Y-148752744D01*
X110330000Y-147214744D02*
X110330000Y-148752744D01*
X112291000Y-148238744D02*
X112291000Y-151346744D01*
X111691000Y-150832744D02*
X111691000Y-151914744D01*
X111691000Y-147670744D02*
X111691000Y-148752744D01*
X111571000Y-150832744D02*
X111571000Y-151992744D01*
X111451000Y-150832744D02*
X111451000Y-152060744D01*
X112211000Y-150832744D02*
X112211000Y-151445744D01*
X112051000Y-147966744D02*
X112051000Y-148752744D01*
X111051000Y-150832744D02*
X111051000Y-152234744D01*
X110530000Y-150832744D02*
X110530000Y-152353744D01*
X110530000Y-147231744D02*
X110530000Y-148752744D01*
X110410000Y-150832744D02*
X110410000Y-152365744D01*
X111891000Y-150832744D02*
X111891000Y-151763744D01*
X111611000Y-150832744D02*
X111611000Y-151967744D01*
X110450000Y-150832744D02*
X110450000Y-152361744D01*
X111211000Y-150832744D02*
X111211000Y-152174744D01*
X111731000Y-150832744D02*
X111731000Y-151887744D01*
X112091000Y-148007744D02*
X112091000Y-148752744D01*
X112211000Y-148139744D02*
X112211000Y-148752744D01*
X111771000Y-147727744D02*
X111771000Y-148752744D01*
X110770000Y-147272744D02*
X110770000Y-148752744D01*
X111291000Y-150832744D02*
X111291000Y-152140744D01*
X110971000Y-147324744D02*
X110971000Y-148752744D01*
X110410000Y-147219744D02*
X110410000Y-148752744D01*
X111091000Y-150832744D02*
X111091000Y-152220744D01*
X111051000Y-147350744D02*
X111051000Y-148752744D01*
X110810000Y-147281744D02*
X110810000Y-148752744D01*
X110931000Y-150832744D02*
X110931000Y-152272744D01*
X110730000Y-150832744D02*
X110730000Y-152320744D01*
X111811000Y-147757744D02*
X111811000Y-148752744D01*
X111651000Y-150832744D02*
X111651000Y-151941744D01*
X110250000Y-147212744D02*
X110250000Y-148752744D01*
X111211000Y-147410744D02*
X111211000Y-148752744D01*
X111491000Y-147545744D02*
X111491000Y-148752744D01*
X112811000Y-149508744D02*
X112811000Y-150076744D01*
X111451000Y-147524744D02*
X111451000Y-148752744D01*
X111411000Y-147502744D02*
X111411000Y-148752744D01*
X110250000Y-150832744D02*
X110250000Y-152372744D01*
X107405225Y-148317744D02*
X107905225Y-148317744D01*
X112371000Y-148349744D02*
X112371000Y-151235744D01*
X107655225Y-148067744D02*
X107655225Y-148567744D01*
X110570000Y-150832744D02*
X110570000Y-152348744D01*
X111171000Y-150832744D02*
X111171000Y-152190744D01*
X110370000Y-150832744D02*
X110370000Y-152368744D01*
X111091000Y-147364744D02*
X111091000Y-148752744D01*
X111651000Y-147643744D02*
X111651000Y-148752744D01*
X111371000Y-150832744D02*
X111371000Y-152102744D01*
X111011000Y-147337744D02*
X111011000Y-148752744D01*
X111131000Y-150832744D02*
X111131000Y-152206744D01*
X111771000Y-150832744D02*
X111771000Y-151857744D01*
X111731000Y-147697744D02*
X111731000Y-148752744D01*
X110890000Y-147301744D02*
X110890000Y-148752744D01*
X112411000Y-148409744D02*
X112411000Y-151175744D01*
X110330000Y-150832744D02*
X110330000Y-152370744D01*
X112011000Y-147928744D02*
X112011000Y-148752744D01*
X110610000Y-147242744D02*
X110610000Y-148752744D01*
X112131000Y-150832744D02*
X112131000Y-151535744D01*
X111291000Y-147444744D02*
X111291000Y-148752744D01*
X111371000Y-147482744D02*
X111371000Y-148752744D01*
X112331000Y-148292744D02*
X112331000Y-151292744D01*
X112491000Y-148541744D02*
X112491000Y-151043744D01*
X111011000Y-150832744D02*
X111011000Y-152247744D01*
X112571000Y-148694744D02*
X112571000Y-150890744D01*
X110890000Y-150832744D02*
X110890000Y-152283744D01*
X111411000Y-150832744D02*
X111411000Y-152082744D01*
X110931000Y-147312744D02*
X110931000Y-148752744D01*
X111931000Y-150832744D02*
X111931000Y-151729744D01*
X110490000Y-150832744D02*
X110490000Y-152357744D01*
X110570000Y-147236744D02*
X110570000Y-148752744D01*
X112611000Y-148781744D02*
X112611000Y-150803744D01*
X112531000Y-148614744D02*
X112531000Y-150970744D01*
X111971000Y-147891744D02*
X111971000Y-148752744D01*
X112171000Y-148093744D02*
X112171000Y-148752744D01*
X110650000Y-150832744D02*
X110650000Y-152335744D01*
X112171000Y-150832744D02*
X112171000Y-151491744D01*
X110370000Y-147216744D02*
X110370000Y-148752744D01*
X110690000Y-150832744D02*
X110690000Y-152328744D01*
X112830000Y-149792744D02*
G75*
G03*
X112830000Y-149792744I-2620000J0D01*
G01*
%TO.C,J1*%
X106850000Y-155392744D02*
X106850000Y-164512744D01*
X106850000Y-164512744D02*
X136970000Y-164512744D01*
X125798000Y-157798744D02*
X125418000Y-158178744D01*
X110798000Y-157798744D02*
X110691000Y-157905744D01*
X130798000Y-157798744D02*
X130418000Y-158178744D01*
X128403000Y-160726744D02*
X128023000Y-161106744D01*
X108128000Y-160999744D02*
X108022000Y-161106744D01*
X106850000Y-164052744D02*
X136970000Y-164052744D01*
X106610000Y-164752744D02*
X107010000Y-164752744D01*
X106850000Y-155392744D02*
X136970000Y-155392744D01*
X116064000Y-158064744D02*
X115669000Y-158460744D01*
X118152000Y-160444744D02*
X117757000Y-160840744D01*
X128152000Y-160444744D02*
X127757000Y-160840744D01*
X133403000Y-160726744D02*
X133023000Y-161106744D01*
X115798000Y-157798744D02*
X115418000Y-158178744D01*
X135798000Y-157798744D02*
X135418000Y-158178744D01*
X107862000Y-160733744D02*
X107756000Y-160840744D01*
X133152000Y-160444744D02*
X132757000Y-160840744D01*
X136970000Y-155392744D02*
X136970000Y-164512744D01*
X118403000Y-160726744D02*
X118023000Y-161106744D01*
X126064000Y-158064744D02*
X125669000Y-158460744D01*
X123403000Y-160726744D02*
X123023000Y-161106744D01*
X131064000Y-158064744D02*
X130669000Y-158460744D01*
X120798000Y-157798744D02*
X120418000Y-158178744D01*
X111064000Y-158064744D02*
X110957000Y-158171744D01*
X113403000Y-160726744D02*
X113023000Y-161106744D01*
X136064000Y-158064744D02*
X135669000Y-158460744D01*
X106610000Y-164112744D02*
X106610000Y-164752744D01*
X113152000Y-160444744D02*
X112757000Y-160840744D01*
X123152000Y-160444744D02*
X122757000Y-160840744D01*
X121064000Y-158064744D02*
X120669000Y-158460744D01*
X106850000Y-162952744D02*
X136970000Y-162952744D01*
X131590000Y-159452744D02*
G75*
G03*
X131590000Y-159452744I-2180000J0D01*
G01*
X121590000Y-159452744D02*
G75*
G03*
X121590000Y-159452744I-2180000J0D01*
G01*
X136590000Y-159452744D02*
G75*
G03*
X136590000Y-159452744I-2180000J0D01*
G01*
X111590000Y-159452744D02*
G75*
G03*
X111590000Y-159452744I-2180000J0D01*
G01*
X116590000Y-159452744D02*
G75*
G03*
X116590000Y-159452744I-2180000J0D01*
G01*
X126590000Y-159452744D02*
G75*
G03*
X126590000Y-159452744I-2180000J0D01*
G01*
%TO.C,A2*%
X112900000Y-78610000D02*
X112900000Y-81280000D01*
X112900000Y-83820000D02*
X112900000Y-122050000D01*
X115570000Y-83820000D02*
X112900000Y-83820000D01*
X128270000Y-81280000D02*
X130940000Y-81280000D01*
X115570000Y-83820000D02*
X115570000Y-81280000D01*
X128270000Y-119380000D02*
X130940000Y-119380000D01*
X112900000Y-122050000D02*
X130940000Y-122050000D01*
X128270000Y-81280000D02*
X128270000Y-119380000D01*
X115570000Y-81280000D02*
X112900000Y-81280000D01*
X115570000Y-83820000D02*
X115570000Y-119380000D01*
X115570000Y-119380000D02*
X112900000Y-119380000D01*
X130940000Y-122050000D02*
X130940000Y-78610000D01*
X130940000Y-78610000D02*
X112900000Y-78610000D01*
%TO.C,J3*%
X111790000Y-143545000D02*
X134710000Y-143545000D01*
X109190000Y-142215000D02*
X109190000Y-140885000D01*
X111790000Y-143545000D02*
X111790000Y-140885000D01*
X111790000Y-140885000D02*
X134710000Y-140885000D01*
X134710000Y-143545000D02*
X134710000Y-140885000D01*
X109190000Y-140885000D02*
X110520000Y-140885000D01*
%TO.C,A1*%
X120070000Y-149765000D02*
X120070000Y-151275000D01*
X123771000Y-149765000D02*
X123771000Y-151275000D01*
X116800000Y-149765000D02*
X127040000Y-149765000D01*
X116800000Y-154406000D02*
X127040000Y-154406000D01*
X127040000Y-149765000D02*
X127040000Y-154406000D01*
X116800000Y-149765000D02*
X116800000Y-154406000D01*
X116800000Y-151275000D02*
X127040000Y-151275000D01*
%TO.C,C3*%
X126870000Y-68980000D02*
X132210000Y-68980000D01*
X132250000Y-67310000D02*
X132210000Y-67310000D01*
X126830000Y-67310000D02*
X126870000Y-67310000D01*
X132210000Y-68980000D02*
X132210000Y-65640000D01*
X126870000Y-65640000D02*
X126870000Y-68980000D01*
X132210000Y-65640000D02*
X126870000Y-65640000D01*
%TO.C,Q3*%
X107600000Y-51600000D02*
X107600000Y-55200000D01*
X112050001Y-53400000D02*
G75*
G03*
X107611522Y-51561522I-2600001J0D01*
G01*
X107611522Y-55238478D02*
G75*
G03*
X112050000Y-53400000I1838478J1838478D01*
G01*
%TO.C,C4*%
X130410000Y-42100000D02*
X133750000Y-42100000D01*
X132080000Y-36720000D02*
X132080000Y-36760000D01*
X133750000Y-36760000D02*
X130410000Y-36760000D01*
X132080000Y-42140000D02*
X132080000Y-42100000D01*
X130410000Y-36760000D02*
X130410000Y-42100000D01*
X133750000Y-42100000D02*
X133750000Y-36760000D01*
%TO.C,R3*%
X108080000Y-59020000D02*
X108080000Y-65560000D01*
X108080000Y-65560000D02*
X110820000Y-65560000D01*
X110820000Y-65560000D02*
X110820000Y-59020000D01*
X109450000Y-66330000D02*
X109450000Y-65560000D01*
X109450000Y-58250000D02*
X109450000Y-59020000D01*
X110820000Y-59020000D02*
X108080000Y-59020000D01*
%TO.C,R7*%
X126260000Y-58380000D02*
X126260000Y-61120000D01*
X133570000Y-59750000D02*
X132800000Y-59750000D01*
X132800000Y-61120000D02*
X132800000Y-58380000D01*
X125490000Y-59750000D02*
X126260000Y-59750000D01*
X132800000Y-58380000D02*
X126260000Y-58380000D01*
X126260000Y-61120000D02*
X132800000Y-61120000D01*
%TO.C,R8*%
X125730000Y-35330000D02*
X125730000Y-36100000D01*
X125730000Y-43410000D02*
X125730000Y-42640000D01*
X127100000Y-36100000D02*
X124360000Y-36100000D01*
X127100000Y-42640000D02*
X127100000Y-36100000D01*
X124360000Y-36100000D02*
X124360000Y-42640000D01*
X124360000Y-42640000D02*
X127100000Y-42640000D01*
%TO.C,C2*%
X134780000Y-149792744D02*
X134740000Y-149792744D01*
X134740000Y-151462744D02*
X134740000Y-148122744D01*
X134740000Y-148122744D02*
X129400000Y-148122744D01*
X129400000Y-148122744D02*
X129400000Y-151462744D01*
X129400000Y-151462744D02*
X134740000Y-151462744D01*
X129360000Y-149792744D02*
X129400000Y-149792744D01*
%TO.C,J2*%
X120808000Y-25786000D02*
X120428000Y-26166000D01*
X133162000Y-28432000D02*
X132767000Y-28828000D01*
X121074000Y-26052000D02*
X120679000Y-26448000D01*
X123162000Y-28432000D02*
X122767000Y-28828000D01*
X128162000Y-28432000D02*
X127767000Y-28828000D01*
X116074000Y-26052000D02*
X115679000Y-26448000D01*
X123413000Y-28714000D02*
X123033000Y-29094000D01*
X108138000Y-28987000D02*
X108032000Y-29094000D01*
X118413000Y-28714000D02*
X118033000Y-29094000D01*
X106860000Y-23380000D02*
X106860000Y-32500000D01*
X136980000Y-23380000D02*
X136980000Y-32500000D01*
X106860000Y-30940000D02*
X136980000Y-30940000D01*
X106620000Y-32100000D02*
X106620000Y-32740000D01*
X113413000Y-28714000D02*
X113033000Y-29094000D01*
X106860000Y-32040000D02*
X136980000Y-32040000D01*
X136074000Y-26052000D02*
X135679000Y-26448000D01*
X110808000Y-25786000D02*
X110701000Y-25893000D01*
X128413000Y-28714000D02*
X128033000Y-29094000D01*
X106620000Y-32740000D02*
X107020000Y-32740000D01*
X135808000Y-25786000D02*
X135428000Y-26166000D01*
X130808000Y-25786000D02*
X130428000Y-26166000D01*
X106860000Y-23380000D02*
X136980000Y-23380000D01*
X125808000Y-25786000D02*
X125428000Y-26166000D01*
X107872000Y-28721000D02*
X107766000Y-28828000D01*
X111074000Y-26052000D02*
X110967000Y-26159000D01*
X113162000Y-28432000D02*
X112767000Y-28828000D01*
X115808000Y-25786000D02*
X115428000Y-26166000D01*
X131074000Y-26052000D02*
X130679000Y-26448000D01*
X133413000Y-28714000D02*
X133033000Y-29094000D01*
X126074000Y-26052000D02*
X125679000Y-26448000D01*
X118162000Y-28432000D02*
X117767000Y-28828000D01*
X106860000Y-32500000D02*
X136980000Y-32500000D01*
X136600000Y-27440000D02*
G75*
G03*
X136600000Y-27440000I-2180000J0D01*
G01*
X121600000Y-27440000D02*
G75*
G03*
X121600000Y-27440000I-2180000J0D01*
G01*
X111600000Y-27440000D02*
G75*
G03*
X111600000Y-27440000I-2180000J0D01*
G01*
X131600000Y-27440000D02*
G75*
G03*
X131600000Y-27440000I-2180000J0D01*
G01*
X116600000Y-27440000D02*
G75*
G03*
X116600000Y-27440000I-2180000J0D01*
G01*
X126600000Y-27440000D02*
G75*
G03*
X126600000Y-27440000I-2180000J0D01*
G01*
%TO.C,R6*%
X113160000Y-45240000D02*
X115900000Y-45240000D01*
X115900000Y-45240000D02*
X115900000Y-38700000D01*
X115900000Y-38700000D02*
X113160000Y-38700000D01*
X113160000Y-38700000D02*
X113160000Y-45240000D01*
X114530000Y-37930000D02*
X114530000Y-38700000D01*
X114530000Y-46010000D02*
X114530000Y-45240000D01*
%TO.C,U3*%
X132190000Y-57240000D02*
X132190000Y-46960000D01*
X132190000Y-46960000D02*
X130540000Y-46960000D01*
X126890000Y-57240000D02*
X132190000Y-57240000D01*
X126890000Y-46960000D02*
X126890000Y-57240000D01*
X128540000Y-46960000D02*
X126890000Y-46960000D01*
X128540000Y-46960000D02*
G75*
G03*
X130540000Y-46960000I1000000J0D01*
G01*
%TO.C,R2*%
X113160000Y-59020000D02*
X113160000Y-65560000D01*
X115900000Y-59020000D02*
X113160000Y-59020000D01*
X113160000Y-65560000D02*
X115900000Y-65560000D01*
X114530000Y-66330000D02*
X114530000Y-65560000D01*
X114530000Y-58250000D02*
X114530000Y-59020000D01*
X115900000Y-65560000D02*
X115900000Y-59020000D01*
%TD*%
M02*
