%TF.GenerationSoftware,KiCad,Pcbnew,(6.0.5-0)*%
%TF.CreationDate,2022-07-08T10:13:23-04:00*%
%TF.ProjectId,OBS,4f42532e-6b69-4636-9164-5f7063625858,rev?*%
%TF.SameCoordinates,Original*%
%TF.FileFunction,Copper,L1,Top*%
%TF.FilePolarity,Positive*%
%FSLAX46Y46*%
G04 Gerber Fmt 4.6, Leading zero omitted, Abs format (unit mm)*
G04 Created by KiCad (PCBNEW (6.0.5-0)) date 2022-07-08 10:13:23*
%MOMM*%
%LPD*%
G01*
G04 APERTURE LIST*
%TA.AperFunction,ComponentPad*%
%ADD10C,1.600000*%
%TD*%
%TA.AperFunction,ComponentPad*%
%ADD11O,1.600000X1.600000*%
%TD*%
%TA.AperFunction,ComponentPad*%
%ADD12R,1.500000X1.050000*%
%TD*%
%TA.AperFunction,ComponentPad*%
%ADD13O,1.500000X1.050000*%
%TD*%
%TA.AperFunction,ComponentPad*%
%ADD14R,1.700000X1.700000*%
%TD*%
%TA.AperFunction,ComponentPad*%
%ADD15O,1.700000X1.700000*%
%TD*%
%TA.AperFunction,ComponentPad*%
%ADD16R,1.600000X1.600000*%
%TD*%
%TA.AperFunction,ComponentPad*%
%ADD17R,2.600000X2.600000*%
%TD*%
%TA.AperFunction,ComponentPad*%
%ADD18C,2.600000*%
%TD*%
%TA.AperFunction,ComponentPad*%
%ADD19R,1.905000X2.000000*%
%TD*%
%TA.AperFunction,ComponentPad*%
%ADD20O,1.905000X2.000000*%
%TD*%
%TA.AperFunction,Conductor*%
%ADD21C,0.250000*%
%TD*%
G04 APERTURE END LIST*
D10*
%TO.P,R5,1*%
%TO.N,/Vin*%
X119610000Y-36890000D03*
D11*
%TO.P,R5,2*%
%TO.N,Net-(Q1-Pad1)*%
X119610000Y-47050000D03*
%TD*%
D12*
%TO.P,Q1,1,E*%
%TO.N,Net-(Q1-Pad1)*%
X119610000Y-52130000D03*
D13*
%TO.P,Q1,2,B*%
%TO.N,Net-(Q1-Pad2)*%
X119610000Y-53400000D03*
%TO.P,Q1,3,C*%
%TO.N,Net-(A2-Pad27)*%
X119610000Y-54670000D03*
%TD*%
D10*
%TO.P,R4,1*%
%TO.N,/Vin*%
X109450000Y-36890000D03*
D11*
%TO.P,R4,2*%
%TO.N,Net-(Q3-Pad1)*%
X109450000Y-47050000D03*
%TD*%
D14*
%TO.P,J4,1,Pin_1*%
%TO.N,Net-(A2-Pad27)*%
X110490000Y-74905000D03*
D15*
%TO.P,J4,2,Pin_2*%
%TO.N,GND*%
X113030000Y-74905000D03*
%TO.P,J4,3,Pin_3*%
%TO.N,Net-(A2-Pad24)*%
X115570000Y-74905000D03*
%TO.P,J4,4,Pin_4*%
%TO.N,Net-(A2-Pad23)*%
X118110000Y-74905000D03*
%TO.P,J4,5,Pin_5*%
%TO.N,GND*%
X120650000Y-74905000D03*
%TO.P,J4,6,Pin_6*%
%TO.N,unconnected-(J4-Pad6)*%
X123190000Y-74905000D03*
%TO.P,J4,7,Pin_7*%
%TO.N,Net-(R8-Pad2)*%
X125730000Y-74905000D03*
%TO.P,J4,8,Pin_8*%
%TO.N,unconnected-(J4-Pad8)*%
X128270000Y-74905000D03*
%TO.P,J4,9,Pin_9*%
%TO.N,unconnected-(J4-Pad9)*%
X130810000Y-74905000D03*
%TO.P,J4,10,Pin_10*%
%TO.N,unconnected-(J4-Pad10)*%
X133350000Y-74905000D03*
%TD*%
D12*
%TO.P,Q2,1,E*%
%TO.N,Net-(Q2-Pad1)*%
X114530000Y-52130000D03*
D13*
%TO.P,Q2,2,B*%
%TO.N,Net-(Q2-Pad2)*%
X114530000Y-53400000D03*
%TO.P,Q2,3,C*%
%TO.N,Net-(A2-Pad27)*%
X114530000Y-54670000D03*
%TD*%
D10*
%TO.P,R1,1*%
%TO.N,Net-(Q1-Pad2)*%
X119610000Y-57210000D03*
D11*
%TO.P,R1,2*%
%TO.N,Net-(A2-Pad5)*%
X119610000Y-67370000D03*
%TD*%
D16*
%TO.P,C1,1*%
%TO.N,/Vin*%
X109210000Y-149792744D03*
D10*
%TO.P,C1,2*%
%TO.N,GND*%
X111210000Y-149792744D03*
%TD*%
D17*
%TO.P,J1,1,Pin_1*%
%TO.N,unconnected-(J1-Pad1)*%
X109410000Y-159452744D03*
D18*
%TO.P,J1,2,Pin_2*%
%TO.N,GND*%
X114410000Y-159452744D03*
%TO.P,J1,3,Pin_3*%
%TO.N,/Vin*%
X119410000Y-159452744D03*
%TO.P,J1,4,Pin_4*%
%TO.N,GND*%
X124410000Y-159452744D03*
%TO.P,J1,5,Pin_5*%
%TO.N,/Rx*%
X129410000Y-159452744D03*
%TO.P,J1,6,Pin_6*%
%TO.N,/Tx*%
X134410000Y-159452744D03*
%TD*%
D16*
%TO.P,A2,1,D1/TX*%
%TO.N,Net-(A2-Pad1)*%
X114300000Y-82550000D03*
D11*
%TO.P,A2,2,D0/RX*%
%TO.N,Net-(A2-Pad2)*%
X114300000Y-85090000D03*
%TO.P,A2,3,~{RESET}*%
%TO.N,unconnected-(A2-Pad3)*%
X114300000Y-87630000D03*
%TO.P,A2,4,GND*%
%TO.N,unconnected-(A2-Pad4)*%
X114300000Y-90170000D03*
%TO.P,A2,5,D2*%
%TO.N,Net-(A2-Pad5)*%
X114300000Y-92710000D03*
%TO.P,A2,6,D3*%
%TO.N,Net-(A2-Pad6)*%
X114300000Y-95250000D03*
%TO.P,A2,7,D4*%
%TO.N,Net-(A2-Pad7)*%
X114300000Y-97790000D03*
%TO.P,A2,8,D5*%
%TO.N,unconnected-(A2-Pad8)*%
X114300000Y-100330000D03*
%TO.P,A2,9,D6*%
%TO.N,unconnected-(A2-Pad9)*%
X114300000Y-102870000D03*
%TO.P,A2,10,D7*%
%TO.N,unconnected-(A2-Pad10)*%
X114300000Y-105410000D03*
%TO.P,A2,11,D8*%
%TO.N,unconnected-(A2-Pad11)*%
X114300000Y-107950000D03*
%TO.P,A2,12,D9*%
%TO.N,unconnected-(A2-Pad12)*%
X114300000Y-110490000D03*
%TO.P,A2,13,D10*%
%TO.N,unconnected-(A2-Pad13)*%
X114300000Y-113030000D03*
%TO.P,A2,14,D11*%
%TO.N,unconnected-(A2-Pad14)*%
X114300000Y-115570000D03*
%TO.P,A2,15,D12*%
%TO.N,unconnected-(A2-Pad15)*%
X114300000Y-118110000D03*
%TO.P,A2,16,D13*%
%TO.N,unconnected-(A2-Pad16)*%
X129540000Y-118110000D03*
%TO.P,A2,17,3V3*%
%TO.N,unconnected-(A2-Pad17)*%
X129540000Y-115570000D03*
%TO.P,A2,18,AREF*%
%TO.N,unconnected-(A2-Pad18)*%
X129540000Y-113030000D03*
%TO.P,A2,19,A0*%
%TO.N,unconnected-(A2-Pad19)*%
X129540000Y-110490000D03*
%TO.P,A2,20,A1*%
%TO.N,unconnected-(A2-Pad20)*%
X129540000Y-107950000D03*
%TO.P,A2,21,A2*%
%TO.N,unconnected-(A2-Pad21)*%
X129540000Y-105410000D03*
%TO.P,A2,22,A3*%
%TO.N,unconnected-(A2-Pad22)*%
X129540000Y-102870000D03*
%TO.P,A2,23,A4*%
%TO.N,Net-(A2-Pad23)*%
X129540000Y-100330000D03*
%TO.P,A2,24,A5*%
%TO.N,Net-(A2-Pad24)*%
X129540000Y-97790000D03*
%TO.P,A2,25,A6*%
%TO.N,unconnected-(A2-Pad25)*%
X129540000Y-95250000D03*
%TO.P,A2,26,A7*%
%TO.N,unconnected-(A2-Pad26)*%
X129540000Y-92710000D03*
%TO.P,A2,27,+5V*%
%TO.N,Net-(A2-Pad27)*%
X129540000Y-90170000D03*
%TO.P,A2,28,~{RESET}*%
%TO.N,unconnected-(A2-Pad28)*%
X129540000Y-87630000D03*
%TO.P,A2,29,GND*%
%TO.N,GND*%
X129540000Y-85090000D03*
%TO.P,A2,30,VIN*%
%TO.N,unconnected-(A2-Pad30)*%
X129540000Y-82550000D03*
%TD*%
D14*
%TO.P,J3,1,Pin_1*%
%TO.N,/Tx*%
X110520000Y-142215000D03*
D15*
%TO.P,J3,2,Pin_2*%
%TO.N,unconnected-(J3-Pad2)*%
X113060000Y-142215000D03*
%TO.P,J3,3,Pin_3*%
%TO.N,/Rx*%
X115600000Y-142215000D03*
%TO.P,J3,4,Pin_4*%
%TO.N,unconnected-(J3-Pad4)*%
X118140000Y-142215000D03*
%TO.P,J3,5,Pin_5*%
%TO.N,Net-(A2-Pad27)*%
X120680000Y-142215000D03*
%TO.P,J3,6,Pin_6*%
%TO.N,GND*%
X123220000Y-142215000D03*
%TO.P,J3,7,Pin_7*%
%TO.N,Net-(A2-Pad1)*%
X125760000Y-142215000D03*
%TO.P,J3,8,Pin_8*%
%TO.N,unconnected-(J3-Pad8)*%
X128300000Y-142215000D03*
%TO.P,J3,9,Pin_9*%
%TO.N,Net-(A2-Pad2)*%
X130840000Y-142215000D03*
%TO.P,J3,10,Pin_10*%
%TO.N,unconnected-(J3-Pad10)*%
X133380000Y-142215000D03*
%TD*%
D19*
%TO.P,A1,1,VI*%
%TO.N,/Vin*%
X119380000Y-153035000D03*
D20*
%TO.P,A1,2,GND*%
%TO.N,GND*%
X121920000Y-153035000D03*
%TO.P,A1,3,VO*%
%TO.N,Net-(A2-Pad27)*%
X124460000Y-153035000D03*
%TD*%
D10*
%TO.P,C3,1*%
%TO.N,Net-(C3-Pad1)*%
X125790000Y-67310000D03*
D11*
%TO.P,C3,2*%
%TO.N,Net-(R7-Pad1)*%
X133290000Y-67310000D03*
%TD*%
D12*
%TO.P,Q3,1,E*%
%TO.N,Net-(Q3-Pad1)*%
X109450000Y-52130000D03*
D13*
%TO.P,Q3,2,B*%
%TO.N,Net-(Q3-Pad2)*%
X109450000Y-53400000D03*
%TO.P,Q3,3,C*%
%TO.N,Net-(A2-Pad27)*%
X109450000Y-54670000D03*
%TD*%
D10*
%TO.P,C4,1*%
%TO.N,Net-(R8-Pad2)*%
X132080000Y-43180000D03*
D11*
%TO.P,C4,2*%
%TO.N,GND*%
X132080000Y-35680000D03*
%TD*%
D10*
%TO.P,R3,1*%
%TO.N,Net-(Q3-Pad2)*%
X109450000Y-57210000D03*
D11*
%TO.P,R3,2*%
%TO.N,Net-(A2-Pad7)*%
X109450000Y-67370000D03*
%TD*%
D10*
%TO.P,R7,1*%
%TO.N,Net-(R7-Pad1)*%
X134610000Y-59750000D03*
D11*
%TO.P,R7,2*%
%TO.N,Net-(C3-Pad1)*%
X124450000Y-59750000D03*
%TD*%
D10*
%TO.P,R8,1*%
%TO.N,Net-(R7-Pad1)*%
X125730000Y-44450000D03*
D11*
%TO.P,R8,2*%
%TO.N,Net-(R8-Pad2)*%
X125730000Y-34290000D03*
%TD*%
D10*
%TO.P,C2,1*%
%TO.N,GND*%
X128320000Y-149792744D03*
D11*
%TO.P,C2,2*%
%TO.N,Net-(A2-Pad27)*%
X135820000Y-149792744D03*
%TD*%
D17*
%TO.P,J2,1,Pin_1*%
%TO.N,GND*%
X109420000Y-27440000D03*
D18*
%TO.P,J2,2,Pin_2*%
%TO.N,Net-(C3-Pad1)*%
X114420000Y-27440000D03*
%TO.P,J2,3,Pin_3*%
%TO.N,/Vin*%
X119420000Y-27440000D03*
%TO.P,J2,4,Pin_4*%
X124420000Y-27440000D03*
%TO.P,J2,5,Pin_5*%
X129420000Y-27440000D03*
%TO.P,J2,6,Pin_6*%
%TO.N,GND*%
X134420000Y-27440000D03*
%TD*%
D10*
%TO.P,R6,1*%
%TO.N,/Vin*%
X114530000Y-36890000D03*
D11*
%TO.P,R6,2*%
%TO.N,Net-(Q2-Pad1)*%
X114530000Y-47050000D03*
%TD*%
D16*
%TO.P,U3,1*%
%TO.N,Net-(R7-Pad1)*%
X125730000Y-48290000D03*
D11*
%TO.P,U3,2,-*%
%TO.N,Net-(C3-Pad1)*%
X125730000Y-50830000D03*
%TO.P,U3,3,+*%
%TO.N,GND*%
X125730000Y-53370000D03*
%TO.P,U3,4,V-*%
X125730000Y-55910000D03*
%TO.P,U3,5*%
%TO.N,N/C*%
X133350000Y-55910000D03*
%TO.P,U3,6*%
X133350000Y-53370000D03*
%TO.P,U3,7*%
X133350000Y-50830000D03*
%TO.P,U3,8,V+*%
%TO.N,Net-(A2-Pad27)*%
X133350000Y-48290000D03*
%TD*%
D10*
%TO.P,R2,1*%
%TO.N,Net-(Q2-Pad2)*%
X114530000Y-57210000D03*
D11*
%TO.P,R2,2*%
%TO.N,Net-(A2-Pad6)*%
X114530000Y-67370000D03*
%TD*%
D21*
%TO.N,Net-(R7-Pad1)*%
X125730000Y-48290000D02*
X125730000Y-44450000D01*
X134610000Y-65990000D02*
X133290000Y-67310000D01*
X134610000Y-59750000D02*
X126970000Y-52110000D01*
X126970000Y-52110000D02*
X126970000Y-49530000D01*
X126970000Y-49530000D02*
X125730000Y-48290000D01*
X134610000Y-59750000D02*
X134610000Y-65990000D01*
%TO.N,GND*%
X111210000Y-156252744D02*
X114410000Y-159452744D01*
X128320000Y-155542744D02*
X124410000Y-159452744D01*
X111210000Y-149792744D02*
X111210000Y-156252744D01*
X128320000Y-149792744D02*
X128320000Y-155542744D01*
X121920000Y-153035000D02*
X121920000Y-156962744D01*
X109420000Y-27440000D02*
X111044511Y-25815489D01*
X132795489Y-25815489D02*
X134420000Y-27440000D01*
X132080000Y-35680000D02*
X132080000Y-29780000D01*
X121920000Y-156962744D02*
X124410000Y-159452744D01*
X132080000Y-29780000D02*
X134420000Y-27440000D01*
X125730000Y-53370000D02*
X125730000Y-55910000D01*
X111044511Y-25815489D02*
X132795489Y-25815489D01*
X114410000Y-159452744D02*
X116034511Y-157828233D01*
X116034511Y-157828233D02*
X122785489Y-157828233D01*
X122785489Y-157828233D02*
X124410000Y-159452744D01*
%TO.N,/Vin*%
X119610000Y-36890000D02*
X129060000Y-27440000D01*
X123980000Y-27440000D02*
X124420000Y-27440000D01*
X109970000Y-36890000D02*
X109450000Y-36890000D01*
X119420000Y-27440000D02*
X109970000Y-36890000D01*
X129060000Y-27440000D02*
X129420000Y-27440000D01*
X114530000Y-36890000D02*
X123980000Y-27440000D01*
%TO.N,/Rx*%
X107335969Y-153330328D02*
X112785489Y-158779848D01*
X107335969Y-149204031D02*
X107335969Y-153330328D01*
X127785489Y-161077255D02*
X129410000Y-159452744D01*
X115600000Y-142215000D02*
X109146767Y-148668233D01*
X113737104Y-161077255D02*
X127785489Y-161077255D01*
X107871767Y-148668233D02*
X107335969Y-149204031D01*
X112785489Y-160125640D02*
X113737104Y-161077255D01*
X112785489Y-158779848D02*
X112785489Y-160125640D01*
X109146767Y-148668233D02*
X107871767Y-148668233D01*
%TO.N,/Tx*%
X106886449Y-160178215D02*
X109268234Y-162560000D01*
X106886449Y-145848551D02*
X106886449Y-160178215D01*
X109268234Y-162560000D02*
X131302744Y-162560000D01*
X110520000Y-142215000D02*
X106886449Y-145848551D01*
X131302744Y-162560000D02*
X134410000Y-159452744D01*
%TO.N,Net-(Q1-Pad2)*%
X118535480Y-53924520D02*
X118535480Y-56135480D01*
X118535480Y-56135480D02*
X119610000Y-57210000D01*
X119610000Y-53400000D02*
X119060000Y-53400000D01*
X119060000Y-53400000D02*
X118535480Y-53924520D01*
%TO.N,Net-(A2-Pad5)*%
X113249511Y-73730489D02*
X109315489Y-73730489D01*
X109315489Y-87725489D02*
X114300000Y-92710000D01*
X109315489Y-73730489D02*
X109315489Y-87725489D01*
X119610000Y-67370000D02*
X113249511Y-73730489D01*
%TO.N,Net-(Q2-Pad2)*%
X114530000Y-53400000D02*
X113980000Y-53400000D01*
X113455480Y-53924520D02*
X113455480Y-56135480D01*
X113980000Y-53400000D02*
X113455480Y-53924520D01*
X113455480Y-56135480D02*
X114530000Y-57210000D01*
%TO.N,Net-(A2-Pad6)*%
X114530000Y-67370000D02*
X108865969Y-73034031D01*
X108865969Y-89815969D02*
X114300000Y-95250000D01*
X108865969Y-73034031D02*
X108865969Y-89815969D01*
%TO.N,Net-(Q3-Pad2)*%
X109450000Y-53400000D02*
X108900000Y-53400000D01*
X108375480Y-53924520D02*
X108375480Y-56135480D01*
X108375480Y-56135480D02*
X109450000Y-57210000D01*
X108900000Y-53400000D02*
X108375480Y-53924520D01*
%TO.N,Net-(A2-Pad7)*%
X108416449Y-68403551D02*
X108416449Y-91906449D01*
X109450000Y-67370000D02*
X108416449Y-68403551D01*
X108416449Y-91906449D02*
X114300000Y-97790000D01*
%TO.N,Net-(Q3-Pad1)*%
X109450000Y-52130000D02*
X109450000Y-47050000D01*
%TO.N,Net-(Q1-Pad1)*%
X119610000Y-52130000D02*
X119610000Y-47050000D01*
%TO.N,Net-(Q2-Pad1)*%
X114530000Y-52130000D02*
X114530000Y-47050000D01*
%TO.N,Net-(R8-Pad2)*%
X125730000Y-34290000D02*
X125730000Y-36830000D01*
X125730000Y-36830000D02*
X132080000Y-43180000D01*
%TO.N,Net-(A2-Pad1)*%
X114300000Y-82550000D02*
X125760000Y-94010000D01*
X125760000Y-94010000D02*
X125760000Y-142215000D01*
%TO.N,Net-(A2-Pad2)*%
X115424511Y-81425489D02*
X127125489Y-93126467D01*
X127125489Y-138500489D02*
X130840000Y-142215000D01*
X114300000Y-85090000D02*
X113175489Y-83965489D01*
X113175489Y-81425489D02*
X115424511Y-81425489D01*
X113175489Y-83965489D02*
X113175489Y-81425489D01*
X127125489Y-93126467D02*
X127125489Y-138500489D01*
%TO.N,Net-(A2-Pad23)*%
X130005789Y-81425489D02*
X131114031Y-82533731D01*
X131114031Y-98755969D02*
X129540000Y-100330000D01*
X118110000Y-74905000D02*
X124630489Y-81425489D01*
X124630489Y-81425489D02*
X130005789Y-81425489D01*
X131114031Y-82533731D02*
X131114031Y-98755969D01*
%TO.N,Net-(A2-Pad24)*%
X124485000Y-83820000D02*
X129860300Y-83820000D01*
X130664511Y-84624211D02*
X130664511Y-96665489D01*
X115570000Y-74905000D02*
X124485000Y-83820000D01*
X129860300Y-83820000D02*
X130664511Y-84624211D01*
X130664511Y-96665489D02*
X129540000Y-97790000D01*
%TO.N,Net-(A2-Pad27)*%
X124460000Y-151785000D02*
X127576767Y-148668233D01*
X124460000Y-153035000D02*
X124460000Y-151785000D01*
X135820000Y-149792744D02*
X134695489Y-148668233D01*
X127576767Y-148668233D02*
X134695489Y-148668233D01*
%TO.N,Net-(C3-Pad1)*%
X125780000Y-64830000D02*
X125780000Y-61080000D01*
X125790000Y-64840000D02*
X125790000Y-67310000D01*
X125780000Y-64830000D02*
X125790000Y-64840000D01*
X106680000Y-41900000D02*
X106670000Y-41910000D01*
X124450000Y-59750000D02*
X124450000Y-52110000D01*
X124450000Y-52110000D02*
X125730000Y-50830000D01*
X106680000Y-35180000D02*
X106680000Y-41900000D01*
X121910000Y-47010000D02*
X125730000Y-50830000D01*
X114420000Y-27440000D02*
X106680000Y-35180000D01*
X106670000Y-41910000D02*
X121910000Y-41910000D01*
X125780000Y-61080000D02*
X124450000Y-59750000D01*
X121910000Y-41910000D02*
X121910000Y-47010000D01*
%TD*%
M02*
