%TF.GenerationSoftware,KiCad,Pcbnew,(6.0.5-0)*%
%TF.CreationDate,2022-08-16T12:13:12-04:00*%
%TF.ProjectId,Springer,53707269-6e67-4657-922e-6b696361645f,rev?*%
%TF.SameCoordinates,Original*%
%TF.FileFunction,Legend,Top*%
%TF.FilePolarity,Positive*%
%FSLAX46Y46*%
G04 Gerber Fmt 4.6, Leading zero omitted, Abs format (unit mm)*
G04 Created by KiCad (PCBNEW (6.0.5-0)) date 2022-08-16 12:13:12*
%MOMM*%
%LPD*%
G01*
G04 APERTURE LIST*
%ADD10C,0.120000*%
%ADD11C,0.150000*%
%ADD12C,0.130000*%
G04 APERTURE END LIST*
D10*
X51943000Y-166082500D02*
X33528000Y-166082500D01*
X33528000Y-166082500D02*
X33528000Y-139987500D01*
X33528000Y-139987500D02*
X51943000Y-139987500D01*
X51943000Y-139987500D02*
X51943000Y-166082500D01*
X53594000Y-164592000D02*
X64516000Y-164592000D01*
X64516000Y-164592000D02*
X64516000Y-153670000D01*
X64516000Y-153670000D02*
X53594000Y-153670000D01*
X53594000Y-153670000D02*
X53594000Y-164592000D01*
X48895000Y-85852000D02*
X66802000Y-85852000D01*
X66802000Y-85852000D02*
X66802000Y-59757000D01*
X66802000Y-59757000D02*
X48895000Y-59757000D01*
X48895000Y-59757000D02*
X48895000Y-85852000D01*
D11*
X59412400Y-73826666D02*
X59888591Y-73826666D01*
X59317162Y-74112380D02*
X59650496Y-73112380D01*
X59983829Y-74112380D01*
X60317162Y-74112380D02*
X60317162Y-73112380D01*
X60555257Y-73112380D01*
X60698115Y-73160000D01*
X60793353Y-73255238D01*
X60840972Y-73350476D01*
X60888591Y-73540952D01*
X60888591Y-73683809D01*
X60840972Y-73874285D01*
X60793353Y-73969523D01*
X60698115Y-74064761D01*
X60555257Y-74112380D01*
X60317162Y-74112380D01*
X61317162Y-74112380D02*
X61317162Y-73112380D01*
X61555257Y-73112380D01*
X61698115Y-73160000D01*
X61793353Y-73255238D01*
X61840972Y-73350476D01*
X61888591Y-73540952D01*
X61888591Y-73683809D01*
X61840972Y-73874285D01*
X61793353Y-73969523D01*
X61698115Y-74064761D01*
X61555257Y-74112380D01*
X61317162Y-74112380D01*
X62888591Y-74112380D02*
X62555257Y-73636190D01*
X62317162Y-74112380D02*
X62317162Y-73112380D01*
X62698115Y-73112380D01*
X62793353Y-73160000D01*
X62840972Y-73207619D01*
X62888591Y-73302857D01*
X62888591Y-73445714D01*
X62840972Y-73540952D01*
X62793353Y-73588571D01*
X62698115Y-73636190D01*
X62317162Y-73636190D01*
X61087095Y-176744380D02*
X61658523Y-176744380D01*
X61372809Y-177744380D02*
X61372809Y-176744380D01*
X61896619Y-176744380D02*
X62563285Y-177744380D01*
X62563285Y-176744380D02*
X61896619Y-177744380D01*
X52728904Y-117673380D02*
X52728904Y-116673380D01*
X52967000Y-116673380D01*
X53109857Y-116721000D01*
X53205095Y-116816238D01*
X53252714Y-116911476D01*
X53300333Y-117101952D01*
X53300333Y-117244809D01*
X53252714Y-117435285D01*
X53205095Y-117530523D01*
X53109857Y-117625761D01*
X52967000Y-117673380D01*
X52728904Y-117673380D01*
X53871761Y-117101952D02*
X53776523Y-117054333D01*
X53728904Y-117006714D01*
X53681285Y-116911476D01*
X53681285Y-116863857D01*
X53728904Y-116768619D01*
X53776523Y-116721000D01*
X53871761Y-116673380D01*
X54062238Y-116673380D01*
X54157476Y-116721000D01*
X54205095Y-116768619D01*
X54252714Y-116863857D01*
X54252714Y-116911476D01*
X54205095Y-117006714D01*
X54157476Y-117054333D01*
X54062238Y-117101952D01*
X53871761Y-117101952D01*
X53776523Y-117149571D01*
X53728904Y-117197190D01*
X53681285Y-117292428D01*
X53681285Y-117482904D01*
X53728904Y-117578142D01*
X53776523Y-117625761D01*
X53871761Y-117673380D01*
X54062238Y-117673380D01*
X54157476Y-117625761D01*
X54205095Y-117578142D01*
X54252714Y-117482904D01*
X54252714Y-117292428D01*
X54205095Y-117197190D01*
X54157476Y-117149571D01*
X54062238Y-117101952D01*
X52205095Y-91273380D02*
X52776523Y-91273380D01*
X52490809Y-92273380D02*
X52490809Y-91273380D01*
X53014619Y-91273380D02*
X53681285Y-92273380D01*
X53681285Y-91273380D02*
X53014619Y-92273380D01*
X54062238Y-92273380D02*
X54062238Y-91273380D01*
X54300333Y-91273380D01*
X54443190Y-91321000D01*
X54538428Y-91416238D01*
X54586047Y-91511476D01*
X54633666Y-91701952D01*
X54633666Y-91844809D01*
X54586047Y-92035285D01*
X54538428Y-92130523D01*
X54443190Y-92225761D01*
X54300333Y-92273380D01*
X54062238Y-92273380D01*
X60571210Y-76604761D02*
X60714067Y-76652380D01*
X60952162Y-76652380D01*
X61047400Y-76604761D01*
X61095019Y-76557142D01*
X61142638Y-76461904D01*
X61142638Y-76366666D01*
X61095019Y-76271428D01*
X61047400Y-76223809D01*
X60952162Y-76176190D01*
X60761686Y-76128571D01*
X60666448Y-76080952D01*
X60618829Y-76033333D01*
X60571210Y-75938095D01*
X60571210Y-75842857D01*
X60618829Y-75747619D01*
X60666448Y-75700000D01*
X60761686Y-75652380D01*
X60999781Y-75652380D01*
X61142638Y-75700000D01*
X61571210Y-76652380D02*
X61571210Y-75652380D01*
X61809305Y-75652380D01*
X61952162Y-75700000D01*
X62047400Y-75795238D01*
X62095019Y-75890476D01*
X62142638Y-76080952D01*
X62142638Y-76223809D01*
X62095019Y-76414285D01*
X62047400Y-76509523D01*
X61952162Y-76604761D01*
X61809305Y-76652380D01*
X61571210Y-76652380D01*
X62523591Y-76366666D02*
X62999781Y-76366666D01*
X62428353Y-76652380D02*
X62761686Y-75652380D01*
X63095019Y-76652380D01*
X52728904Y-110053380D02*
X52728904Y-109053380D01*
X52967000Y-109053380D01*
X53109857Y-109101000D01*
X53205095Y-109196238D01*
X53252714Y-109291476D01*
X53300333Y-109481952D01*
X53300333Y-109624809D01*
X53252714Y-109815285D01*
X53205095Y-109910523D01*
X53109857Y-110005761D01*
X52967000Y-110053380D01*
X52728904Y-110053380D01*
X54205095Y-109053380D02*
X53728904Y-109053380D01*
X53681285Y-109529571D01*
X53728904Y-109481952D01*
X53824142Y-109434333D01*
X54062238Y-109434333D01*
X54157476Y-109481952D01*
X54205095Y-109529571D01*
X54252714Y-109624809D01*
X54252714Y-109862904D01*
X54205095Y-109958142D01*
X54157476Y-110005761D01*
X54062238Y-110053380D01*
X53824142Y-110053380D01*
X53728904Y-110005761D01*
X53681285Y-109958142D01*
X61388714Y-117133666D02*
X61864904Y-117133666D01*
X61293476Y-117419380D02*
X61626809Y-116419380D01*
X61960142Y-117419380D01*
X62817285Y-117419380D02*
X62245857Y-117419380D01*
X62531571Y-117419380D02*
X62531571Y-116419380D01*
X62436333Y-116562238D01*
X62341095Y-116657476D01*
X62245857Y-116705095D01*
X52728904Y-115133380D02*
X52728904Y-114133380D01*
X52967000Y-114133380D01*
X53109857Y-114181000D01*
X53205095Y-114276238D01*
X53252714Y-114371476D01*
X53300333Y-114561952D01*
X53300333Y-114704809D01*
X53252714Y-114895285D01*
X53205095Y-114990523D01*
X53109857Y-115085761D01*
X52967000Y-115133380D01*
X52728904Y-115133380D01*
X53633666Y-114133380D02*
X54300333Y-114133380D01*
X53871761Y-115133380D01*
X41425952Y-47696380D02*
X40949761Y-47696380D01*
X40949761Y-46696380D01*
X41759285Y-47172571D02*
X42092619Y-47172571D01*
X42235476Y-47696380D02*
X41759285Y-47696380D01*
X41759285Y-46696380D01*
X42235476Y-46696380D01*
X42664047Y-47696380D02*
X42664047Y-46696380D01*
X42902142Y-46696380D01*
X43045000Y-46744000D01*
X43140238Y-46839238D01*
X43187857Y-46934476D01*
X43235476Y-47124952D01*
X43235476Y-47267809D01*
X43187857Y-47458285D01*
X43140238Y-47553523D01*
X43045000Y-47648761D01*
X42902142Y-47696380D01*
X42664047Y-47696380D01*
X43854523Y-46696380D02*
X43949761Y-46696380D01*
X44045000Y-46744000D01*
X44092619Y-46791619D01*
X44140238Y-46886857D01*
X44187857Y-47077333D01*
X44187857Y-47315428D01*
X44140238Y-47505904D01*
X44092619Y-47601142D01*
X44045000Y-47648761D01*
X43949761Y-47696380D01*
X43854523Y-47696380D01*
X43759285Y-47648761D01*
X43711666Y-47601142D01*
X43664047Y-47505904D01*
X43616428Y-47315428D01*
X43616428Y-47077333D01*
X43664047Y-46886857D01*
X43711666Y-46791619D01*
X43759285Y-46744000D01*
X43854523Y-46696380D01*
X61388714Y-106973666D02*
X61864904Y-106973666D01*
X61293476Y-107259380D02*
X61626809Y-106259380D01*
X61960142Y-107259380D01*
X62769666Y-106259380D02*
X62293476Y-106259380D01*
X62245857Y-106735571D01*
X62293476Y-106687952D01*
X62388714Y-106640333D01*
X62626809Y-106640333D01*
X62722047Y-106687952D01*
X62769666Y-106735571D01*
X62817285Y-106830809D01*
X62817285Y-107068904D01*
X62769666Y-107164142D01*
X62722047Y-107211761D01*
X62626809Y-107259380D01*
X62388714Y-107259380D01*
X62293476Y-107211761D01*
X62245857Y-107164142D01*
X61388714Y-119673666D02*
X61864904Y-119673666D01*
X61293476Y-119959380D02*
X61626809Y-118959380D01*
X61960142Y-119959380D01*
X62483952Y-118959380D02*
X62579190Y-118959380D01*
X62674428Y-119007000D01*
X62722047Y-119054619D01*
X62769666Y-119149857D01*
X62817285Y-119340333D01*
X62817285Y-119578428D01*
X62769666Y-119768904D01*
X62722047Y-119864142D01*
X62674428Y-119911761D01*
X62579190Y-119959380D01*
X62483952Y-119959380D01*
X62388714Y-119911761D01*
X62341095Y-119864142D01*
X62293476Y-119768904D01*
X62245857Y-119578428D01*
X62245857Y-119340333D01*
X62293476Y-119149857D01*
X62341095Y-119054619D01*
X62388714Y-119007000D01*
X62483952Y-118959380D01*
X61388714Y-101893666D02*
X61864904Y-101893666D01*
X61293476Y-102179380D02*
X61626809Y-101179380D01*
X61960142Y-102179380D01*
X62198238Y-101179380D02*
X62864904Y-101179380D01*
X62436333Y-102179380D01*
X51585952Y-47696380D02*
X51109761Y-47696380D01*
X51109761Y-46696380D01*
X51919285Y-47172571D02*
X52252619Y-47172571D01*
X52395476Y-47696380D02*
X51919285Y-47696380D01*
X51919285Y-46696380D01*
X52395476Y-46696380D01*
X52824047Y-47696380D02*
X52824047Y-46696380D01*
X53062142Y-46696380D01*
X53205000Y-46744000D01*
X53300238Y-46839238D01*
X53347857Y-46934476D01*
X53395476Y-47124952D01*
X53395476Y-47267809D01*
X53347857Y-47458285D01*
X53300238Y-47553523D01*
X53205000Y-47648761D01*
X53062142Y-47696380D01*
X52824047Y-47696380D01*
X53776428Y-46791619D02*
X53824047Y-46744000D01*
X53919285Y-46696380D01*
X54157380Y-46696380D01*
X54252619Y-46744000D01*
X54300238Y-46791619D01*
X54347857Y-46886857D01*
X54347857Y-46982095D01*
X54300238Y-47124952D01*
X53728809Y-47696380D01*
X54347857Y-47696380D01*
X51562095Y-176792000D02*
X51466857Y-176744380D01*
X51324000Y-176744380D01*
X51181142Y-176792000D01*
X51085904Y-176887238D01*
X51038285Y-176982476D01*
X50990666Y-177172952D01*
X50990666Y-177315809D01*
X51038285Y-177506285D01*
X51085904Y-177601523D01*
X51181142Y-177696761D01*
X51324000Y-177744380D01*
X51419238Y-177744380D01*
X51562095Y-177696761D01*
X51609714Y-177649142D01*
X51609714Y-177315809D01*
X51419238Y-177315809D01*
X52038285Y-177744380D02*
X52038285Y-176744380D01*
X52609714Y-177744380D01*
X52609714Y-176744380D01*
X53085904Y-177744380D02*
X53085904Y-176744380D01*
X53324000Y-176744380D01*
X53466857Y-176792000D01*
X53562095Y-176887238D01*
X53609714Y-176982476D01*
X53657333Y-177172952D01*
X53657333Y-177315809D01*
X53609714Y-177506285D01*
X53562095Y-177601523D01*
X53466857Y-177696761D01*
X53324000Y-177744380D01*
X53085904Y-177744380D01*
X31313523Y-144597380D02*
X30980190Y-144121190D01*
X30742095Y-144597380D02*
X30742095Y-143597380D01*
X31123047Y-143597380D01*
X31218285Y-143645000D01*
X31265904Y-143692619D01*
X31313523Y-143787857D01*
X31313523Y-143930714D01*
X31265904Y-144025952D01*
X31218285Y-144073571D01*
X31123047Y-144121190D01*
X30742095Y-144121190D01*
X32265904Y-144597380D02*
X31694476Y-144597380D01*
X31980190Y-144597380D02*
X31980190Y-143597380D01*
X31884952Y-143740238D01*
X31789714Y-143835476D01*
X31694476Y-143883095D01*
X32884952Y-143597380D02*
X33075428Y-143597380D01*
X33170666Y-143645000D01*
X33265904Y-143740238D01*
X33313523Y-143930714D01*
X33313523Y-144264047D01*
X33265904Y-144454523D01*
X33170666Y-144549761D01*
X33075428Y-144597380D01*
X32884952Y-144597380D01*
X32789714Y-144549761D01*
X32694476Y-144454523D01*
X32646857Y-144264047D01*
X32646857Y-143930714D01*
X32694476Y-143740238D01*
X32789714Y-143645000D01*
X32884952Y-143597380D01*
X61071210Y-63666666D02*
X61547400Y-63666666D01*
X60975972Y-63952380D02*
X61309305Y-62952380D01*
X61642638Y-63952380D01*
X61928353Y-63047619D02*
X61975972Y-63000000D01*
X62071210Y-62952380D01*
X62309305Y-62952380D01*
X62404543Y-63000000D01*
X62452162Y-63047619D01*
X62499781Y-63142857D01*
X62499781Y-63238095D01*
X62452162Y-63380952D01*
X61880734Y-63952380D01*
X62499781Y-63952380D01*
X60452162Y-83272380D02*
X60785496Y-84272380D01*
X61118829Y-83272380D01*
X61452162Y-84272380D02*
X61452162Y-83272380D01*
X61690257Y-83272380D01*
X61833115Y-83320000D01*
X61928353Y-83415238D01*
X61975972Y-83510476D01*
X62023591Y-83700952D01*
X62023591Y-83843809D01*
X61975972Y-84034285D01*
X61928353Y-84129523D01*
X61833115Y-84224761D01*
X61690257Y-84272380D01*
X61452162Y-84272380D01*
X62452162Y-84272380D02*
X62452162Y-83272380D01*
X62690257Y-83272380D01*
X62833115Y-83320000D01*
X62928353Y-83415238D01*
X62975972Y-83510476D01*
X63023591Y-83700952D01*
X63023591Y-83843809D01*
X62975972Y-84034285D01*
X62928353Y-84129523D01*
X62833115Y-84224761D01*
X62690257Y-84272380D01*
X62452162Y-84272380D01*
X57237333Y-177744380D02*
X56904000Y-177268190D01*
X56665904Y-177744380D02*
X56665904Y-176744380D01*
X57046857Y-176744380D01*
X57142095Y-176792000D01*
X57189714Y-176839619D01*
X57237333Y-176934857D01*
X57237333Y-177077714D01*
X57189714Y-177172952D01*
X57142095Y-177220571D01*
X57046857Y-177268190D01*
X56665904Y-177268190D01*
X57570666Y-176744380D02*
X58237333Y-177744380D01*
X58237333Y-176744380D02*
X57570666Y-177744380D01*
X61023591Y-80780000D02*
X60928353Y-80732380D01*
X60785496Y-80732380D01*
X60642638Y-80780000D01*
X60547400Y-80875238D01*
X60499781Y-80970476D01*
X60452162Y-81160952D01*
X60452162Y-81303809D01*
X60499781Y-81494285D01*
X60547400Y-81589523D01*
X60642638Y-81684761D01*
X60785496Y-81732380D01*
X60880734Y-81732380D01*
X61023591Y-81684761D01*
X61071210Y-81637142D01*
X61071210Y-81303809D01*
X60880734Y-81303809D01*
X61499781Y-81732380D02*
X61499781Y-80732380D01*
X62071210Y-81732380D01*
X62071210Y-80732380D01*
X62547400Y-81732380D02*
X62547400Y-80732380D01*
X62785496Y-80732380D01*
X62928353Y-80780000D01*
X63023591Y-80875238D01*
X63071210Y-80970476D01*
X63118829Y-81160952D01*
X63118829Y-81303809D01*
X63071210Y-81494285D01*
X63023591Y-81589523D01*
X62928353Y-81684761D01*
X62785496Y-81732380D01*
X62547400Y-81732380D01*
X61388714Y-104433666D02*
X61864904Y-104433666D01*
X61293476Y-104719380D02*
X61626809Y-103719380D01*
X61960142Y-104719380D01*
X62722047Y-103719380D02*
X62531571Y-103719380D01*
X62436333Y-103767000D01*
X62388714Y-103814619D01*
X62293476Y-103957476D01*
X62245857Y-104147952D01*
X62245857Y-104528904D01*
X62293476Y-104624142D01*
X62341095Y-104671761D01*
X62436333Y-104719380D01*
X62626809Y-104719380D01*
X62722047Y-104671761D01*
X62769666Y-104624142D01*
X62817285Y-104528904D01*
X62817285Y-104290809D01*
X62769666Y-104195571D01*
X62722047Y-104147952D01*
X62626809Y-104100333D01*
X62436333Y-104100333D01*
X62341095Y-104147952D01*
X62293476Y-104195571D01*
X62245857Y-104290809D01*
X60642761Y-47696380D02*
X60642761Y-46696380D01*
X61023714Y-46696380D01*
X61118952Y-46744000D01*
X61166571Y-46791619D01*
X61214190Y-46886857D01*
X61214190Y-47029714D01*
X61166571Y-47124952D01*
X61118952Y-47172571D01*
X61023714Y-47220190D01*
X60642761Y-47220190D01*
X61642761Y-47696380D02*
X61642761Y-46696380D01*
X61880857Y-46696380D01*
X62023714Y-46744000D01*
X62118952Y-46839238D01*
X62166571Y-46934476D01*
X62214190Y-47124952D01*
X62214190Y-47267809D01*
X62166571Y-47458285D01*
X62118952Y-47553523D01*
X62023714Y-47648761D01*
X61880857Y-47696380D01*
X61642761Y-47696380D01*
X62404666Y-47791619D02*
X63166571Y-47791619D01*
X63357047Y-47410666D02*
X63833238Y-47410666D01*
X63261809Y-47696380D02*
X63595142Y-46696380D01*
X63928476Y-47696380D01*
X64261809Y-47696380D02*
X64261809Y-46696380D01*
X64833238Y-47696380D01*
X64833238Y-46696380D01*
X31686523Y-153884380D02*
X31210333Y-153884380D01*
X31162714Y-154360571D01*
X31210333Y-154312952D01*
X31305571Y-154265333D01*
X31543666Y-154265333D01*
X31638904Y-154312952D01*
X31686523Y-154360571D01*
X31734142Y-154455809D01*
X31734142Y-154693904D01*
X31686523Y-154789142D01*
X31638904Y-154836761D01*
X31543666Y-154884380D01*
X31305571Y-154884380D01*
X31210333Y-154836761D01*
X31162714Y-154789142D01*
X32019857Y-153884380D02*
X32353190Y-154884380D01*
X32686523Y-153884380D01*
X41402095Y-176792000D02*
X41306857Y-176744380D01*
X41164000Y-176744380D01*
X41021142Y-176792000D01*
X40925904Y-176887238D01*
X40878285Y-176982476D01*
X40830666Y-177172952D01*
X40830666Y-177315809D01*
X40878285Y-177506285D01*
X40925904Y-177601523D01*
X41021142Y-177696761D01*
X41164000Y-177744380D01*
X41259238Y-177744380D01*
X41402095Y-177696761D01*
X41449714Y-177649142D01*
X41449714Y-177315809D01*
X41259238Y-177315809D01*
X41878285Y-177744380D02*
X41878285Y-176744380D01*
X42449714Y-177744380D01*
X42449714Y-176744380D01*
X42925904Y-177744380D02*
X42925904Y-176744380D01*
X43164000Y-176744380D01*
X43306857Y-176792000D01*
X43402095Y-176887238D01*
X43449714Y-176982476D01*
X43497333Y-177172952D01*
X43497333Y-177315809D01*
X43449714Y-177506285D01*
X43402095Y-177601523D01*
X43306857Y-177696761D01*
X43164000Y-177744380D01*
X42925904Y-177744380D01*
X31472238Y-159964380D02*
X31138904Y-159488190D01*
X30900809Y-159964380D02*
X30900809Y-158964380D01*
X31281761Y-158964380D01*
X31377000Y-159012000D01*
X31424619Y-159059619D01*
X31472238Y-159154857D01*
X31472238Y-159297714D01*
X31424619Y-159392952D01*
X31377000Y-159440571D01*
X31281761Y-159488190D01*
X30900809Y-159488190D01*
X32424619Y-159964380D02*
X31853190Y-159964380D01*
X32138904Y-159964380D02*
X32138904Y-158964380D01*
X32043666Y-159107238D01*
X31948428Y-159202476D01*
X31853190Y-159250095D01*
X32853190Y-159964380D02*
X32853190Y-158964380D01*
X52705095Y-98941000D02*
X52609857Y-98893380D01*
X52467000Y-98893380D01*
X52324142Y-98941000D01*
X52228904Y-99036238D01*
X52181285Y-99131476D01*
X52133666Y-99321952D01*
X52133666Y-99464809D01*
X52181285Y-99655285D01*
X52228904Y-99750523D01*
X52324142Y-99845761D01*
X52467000Y-99893380D01*
X52562238Y-99893380D01*
X52705095Y-99845761D01*
X52752714Y-99798142D01*
X52752714Y-99464809D01*
X52562238Y-99464809D01*
X53181285Y-99893380D02*
X53181285Y-98893380D01*
X53752714Y-99893380D01*
X53752714Y-98893380D01*
X54228904Y-99893380D02*
X54228904Y-98893380D01*
X54467000Y-98893380D01*
X54609857Y-98941000D01*
X54705095Y-99036238D01*
X54752714Y-99131476D01*
X54800333Y-99321952D01*
X54800333Y-99464809D01*
X54752714Y-99655285D01*
X54705095Y-99750523D01*
X54609857Y-99845761D01*
X54467000Y-99893380D01*
X54228904Y-99893380D01*
X37655523Y-46696380D02*
X37179333Y-46696380D01*
X37131714Y-47172571D01*
X37179333Y-47124952D01*
X37274571Y-47077333D01*
X37512666Y-47077333D01*
X37607904Y-47124952D01*
X37655523Y-47172571D01*
X37703142Y-47267809D01*
X37703142Y-47505904D01*
X37655523Y-47601142D01*
X37607904Y-47648761D01*
X37512666Y-47696380D01*
X37274571Y-47696380D01*
X37179333Y-47648761D01*
X37131714Y-47601142D01*
X37988857Y-46696380D02*
X38322190Y-47696380D01*
X38655523Y-46696380D01*
X61079190Y-91019380D02*
X61412523Y-92019380D01*
X61745857Y-91019380D01*
X62079190Y-92019380D02*
X62079190Y-91352714D01*
X62079190Y-91019380D02*
X62031571Y-91067000D01*
X62079190Y-91114619D01*
X62126809Y-91067000D01*
X62079190Y-91019380D01*
X62079190Y-91114619D01*
X62555380Y-91352714D02*
X62555380Y-92019380D01*
X62555380Y-91447952D02*
X62603000Y-91400333D01*
X62698238Y-91352714D01*
X62841095Y-91352714D01*
X62936333Y-91400333D01*
X62983952Y-91495571D01*
X62983952Y-92019380D01*
X61071210Y-68746666D02*
X61547400Y-68746666D01*
X60975972Y-69032380D02*
X61309305Y-68032380D01*
X61642638Y-69032380D01*
X62166448Y-68032380D02*
X62261686Y-68032380D01*
X62356924Y-68080000D01*
X62404543Y-68127619D01*
X62452162Y-68222857D01*
X62499781Y-68413333D01*
X62499781Y-68651428D01*
X62452162Y-68841904D01*
X62404543Y-68937142D01*
X62356924Y-68984761D01*
X62261686Y-69032380D01*
X62166448Y-69032380D01*
X62071210Y-68984761D01*
X62023591Y-68937142D01*
X61975972Y-68841904D01*
X61928353Y-68651428D01*
X61928353Y-68413333D01*
X61975972Y-68222857D01*
X62023591Y-68127619D01*
X62071210Y-68080000D01*
X62166448Y-68032380D01*
X52728904Y-104973380D02*
X52728904Y-103973380D01*
X52967000Y-103973380D01*
X53109857Y-104021000D01*
X53205095Y-104116238D01*
X53252714Y-104211476D01*
X53300333Y-104401952D01*
X53300333Y-104544809D01*
X53252714Y-104735285D01*
X53205095Y-104830523D01*
X53109857Y-104925761D01*
X52967000Y-104973380D01*
X52728904Y-104973380D01*
X53633666Y-103973380D02*
X54252714Y-103973380D01*
X53919380Y-104354333D01*
X54062238Y-104354333D01*
X54157476Y-104401952D01*
X54205095Y-104449571D01*
X54252714Y-104544809D01*
X54252714Y-104782904D01*
X54205095Y-104878142D01*
X54157476Y-104925761D01*
X54062238Y-104973380D01*
X53776523Y-104973380D01*
X53681285Y-104925761D01*
X53633666Y-104878142D01*
X61388714Y-112053666D02*
X61864904Y-112053666D01*
X61293476Y-112339380D02*
X61626809Y-111339380D01*
X61960142Y-112339380D01*
X62198238Y-111339380D02*
X62817285Y-111339380D01*
X62483952Y-111720333D01*
X62626809Y-111720333D01*
X62722047Y-111767952D01*
X62769666Y-111815571D01*
X62817285Y-111910809D01*
X62817285Y-112148904D01*
X62769666Y-112244142D01*
X62722047Y-112291761D01*
X62626809Y-112339380D01*
X62341095Y-112339380D01*
X62245857Y-112291761D01*
X62198238Y-112244142D01*
X31313523Y-142057380D02*
X30980190Y-141581190D01*
X30742095Y-142057380D02*
X30742095Y-141057380D01*
X31123047Y-141057380D01*
X31218285Y-141105000D01*
X31265904Y-141152619D01*
X31313523Y-141247857D01*
X31313523Y-141390714D01*
X31265904Y-141485952D01*
X31218285Y-141533571D01*
X31123047Y-141581190D01*
X30742095Y-141581190D01*
X31694476Y-141152619D02*
X31742095Y-141105000D01*
X31837333Y-141057380D01*
X32075428Y-141057380D01*
X32170666Y-141105000D01*
X32218285Y-141152619D01*
X32265904Y-141247857D01*
X32265904Y-141343095D01*
X32218285Y-141485952D01*
X31646857Y-142057380D01*
X32265904Y-142057380D01*
X32884952Y-141057380D02*
X33075428Y-141057380D01*
X33170666Y-141105000D01*
X33265904Y-141200238D01*
X33313523Y-141390714D01*
X33313523Y-141724047D01*
X33265904Y-141914523D01*
X33170666Y-142009761D01*
X33075428Y-142057380D01*
X32884952Y-142057380D01*
X32789714Y-142009761D01*
X32694476Y-141914523D01*
X32646857Y-141724047D01*
X32646857Y-141390714D01*
X32694476Y-141200238D01*
X32789714Y-141105000D01*
X32884952Y-141057380D01*
X52252714Y-127833380D02*
X52252714Y-126833380D01*
X52490809Y-126833380D01*
X52633666Y-126881000D01*
X52728904Y-126976238D01*
X52776523Y-127071476D01*
X52824142Y-127261952D01*
X52824142Y-127404809D01*
X52776523Y-127595285D01*
X52728904Y-127690523D01*
X52633666Y-127785761D01*
X52490809Y-127833380D01*
X52252714Y-127833380D01*
X53776523Y-127833380D02*
X53205095Y-127833380D01*
X53490809Y-127833380D02*
X53490809Y-126833380D01*
X53395571Y-126976238D01*
X53300333Y-127071476D01*
X53205095Y-127119095D01*
X54157476Y-126928619D02*
X54205095Y-126881000D01*
X54300333Y-126833380D01*
X54538428Y-126833380D01*
X54633666Y-126881000D01*
X54681285Y-126928619D01*
X54728904Y-127023857D01*
X54728904Y-127119095D01*
X54681285Y-127261952D01*
X54109857Y-127833380D01*
X54728904Y-127833380D01*
D12*
X31242095Y-151519000D02*
X31146857Y-151471380D01*
X31004000Y-151471380D01*
X30861142Y-151519000D01*
X30765904Y-151614238D01*
X30718285Y-151709476D01*
X30670666Y-151899952D01*
X30670666Y-152042809D01*
X30718285Y-152233285D01*
X30765904Y-152328523D01*
X30861142Y-152423761D01*
X31004000Y-152471380D01*
X31099238Y-152471380D01*
X31242095Y-152423761D01*
X31289714Y-152376142D01*
X31289714Y-152042809D01*
X31099238Y-152042809D01*
X31718285Y-152471380D02*
X31718285Y-151471380D01*
X32289714Y-152471380D01*
X32289714Y-151471380D01*
X32765904Y-152471380D02*
X32765904Y-151471380D01*
X33004000Y-151471380D01*
X33146857Y-151519000D01*
X33242095Y-151614238D01*
X33289714Y-151709476D01*
X33337333Y-151899952D01*
X33337333Y-152042809D01*
X33289714Y-152233285D01*
X33242095Y-152328523D01*
X33146857Y-152423761D01*
X33004000Y-152471380D01*
X32765904Y-152471380D01*
D11*
X61341095Y-93607000D02*
X61245857Y-93559380D01*
X61103000Y-93559380D01*
X60960142Y-93607000D01*
X60864904Y-93702238D01*
X60817285Y-93797476D01*
X60769666Y-93987952D01*
X60769666Y-94130809D01*
X60817285Y-94321285D01*
X60864904Y-94416523D01*
X60960142Y-94511761D01*
X61103000Y-94559380D01*
X61198238Y-94559380D01*
X61341095Y-94511761D01*
X61388714Y-94464142D01*
X61388714Y-94130809D01*
X61198238Y-94130809D01*
X61817285Y-94559380D02*
X61817285Y-93559380D01*
X62388714Y-94559380D01*
X62388714Y-93559380D01*
X62864904Y-94559380D02*
X62864904Y-93559380D01*
X63103000Y-93559380D01*
X63245857Y-93607000D01*
X63341095Y-93702238D01*
X63388714Y-93797476D01*
X63436333Y-93987952D01*
X63436333Y-94130809D01*
X63388714Y-94321285D01*
X63341095Y-94416523D01*
X63245857Y-94511761D01*
X63103000Y-94559380D01*
X62864904Y-94559380D01*
X61388714Y-109513666D02*
X61864904Y-109513666D01*
X61293476Y-109799380D02*
X61626809Y-108799380D01*
X61960142Y-109799380D01*
X62722047Y-109132714D02*
X62722047Y-109799380D01*
X62483952Y-108751761D02*
X62245857Y-109466047D01*
X62864904Y-109466047D01*
X52252714Y-125293380D02*
X52252714Y-124293380D01*
X52490809Y-124293380D01*
X52633666Y-124341000D01*
X52728904Y-124436238D01*
X52776523Y-124531476D01*
X52824142Y-124721952D01*
X52824142Y-124864809D01*
X52776523Y-125055285D01*
X52728904Y-125150523D01*
X52633666Y-125245761D01*
X52490809Y-125293380D01*
X52252714Y-125293380D01*
X53776523Y-125293380D02*
X53205095Y-125293380D01*
X53490809Y-125293380D02*
X53490809Y-124293380D01*
X53395571Y-124436238D01*
X53300333Y-124531476D01*
X53205095Y-124579095D01*
X54728904Y-125293380D02*
X54157476Y-125293380D01*
X54443190Y-125293380D02*
X54443190Y-124293380D01*
X54347952Y-124436238D01*
X54252714Y-124531476D01*
X54157476Y-124579095D01*
X52919380Y-97353380D02*
X52586047Y-96877190D01*
X52347952Y-97353380D02*
X52347952Y-96353380D01*
X52728904Y-96353380D01*
X52824142Y-96401000D01*
X52871761Y-96448619D01*
X52919380Y-96543857D01*
X52919380Y-96686714D01*
X52871761Y-96781952D01*
X52824142Y-96829571D01*
X52728904Y-96877190D01*
X52347952Y-96877190D01*
X53300333Y-97305761D02*
X53443190Y-97353380D01*
X53681285Y-97353380D01*
X53776523Y-97305761D01*
X53824142Y-97258142D01*
X53871761Y-97162904D01*
X53871761Y-97067666D01*
X53824142Y-96972428D01*
X53776523Y-96924809D01*
X53681285Y-96877190D01*
X53490809Y-96829571D01*
X53395571Y-96781952D01*
X53347952Y-96734333D01*
X53300333Y-96639095D01*
X53300333Y-96543857D01*
X53347952Y-96448619D01*
X53395571Y-96401000D01*
X53490809Y-96353380D01*
X53728904Y-96353380D01*
X53871761Y-96401000D01*
X54157476Y-96353380D02*
X54728904Y-96353380D01*
X54443190Y-97353380D02*
X54443190Y-96353380D01*
X55713571Y-47696380D02*
X55713571Y-46696380D01*
X56094523Y-46696380D01*
X56189761Y-46744000D01*
X56237380Y-46791619D01*
X56285000Y-46886857D01*
X56285000Y-47029714D01*
X56237380Y-47124952D01*
X56189761Y-47172571D01*
X56094523Y-47220190D01*
X55713571Y-47220190D01*
X56713571Y-47696380D02*
X56713571Y-46696380D01*
X56951666Y-46696380D01*
X57094523Y-46744000D01*
X57189761Y-46839238D01*
X57237380Y-46934476D01*
X57285000Y-47124952D01*
X57285000Y-47267809D01*
X57237380Y-47458285D01*
X57189761Y-47553523D01*
X57094523Y-47648761D01*
X56951666Y-47696380D01*
X56713571Y-47696380D01*
X57475476Y-47791619D02*
X58237380Y-47791619D01*
X59046904Y-47601142D02*
X58999285Y-47648761D01*
X58856428Y-47696380D01*
X58761190Y-47696380D01*
X58618333Y-47648761D01*
X58523095Y-47553523D01*
X58475476Y-47458285D01*
X58427857Y-47267809D01*
X58427857Y-47124952D01*
X58475476Y-46934476D01*
X58523095Y-46839238D01*
X58618333Y-46744000D01*
X58761190Y-46696380D01*
X58856428Y-46696380D01*
X58999285Y-46744000D01*
X59046904Y-46791619D01*
X59427857Y-47410666D02*
X59904047Y-47410666D01*
X59332619Y-47696380D02*
X59665952Y-46696380D01*
X59999285Y-47696380D01*
X30718285Y-161504380D02*
X31289714Y-161504380D01*
X31004000Y-162504380D02*
X31004000Y-161504380D01*
X31575428Y-161599619D02*
X31623047Y-161552000D01*
X31718285Y-161504380D01*
X31956380Y-161504380D01*
X32051619Y-161552000D01*
X32099238Y-161599619D01*
X32146857Y-161694857D01*
X32146857Y-161790095D01*
X32099238Y-161932952D01*
X31527809Y-162504380D01*
X32146857Y-162504380D01*
X32765904Y-161504380D02*
X32956380Y-161504380D01*
X33051619Y-161552000D01*
X33146857Y-161647238D01*
X33194476Y-161837714D01*
X33194476Y-162171047D01*
X33146857Y-162361523D01*
X33051619Y-162456761D01*
X32956380Y-162504380D01*
X32765904Y-162504380D01*
X32670666Y-162456761D01*
X32575428Y-162361523D01*
X32527809Y-162171047D01*
X32527809Y-161837714D01*
X32575428Y-161647238D01*
X32670666Y-161552000D01*
X32765904Y-161504380D01*
X30877000Y-148804380D02*
X31448428Y-148804380D01*
X31162714Y-149804380D02*
X31162714Y-148804380D01*
X32305571Y-149804380D02*
X31734142Y-149804380D01*
X32019857Y-149804380D02*
X32019857Y-148804380D01*
X31924619Y-148947238D01*
X31829380Y-149042476D01*
X31734142Y-149090095D01*
X32734142Y-149804380D02*
X32734142Y-148804380D01*
X52728904Y-102433380D02*
X52728904Y-101433380D01*
X52967000Y-101433380D01*
X53109857Y-101481000D01*
X53205095Y-101576238D01*
X53252714Y-101671476D01*
X53300333Y-101861952D01*
X53300333Y-102004809D01*
X53252714Y-102195285D01*
X53205095Y-102290523D01*
X53109857Y-102385761D01*
X52967000Y-102433380D01*
X52728904Y-102433380D01*
X53681285Y-101528619D02*
X53728904Y-101481000D01*
X53824142Y-101433380D01*
X54062238Y-101433380D01*
X54157476Y-101481000D01*
X54205095Y-101528619D01*
X54252714Y-101623857D01*
X54252714Y-101719095D01*
X54205095Y-101861952D01*
X53633666Y-102433380D01*
X54252714Y-102433380D01*
X60864904Y-124039380D02*
X61483952Y-124039380D01*
X61150619Y-124420333D01*
X61293476Y-124420333D01*
X61388714Y-124467952D01*
X61436333Y-124515571D01*
X61483952Y-124610809D01*
X61483952Y-124848904D01*
X61436333Y-124944142D01*
X61388714Y-124991761D01*
X61293476Y-125039380D01*
X61007761Y-125039380D01*
X60912523Y-124991761D01*
X60864904Y-124944142D01*
X61769666Y-124039380D02*
X62103000Y-125039380D01*
X62436333Y-124039380D01*
X62674428Y-124039380D02*
X63293476Y-124039380D01*
X62960142Y-124420333D01*
X63103000Y-124420333D01*
X63198238Y-124467952D01*
X63245857Y-124515571D01*
X63293476Y-124610809D01*
X63293476Y-124848904D01*
X63245857Y-124944142D01*
X63198238Y-124991761D01*
X63103000Y-125039380D01*
X62817285Y-125039380D01*
X62722047Y-124991761D01*
X62674428Y-124944142D01*
X52800333Y-94813380D02*
X52467000Y-94337190D01*
X52228904Y-94813380D02*
X52228904Y-93813380D01*
X52609857Y-93813380D01*
X52705095Y-93861000D01*
X52752714Y-93908619D01*
X52800333Y-94003857D01*
X52800333Y-94146714D01*
X52752714Y-94241952D01*
X52705095Y-94289571D01*
X52609857Y-94337190D01*
X52228904Y-94337190D01*
X53133666Y-93813380D02*
X53800333Y-94813380D01*
X53800333Y-93813380D02*
X53133666Y-94813380D01*
X54181285Y-94813380D02*
X54181285Y-93813380D01*
X54419380Y-93813380D01*
X54562238Y-93861000D01*
X54657476Y-93956238D01*
X54705095Y-94051476D01*
X54752714Y-94241952D01*
X54752714Y-94384809D01*
X54705095Y-94575285D01*
X54657476Y-94670523D01*
X54562238Y-94765761D01*
X54419380Y-94813380D01*
X54181285Y-94813380D01*
X46505952Y-47696380D02*
X46029761Y-47696380D01*
X46029761Y-46696380D01*
X46839285Y-47172571D02*
X47172619Y-47172571D01*
X47315476Y-47696380D02*
X46839285Y-47696380D01*
X46839285Y-46696380D01*
X47315476Y-46696380D01*
X47744047Y-47696380D02*
X47744047Y-46696380D01*
X47982142Y-46696380D01*
X48125000Y-46744000D01*
X48220238Y-46839238D01*
X48267857Y-46934476D01*
X48315476Y-47124952D01*
X48315476Y-47267809D01*
X48267857Y-47458285D01*
X48220238Y-47553523D01*
X48125000Y-47648761D01*
X47982142Y-47696380D01*
X47744047Y-47696380D01*
X49267857Y-47696380D02*
X48696428Y-47696380D01*
X48982142Y-47696380D02*
X48982142Y-46696380D01*
X48886904Y-46839238D01*
X48791666Y-46934476D01*
X48696428Y-46982095D01*
X60595019Y-79144761D02*
X60737876Y-79192380D01*
X60975972Y-79192380D01*
X61071210Y-79144761D01*
X61118829Y-79097142D01*
X61166448Y-79001904D01*
X61166448Y-78906666D01*
X61118829Y-78811428D01*
X61071210Y-78763809D01*
X60975972Y-78716190D01*
X60785496Y-78668571D01*
X60690257Y-78620952D01*
X60642638Y-78573333D01*
X60595019Y-78478095D01*
X60595019Y-78382857D01*
X60642638Y-78287619D01*
X60690257Y-78240000D01*
X60785496Y-78192380D01*
X61023591Y-78192380D01*
X61166448Y-78240000D01*
X62166448Y-79097142D02*
X62118829Y-79144761D01*
X61975972Y-79192380D01*
X61880734Y-79192380D01*
X61737876Y-79144761D01*
X61642638Y-79049523D01*
X61595019Y-78954285D01*
X61547400Y-78763809D01*
X61547400Y-78620952D01*
X61595019Y-78430476D01*
X61642638Y-78335238D01*
X61737876Y-78240000D01*
X61880734Y-78192380D01*
X61975972Y-78192380D01*
X62118829Y-78240000D01*
X62166448Y-78287619D01*
X63071210Y-79192380D02*
X62595019Y-79192380D01*
X62595019Y-78192380D01*
X61555380Y-97099380D02*
X61222047Y-96623190D01*
X60983952Y-97099380D02*
X60983952Y-96099380D01*
X61364904Y-96099380D01*
X61460142Y-96147000D01*
X61507761Y-96194619D01*
X61555380Y-96289857D01*
X61555380Y-96432714D01*
X61507761Y-96527952D01*
X61460142Y-96575571D01*
X61364904Y-96623190D01*
X60983952Y-96623190D01*
X61936333Y-97051761D02*
X62079190Y-97099380D01*
X62317285Y-97099380D01*
X62412523Y-97051761D01*
X62460142Y-97004142D01*
X62507761Y-96908904D01*
X62507761Y-96813666D01*
X62460142Y-96718428D01*
X62412523Y-96670809D01*
X62317285Y-96623190D01*
X62126809Y-96575571D01*
X62031571Y-96527952D01*
X61983952Y-96480333D01*
X61936333Y-96385095D01*
X61936333Y-96289857D01*
X61983952Y-96194619D01*
X62031571Y-96147000D01*
X62126809Y-96099380D01*
X62364904Y-96099380D01*
X62507761Y-96147000D01*
X62793476Y-96099380D02*
X63364904Y-96099380D01*
X63079190Y-97099380D02*
X63079190Y-96099380D01*
X59626686Y-71286666D02*
X60102876Y-71286666D01*
X59531448Y-71572380D02*
X59864781Y-70572380D01*
X60198115Y-71572380D01*
X61007638Y-71572380D02*
X60531448Y-71572380D01*
X60531448Y-70572380D01*
X61912400Y-71572380D02*
X61579067Y-71096190D01*
X61340972Y-71572380D02*
X61340972Y-70572380D01*
X61721924Y-70572380D01*
X61817162Y-70620000D01*
X61864781Y-70667619D01*
X61912400Y-70762857D01*
X61912400Y-70905714D01*
X61864781Y-71000952D01*
X61817162Y-71048571D01*
X61721924Y-71096190D01*
X61340972Y-71096190D01*
X62198115Y-70572380D02*
X62769543Y-70572380D01*
X62483829Y-71572380D02*
X62483829Y-70572380D01*
X52728904Y-112593380D02*
X52728904Y-111593380D01*
X52967000Y-111593380D01*
X53109857Y-111641000D01*
X53205095Y-111736238D01*
X53252714Y-111831476D01*
X53300333Y-112021952D01*
X53300333Y-112164809D01*
X53252714Y-112355285D01*
X53205095Y-112450523D01*
X53109857Y-112545761D01*
X52967000Y-112593380D01*
X52728904Y-112593380D01*
X54157476Y-111593380D02*
X53967000Y-111593380D01*
X53871761Y-111641000D01*
X53824142Y-111688619D01*
X53728904Y-111831476D01*
X53681285Y-112021952D01*
X53681285Y-112402904D01*
X53728904Y-112498142D01*
X53776523Y-112545761D01*
X53871761Y-112593380D01*
X54062238Y-112593380D01*
X54157476Y-112545761D01*
X54205095Y-112498142D01*
X54252714Y-112402904D01*
X54252714Y-112164809D01*
X54205095Y-112069571D01*
X54157476Y-112021952D01*
X54062238Y-111974333D01*
X53871761Y-111974333D01*
X53776523Y-112021952D01*
X53728904Y-112069571D01*
X53681285Y-112164809D01*
X52728904Y-107513380D02*
X52728904Y-106513380D01*
X52967000Y-106513380D01*
X53109857Y-106561000D01*
X53205095Y-106656238D01*
X53252714Y-106751476D01*
X53300333Y-106941952D01*
X53300333Y-107084809D01*
X53252714Y-107275285D01*
X53205095Y-107370523D01*
X53109857Y-107465761D01*
X52967000Y-107513380D01*
X52728904Y-107513380D01*
X54157476Y-106846714D02*
X54157476Y-107513380D01*
X53919380Y-106465761D02*
X53681285Y-107180047D01*
X54300333Y-107180047D01*
X61071210Y-61126666D02*
X61547400Y-61126666D01*
X60975972Y-61412380D02*
X61309305Y-60412380D01*
X61642638Y-61412380D01*
X61880734Y-60412380D02*
X62499781Y-60412380D01*
X62166448Y-60793333D01*
X62309305Y-60793333D01*
X62404543Y-60840952D01*
X62452162Y-60888571D01*
X62499781Y-60983809D01*
X62499781Y-61221904D01*
X62452162Y-61317142D01*
X62404543Y-61364761D01*
X62309305Y-61412380D01*
X62023591Y-61412380D01*
X61928353Y-61364761D01*
X61880734Y-61317142D01*
X61531571Y-122499380D02*
X61198238Y-122023190D01*
X60960142Y-122499380D02*
X60960142Y-121499380D01*
X61341095Y-121499380D01*
X61436333Y-121547000D01*
X61483952Y-121594619D01*
X61531571Y-121689857D01*
X61531571Y-121832714D01*
X61483952Y-121927952D01*
X61436333Y-121975571D01*
X61341095Y-122023190D01*
X60960142Y-122023190D01*
X61960142Y-121975571D02*
X62293476Y-121975571D01*
X62436333Y-122499380D02*
X61960142Y-122499380D01*
X61960142Y-121499380D01*
X62436333Y-121499380D01*
X63198238Y-121975571D02*
X62864904Y-121975571D01*
X62864904Y-122499380D02*
X62864904Y-121499380D01*
X63341095Y-121499380D01*
X60888714Y-127579380D02*
X60888714Y-126579380D01*
X61126809Y-126579380D01*
X61269666Y-126627000D01*
X61364904Y-126722238D01*
X61412523Y-126817476D01*
X61460142Y-127007952D01*
X61460142Y-127150809D01*
X61412523Y-127341285D01*
X61364904Y-127436523D01*
X61269666Y-127531761D01*
X61126809Y-127579380D01*
X60888714Y-127579380D01*
X62412523Y-127579380D02*
X61841095Y-127579380D01*
X62126809Y-127579380D02*
X62126809Y-126579380D01*
X62031571Y-126722238D01*
X61936333Y-126817476D01*
X61841095Y-126865095D01*
X62745857Y-126579380D02*
X63364904Y-126579380D01*
X63031571Y-126960333D01*
X63174428Y-126960333D01*
X63269666Y-127007952D01*
X63317285Y-127055571D01*
X63364904Y-127150809D01*
X63364904Y-127388904D01*
X63317285Y-127484142D01*
X63269666Y-127531761D01*
X63174428Y-127579380D01*
X62888714Y-127579380D01*
X62793476Y-127531761D01*
X62745857Y-127484142D01*
X52728904Y-120213380D02*
X52728904Y-119213380D01*
X52967000Y-119213380D01*
X53109857Y-119261000D01*
X53205095Y-119356238D01*
X53252714Y-119451476D01*
X53300333Y-119641952D01*
X53300333Y-119784809D01*
X53252714Y-119975285D01*
X53205095Y-120070523D01*
X53109857Y-120165761D01*
X52967000Y-120213380D01*
X52728904Y-120213380D01*
X53776523Y-120213380D02*
X53967000Y-120213380D01*
X54062238Y-120165761D01*
X54109857Y-120118142D01*
X54205095Y-119975285D01*
X54252714Y-119784809D01*
X54252714Y-119403857D01*
X54205095Y-119308619D01*
X54157476Y-119261000D01*
X54062238Y-119213380D01*
X53871761Y-119213380D01*
X53776523Y-119261000D01*
X53728904Y-119308619D01*
X53681285Y-119403857D01*
X53681285Y-119641952D01*
X53728904Y-119737190D01*
X53776523Y-119784809D01*
X53871761Y-119832428D01*
X54062238Y-119832428D01*
X54157476Y-119784809D01*
X54205095Y-119737190D01*
X54252714Y-119641952D01*
X61912523Y-98639380D02*
X61436333Y-98639380D01*
X61388714Y-99115571D01*
X61436333Y-99067952D01*
X61531571Y-99020333D01*
X61769666Y-99020333D01*
X61864904Y-99067952D01*
X61912523Y-99115571D01*
X61960142Y-99210809D01*
X61960142Y-99448904D01*
X61912523Y-99544142D01*
X61864904Y-99591761D01*
X61769666Y-99639380D01*
X61531571Y-99639380D01*
X61436333Y-99591761D01*
X61388714Y-99544142D01*
X62245857Y-98639380D02*
X62579190Y-99639380D01*
X62912523Y-98639380D01*
X46220190Y-176744380D02*
X46553523Y-177744380D01*
X46886857Y-176744380D01*
X47220190Y-177744380D02*
X47220190Y-177077714D01*
X47220190Y-176744380D02*
X47172571Y-176792000D01*
X47220190Y-176839619D01*
X47267809Y-176792000D01*
X47220190Y-176744380D01*
X47220190Y-176839619D01*
X47696380Y-177077714D02*
X47696380Y-177744380D01*
X47696380Y-177172952D02*
X47744000Y-177125333D01*
X47839238Y-177077714D01*
X47982095Y-177077714D01*
X48077333Y-177125333D01*
X48124952Y-177220571D01*
X48124952Y-177744380D01*
X52252714Y-122753380D02*
X52252714Y-121753380D01*
X52490809Y-121753380D01*
X52633666Y-121801000D01*
X52728904Y-121896238D01*
X52776523Y-121991476D01*
X52824142Y-122181952D01*
X52824142Y-122324809D01*
X52776523Y-122515285D01*
X52728904Y-122610523D01*
X52633666Y-122705761D01*
X52490809Y-122753380D01*
X52252714Y-122753380D01*
X53776523Y-122753380D02*
X53205095Y-122753380D01*
X53490809Y-122753380D02*
X53490809Y-121753380D01*
X53395571Y-121896238D01*
X53300333Y-121991476D01*
X53205095Y-122039095D01*
X54395571Y-121753380D02*
X54490809Y-121753380D01*
X54586047Y-121801000D01*
X54633666Y-121848619D01*
X54681285Y-121943857D01*
X54728904Y-122134333D01*
X54728904Y-122372428D01*
X54681285Y-122562904D01*
X54633666Y-122658142D01*
X54586047Y-122705761D01*
X54490809Y-122753380D01*
X54395571Y-122753380D01*
X54300333Y-122705761D01*
X54252714Y-122658142D01*
X54205095Y-122562904D01*
X54157476Y-122372428D01*
X54157476Y-122134333D01*
X54205095Y-121943857D01*
X54252714Y-121848619D01*
X54300333Y-121801000D01*
X54395571Y-121753380D01*
X61388714Y-114593666D02*
X61864904Y-114593666D01*
X61293476Y-114879380D02*
X61626809Y-113879380D01*
X61960142Y-114879380D01*
X62245857Y-113974619D02*
X62293476Y-113927000D01*
X62388714Y-113879380D01*
X62626809Y-113879380D01*
X62722047Y-113927000D01*
X62769666Y-113974619D01*
X62817285Y-114069857D01*
X62817285Y-114165095D01*
X62769666Y-114307952D01*
X62198238Y-114879380D01*
X62817285Y-114879380D01*
X31472238Y-157297380D02*
X31138904Y-156821190D01*
X30900809Y-157297380D02*
X30900809Y-156297380D01*
X31281761Y-156297380D01*
X31377000Y-156345000D01*
X31424619Y-156392619D01*
X31472238Y-156487857D01*
X31472238Y-156630714D01*
X31424619Y-156725952D01*
X31377000Y-156773571D01*
X31281761Y-156821190D01*
X30900809Y-156821190D01*
X31853190Y-156392619D02*
X31900809Y-156345000D01*
X31996047Y-156297380D01*
X32234142Y-156297380D01*
X32329380Y-156345000D01*
X32377000Y-156392619D01*
X32424619Y-156487857D01*
X32424619Y-156583095D01*
X32377000Y-156725952D01*
X31805571Y-157297380D01*
X32424619Y-157297380D01*
X32853190Y-157297380D02*
X32853190Y-156297380D01*
X30877000Y-146137380D02*
X31448428Y-146137380D01*
X31162714Y-147137380D02*
X31162714Y-146137380D01*
X31734142Y-146232619D02*
X31781761Y-146185000D01*
X31877000Y-146137380D01*
X32115095Y-146137380D01*
X32210333Y-146185000D01*
X32257952Y-146232619D01*
X32305571Y-146327857D01*
X32305571Y-146423095D01*
X32257952Y-146565952D01*
X31686523Y-147137380D01*
X32305571Y-147137380D01*
X32734142Y-147137380D02*
X32734142Y-146137380D01*
X30718285Y-163917380D02*
X31289714Y-163917380D01*
X31004000Y-164917380D02*
X31004000Y-163917380D01*
X32146857Y-164917380D02*
X31575428Y-164917380D01*
X31861142Y-164917380D02*
X31861142Y-163917380D01*
X31765904Y-164060238D01*
X31670666Y-164155476D01*
X31575428Y-164203095D01*
X32765904Y-163917380D02*
X32956380Y-163917380D01*
X33051619Y-163965000D01*
X33146857Y-164060238D01*
X33194476Y-164250714D01*
X33194476Y-164584047D01*
X33146857Y-164774523D01*
X33051619Y-164869761D01*
X32956380Y-164917380D01*
X32765904Y-164917380D01*
X32670666Y-164869761D01*
X32575428Y-164774523D01*
X32527809Y-164584047D01*
X32527809Y-164250714D01*
X32575428Y-164060238D01*
X32670666Y-163965000D01*
X32765904Y-163917380D01*
X61071210Y-66206666D02*
X61547400Y-66206666D01*
X60975972Y-66492380D02*
X61309305Y-65492380D01*
X61642638Y-66492380D01*
X62499781Y-66492380D02*
X61928353Y-66492380D01*
X62214067Y-66492380D02*
X62214067Y-65492380D01*
X62118829Y-65635238D01*
X62023591Y-65730476D01*
X61928353Y-65778095D01*
%TO.C,U3*%
X47492380Y-80019904D02*
X48301904Y-80019904D01*
X48397142Y-79972285D01*
X48444761Y-79924666D01*
X48492380Y-79829428D01*
X48492380Y-79638952D01*
X48444761Y-79543714D01*
X48397142Y-79496095D01*
X48301904Y-79448476D01*
X47492380Y-79448476D01*
X47492380Y-79067523D02*
X47492380Y-78448476D01*
X47873333Y-78781809D01*
X47873333Y-78638952D01*
X47920952Y-78543714D01*
X47968571Y-78496095D01*
X48063809Y-78448476D01*
X48301904Y-78448476D01*
X48397142Y-78496095D01*
X48444761Y-78543714D01*
X48492380Y-78638952D01*
X48492380Y-78924666D01*
X48444761Y-79019904D01*
X48397142Y-79067523D01*
X38655952Y-78710380D02*
X39227380Y-78710380D01*
X38941666Y-79710380D02*
X38941666Y-78710380D01*
X40036904Y-79710380D02*
X39560714Y-79710380D01*
X39560714Y-78710380D01*
X40941666Y-79615142D02*
X40894047Y-79662761D01*
X40751190Y-79710380D01*
X40655952Y-79710380D01*
X40513095Y-79662761D01*
X40417857Y-79567523D01*
X40370238Y-79472285D01*
X40322619Y-79281809D01*
X40322619Y-79138952D01*
X40370238Y-78948476D01*
X40417857Y-78853238D01*
X40513095Y-78758000D01*
X40655952Y-78710380D01*
X40751190Y-78710380D01*
X40894047Y-78758000D01*
X40941666Y-78805619D01*
X41322619Y-78805619D02*
X41370238Y-78758000D01*
X41465476Y-78710380D01*
X41703571Y-78710380D01*
X41798809Y-78758000D01*
X41846428Y-78805619D01*
X41894047Y-78900857D01*
X41894047Y-78996095D01*
X41846428Y-79138952D01*
X41275000Y-79710380D01*
X41894047Y-79710380D01*
X42227380Y-78710380D02*
X42894047Y-78710380D01*
X42465476Y-79710380D01*
X43227380Y-78805619D02*
X43275000Y-78758000D01*
X43370238Y-78710380D01*
X43608333Y-78710380D01*
X43703571Y-78758000D01*
X43751190Y-78805619D01*
X43798809Y-78900857D01*
X43798809Y-78996095D01*
X43751190Y-79138952D01*
X43179761Y-79710380D01*
X43798809Y-79710380D01*
%TO.C,J3*%
X50466666Y-140549380D02*
X50466666Y-141263666D01*
X50419047Y-141406523D01*
X50323809Y-141501761D01*
X50180952Y-141549380D01*
X50085714Y-141549380D01*
X50847619Y-140549380D02*
X51466666Y-140549380D01*
X51133333Y-140930333D01*
X51276190Y-140930333D01*
X51371428Y-140977952D01*
X51419047Y-141025571D01*
X51466666Y-141120809D01*
X51466666Y-141358904D01*
X51419047Y-141454142D01*
X51371428Y-141501761D01*
X51276190Y-141549380D01*
X50990476Y-141549380D01*
X50895238Y-141501761D01*
X50847619Y-141454142D01*
X38901666Y-155970952D02*
X38901666Y-155494761D01*
X39187380Y-156066190D02*
X38187380Y-155732857D01*
X39187380Y-155399523D01*
X39187380Y-155066190D02*
X38187380Y-155066190D01*
X38187380Y-154828095D01*
X38235000Y-154685238D01*
X38330238Y-154590000D01*
X38425476Y-154542380D01*
X38615952Y-154494761D01*
X38758809Y-154494761D01*
X38949285Y-154542380D01*
X39044523Y-154590000D01*
X39139761Y-154685238D01*
X39187380Y-154828095D01*
X39187380Y-155066190D01*
X38901666Y-154113809D02*
X38901666Y-153637619D01*
X39187380Y-154209047D02*
X38187380Y-153875714D01*
X39187380Y-153542380D01*
X38663571Y-152875714D02*
X38663571Y-153209047D01*
X39187380Y-153209047D02*
X38187380Y-153209047D01*
X38187380Y-152732857D01*
X39187380Y-151780476D02*
X38711190Y-152113809D01*
X39187380Y-152351904D02*
X38187380Y-152351904D01*
X38187380Y-151970952D01*
X38235000Y-151875714D01*
X38282619Y-151828095D01*
X38377857Y-151780476D01*
X38520714Y-151780476D01*
X38615952Y-151828095D01*
X38663571Y-151875714D01*
X38711190Y-151970952D01*
X38711190Y-152351904D01*
X38187380Y-151351904D02*
X38996904Y-151351904D01*
X39092142Y-151304285D01*
X39139761Y-151256666D01*
X39187380Y-151161428D01*
X39187380Y-150970952D01*
X39139761Y-150875714D01*
X39092142Y-150828095D01*
X38996904Y-150780476D01*
X38187380Y-150780476D01*
X39187380Y-150304285D02*
X38187380Y-150304285D01*
X38187380Y-149970952D02*
X38187380Y-149399523D01*
X39187380Y-149685238D02*
X38187380Y-149685238D01*
X39282619Y-149304285D02*
X39282619Y-148542380D01*
X39187380Y-148304285D02*
X38187380Y-148304285D01*
X38901666Y-147970952D01*
X38187380Y-147637619D01*
X39187380Y-147637619D01*
X38901666Y-147209047D02*
X38901666Y-146732857D01*
X39187380Y-147304285D02*
X38187380Y-146970952D01*
X39187380Y-146637619D01*
X38187380Y-146399523D02*
X39187380Y-145732857D01*
X38187380Y-145732857D02*
X39187380Y-146399523D01*
X39282619Y-145590000D02*
X39282619Y-144828095D01*
X38187380Y-144685238D02*
X38187380Y-144066190D01*
X38568333Y-144399523D01*
X38568333Y-144256666D01*
X38615952Y-144161428D01*
X38663571Y-144113809D01*
X38758809Y-144066190D01*
X38996904Y-144066190D01*
X39092142Y-144113809D01*
X39139761Y-144161428D01*
X39187380Y-144256666D01*
X39187380Y-144542380D01*
X39139761Y-144637619D01*
X39092142Y-144685238D01*
X38282619Y-143685238D02*
X38235000Y-143637619D01*
X38187380Y-143542380D01*
X38187380Y-143304285D01*
X38235000Y-143209047D01*
X38282619Y-143161428D01*
X38377857Y-143113809D01*
X38473095Y-143113809D01*
X38615952Y-143161428D01*
X39187380Y-143732857D01*
X39187380Y-143113809D01*
X38187380Y-142780476D02*
X38187380Y-142161428D01*
X38568333Y-142494761D01*
X38568333Y-142351904D01*
X38615952Y-142256666D01*
X38663571Y-142209047D01*
X38758809Y-142161428D01*
X38996904Y-142161428D01*
X39092142Y-142209047D01*
X39139761Y-142256666D01*
X39187380Y-142351904D01*
X39187380Y-142637619D01*
X39139761Y-142732857D01*
X39092142Y-142780476D01*
X38282619Y-141780476D02*
X38235000Y-141732857D01*
X38187380Y-141637619D01*
X38187380Y-141399523D01*
X38235000Y-141304285D01*
X38282619Y-141256666D01*
X38377857Y-141209047D01*
X38473095Y-141209047D01*
X38615952Y-141256666D01*
X39187380Y-141828095D01*
X39187380Y-141209047D01*
%TO.C,A1*%
X62658714Y-154979666D02*
X63134904Y-154979666D01*
X62563476Y-155265380D02*
X62896809Y-154265380D01*
X63230142Y-155265380D01*
X64087285Y-155265380D02*
X63515857Y-155265380D01*
X63801571Y-155265380D02*
X63801571Y-154265380D01*
X63706333Y-154408238D01*
X63611095Y-154503476D01*
X63515857Y-154551095D01*
X56634333Y-159075380D02*
X56158142Y-159075380D01*
X56158142Y-158075380D01*
X56967666Y-159075380D02*
X56967666Y-158075380D01*
X57301000Y-158789666D01*
X57634333Y-158075380D01*
X57634333Y-159075380D01*
X58015285Y-158075380D02*
X58681952Y-158075380D01*
X58253380Y-159075380D01*
X59205761Y-158503952D02*
X59110523Y-158456333D01*
X59062904Y-158408714D01*
X59015285Y-158313476D01*
X59015285Y-158265857D01*
X59062904Y-158170619D01*
X59110523Y-158123000D01*
X59205761Y-158075380D01*
X59396238Y-158075380D01*
X59491476Y-158123000D01*
X59539095Y-158170619D01*
X59586714Y-158265857D01*
X59586714Y-158313476D01*
X59539095Y-158408714D01*
X59491476Y-158456333D01*
X59396238Y-158503952D01*
X59205761Y-158503952D01*
X59110523Y-158551571D01*
X59062904Y-158599190D01*
X59015285Y-158694428D01*
X59015285Y-158884904D01*
X59062904Y-158980142D01*
X59110523Y-159027761D01*
X59205761Y-159075380D01*
X59396238Y-159075380D01*
X59491476Y-159027761D01*
X59539095Y-158980142D01*
X59586714Y-158884904D01*
X59586714Y-158694428D01*
X59539095Y-158599190D01*
X59491476Y-158551571D01*
X59396238Y-158503952D01*
X60205761Y-158075380D02*
X60301000Y-158075380D01*
X60396238Y-158123000D01*
X60443857Y-158170619D01*
X60491476Y-158265857D01*
X60539095Y-158456333D01*
X60539095Y-158694428D01*
X60491476Y-158884904D01*
X60443857Y-158980142D01*
X60396238Y-159027761D01*
X60301000Y-159075380D01*
X60205761Y-159075380D01*
X60110523Y-159027761D01*
X60062904Y-158980142D01*
X60015285Y-158884904D01*
X59967666Y-158694428D01*
X59967666Y-158456333D01*
X60015285Y-158265857D01*
X60062904Y-158170619D01*
X60110523Y-158123000D01*
X60205761Y-158075380D01*
X61443857Y-158075380D02*
X60967666Y-158075380D01*
X60920047Y-158551571D01*
X60967666Y-158503952D01*
X61062904Y-158456333D01*
X61301000Y-158456333D01*
X61396238Y-158503952D01*
X61443857Y-158551571D01*
X61491476Y-158646809D01*
X61491476Y-158884904D01*
X61443857Y-158980142D01*
X61396238Y-159027761D01*
X61301000Y-159075380D01*
X61062904Y-159075380D01*
X60967666Y-159027761D01*
X60920047Y-158980142D01*
%TO.C,R1*%
X37112380Y-120816666D02*
X36636190Y-121150000D01*
X37112380Y-121388095D02*
X36112380Y-121388095D01*
X36112380Y-121007142D01*
X36160000Y-120911904D01*
X36207619Y-120864285D01*
X36302857Y-120816666D01*
X36445714Y-120816666D01*
X36540952Y-120864285D01*
X36588571Y-120911904D01*
X36636190Y-121007142D01*
X36636190Y-121388095D01*
X37112380Y-119864285D02*
X37112380Y-120435714D01*
X37112380Y-120150000D02*
X36112380Y-120150000D01*
X36255238Y-120245238D01*
X36350476Y-120340476D01*
X36398095Y-120435714D01*
X33742380Y-122578571D02*
X33742380Y-123054761D01*
X34218571Y-123102380D01*
X34170952Y-123054761D01*
X34123333Y-122959523D01*
X34123333Y-122721428D01*
X34170952Y-122626190D01*
X34218571Y-122578571D01*
X34313809Y-122530952D01*
X34551904Y-122530952D01*
X34647142Y-122578571D01*
X34694761Y-122626190D01*
X34742380Y-122721428D01*
X34742380Y-122959523D01*
X34694761Y-123054761D01*
X34647142Y-123102380D01*
X34647142Y-122102380D02*
X34694761Y-122054761D01*
X34742380Y-122102380D01*
X34694761Y-122150000D01*
X34647142Y-122102380D01*
X34742380Y-122102380D01*
X34742380Y-121102380D02*
X34742380Y-121673809D01*
X34742380Y-121388095D02*
X33742380Y-121388095D01*
X33885238Y-121483333D01*
X33980476Y-121578571D01*
X34028095Y-121673809D01*
X34742380Y-120673809D02*
X33742380Y-120673809D01*
X34742380Y-120102380D02*
X34170952Y-120530952D01*
X33742380Y-120102380D02*
X34313809Y-120673809D01*
X34742380Y-119721428D02*
X34742380Y-119483333D01*
X34551904Y-119483333D01*
X34504285Y-119578571D01*
X34409047Y-119673809D01*
X34266190Y-119721428D01*
X34028095Y-119721428D01*
X33885238Y-119673809D01*
X33790000Y-119578571D01*
X33742380Y-119435714D01*
X33742380Y-119245238D01*
X33790000Y-119102380D01*
X33885238Y-119007142D01*
X34028095Y-118959523D01*
X34266190Y-118959523D01*
X34409047Y-119007142D01*
X34504285Y-119102380D01*
X34551904Y-119197619D01*
X34742380Y-119197619D01*
X34742380Y-118959523D01*
%TO.C,R3*%
X46637380Y-120816666D02*
X46161190Y-121150000D01*
X46637380Y-121388095D02*
X45637380Y-121388095D01*
X45637380Y-121007142D01*
X45685000Y-120911904D01*
X45732619Y-120864285D01*
X45827857Y-120816666D01*
X45970714Y-120816666D01*
X46065952Y-120864285D01*
X46113571Y-120911904D01*
X46161190Y-121007142D01*
X46161190Y-121388095D01*
X45637380Y-120483333D02*
X45637380Y-119864285D01*
X46018333Y-120197619D01*
X46018333Y-120054761D01*
X46065952Y-119959523D01*
X46113571Y-119911904D01*
X46208809Y-119864285D01*
X46446904Y-119864285D01*
X46542142Y-119911904D01*
X46589761Y-119959523D01*
X46637380Y-120054761D01*
X46637380Y-120340476D01*
X46589761Y-120435714D01*
X46542142Y-120483333D01*
X43267380Y-122578571D02*
X43267380Y-123054761D01*
X43743571Y-123102380D01*
X43695952Y-123054761D01*
X43648333Y-122959523D01*
X43648333Y-122721428D01*
X43695952Y-122626190D01*
X43743571Y-122578571D01*
X43838809Y-122530952D01*
X44076904Y-122530952D01*
X44172142Y-122578571D01*
X44219761Y-122626190D01*
X44267380Y-122721428D01*
X44267380Y-122959523D01*
X44219761Y-123054761D01*
X44172142Y-123102380D01*
X44172142Y-122102380D02*
X44219761Y-122054761D01*
X44267380Y-122102380D01*
X44219761Y-122150000D01*
X44172142Y-122102380D01*
X44267380Y-122102380D01*
X44267380Y-121102380D02*
X44267380Y-121673809D01*
X44267380Y-121388095D02*
X43267380Y-121388095D01*
X43410238Y-121483333D01*
X43505476Y-121578571D01*
X43553095Y-121673809D01*
X44267380Y-120673809D02*
X43267380Y-120673809D01*
X44267380Y-120102380D02*
X43695952Y-120530952D01*
X43267380Y-120102380D02*
X43838809Y-120673809D01*
X44267380Y-119721428D02*
X44267380Y-119483333D01*
X44076904Y-119483333D01*
X44029285Y-119578571D01*
X43934047Y-119673809D01*
X43791190Y-119721428D01*
X43553095Y-119721428D01*
X43410238Y-119673809D01*
X43315000Y-119578571D01*
X43267380Y-119435714D01*
X43267380Y-119245238D01*
X43315000Y-119102380D01*
X43410238Y-119007142D01*
X43553095Y-118959523D01*
X43791190Y-118959523D01*
X43934047Y-119007142D01*
X44029285Y-119102380D01*
X44076904Y-119197619D01*
X44267380Y-119197619D01*
X44267380Y-118959523D01*
%TO.C,*%
%TO.C,R7*%
X38435380Y-70260666D02*
X37959190Y-70594000D01*
X38435380Y-70832095D02*
X37435380Y-70832095D01*
X37435380Y-70451142D01*
X37483000Y-70355904D01*
X37530619Y-70308285D01*
X37625857Y-70260666D01*
X37768714Y-70260666D01*
X37863952Y-70308285D01*
X37911571Y-70355904D01*
X37959190Y-70451142D01*
X37959190Y-70832095D01*
X37435380Y-69927333D02*
X37435380Y-69260666D01*
X38435380Y-69689238D01*
X40703714Y-72451380D02*
X40132285Y-72451380D01*
X40418000Y-72451380D02*
X40418000Y-71451380D01*
X40322761Y-71594238D01*
X40227523Y-71689476D01*
X40132285Y-71737095D01*
X41322761Y-71451380D02*
X41418000Y-71451380D01*
X41513238Y-71499000D01*
X41560857Y-71546619D01*
X41608476Y-71641857D01*
X41656095Y-71832333D01*
X41656095Y-72070428D01*
X41608476Y-72260904D01*
X41560857Y-72356142D01*
X41513238Y-72403761D01*
X41418000Y-72451380D01*
X41322761Y-72451380D01*
X41227523Y-72403761D01*
X41179904Y-72356142D01*
X41132285Y-72260904D01*
X41084666Y-72070428D01*
X41084666Y-71832333D01*
X41132285Y-71641857D01*
X41179904Y-71546619D01*
X41227523Y-71499000D01*
X41322761Y-71451380D01*
X42084666Y-72451380D02*
X42084666Y-71451380D01*
X42418000Y-72165666D01*
X42751333Y-71451380D01*
X42751333Y-72451380D01*
X43179904Y-72451380D02*
X43418000Y-72451380D01*
X43418000Y-72260904D01*
X43322761Y-72213285D01*
X43227523Y-72118047D01*
X43179904Y-71975190D01*
X43179904Y-71737095D01*
X43227523Y-71594238D01*
X43322761Y-71499000D01*
X43465619Y-71451380D01*
X43656095Y-71451380D01*
X43798952Y-71499000D01*
X43894190Y-71594238D01*
X43941809Y-71737095D01*
X43941809Y-71975190D01*
X43894190Y-72118047D01*
X43798952Y-72213285D01*
X43703714Y-72260904D01*
X43703714Y-72451380D01*
X43941809Y-72451380D01*
%TO.C,R8*%
X53130380Y-65327666D02*
X52654190Y-65661000D01*
X53130380Y-65899095D02*
X52130380Y-65899095D01*
X52130380Y-65518142D01*
X52178000Y-65422904D01*
X52225619Y-65375285D01*
X52320857Y-65327666D01*
X52463714Y-65327666D01*
X52558952Y-65375285D01*
X52606571Y-65422904D01*
X52654190Y-65518142D01*
X52654190Y-65899095D01*
X52558952Y-64756238D02*
X52511333Y-64851476D01*
X52463714Y-64899095D01*
X52368476Y-64946714D01*
X52320857Y-64946714D01*
X52225619Y-64899095D01*
X52178000Y-64851476D01*
X52130380Y-64756238D01*
X52130380Y-64565761D01*
X52178000Y-64470523D01*
X52225619Y-64422904D01*
X52320857Y-64375285D01*
X52368476Y-64375285D01*
X52463714Y-64422904D01*
X52511333Y-64470523D01*
X52558952Y-64565761D01*
X52558952Y-64756238D01*
X52606571Y-64851476D01*
X52654190Y-64899095D01*
X52749428Y-64946714D01*
X52939904Y-64946714D01*
X53035142Y-64899095D01*
X53082761Y-64851476D01*
X53130380Y-64756238D01*
X53130380Y-64565761D01*
X53082761Y-64470523D01*
X53035142Y-64422904D01*
X52939904Y-64375285D01*
X52749428Y-64375285D01*
X52654190Y-64422904D01*
X52606571Y-64470523D01*
X52558952Y-64565761D01*
X51750380Y-72217190D02*
X51750380Y-72788619D01*
X51750380Y-72502904D02*
X50750380Y-72502904D01*
X50893238Y-72598142D01*
X50988476Y-72693380D01*
X51036095Y-72788619D01*
X51655142Y-71788619D02*
X51702761Y-71741000D01*
X51750380Y-71788619D01*
X51702761Y-71836238D01*
X51655142Y-71788619D01*
X51750380Y-71788619D01*
X51178952Y-71169571D02*
X51131333Y-71264809D01*
X51083714Y-71312428D01*
X50988476Y-71360047D01*
X50940857Y-71360047D01*
X50845619Y-71312428D01*
X50798000Y-71264809D01*
X50750380Y-71169571D01*
X50750380Y-70979095D01*
X50798000Y-70883857D01*
X50845619Y-70836238D01*
X50940857Y-70788619D01*
X50988476Y-70788619D01*
X51083714Y-70836238D01*
X51131333Y-70883857D01*
X51178952Y-70979095D01*
X51178952Y-71169571D01*
X51226571Y-71264809D01*
X51274190Y-71312428D01*
X51369428Y-71360047D01*
X51559904Y-71360047D01*
X51655142Y-71312428D01*
X51702761Y-71264809D01*
X51750380Y-71169571D01*
X51750380Y-70979095D01*
X51702761Y-70883857D01*
X51655142Y-70836238D01*
X51559904Y-70788619D01*
X51369428Y-70788619D01*
X51274190Y-70836238D01*
X51226571Y-70883857D01*
X51178952Y-70979095D01*
X50750380Y-69883857D02*
X50750380Y-70360047D01*
X51226571Y-70407666D01*
X51178952Y-70360047D01*
X51131333Y-70264809D01*
X51131333Y-70026714D01*
X51178952Y-69931476D01*
X51226571Y-69883857D01*
X51321809Y-69836238D01*
X51559904Y-69836238D01*
X51655142Y-69883857D01*
X51702761Y-69931476D01*
X51750380Y-70026714D01*
X51750380Y-70264809D01*
X51702761Y-70360047D01*
X51655142Y-70407666D01*
X51750380Y-69407666D02*
X50750380Y-69407666D01*
X51750380Y-68836238D02*
X51178952Y-69264809D01*
X50750380Y-68836238D02*
X51321809Y-69407666D01*
X51750380Y-68455285D02*
X51750380Y-68217190D01*
X51559904Y-68217190D01*
X51512285Y-68312428D01*
X51417047Y-68407666D01*
X51274190Y-68455285D01*
X51036095Y-68455285D01*
X50893238Y-68407666D01*
X50798000Y-68312428D01*
X50750380Y-68169571D01*
X50750380Y-67979095D01*
X50798000Y-67836238D01*
X50893238Y-67741000D01*
X51036095Y-67693380D01*
X51274190Y-67693380D01*
X51417047Y-67741000D01*
X51512285Y-67836238D01*
X51559904Y-67931476D01*
X51750380Y-67931476D01*
X51750380Y-67693380D01*
%TO.C,C3*%
X39102142Y-66196666D02*
X39149761Y-66244285D01*
X39197380Y-66387142D01*
X39197380Y-66482380D01*
X39149761Y-66625238D01*
X39054523Y-66720476D01*
X38959285Y-66768095D01*
X38768809Y-66815714D01*
X38625952Y-66815714D01*
X38435476Y-66768095D01*
X38340238Y-66720476D01*
X38245000Y-66625238D01*
X38197380Y-66482380D01*
X38197380Y-66387142D01*
X38245000Y-66244285D01*
X38292619Y-66196666D01*
X38197380Y-65863333D02*
X38197380Y-65244285D01*
X38578333Y-65577619D01*
X38578333Y-65434761D01*
X38625952Y-65339523D01*
X38673571Y-65291904D01*
X38768809Y-65244285D01*
X39006904Y-65244285D01*
X39102142Y-65291904D01*
X39149761Y-65339523D01*
X39197380Y-65434761D01*
X39197380Y-65720476D01*
X39149761Y-65815714D01*
X39102142Y-65863333D01*
X40902142Y-67482619D02*
X40949761Y-67435000D01*
X41045000Y-67387380D01*
X41283095Y-67387380D01*
X41378333Y-67435000D01*
X41425952Y-67482619D01*
X41473571Y-67577857D01*
X41473571Y-67673095D01*
X41425952Y-67815952D01*
X40854523Y-68387380D01*
X41473571Y-68387380D01*
X41854523Y-67482619D02*
X41902142Y-67435000D01*
X41997380Y-67387380D01*
X42235476Y-67387380D01*
X42330714Y-67435000D01*
X42378333Y-67482619D01*
X42425952Y-67577857D01*
X42425952Y-67673095D01*
X42378333Y-67815952D01*
X41806904Y-68387380D01*
X42425952Y-68387380D01*
X42854523Y-67720714D02*
X42854523Y-68720714D01*
X42854523Y-67768333D02*
X42949761Y-67720714D01*
X43140238Y-67720714D01*
X43235476Y-67768333D01*
X43283095Y-67815952D01*
X43330714Y-67911190D01*
X43330714Y-68196904D01*
X43283095Y-68292142D01*
X43235476Y-68339761D01*
X43140238Y-68387380D01*
X42949761Y-68387380D01*
X42854523Y-68339761D01*
X44092619Y-67863571D02*
X43759285Y-67863571D01*
X43759285Y-68387380D02*
X43759285Y-67387380D01*
X44235476Y-67387380D01*
%TO.C,C1*%
X43648333Y-158472142D02*
X43600714Y-158519761D01*
X43457857Y-158567380D01*
X43362619Y-158567380D01*
X43219761Y-158519761D01*
X43124523Y-158424523D01*
X43076904Y-158329285D01*
X43029285Y-158138809D01*
X43029285Y-157995952D01*
X43076904Y-157805476D01*
X43124523Y-157710238D01*
X43219761Y-157615000D01*
X43362619Y-157567380D01*
X43457857Y-157567380D01*
X43600714Y-157615000D01*
X43648333Y-157662619D01*
X44600714Y-158567380D02*
X44029285Y-158567380D01*
X44315000Y-158567380D02*
X44315000Y-157567380D01*
X44219761Y-157710238D01*
X44124523Y-157805476D01*
X44029285Y-157853095D01*
X44942142Y-165298380D02*
X44370714Y-165298380D01*
X44656428Y-165298380D02*
X44656428Y-164298380D01*
X44561190Y-164441238D01*
X44465952Y-164536476D01*
X44370714Y-164584095D01*
X45561190Y-164298380D02*
X45656428Y-164298380D01*
X45751666Y-164346000D01*
X45799285Y-164393619D01*
X45846904Y-164488857D01*
X45894523Y-164679333D01*
X45894523Y-164917428D01*
X45846904Y-165107904D01*
X45799285Y-165203142D01*
X45751666Y-165250761D01*
X45656428Y-165298380D01*
X45561190Y-165298380D01*
X45465952Y-165250761D01*
X45418333Y-165203142D01*
X45370714Y-165107904D01*
X45323095Y-164917428D01*
X45323095Y-164679333D01*
X45370714Y-164488857D01*
X45418333Y-164393619D01*
X45465952Y-164346000D01*
X45561190Y-164298380D01*
X46323095Y-164631714D02*
X46323095Y-165631714D01*
X46799285Y-165155523D02*
X46846904Y-165250761D01*
X46942142Y-165298380D01*
X46323095Y-165155523D02*
X46370714Y-165250761D01*
X46465952Y-165298380D01*
X46656428Y-165298380D01*
X46751666Y-165250761D01*
X46799285Y-165155523D01*
X46799285Y-164631714D01*
X47704047Y-164774571D02*
X47370714Y-164774571D01*
X47370714Y-165298380D02*
X47370714Y-164298380D01*
X47846904Y-164298380D01*
%TO.C,R6*%
X43167380Y-99226666D02*
X42691190Y-99560000D01*
X43167380Y-99798095D02*
X42167380Y-99798095D01*
X42167380Y-99417142D01*
X42215000Y-99321904D01*
X42262619Y-99274285D01*
X42357857Y-99226666D01*
X42500714Y-99226666D01*
X42595952Y-99274285D01*
X42643571Y-99321904D01*
X42691190Y-99417142D01*
X42691190Y-99798095D01*
X42167380Y-98369523D02*
X42167380Y-98560000D01*
X42215000Y-98655238D01*
X42262619Y-98702857D01*
X42405476Y-98798095D01*
X42595952Y-98845714D01*
X42976904Y-98845714D01*
X43072142Y-98798095D01*
X43119761Y-98750476D01*
X43167380Y-98655238D01*
X43167380Y-98464761D01*
X43119761Y-98369523D01*
X43072142Y-98321904D01*
X42976904Y-98274285D01*
X42738809Y-98274285D01*
X42643571Y-98321904D01*
X42595952Y-98369523D01*
X42548333Y-98464761D01*
X42548333Y-98655238D01*
X42595952Y-98750476D01*
X42643571Y-98798095D01*
X42738809Y-98845714D01*
X45537380Y-100679047D02*
X45537380Y-101250476D01*
X45537380Y-100964761D02*
X44537380Y-100964761D01*
X44680238Y-101060000D01*
X44775476Y-101155238D01*
X44823095Y-101250476D01*
X44537380Y-100060000D02*
X44537380Y-99964761D01*
X44585000Y-99869523D01*
X44632619Y-99821904D01*
X44727857Y-99774285D01*
X44918333Y-99726666D01*
X45156428Y-99726666D01*
X45346904Y-99774285D01*
X45442142Y-99821904D01*
X45489761Y-99869523D01*
X45537380Y-99964761D01*
X45537380Y-100060000D01*
X45489761Y-100155238D01*
X45442142Y-100202857D01*
X45346904Y-100250476D01*
X45156428Y-100298095D01*
X44918333Y-100298095D01*
X44727857Y-100250476D01*
X44632619Y-100202857D01*
X44585000Y-100155238D01*
X44537380Y-100060000D01*
X44537380Y-99107619D02*
X44537380Y-99012380D01*
X44585000Y-98917142D01*
X44632619Y-98869523D01*
X44727857Y-98821904D01*
X44918333Y-98774285D01*
X45156428Y-98774285D01*
X45346904Y-98821904D01*
X45442142Y-98869523D01*
X45489761Y-98917142D01*
X45537380Y-99012380D01*
X45537380Y-99107619D01*
X45489761Y-99202857D01*
X45442142Y-99250476D01*
X45346904Y-99298095D01*
X45156428Y-99345714D01*
X44918333Y-99345714D01*
X44727857Y-99298095D01*
X44632619Y-99250476D01*
X44585000Y-99202857D01*
X44537380Y-99107619D01*
X45537380Y-98393333D02*
X45537380Y-98155238D01*
X45346904Y-98155238D01*
X45299285Y-98250476D01*
X45204047Y-98345714D01*
X45061190Y-98393333D01*
X44823095Y-98393333D01*
X44680238Y-98345714D01*
X44585000Y-98250476D01*
X44537380Y-98107619D01*
X44537380Y-97917142D01*
X44585000Y-97774285D01*
X44680238Y-97679047D01*
X44823095Y-97631428D01*
X45061190Y-97631428D01*
X45204047Y-97679047D01*
X45299285Y-97774285D01*
X45346904Y-97869523D01*
X45537380Y-97869523D01*
X45537380Y-97631428D01*
%TO.C,*%
%TO.C,Q1*%
X31662619Y-113760238D02*
X31615000Y-113855476D01*
X31519761Y-113950714D01*
X31376904Y-114093571D01*
X31329285Y-114188809D01*
X31329285Y-114284047D01*
X31567380Y-114236428D02*
X31519761Y-114331666D01*
X31424523Y-114426904D01*
X31234047Y-114474523D01*
X30900714Y-114474523D01*
X30710238Y-114426904D01*
X30615000Y-114331666D01*
X30567380Y-114236428D01*
X30567380Y-114045952D01*
X30615000Y-113950714D01*
X30710238Y-113855476D01*
X30900714Y-113807857D01*
X31234047Y-113807857D01*
X31424523Y-113855476D01*
X31519761Y-113950714D01*
X31567380Y-114045952D01*
X31567380Y-114236428D01*
X31567380Y-112855476D02*
X31567380Y-113426904D01*
X31567380Y-113141190D02*
X30567380Y-113141190D01*
X30710238Y-113236428D01*
X30805476Y-113331666D01*
X30853095Y-113426904D01*
%TO.C,*%
%TO.C,R5*%
X37452380Y-99226666D02*
X36976190Y-99560000D01*
X37452380Y-99798095D02*
X36452380Y-99798095D01*
X36452380Y-99417142D01*
X36500000Y-99321904D01*
X36547619Y-99274285D01*
X36642857Y-99226666D01*
X36785714Y-99226666D01*
X36880952Y-99274285D01*
X36928571Y-99321904D01*
X36976190Y-99417142D01*
X36976190Y-99798095D01*
X36452380Y-98321904D02*
X36452380Y-98798095D01*
X36928571Y-98845714D01*
X36880952Y-98798095D01*
X36833333Y-98702857D01*
X36833333Y-98464761D01*
X36880952Y-98369523D01*
X36928571Y-98321904D01*
X37023809Y-98274285D01*
X37261904Y-98274285D01*
X37357142Y-98321904D01*
X37404761Y-98369523D01*
X37452380Y-98464761D01*
X37452380Y-98702857D01*
X37404761Y-98798095D01*
X37357142Y-98845714D01*
X39822380Y-100679047D02*
X39822380Y-101250476D01*
X39822380Y-100964761D02*
X38822380Y-100964761D01*
X38965238Y-101060000D01*
X39060476Y-101155238D01*
X39108095Y-101250476D01*
X38822380Y-100060000D02*
X38822380Y-99964761D01*
X38870000Y-99869523D01*
X38917619Y-99821904D01*
X39012857Y-99774285D01*
X39203333Y-99726666D01*
X39441428Y-99726666D01*
X39631904Y-99774285D01*
X39727142Y-99821904D01*
X39774761Y-99869523D01*
X39822380Y-99964761D01*
X39822380Y-100060000D01*
X39774761Y-100155238D01*
X39727142Y-100202857D01*
X39631904Y-100250476D01*
X39441428Y-100298095D01*
X39203333Y-100298095D01*
X39012857Y-100250476D01*
X38917619Y-100202857D01*
X38870000Y-100155238D01*
X38822380Y-100060000D01*
X38822380Y-99107619D02*
X38822380Y-99012380D01*
X38870000Y-98917142D01*
X38917619Y-98869523D01*
X39012857Y-98821904D01*
X39203333Y-98774285D01*
X39441428Y-98774285D01*
X39631904Y-98821904D01*
X39727142Y-98869523D01*
X39774761Y-98917142D01*
X39822380Y-99012380D01*
X39822380Y-99107619D01*
X39774761Y-99202857D01*
X39727142Y-99250476D01*
X39631904Y-99298095D01*
X39441428Y-99345714D01*
X39203333Y-99345714D01*
X39012857Y-99298095D01*
X38917619Y-99250476D01*
X38870000Y-99202857D01*
X38822380Y-99107619D01*
X39822380Y-98393333D02*
X39822380Y-98155238D01*
X39631904Y-98155238D01*
X39584285Y-98250476D01*
X39489047Y-98345714D01*
X39346190Y-98393333D01*
X39108095Y-98393333D01*
X38965238Y-98345714D01*
X38870000Y-98250476D01*
X38822380Y-98107619D01*
X38822380Y-97917142D01*
X38870000Y-97774285D01*
X38965238Y-97679047D01*
X39108095Y-97631428D01*
X39346190Y-97631428D01*
X39489047Y-97679047D01*
X39584285Y-97774285D01*
X39631904Y-97869523D01*
X39822380Y-97869523D01*
X39822380Y-97631428D01*
%TO.C,D5*%
X37361904Y-161742380D02*
X37361904Y-160742380D01*
X37600000Y-160742380D01*
X37742857Y-160790000D01*
X37838095Y-160885238D01*
X37885714Y-160980476D01*
X37933333Y-161170952D01*
X37933333Y-161313809D01*
X37885714Y-161504285D01*
X37838095Y-161599523D01*
X37742857Y-161694761D01*
X37600000Y-161742380D01*
X37361904Y-161742380D01*
X38838095Y-160742380D02*
X38361904Y-160742380D01*
X38314285Y-161218571D01*
X38361904Y-161170952D01*
X38457142Y-161123333D01*
X38695238Y-161123333D01*
X38790476Y-161170952D01*
X38838095Y-161218571D01*
X38885714Y-161313809D01*
X38885714Y-161551904D01*
X38838095Y-161647142D01*
X38790476Y-161694761D01*
X38695238Y-161742380D01*
X38457142Y-161742380D01*
X38361904Y-161694761D01*
X38314285Y-161647142D01*
X38012666Y-165465095D02*
X38012666Y-164988904D01*
X38298380Y-165560333D02*
X37298380Y-165227000D01*
X38298380Y-164893666D01*
%TO.C,Q3*%
X43092619Y-113760238D02*
X43045000Y-113855476D01*
X42949761Y-113950714D01*
X42806904Y-114093571D01*
X42759285Y-114188809D01*
X42759285Y-114284047D01*
X42997380Y-114236428D02*
X42949761Y-114331666D01*
X42854523Y-114426904D01*
X42664047Y-114474523D01*
X42330714Y-114474523D01*
X42140238Y-114426904D01*
X42045000Y-114331666D01*
X41997380Y-114236428D01*
X41997380Y-114045952D01*
X42045000Y-113950714D01*
X42140238Y-113855476D01*
X42330714Y-113807857D01*
X42664047Y-113807857D01*
X42854523Y-113855476D01*
X42949761Y-113950714D01*
X42997380Y-114045952D01*
X42997380Y-114236428D01*
X41997380Y-113474523D02*
X41997380Y-112855476D01*
X42378333Y-113188809D01*
X42378333Y-113045952D01*
X42425952Y-112950714D01*
X42473571Y-112903095D01*
X42568809Y-112855476D01*
X42806904Y-112855476D01*
X42902142Y-112903095D01*
X42949761Y-112950714D01*
X42997380Y-113045952D01*
X42997380Y-113331666D01*
X42949761Y-113426904D01*
X42902142Y-113474523D01*
%TO.C,Q2*%
X37377619Y-113760238D02*
X37330000Y-113855476D01*
X37234761Y-113950714D01*
X37091904Y-114093571D01*
X37044285Y-114188809D01*
X37044285Y-114284047D01*
X37282380Y-114236428D02*
X37234761Y-114331666D01*
X37139523Y-114426904D01*
X36949047Y-114474523D01*
X36615714Y-114474523D01*
X36425238Y-114426904D01*
X36330000Y-114331666D01*
X36282380Y-114236428D01*
X36282380Y-114045952D01*
X36330000Y-113950714D01*
X36425238Y-113855476D01*
X36615714Y-113807857D01*
X36949047Y-113807857D01*
X37139523Y-113855476D01*
X37234761Y-113950714D01*
X37282380Y-114045952D01*
X37282380Y-114236428D01*
X36377619Y-113426904D02*
X36330000Y-113379285D01*
X36282380Y-113284047D01*
X36282380Y-113045952D01*
X36330000Y-112950714D01*
X36377619Y-112903095D01*
X36472857Y-112855476D01*
X36568095Y-112855476D01*
X36710952Y-112903095D01*
X37282380Y-113474523D01*
X37282380Y-112855476D01*
%TO.C,R2*%
X42192380Y-120816666D02*
X41716190Y-121150000D01*
X42192380Y-121388095D02*
X41192380Y-121388095D01*
X41192380Y-121007142D01*
X41240000Y-120911904D01*
X41287619Y-120864285D01*
X41382857Y-120816666D01*
X41525714Y-120816666D01*
X41620952Y-120864285D01*
X41668571Y-120911904D01*
X41716190Y-121007142D01*
X41716190Y-121388095D01*
X41287619Y-120435714D02*
X41240000Y-120388095D01*
X41192380Y-120292857D01*
X41192380Y-120054761D01*
X41240000Y-119959523D01*
X41287619Y-119911904D01*
X41382857Y-119864285D01*
X41478095Y-119864285D01*
X41620952Y-119911904D01*
X42192380Y-120483333D01*
X42192380Y-119864285D01*
X38822380Y-122578571D02*
X38822380Y-123054761D01*
X39298571Y-123102380D01*
X39250952Y-123054761D01*
X39203333Y-122959523D01*
X39203333Y-122721428D01*
X39250952Y-122626190D01*
X39298571Y-122578571D01*
X39393809Y-122530952D01*
X39631904Y-122530952D01*
X39727142Y-122578571D01*
X39774761Y-122626190D01*
X39822380Y-122721428D01*
X39822380Y-122959523D01*
X39774761Y-123054761D01*
X39727142Y-123102380D01*
X39727142Y-122102380D02*
X39774761Y-122054761D01*
X39822380Y-122102380D01*
X39774761Y-122150000D01*
X39727142Y-122102380D01*
X39822380Y-122102380D01*
X39822380Y-121102380D02*
X39822380Y-121673809D01*
X39822380Y-121388095D02*
X38822380Y-121388095D01*
X38965238Y-121483333D01*
X39060476Y-121578571D01*
X39108095Y-121673809D01*
X39822380Y-120673809D02*
X38822380Y-120673809D01*
X39822380Y-120102380D02*
X39250952Y-120530952D01*
X38822380Y-120102380D02*
X39393809Y-120673809D01*
X39822380Y-119721428D02*
X39822380Y-119483333D01*
X39631904Y-119483333D01*
X39584285Y-119578571D01*
X39489047Y-119673809D01*
X39346190Y-119721428D01*
X39108095Y-119721428D01*
X38965238Y-119673809D01*
X38870000Y-119578571D01*
X38822380Y-119435714D01*
X38822380Y-119245238D01*
X38870000Y-119102380D01*
X38965238Y-119007142D01*
X39108095Y-118959523D01*
X39346190Y-118959523D01*
X39489047Y-119007142D01*
X39584285Y-119102380D01*
X39631904Y-119197619D01*
X39822380Y-119197619D01*
X39822380Y-118959523D01*
%TO.C,R4*%
X31737380Y-99226666D02*
X31261190Y-99560000D01*
X31737380Y-99798095D02*
X30737380Y-99798095D01*
X30737380Y-99417142D01*
X30785000Y-99321904D01*
X30832619Y-99274285D01*
X30927857Y-99226666D01*
X31070714Y-99226666D01*
X31165952Y-99274285D01*
X31213571Y-99321904D01*
X31261190Y-99417142D01*
X31261190Y-99798095D01*
X31070714Y-98369523D02*
X31737380Y-98369523D01*
X30689761Y-98607619D02*
X31404047Y-98845714D01*
X31404047Y-98226666D01*
X34107380Y-100679047D02*
X34107380Y-101250476D01*
X34107380Y-100964761D02*
X33107380Y-100964761D01*
X33250238Y-101060000D01*
X33345476Y-101155238D01*
X33393095Y-101250476D01*
X33107380Y-100060000D02*
X33107380Y-99964761D01*
X33155000Y-99869523D01*
X33202619Y-99821904D01*
X33297857Y-99774285D01*
X33488333Y-99726666D01*
X33726428Y-99726666D01*
X33916904Y-99774285D01*
X34012142Y-99821904D01*
X34059761Y-99869523D01*
X34107380Y-99964761D01*
X34107380Y-100060000D01*
X34059761Y-100155238D01*
X34012142Y-100202857D01*
X33916904Y-100250476D01*
X33726428Y-100298095D01*
X33488333Y-100298095D01*
X33297857Y-100250476D01*
X33202619Y-100202857D01*
X33155000Y-100155238D01*
X33107380Y-100060000D01*
X33107380Y-99107619D02*
X33107380Y-99012380D01*
X33155000Y-98917142D01*
X33202619Y-98869523D01*
X33297857Y-98821904D01*
X33488333Y-98774285D01*
X33726428Y-98774285D01*
X33916904Y-98821904D01*
X34012142Y-98869523D01*
X34059761Y-98917142D01*
X34107380Y-99012380D01*
X34107380Y-99107619D01*
X34059761Y-99202857D01*
X34012142Y-99250476D01*
X33916904Y-99298095D01*
X33726428Y-99345714D01*
X33488333Y-99345714D01*
X33297857Y-99298095D01*
X33202619Y-99250476D01*
X33155000Y-99202857D01*
X33107380Y-99107619D01*
X34107380Y-98393333D02*
X34107380Y-98155238D01*
X33916904Y-98155238D01*
X33869285Y-98250476D01*
X33774047Y-98345714D01*
X33631190Y-98393333D01*
X33393095Y-98393333D01*
X33250238Y-98345714D01*
X33155000Y-98250476D01*
X33107380Y-98107619D01*
X33107380Y-97917142D01*
X33155000Y-97774285D01*
X33250238Y-97679047D01*
X33393095Y-97631428D01*
X33631190Y-97631428D01*
X33774047Y-97679047D01*
X33869285Y-97774285D01*
X33916904Y-97869523D01*
X34107380Y-97869523D01*
X34107380Y-97631428D01*
%TO.C,J4*%
X49958666Y-84161380D02*
X49958666Y-84875666D01*
X49911047Y-85018523D01*
X49815809Y-85113761D01*
X49672952Y-85161380D01*
X49577714Y-85161380D01*
X50863428Y-84494714D02*
X50863428Y-85161380D01*
X50625333Y-84113761D02*
X50387238Y-84828047D01*
X51006285Y-84828047D01*
%TO.C,C2*%
X65833333Y-154857142D02*
X65785714Y-154904761D01*
X65642857Y-154952380D01*
X65547619Y-154952380D01*
X65404761Y-154904761D01*
X65309523Y-154809523D01*
X65261904Y-154714285D01*
X65214285Y-154523809D01*
X65214285Y-154380952D01*
X65261904Y-154190476D01*
X65309523Y-154095238D01*
X65404761Y-154000000D01*
X65547619Y-153952380D01*
X65642857Y-153952380D01*
X65785714Y-154000000D01*
X65833333Y-154047619D01*
X66214285Y-154047619D02*
X66261904Y-154000000D01*
X66357142Y-153952380D01*
X66595238Y-153952380D01*
X66690476Y-154000000D01*
X66738095Y-154047619D01*
X66785714Y-154142857D01*
X66785714Y-154238095D01*
X66738095Y-154380952D01*
X66166666Y-154952380D01*
X66785714Y-154952380D01*
X67484142Y-161428571D02*
X67531761Y-161380952D01*
X67579380Y-161428571D01*
X67531761Y-161476190D01*
X67484142Y-161428571D01*
X67579380Y-161428571D01*
X67579380Y-160428571D02*
X67579380Y-161000000D01*
X67579380Y-160714285D02*
X66579380Y-160714285D01*
X66722238Y-160809523D01*
X66817476Y-160904761D01*
X66865095Y-161000000D01*
X66912714Y-160000000D02*
X67912714Y-160000000D01*
X67436523Y-159523809D02*
X67531761Y-159476190D01*
X67579380Y-159380952D01*
X67436523Y-160000000D02*
X67531761Y-159952380D01*
X67579380Y-159857142D01*
X67579380Y-159666666D01*
X67531761Y-159571428D01*
X67436523Y-159523809D01*
X66912714Y-159523809D01*
X67055571Y-158619047D02*
X67055571Y-158952380D01*
X67579380Y-158952380D02*
X66579380Y-158952380D01*
X66579380Y-158476190D01*
%TO.C,A2*%
X49831714Y-88812666D02*
X50307904Y-88812666D01*
X49736476Y-89098380D02*
X50069809Y-88098380D01*
X50403142Y-89098380D01*
X50688857Y-88193619D02*
X50736476Y-88146000D01*
X50831714Y-88098380D01*
X51069809Y-88098380D01*
X51165047Y-88146000D01*
X51212666Y-88193619D01*
X51260285Y-88288857D01*
X51260285Y-88384095D01*
X51212666Y-88526952D01*
X50641238Y-89098380D01*
X51260285Y-89098380D01*
X59221666Y-117228095D02*
X59221666Y-116751904D01*
X59507380Y-117323333D02*
X58507380Y-116990000D01*
X59507380Y-116656666D01*
X59507380Y-116323333D02*
X58840714Y-116323333D01*
X59031190Y-116323333D02*
X58935952Y-116275714D01*
X58888333Y-116228095D01*
X58840714Y-116132857D01*
X58840714Y-116037619D01*
X59507380Y-115275714D02*
X58507380Y-115275714D01*
X59459761Y-115275714D02*
X59507380Y-115370952D01*
X59507380Y-115561428D01*
X59459761Y-115656666D01*
X59412142Y-115704285D01*
X59316904Y-115751904D01*
X59031190Y-115751904D01*
X58935952Y-115704285D01*
X58888333Y-115656666D01*
X58840714Y-115561428D01*
X58840714Y-115370952D01*
X58888333Y-115275714D01*
X58840714Y-114370952D02*
X59507380Y-114370952D01*
X58840714Y-114799523D02*
X59364523Y-114799523D01*
X59459761Y-114751904D01*
X59507380Y-114656666D01*
X59507380Y-114513809D01*
X59459761Y-114418571D01*
X59412142Y-114370952D01*
X59507380Y-113894761D02*
X58840714Y-113894761D01*
X58507380Y-113894761D02*
X58555000Y-113942380D01*
X58602619Y-113894761D01*
X58555000Y-113847142D01*
X58507380Y-113894761D01*
X58602619Y-113894761D01*
X58840714Y-113418571D02*
X59507380Y-113418571D01*
X58935952Y-113418571D02*
X58888333Y-113370952D01*
X58840714Y-113275714D01*
X58840714Y-113132857D01*
X58888333Y-113037619D01*
X58983571Y-112990000D01*
X59507380Y-112990000D01*
X59507380Y-112370952D02*
X59459761Y-112466190D01*
X59412142Y-112513809D01*
X59316904Y-112561428D01*
X59031190Y-112561428D01*
X58935952Y-112513809D01*
X58888333Y-112466190D01*
X58840714Y-112370952D01*
X58840714Y-112228095D01*
X58888333Y-112132857D01*
X58935952Y-112085238D01*
X59031190Y-112037619D01*
X59316904Y-112037619D01*
X59412142Y-112085238D01*
X59459761Y-112132857D01*
X59507380Y-112228095D01*
X59507380Y-112370952D01*
X59602619Y-111847142D02*
X59602619Y-111085238D01*
X59507380Y-110847142D02*
X58507380Y-110847142D01*
X59507380Y-110275714D01*
X58507380Y-110275714D01*
X59507380Y-109370952D02*
X58983571Y-109370952D01*
X58888333Y-109418571D01*
X58840714Y-109513809D01*
X58840714Y-109704285D01*
X58888333Y-109799523D01*
X59459761Y-109370952D02*
X59507380Y-109466190D01*
X59507380Y-109704285D01*
X59459761Y-109799523D01*
X59364523Y-109847142D01*
X59269285Y-109847142D01*
X59174047Y-109799523D01*
X59126428Y-109704285D01*
X59126428Y-109466190D01*
X59078809Y-109370952D01*
X58840714Y-108894761D02*
X59507380Y-108894761D01*
X58935952Y-108894761D02*
X58888333Y-108847142D01*
X58840714Y-108751904D01*
X58840714Y-108609047D01*
X58888333Y-108513809D01*
X58983571Y-108466190D01*
X59507380Y-108466190D01*
X59507380Y-107847142D02*
X59459761Y-107942380D01*
X59412142Y-107990000D01*
X59316904Y-108037619D01*
X59031190Y-108037619D01*
X58935952Y-107990000D01*
X58888333Y-107942380D01*
X58840714Y-107847142D01*
X58840714Y-107704285D01*
X58888333Y-107609047D01*
X58935952Y-107561428D01*
X59031190Y-107513809D01*
X59316904Y-107513809D01*
X59412142Y-107561428D01*
X59459761Y-107609047D01*
X59507380Y-107704285D01*
X59507380Y-107847142D01*
X59602619Y-107323333D02*
X59602619Y-106561428D01*
X58840714Y-106418571D02*
X59507380Y-106180476D01*
X58840714Y-105942380D01*
X58507380Y-105656666D02*
X58507380Y-105037619D01*
X58888333Y-105370952D01*
X58888333Y-105228095D01*
X58935952Y-105132857D01*
X58983571Y-105085238D01*
X59078809Y-105037619D01*
X59316904Y-105037619D01*
X59412142Y-105085238D01*
X59459761Y-105132857D01*
X59507380Y-105228095D01*
X59507380Y-105513809D01*
X59459761Y-105609047D01*
X59412142Y-105656666D01*
X59412142Y-104609047D02*
X59459761Y-104561428D01*
X59507380Y-104609047D01*
X59459761Y-104656666D01*
X59412142Y-104609047D01*
X59507380Y-104609047D01*
X59507380Y-104228095D02*
X58840714Y-103704285D01*
X58840714Y-104228095D02*
X59507380Y-103704285D01*
%TO.C,J1*%
X32686666Y-175347380D02*
X32686666Y-176061666D01*
X32639047Y-176204523D01*
X32543809Y-176299761D01*
X32400952Y-176347380D01*
X32305714Y-176347380D01*
X33686666Y-176347380D02*
X33115238Y-176347380D01*
X33400952Y-176347380D02*
X33400952Y-175347380D01*
X33305714Y-175490238D01*
X33210476Y-175585476D01*
X33115238Y-175633095D01*
%TO.C,C4*%
X57526142Y-66968666D02*
X57573761Y-67016285D01*
X57621380Y-67159142D01*
X57621380Y-67254380D01*
X57573761Y-67397238D01*
X57478523Y-67492476D01*
X57383285Y-67540095D01*
X57192809Y-67587714D01*
X57049952Y-67587714D01*
X56859476Y-67540095D01*
X56764238Y-67492476D01*
X56669000Y-67397238D01*
X56621380Y-67254380D01*
X56621380Y-67159142D01*
X56669000Y-67016285D01*
X56716619Y-66968666D01*
X56954714Y-66111523D02*
X57621380Y-66111523D01*
X56573761Y-66349619D02*
X57288047Y-66587714D01*
X57288047Y-65968666D01*
X55856142Y-72675571D02*
X55903761Y-72627952D01*
X55951380Y-72675571D01*
X55903761Y-72723190D01*
X55856142Y-72675571D01*
X55951380Y-72675571D01*
X55951380Y-71675571D02*
X55951380Y-72247000D01*
X55951380Y-71961285D02*
X54951380Y-71961285D01*
X55094238Y-72056523D01*
X55189476Y-72151761D01*
X55237095Y-72247000D01*
X55284714Y-71247000D02*
X56284714Y-71247000D01*
X55808523Y-70770809D02*
X55903761Y-70723190D01*
X55951380Y-70627952D01*
X55808523Y-71247000D02*
X55903761Y-71199380D01*
X55951380Y-71104142D01*
X55951380Y-70913666D01*
X55903761Y-70818428D01*
X55808523Y-70770809D01*
X55284714Y-70770809D01*
X55427571Y-69866047D02*
X55427571Y-70199380D01*
X55951380Y-70199380D02*
X54951380Y-70199380D01*
X54951380Y-69723190D01*
%TO.C,*%
%TO.C,J2*%
X50031666Y-57725380D02*
X50031666Y-58439666D01*
X49984047Y-58582523D01*
X49888809Y-58677761D01*
X49745952Y-58725380D01*
X49650714Y-58725380D01*
X50460238Y-57820619D02*
X50507857Y-57773000D01*
X50603095Y-57725380D01*
X50841190Y-57725380D01*
X50936428Y-57773000D01*
X50984047Y-57820619D01*
X51031666Y-57915857D01*
X51031666Y-58011095D01*
X50984047Y-58153952D01*
X50412619Y-58725380D01*
X51031666Y-58725380D01*
D10*
%TO.C,U3*%
X36760000Y-76608000D02*
X36760000Y-81908000D01*
X47040000Y-76608000D02*
X36760000Y-76608000D01*
X36760000Y-81908000D02*
X47040000Y-81908000D01*
X47040000Y-78258000D02*
X47040000Y-76608000D01*
X47040000Y-81908000D02*
X47040000Y-80258000D01*
X47040000Y-78258000D02*
G75*
G03*
X47040000Y-80258000I0J-1000000D01*
G01*
%TO.C,J3*%
X33655000Y-165795000D02*
X33655000Y-164465000D01*
X34985000Y-165795000D02*
X33655000Y-165795000D01*
X36315000Y-163195000D02*
X36315000Y-140275000D01*
X33655000Y-163195000D02*
X33655000Y-140275000D01*
X36315000Y-140275000D02*
X33655000Y-140275000D01*
X36315000Y-163195000D02*
X33655000Y-163195000D01*
%TO.C,A1*%
X53935000Y-159600000D02*
X53935000Y-164241000D01*
X53935000Y-161110000D02*
X64175000Y-161110000D01*
X64175000Y-159600000D02*
X64175000Y-164241000D01*
X53935000Y-164241000D02*
X64175000Y-164241000D01*
X53935000Y-159600000D02*
X64175000Y-159600000D01*
X60906000Y-159600000D02*
X60906000Y-161110000D01*
X57205000Y-159600000D02*
X57205000Y-161110000D01*
%TO.C,R1*%
X32920000Y-123920000D02*
X35660000Y-123920000D01*
X32920000Y-117380000D02*
X32920000Y-123920000D01*
X34290000Y-116610000D02*
X34290000Y-117380000D01*
X35660000Y-123920000D02*
X35660000Y-117380000D01*
X34290000Y-124690000D02*
X34290000Y-123920000D01*
X35660000Y-117380000D02*
X32920000Y-117380000D01*
%TO.C,R3*%
X42445000Y-117380000D02*
X42445000Y-123920000D01*
X45185000Y-117380000D02*
X42445000Y-117380000D01*
X45185000Y-123920000D02*
X45185000Y-117380000D01*
X43815000Y-116610000D02*
X43815000Y-117380000D01*
X42445000Y-123920000D02*
X45185000Y-123920000D01*
X43815000Y-124690000D02*
X43815000Y-123920000D01*
%TO.C,R7*%
X45688000Y-70639000D02*
X39148000Y-70639000D01*
X39148000Y-73379000D02*
X45688000Y-73379000D01*
X38378000Y-72009000D02*
X39148000Y-72009000D01*
X45688000Y-73379000D02*
X45688000Y-70639000D01*
X39148000Y-70639000D02*
X39148000Y-73379000D01*
X46458000Y-72009000D02*
X45688000Y-72009000D01*
%TO.C,R8*%
X51308000Y-66191000D02*
X51308000Y-66961000D01*
X51308000Y-74271000D02*
X51308000Y-73501000D01*
X49938000Y-66961000D02*
X49938000Y-73501000D01*
X52678000Y-66961000D02*
X49938000Y-66961000D01*
X49938000Y-73501000D02*
X52678000Y-73501000D01*
X52678000Y-73501000D02*
X52678000Y-66961000D01*
%TO.C,C3*%
X45215000Y-69615000D02*
X45215000Y-66275000D01*
X39875000Y-66275000D02*
X39875000Y-69615000D01*
X39835000Y-67945000D02*
X39875000Y-67945000D01*
X45255000Y-67945000D02*
X45215000Y-67945000D01*
X39875000Y-69615000D02*
X45215000Y-69615000D01*
X45215000Y-66275000D02*
X39875000Y-66275000D01*
%TO.C,C1*%
X46605000Y-158762000D02*
X46605000Y-160250000D01*
X46085000Y-162330000D02*
X46085000Y-163870000D01*
X47886000Y-159426000D02*
X47886000Y-160250000D01*
X46445000Y-158734000D02*
X46445000Y-160250000D01*
X48366000Y-160039000D02*
X48366000Y-162541000D01*
X48246000Y-159847000D02*
X48246000Y-162733000D01*
X46806000Y-158810000D02*
X46806000Y-160250000D01*
X47726000Y-162330000D02*
X47726000Y-163294000D01*
X47566000Y-162330000D02*
X47566000Y-163412000D01*
X46165000Y-158711000D02*
X46165000Y-160250000D01*
X46926000Y-162330000D02*
X46926000Y-163732000D01*
X46926000Y-158848000D02*
X46926000Y-160250000D01*
X46445000Y-162330000D02*
X46445000Y-163846000D01*
X47006000Y-158876000D02*
X47006000Y-160250000D01*
X47766000Y-159319000D02*
X47766000Y-160250000D01*
X46886000Y-162330000D02*
X46886000Y-163745000D01*
X47726000Y-159286000D02*
X47726000Y-160250000D01*
X47446000Y-159090000D02*
X47446000Y-160250000D01*
X46966000Y-158862000D02*
X46966000Y-160250000D01*
X48206000Y-159790000D02*
X48206000Y-162790000D01*
X47646000Y-162330000D02*
X47646000Y-163355000D01*
X47806000Y-162330000D02*
X47806000Y-163227000D01*
X48006000Y-159547000D02*
X48006000Y-160250000D01*
X46645000Y-162330000D02*
X46645000Y-163810000D01*
X47686000Y-162330000D02*
X47686000Y-163325000D01*
X46806000Y-162330000D02*
X46806000Y-163770000D01*
X48446000Y-160192000D02*
X48446000Y-162388000D01*
X48046000Y-162330000D02*
X48046000Y-162989000D01*
X48086000Y-159637000D02*
X48086000Y-160250000D01*
X47966000Y-162330000D02*
X47966000Y-163075000D01*
X46565000Y-162330000D02*
X46565000Y-163826000D01*
X46125000Y-162330000D02*
X46125000Y-163870000D01*
X46325000Y-162330000D02*
X46325000Y-163859000D01*
X47286000Y-162330000D02*
X47286000Y-163580000D01*
X47646000Y-159225000D02*
X47646000Y-160250000D01*
X47926000Y-159464000D02*
X47926000Y-160250000D01*
X43530225Y-159565000D02*
X43530225Y-160065000D01*
X48006000Y-162330000D02*
X48006000Y-163033000D01*
X48566000Y-160485000D02*
X48566000Y-162095000D01*
X48166000Y-159736000D02*
X48166000Y-162844000D01*
X46285000Y-158717000D02*
X46285000Y-160250000D01*
X46685000Y-158779000D02*
X46685000Y-160250000D01*
X47086000Y-158908000D02*
X47086000Y-160250000D01*
X46205000Y-162330000D02*
X46205000Y-163868000D01*
X46966000Y-162330000D02*
X46966000Y-163718000D01*
X47606000Y-159195000D02*
X47606000Y-160250000D01*
X46365000Y-162330000D02*
X46365000Y-163855000D01*
X47206000Y-162330000D02*
X47206000Y-163619000D01*
X48606000Y-160613000D02*
X48606000Y-161967000D01*
X47486000Y-159115000D02*
X47486000Y-160250000D01*
X47086000Y-162330000D02*
X47086000Y-163672000D01*
X48646000Y-160772000D02*
X48646000Y-161808000D01*
X46765000Y-162330000D02*
X46765000Y-163781000D01*
X46846000Y-158822000D02*
X46846000Y-160250000D01*
X48286000Y-159907000D02*
X48286000Y-162673000D01*
X47486000Y-162330000D02*
X47486000Y-163465000D01*
X46565000Y-158754000D02*
X46565000Y-160250000D01*
X47406000Y-159066000D02*
X47406000Y-160250000D01*
X46285000Y-162330000D02*
X46285000Y-163863000D01*
X46846000Y-162330000D02*
X46846000Y-163758000D01*
X46245000Y-158714000D02*
X46245000Y-160250000D01*
X48126000Y-159685000D02*
X48126000Y-162895000D01*
X47046000Y-158892000D02*
X47046000Y-160250000D01*
X47206000Y-158961000D02*
X47206000Y-160250000D01*
X47966000Y-159505000D02*
X47966000Y-160250000D01*
X47526000Y-162330000D02*
X47526000Y-163439000D01*
X46165000Y-162330000D02*
X46165000Y-163869000D01*
X46485000Y-162330000D02*
X46485000Y-163840000D01*
X47166000Y-162330000D02*
X47166000Y-163638000D01*
X46725000Y-158789000D02*
X46725000Y-160250000D01*
X48046000Y-159591000D02*
X48046000Y-160250000D01*
X47566000Y-159168000D02*
X47566000Y-160250000D01*
X46085000Y-158710000D02*
X46085000Y-160250000D01*
X47246000Y-162330000D02*
X47246000Y-163600000D01*
X47326000Y-162330000D02*
X47326000Y-163558000D01*
X47326000Y-159022000D02*
X47326000Y-160250000D01*
X47126000Y-162330000D02*
X47126000Y-163655000D01*
X43280225Y-159815000D02*
X43780225Y-159815000D01*
X46245000Y-162330000D02*
X46245000Y-163866000D01*
X46405000Y-158729000D02*
X46405000Y-160250000D01*
X48686000Y-161006000D02*
X48686000Y-161574000D01*
X48326000Y-159971000D02*
X48326000Y-162609000D01*
X47246000Y-158980000D02*
X47246000Y-160250000D01*
X47406000Y-162330000D02*
X47406000Y-163514000D01*
X47006000Y-162330000D02*
X47006000Y-163704000D01*
X47366000Y-159043000D02*
X47366000Y-160250000D01*
X46886000Y-158835000D02*
X46886000Y-160250000D01*
X47846000Y-159389000D02*
X47846000Y-160250000D01*
X46125000Y-158710000D02*
X46125000Y-160250000D01*
X48406000Y-160112000D02*
X48406000Y-162468000D01*
X47846000Y-162330000D02*
X47846000Y-163191000D01*
X47166000Y-158942000D02*
X47166000Y-160250000D01*
X47126000Y-158925000D02*
X47126000Y-160250000D01*
X47286000Y-159000000D02*
X47286000Y-160250000D01*
X48086000Y-162330000D02*
X48086000Y-162943000D01*
X46765000Y-158799000D02*
X46765000Y-160250000D01*
X47886000Y-162330000D02*
X47886000Y-163154000D01*
X47606000Y-162330000D02*
X47606000Y-163385000D01*
X47526000Y-159141000D02*
X47526000Y-160250000D01*
X46525000Y-158747000D02*
X46525000Y-160250000D01*
X48486000Y-160279000D02*
X48486000Y-162301000D01*
X48526000Y-160375000D02*
X48526000Y-162205000D01*
X47046000Y-162330000D02*
X47046000Y-163688000D01*
X47766000Y-162330000D02*
X47766000Y-163261000D01*
X46205000Y-158712000D02*
X46205000Y-160250000D01*
X46405000Y-162330000D02*
X46405000Y-163851000D01*
X46725000Y-162330000D02*
X46725000Y-163791000D01*
X47686000Y-159255000D02*
X47686000Y-160250000D01*
X46645000Y-158770000D02*
X46645000Y-160250000D01*
X46325000Y-158721000D02*
X46325000Y-160250000D01*
X46685000Y-162330000D02*
X46685000Y-163801000D01*
X46525000Y-162330000D02*
X46525000Y-163833000D01*
X46485000Y-158740000D02*
X46485000Y-160250000D01*
X47926000Y-162330000D02*
X47926000Y-163116000D01*
X47366000Y-162330000D02*
X47366000Y-163537000D01*
X46605000Y-162330000D02*
X46605000Y-163818000D01*
X46365000Y-158725000D02*
X46365000Y-160250000D01*
X47446000Y-162330000D02*
X47446000Y-163490000D01*
X47806000Y-159353000D02*
X47806000Y-160250000D01*
X48705000Y-161290000D02*
G75*
G03*
X48705000Y-161290000I-2620000J0D01*
G01*
%TO.C,R6*%
X43715000Y-95790000D02*
X43715000Y-102330000D01*
X46455000Y-102330000D02*
X46455000Y-95790000D01*
X43715000Y-102330000D02*
X46455000Y-102330000D01*
X45085000Y-95020000D02*
X45085000Y-95790000D01*
X46455000Y-95790000D02*
X43715000Y-95790000D01*
X45085000Y-103100000D02*
X45085000Y-102330000D01*
%TO.C,Q1*%
X35865000Y-112290000D02*
X35865000Y-108690000D01*
X31414999Y-110490000D02*
G75*
G03*
X35853478Y-112328478I2600001J0D01*
G01*
X35853478Y-108651522D02*
G75*
G03*
X31415000Y-110490000I-1838478J-1838478D01*
G01*
%TO.C,R5*%
X38000000Y-102330000D02*
X40740000Y-102330000D01*
X40740000Y-102330000D02*
X40740000Y-95790000D01*
X40740000Y-95790000D02*
X38000000Y-95790000D01*
X39370000Y-95020000D02*
X39370000Y-95790000D01*
X39370000Y-103100000D02*
X39370000Y-102330000D01*
X38000000Y-95790000D02*
X38000000Y-102330000D01*
%TO.C,D5*%
X40005000Y-161861548D02*
X40005000Y-159932183D01*
X41755635Y-163612183D02*
G75*
G03*
X41755635Y-163612183I-1750635J0D01*
G01*
%TO.C,Q3*%
X47295000Y-112290000D02*
X47295000Y-108690000D01*
X47283478Y-108651522D02*
G75*
G03*
X42845000Y-110490000I-1838478J-1838478D01*
G01*
X42844999Y-110490000D02*
G75*
G03*
X47283478Y-112328478I2600001J0D01*
G01*
%TO.C,Q2*%
X41580000Y-112290000D02*
X41580000Y-108690000D01*
X41568478Y-108651522D02*
G75*
G03*
X37130000Y-110490000I-1838478J-1838478D01*
G01*
X37129999Y-110490000D02*
G75*
G03*
X41568478Y-112328478I2600001J0D01*
G01*
%TO.C,R2*%
X40740000Y-123920000D02*
X40740000Y-117380000D01*
X39370000Y-116610000D02*
X39370000Y-117380000D01*
X38000000Y-123920000D02*
X40740000Y-123920000D01*
X39370000Y-124690000D02*
X39370000Y-123920000D01*
X40740000Y-117380000D02*
X38000000Y-117380000D01*
X38000000Y-117380000D02*
X38000000Y-123920000D01*
%TO.C,R4*%
X32285000Y-95790000D02*
X32285000Y-102330000D01*
X33655000Y-95020000D02*
X33655000Y-95790000D01*
X35025000Y-95790000D02*
X32285000Y-95790000D01*
X35025000Y-102330000D02*
X35025000Y-95790000D01*
X33655000Y-103100000D02*
X33655000Y-102330000D01*
X32285000Y-102330000D02*
X35025000Y-102330000D01*
%TO.C,J4*%
X66227000Y-82931000D02*
X66227000Y-60011000D01*
X63567000Y-85531000D02*
X63567000Y-84201000D01*
X66227000Y-82931000D02*
X63567000Y-82931000D01*
X64897000Y-85531000D02*
X63567000Y-85531000D01*
X63567000Y-82931000D02*
X63567000Y-60011000D01*
X66227000Y-60011000D02*
X63567000Y-60011000D01*
%TO.C,C2*%
X65330000Y-162670000D02*
X68670000Y-162670000D01*
X67000000Y-157290000D02*
X67000000Y-157330000D01*
X67000000Y-162710000D02*
X67000000Y-162670000D01*
X68670000Y-157330000D02*
X65330000Y-157330000D01*
X68670000Y-162670000D02*
X68670000Y-157330000D01*
X65330000Y-157330000D02*
X65330000Y-162670000D01*
%TO.C,A2*%
X51435000Y-92710000D02*
X48765000Y-92710000D01*
X51435000Y-128270000D02*
X48765000Y-128270000D01*
X48765000Y-87500000D02*
X48765000Y-90170000D01*
X51435000Y-92710000D02*
X51435000Y-128270000D01*
X64135000Y-128270000D02*
X66805000Y-128270000D01*
X64135000Y-90170000D02*
X66805000Y-90170000D01*
X66805000Y-130940000D02*
X66805000Y-87500000D01*
X64135000Y-90170000D02*
X64135000Y-128270000D01*
X48765000Y-130940000D02*
X66805000Y-130940000D01*
X51435000Y-90170000D02*
X48765000Y-90170000D01*
X48765000Y-92710000D02*
X48765000Y-130940000D01*
X66805000Y-87500000D02*
X48765000Y-87500000D01*
X51435000Y-92710000D02*
X51435000Y-90170000D01*
%TO.C,J1*%
X58418000Y-169296000D02*
X58038000Y-169676000D01*
X34470000Y-174450000D02*
X64590000Y-174450000D01*
X40772000Y-171942000D02*
X40377000Y-172338000D01*
X35748000Y-172497000D02*
X35642000Y-172604000D01*
X56023000Y-172224000D02*
X55643000Y-172604000D01*
X46023000Y-172224000D02*
X45643000Y-172604000D01*
X34470000Y-175550000D02*
X64590000Y-175550000D01*
X64590000Y-166890000D02*
X64590000Y-176010000D01*
X63418000Y-169296000D02*
X63038000Y-169676000D01*
X34230000Y-176250000D02*
X34630000Y-176250000D01*
X48418000Y-169296000D02*
X48038000Y-169676000D01*
X58684000Y-169562000D02*
X58289000Y-169958000D01*
X53418000Y-169296000D02*
X53038000Y-169676000D01*
X48684000Y-169562000D02*
X48289000Y-169958000D01*
X34470000Y-166890000D02*
X34470000Y-176010000D01*
X34470000Y-176010000D02*
X64590000Y-176010000D01*
X50772000Y-171942000D02*
X50377000Y-172338000D01*
X41023000Y-172224000D02*
X40643000Y-172604000D01*
X51023000Y-172224000D02*
X50643000Y-172604000D01*
X60772000Y-171942000D02*
X60377000Y-172338000D01*
X38418000Y-169296000D02*
X38311000Y-169403000D01*
X38684000Y-169562000D02*
X38577000Y-169669000D01*
X53684000Y-169562000D02*
X53289000Y-169958000D01*
X43418000Y-169296000D02*
X43038000Y-169676000D01*
X61023000Y-172224000D02*
X60643000Y-172604000D01*
X63684000Y-169562000D02*
X63289000Y-169958000D01*
X35482000Y-172231000D02*
X35376000Y-172338000D01*
X43684000Y-169562000D02*
X43289000Y-169958000D01*
X34230000Y-175610000D02*
X34230000Y-176250000D01*
X55772000Y-171942000D02*
X55377000Y-172338000D01*
X45772000Y-171942000D02*
X45377000Y-172338000D01*
X34470000Y-166890000D02*
X64590000Y-166890000D01*
X39210000Y-170950000D02*
G75*
G03*
X39210000Y-170950000I-2180000J0D01*
G01*
X59210000Y-170950000D02*
G75*
G03*
X59210000Y-170950000I-2180000J0D01*
G01*
X49210000Y-170950000D02*
G75*
G03*
X49210000Y-170950000I-2180000J0D01*
G01*
X44210000Y-170950000D02*
G75*
G03*
X44210000Y-170950000I-2180000J0D01*
G01*
X64210000Y-170950000D02*
G75*
G03*
X64210000Y-170950000I-2180000J0D01*
G01*
X54210000Y-170950000D02*
G75*
G03*
X54210000Y-170950000I-2180000J0D01*
G01*
%TO.C,C4*%
X57169000Y-68577000D02*
X53829000Y-68577000D01*
X53829000Y-68577000D02*
X53829000Y-73917000D01*
X55499000Y-68537000D02*
X55499000Y-68577000D01*
X53829000Y-73917000D02*
X57169000Y-73917000D01*
X57169000Y-73917000D02*
X57169000Y-68577000D01*
X55499000Y-73957000D02*
X55499000Y-73917000D01*
%TO.C,J2*%
X54123000Y-52221000D02*
X54518000Y-51825000D01*
X61211000Y-54601000D02*
X61318000Y-54494000D01*
X65425000Y-57273000D02*
X65425000Y-48153000D01*
X64147000Y-51666000D02*
X64253000Y-51559000D01*
X61477000Y-54867000D02*
X61584000Y-54760000D01*
X65425000Y-57273000D02*
X35305000Y-57273000D01*
X65425000Y-48613000D02*
X35305000Y-48613000D01*
X41211000Y-54601000D02*
X41606000Y-54205000D01*
X65425000Y-48153000D02*
X35305000Y-48153000D01*
X36477000Y-54867000D02*
X36857000Y-54487000D01*
X65665000Y-48553000D02*
X65665000Y-47913000D01*
X39123000Y-52221000D02*
X39518000Y-51825000D01*
X56211000Y-54601000D02*
X56606000Y-54205000D01*
X44123000Y-52221000D02*
X44518000Y-51825000D01*
X53872000Y-51939000D02*
X54252000Y-51559000D01*
X59123000Y-52221000D02*
X59518000Y-51825000D01*
X35305000Y-57273000D02*
X35305000Y-48153000D01*
X56477000Y-54867000D02*
X56857000Y-54487000D01*
X46211000Y-54601000D02*
X46606000Y-54205000D01*
X48872000Y-51939000D02*
X49252000Y-51559000D01*
X41477000Y-54867000D02*
X41857000Y-54487000D01*
X65665000Y-47913000D02*
X65265000Y-47913000D01*
X51477000Y-54867000D02*
X51857000Y-54487000D01*
X38872000Y-51939000D02*
X39252000Y-51559000D01*
X58872000Y-51939000D02*
X59252000Y-51559000D01*
X46477000Y-54867000D02*
X46857000Y-54487000D01*
X36211000Y-54601000D02*
X36606000Y-54205000D01*
X65425000Y-49713000D02*
X35305000Y-49713000D01*
X64413000Y-51932000D02*
X64519000Y-51825000D01*
X51211000Y-54601000D02*
X51606000Y-54205000D01*
X43872000Y-51939000D02*
X44252000Y-51559000D01*
X49123000Y-52221000D02*
X49518000Y-51825000D01*
X60045000Y-53213000D02*
G75*
G03*
X60045000Y-53213000I-2180000J0D01*
G01*
X55045000Y-53213000D02*
G75*
G03*
X55045000Y-53213000I-2180000J0D01*
G01*
X45045000Y-53213000D02*
G75*
G03*
X45045000Y-53213000I-2180000J0D01*
G01*
X40045000Y-53213000D02*
G75*
G03*
X40045000Y-53213000I-2180000J0D01*
G01*
X50045000Y-53213000D02*
G75*
G03*
X50045000Y-53213000I-2180000J0D01*
G01*
X65045000Y-53213000D02*
G75*
G03*
X65045000Y-53213000I-2180000J0D01*
G01*
%TD*%
M02*
