%TF.GenerationSoftware,KiCad,Pcbnew,(6.0.5-0)*%
%TF.CreationDate,2022-08-16T12:13:12-04:00*%
%TF.ProjectId,Springer,53707269-6e67-4657-922e-6b696361645f,rev?*%
%TF.SameCoordinates,Original*%
%TF.FileFunction,Copper,L1,Top*%
%TF.FilePolarity,Positive*%
%FSLAX46Y46*%
G04 Gerber Fmt 4.6, Leading zero omitted, Abs format (unit mm)*
G04 Created by KiCad (PCBNEW (6.0.5-0)) date 2022-08-16 12:13:12*
%MOMM*%
%LPD*%
G01*
G04 APERTURE LIST*
%TA.AperFunction,ComponentPad*%
%ADD10R,1.600000X1.600000*%
%TD*%
%TA.AperFunction,ComponentPad*%
%ADD11O,1.600000X1.600000*%
%TD*%
%TA.AperFunction,ComponentPad*%
%ADD12R,1.700000X1.700000*%
%TD*%
%TA.AperFunction,ComponentPad*%
%ADD13O,1.700000X1.700000*%
%TD*%
%TA.AperFunction,ComponentPad*%
%ADD14R,1.905000X2.000000*%
%TD*%
%TA.AperFunction,ComponentPad*%
%ADD15O,1.905000X2.000000*%
%TD*%
%TA.AperFunction,ComponentPad*%
%ADD16C,1.600000*%
%TD*%
%TA.AperFunction,ComponentPad*%
%ADD17R,1.500000X1.050000*%
%TD*%
%TA.AperFunction,ComponentPad*%
%ADD18O,1.500000X1.050000*%
%TD*%
%TA.AperFunction,ComponentPad*%
%ADD19R,2.200000X2.200000*%
%TD*%
%TA.AperFunction,ComponentPad*%
%ADD20O,2.200000X2.200000*%
%TD*%
%TA.AperFunction,ComponentPad*%
%ADD21R,2.600000X2.600000*%
%TD*%
%TA.AperFunction,ComponentPad*%
%ADD22C,2.600000*%
%TD*%
%TA.AperFunction,Conductor*%
%ADD23C,0.250000*%
%TD*%
G04 APERTURE END LIST*
D10*
%TO.P,U3,1*%
%TO.N,Net-(C3-Pad2)*%
X45710000Y-75448000D03*
D11*
%TO.P,U3,2,-*%
%TO.N,Net-(J2-Pad2)*%
X43170000Y-75448000D03*
%TO.P,U3,3,+*%
%TO.N,GND*%
X40630000Y-75448000D03*
%TO.P,U3,4,V-*%
X38090000Y-75448000D03*
%TO.P,U3,5*%
%TO.N,N/C*%
X38090000Y-83068000D03*
%TO.P,U3,6*%
X40630000Y-83068000D03*
%TO.P,U3,7*%
X43170000Y-83068000D03*
%TO.P,U3,8,V+*%
%TO.N,/5V*%
X45710000Y-83068000D03*
%TD*%
D12*
%TO.P,J3,1,Pin_1*%
%TO.N,/Tx*%
X34985000Y-164465000D03*
D13*
%TO.P,J3,2,Pin_2*%
%TO.N,unconnected-(J3-Pad2)*%
X34985000Y-161925000D03*
%TO.P,J3,3,Pin_3*%
%TO.N,/Rx*%
X34985000Y-159385000D03*
%TO.P,J3,4,Pin_4*%
%TO.N,unconnected-(J3-Pad4)*%
X34985000Y-156845000D03*
%TO.P,J3,5,Pin_5*%
%TO.N,/5V*%
X34985000Y-154305000D03*
%TO.P,J3,6,Pin_6*%
%TO.N,GND*%
X34985000Y-151765000D03*
%TO.P,J3,7,Pin_7*%
%TO.N,Net-(A2-Pad1)*%
X34985000Y-149225000D03*
%TO.P,J3,8,Pin_8*%
%TO.N,unconnected-(J3-Pad8)*%
X34985000Y-146685000D03*
%TO.P,J3,9,Pin_9*%
%TO.N,Net-(A2-Pad2)*%
X34985000Y-144145000D03*
%TO.P,J3,10,Pin_10*%
%TO.N,unconnected-(J3-Pad10)*%
X34985000Y-141605000D03*
%TD*%
D14*
%TO.P,A1,1,VI*%
%TO.N,Net-(A1-Pad1)*%
X56515000Y-162870000D03*
D15*
%TO.P,A1,2,GND*%
%TO.N,GND*%
X59055000Y-162870000D03*
%TO.P,A1,3,VO*%
%TO.N,/5V*%
X61595000Y-162870000D03*
%TD*%
D16*
%TO.P,R1,1*%
%TO.N,Net-(Q1-Pad2)*%
X34290000Y-115570000D03*
D11*
%TO.P,R1,2*%
%TO.N,Net-(A2-Pad5)*%
X34290000Y-125730000D03*
%TD*%
D16*
%TO.P,R3,1*%
%TO.N,Net-(Q3-Pad2)*%
X43815000Y-115570000D03*
D11*
%TO.P,R3,2*%
%TO.N,Net-(A2-Pad7)*%
X43815000Y-125730000D03*
%TD*%
D16*
%TO.P,R7,1*%
%TO.N,Net-(C3-Pad2)*%
X47498000Y-72009000D03*
D11*
%TO.P,R7,2*%
%TO.N,Net-(J2-Pad2)*%
X37338000Y-72009000D03*
%TD*%
D16*
%TO.P,R8,1*%
%TO.N,Net-(C3-Pad2)*%
X51308000Y-75311000D03*
D11*
%TO.P,R8,2*%
%TO.N,Net-(C4-Pad1)*%
X51308000Y-65151000D03*
%TD*%
D16*
%TO.P,C3,1*%
%TO.N,Net-(J2-Pad2)*%
X38795000Y-67945000D03*
D11*
%TO.P,C3,2*%
%TO.N,Net-(C3-Pad2)*%
X46295000Y-67945000D03*
%TD*%
D10*
%TO.P,C1,1*%
%TO.N,Net-(A1-Pad1)*%
X45085000Y-161290000D03*
D16*
%TO.P,C1,2*%
%TO.N,GND*%
X47085000Y-161290000D03*
%TD*%
%TO.P,R6,1*%
%TO.N,Net-(Q3-Pad3)*%
X45085000Y-104140000D03*
D11*
%TO.P,R6,2*%
%TO.N,Net-(J2-Pad3)*%
X45085000Y-93980000D03*
%TD*%
D17*
%TO.P,Q1,1,E*%
%TO.N,GND*%
X34015000Y-111760000D03*
D18*
%TO.P,Q1,2,B*%
%TO.N,Net-(Q1-Pad2)*%
X34015000Y-110490000D03*
%TO.P,Q1,3,C*%
%TO.N,Net-(Q1-Pad3)*%
X34015000Y-109220000D03*
%TD*%
D16*
%TO.P,R5,1*%
%TO.N,Net-(Q2-Pad3)*%
X39370000Y-104140000D03*
D11*
%TO.P,R5,2*%
%TO.N,/LED1*%
X39370000Y-93980000D03*
%TD*%
D19*
%TO.P,D5,1,K*%
%TO.N,/Vin*%
X40005000Y-163612183D03*
D20*
%TO.P,D5,2,A*%
%TO.N,Net-(A1-Pad1)*%
X40005000Y-158532183D03*
%TD*%
D17*
%TO.P,Q3,1,E*%
%TO.N,GND*%
X45445000Y-111760000D03*
D18*
%TO.P,Q3,2,B*%
%TO.N,Net-(Q3-Pad2)*%
X45445000Y-110490000D03*
%TO.P,Q3,3,C*%
%TO.N,Net-(Q3-Pad3)*%
X45445000Y-109220000D03*
%TD*%
D17*
%TO.P,Q2,1,E*%
%TO.N,GND*%
X39730000Y-111760000D03*
D18*
%TO.P,Q2,2,B*%
%TO.N,Net-(Q2-Pad2)*%
X39730000Y-110490000D03*
%TO.P,Q2,3,C*%
%TO.N,Net-(Q2-Pad3)*%
X39730000Y-109220000D03*
%TD*%
D16*
%TO.P,R2,1*%
%TO.N,Net-(Q2-Pad2)*%
X39370000Y-115570000D03*
D11*
%TO.P,R2,2*%
%TO.N,Net-(A2-Pad6)*%
X39370000Y-125730000D03*
%TD*%
D16*
%TO.P,R4,1*%
%TO.N,Net-(Q1-Pad3)*%
X33655000Y-104140000D03*
D11*
%TO.P,R4,2*%
%TO.N,/LED0*%
X33655000Y-93980000D03*
%TD*%
D12*
%TO.P,J4,1,Pin_1*%
%TO.N,/5V*%
X64897000Y-84201000D03*
D13*
%TO.P,J4,2,Pin_2*%
%TO.N,GND*%
X64897000Y-81661000D03*
%TO.P,J4,3,Pin_3*%
%TO.N,Net-(A2-Pad24)*%
X64897000Y-79121000D03*
%TO.P,J4,4,Pin_4*%
%TO.N,Net-(A2-Pad23)*%
X64897000Y-76581000D03*
%TO.P,J4,5,Pin_5*%
%TO.N,GND*%
X64897000Y-74041000D03*
%TO.P,J4,6,Pin_6*%
%TO.N,unconnected-(J4-Pad6)*%
X64897000Y-71501000D03*
%TO.P,J4,7,Pin_7*%
%TO.N,Net-(C4-Pad1)*%
X64897000Y-68961000D03*
%TO.P,J4,8,Pin_8*%
%TO.N,unconnected-(J4-Pad8)*%
X64897000Y-66421000D03*
%TO.P,J4,9,Pin_9*%
%TO.N,unconnected-(J4-Pad9)*%
X64897000Y-63881000D03*
%TO.P,J4,10,Pin_10*%
%TO.N,unconnected-(J4-Pad10)*%
X64897000Y-61341000D03*
%TD*%
D16*
%TO.P,C2,1*%
%TO.N,GND*%
X67000000Y-163750000D03*
D11*
%TO.P,C2,2*%
%TO.N,/5V*%
X67000000Y-156250000D03*
%TD*%
D10*
%TO.P,A2,1,D1/TX*%
%TO.N,Net-(A2-Pad1)*%
X50165000Y-91440000D03*
D11*
%TO.P,A2,2,D0/RX*%
%TO.N,Net-(A2-Pad2)*%
X50165000Y-93980000D03*
%TO.P,A2,3,~{RESET}*%
%TO.N,unconnected-(A2-Pad3)*%
X50165000Y-96520000D03*
%TO.P,A2,4,GND*%
%TO.N,unconnected-(A2-Pad4)*%
X50165000Y-99060000D03*
%TO.P,A2,5,D2*%
%TO.N,Net-(A2-Pad5)*%
X50165000Y-101600000D03*
%TO.P,A2,6,D3*%
%TO.N,Net-(A2-Pad6)*%
X50165000Y-104140000D03*
%TO.P,A2,7,D4*%
%TO.N,Net-(A2-Pad7)*%
X50165000Y-106680000D03*
%TO.P,A2,8,D5*%
%TO.N,unconnected-(A2-Pad8)*%
X50165000Y-109220000D03*
%TO.P,A2,9,D6*%
%TO.N,unconnected-(A2-Pad9)*%
X50165000Y-111760000D03*
%TO.P,A2,10,D7*%
%TO.N,unconnected-(A2-Pad10)*%
X50165000Y-114300000D03*
%TO.P,A2,11,D8*%
%TO.N,unconnected-(A2-Pad11)*%
X50165000Y-116840000D03*
%TO.P,A2,12,D9*%
%TO.N,unconnected-(A2-Pad12)*%
X50165000Y-119380000D03*
%TO.P,A2,13,D10*%
%TO.N,unconnected-(A2-Pad13)*%
X50165000Y-121920000D03*
%TO.P,A2,14,D11*%
%TO.N,unconnected-(A2-Pad14)*%
X50165000Y-124460000D03*
%TO.P,A2,15,D12*%
%TO.N,unconnected-(A2-Pad15)*%
X50165000Y-127000000D03*
%TO.P,A2,16,D13*%
%TO.N,unconnected-(A2-Pad16)*%
X65405000Y-127000000D03*
%TO.P,A2,17,3V3*%
%TO.N,unconnected-(A2-Pad17)*%
X65405000Y-124460000D03*
%TO.P,A2,18,AREF*%
%TO.N,unconnected-(A2-Pad18)*%
X65405000Y-121920000D03*
%TO.P,A2,19,A0*%
%TO.N,unconnected-(A2-Pad19)*%
X65405000Y-119380000D03*
%TO.P,A2,20,A1*%
%TO.N,unconnected-(A2-Pad20)*%
X65405000Y-116840000D03*
%TO.P,A2,21,A2*%
%TO.N,unconnected-(A2-Pad21)*%
X65405000Y-114300000D03*
%TO.P,A2,22,A3*%
%TO.N,unconnected-(A2-Pad22)*%
X65405000Y-111760000D03*
%TO.P,A2,23,A4*%
%TO.N,Net-(A2-Pad23)*%
X65405000Y-109220000D03*
%TO.P,A2,24,A5*%
%TO.N,Net-(A2-Pad24)*%
X65405000Y-106680000D03*
%TO.P,A2,25,A6*%
%TO.N,unconnected-(A2-Pad25)*%
X65405000Y-104140000D03*
%TO.P,A2,26,A7*%
%TO.N,unconnected-(A2-Pad26)*%
X65405000Y-101600000D03*
%TO.P,A2,27,+5V*%
%TO.N,unconnected-(A2-Pad27)*%
X65405000Y-99060000D03*
%TO.P,A2,28,~{RESET}*%
%TO.N,unconnected-(A2-Pad28)*%
X65405000Y-96520000D03*
%TO.P,A2,29,GND*%
%TO.N,GND*%
X65405000Y-93980000D03*
%TO.P,A2,30,VIN*%
%TO.N,/5V*%
X65405000Y-91440000D03*
%TD*%
D21*
%TO.P,J1,1,Pin_1*%
%TO.N,unconnected-(J1-Pad1)*%
X37030000Y-170950000D03*
D22*
%TO.P,J1,2,Pin_2*%
%TO.N,GND*%
X42030000Y-170950000D03*
%TO.P,J1,3,Pin_3*%
%TO.N,/Vin*%
X47030000Y-170950000D03*
%TO.P,J1,4,Pin_4*%
%TO.N,GND*%
X52030000Y-170950000D03*
%TO.P,J1,5,Pin_5*%
%TO.N,/Rx*%
X57030000Y-170950000D03*
%TO.P,J1,6,Pin_6*%
%TO.N,/Tx*%
X62030000Y-170950000D03*
%TD*%
D16*
%TO.P,C4,1*%
%TO.N,Net-(C4-Pad1)*%
X55499000Y-67497000D03*
D11*
%TO.P,C4,2*%
%TO.N,GND*%
X55499000Y-74997000D03*
%TD*%
D21*
%TO.P,J2,1,Pin_1*%
%TO.N,GND*%
X62865000Y-53213000D03*
D22*
%TO.P,J2,2,Pin_2*%
%TO.N,Net-(J2-Pad2)*%
X57865000Y-53213000D03*
%TO.P,J2,3,Pin_3*%
%TO.N,Net-(J2-Pad3)*%
X52865000Y-53213000D03*
%TO.P,J2,4,Pin_4*%
%TO.N,/LED1*%
X47865000Y-53213000D03*
%TO.P,J2,5,Pin_5*%
%TO.N,/LED0*%
X42865000Y-53213000D03*
%TO.P,J2,6,Pin_6*%
%TO.N,/5V*%
X37865000Y-53213000D03*
%TD*%
D23*
%TO.N,/Vin*%
X40005000Y-163925000D02*
X40005000Y-163612183D01*
X47030000Y-170950000D02*
X40005000Y-163925000D01*
%TO.N,/Rx*%
X47516839Y-168275000D02*
X56515000Y-168275000D01*
X56515000Y-168275000D02*
X57030000Y-168790000D01*
X34985000Y-159385000D02*
X38626839Y-159385000D01*
X38626839Y-159385000D02*
X47516839Y-168275000D01*
X57030000Y-168790000D02*
X57030000Y-170950000D01*
%TO.N,/Tx*%
X34985000Y-167580000D02*
X34290000Y-168275000D01*
X34985000Y-164465000D02*
X34985000Y-167580000D01*
X34290000Y-172212000D02*
X36068000Y-173990000D01*
X34290000Y-168275000D02*
X34290000Y-172212000D01*
X36068000Y-173990000D02*
X58990000Y-173990000D01*
X58990000Y-173990000D02*
X62030000Y-170950000D01*
%TO.N,Net-(J2-Pad2)*%
X43133000Y-67945000D02*
X38795000Y-67945000D01*
X57865000Y-53213000D02*
X43133000Y-67945000D01*
X37338000Y-72009000D02*
X39731000Y-72009000D01*
X39731000Y-72009000D02*
X43170000Y-75448000D01*
X38795000Y-67945000D02*
X38795000Y-70552000D01*
X38795000Y-70552000D02*
X37338000Y-72009000D01*
%TO.N,Net-(J2-Pad3)*%
X33528000Y-67310000D02*
X33528000Y-82423000D01*
X48547000Y-57658000D02*
X43180000Y-57658000D01*
X43180000Y-57658000D02*
X33528000Y-67310000D01*
X52865000Y-53340000D02*
X48547000Y-57658000D01*
X33528000Y-82423000D02*
X45085000Y-93980000D01*
%TO.N,/LED1*%
X32131000Y-86741000D02*
X39370000Y-93980000D01*
X42291000Y-56134000D02*
X32131000Y-66294000D01*
X45071000Y-56134000D02*
X42291000Y-56134000D01*
X47865000Y-53340000D02*
X45071000Y-56134000D01*
X32131000Y-66294000D02*
X32131000Y-86741000D01*
%TO.N,/LED0*%
X30480000Y-65850217D02*
X42865000Y-53465217D01*
X33655000Y-93980000D02*
X30480000Y-90805000D01*
X42865000Y-53465217D02*
X42865000Y-53340000D01*
X30480000Y-90805000D02*
X30480000Y-65850217D01*
%TO.N,/5V*%
X61595000Y-162870000D02*
X61595000Y-158623000D01*
X65405000Y-91440000D02*
X65405000Y-84709000D01*
X61595000Y-161655000D02*
X67000000Y-156250000D01*
X62738000Y-151988000D02*
X62738000Y-94107000D01*
X57277000Y-154305000D02*
X34985000Y-154305000D01*
X63764000Y-83068000D02*
X45710000Y-83068000D01*
X61595000Y-158623000D02*
X57277000Y-154305000D01*
X62738000Y-94107000D02*
X65405000Y-91440000D01*
X67000000Y-156250000D02*
X62738000Y-151988000D01*
X64897000Y-84201000D02*
X63764000Y-83068000D01*
X65405000Y-84709000D02*
X64897000Y-84201000D01*
X61595000Y-162870000D02*
X61595000Y-161655000D01*
%TO.N,Net-(Q1-Pad2)*%
X32385000Y-111125000D02*
X33020000Y-110490000D01*
X34290000Y-115570000D02*
X32385000Y-113665000D01*
X32385000Y-113665000D02*
X32385000Y-111125000D01*
X33020000Y-110490000D02*
X34015000Y-110490000D01*
%TO.N,Net-(A2-Pad5)*%
X54991000Y-130048000D02*
X52959000Y-132080000D01*
X52959000Y-132080000D02*
X40640000Y-132080000D01*
X54991000Y-106426000D02*
X54991000Y-130048000D01*
X50165000Y-101600000D02*
X54991000Y-106426000D01*
X40640000Y-132080000D02*
X34290000Y-125730000D01*
%TO.N,Net-(Q2-Pad2)*%
X39370000Y-115570000D02*
X38100000Y-114300000D01*
X38730000Y-110490000D02*
X39730000Y-110490000D01*
X38100000Y-114300000D02*
X38100000Y-111120000D01*
X38100000Y-111120000D02*
X38730000Y-110490000D01*
%TO.N,Net-(A2-Pad6)*%
X53594000Y-107569000D02*
X53594000Y-129159000D01*
X53594000Y-129159000D02*
X52070000Y-130683000D01*
X52070000Y-130683000D02*
X44323000Y-130683000D01*
X44323000Y-130683000D02*
X39370000Y-125730000D01*
X50165000Y-104140000D02*
X53594000Y-107569000D01*
%TO.N,Net-(Q3-Pad2)*%
X43180000Y-111755000D02*
X44445000Y-110490000D01*
X44445000Y-110490000D02*
X45445000Y-110490000D01*
X43180000Y-114935000D02*
X43180000Y-111755000D01*
X43815000Y-115570000D02*
X43180000Y-114935000D01*
%TO.N,Net-(A2-Pad7)*%
X52070000Y-127888282D02*
X50926282Y-129032000D01*
X50926282Y-129032000D02*
X47117000Y-129032000D01*
X50165000Y-106680000D02*
X52070000Y-108585000D01*
X52070000Y-108585000D02*
X52070000Y-127888282D01*
X47117000Y-129032000D02*
X43815000Y-125730000D01*
%TO.N,Net-(Q1-Pad3)*%
X34015000Y-104500000D02*
X33655000Y-104140000D01*
X34015000Y-109220000D02*
X34015000Y-104500000D01*
%TO.N,Net-(Q2-Pad3)*%
X39730000Y-104500000D02*
X39370000Y-104140000D01*
X39730000Y-109220000D02*
X39730000Y-104500000D01*
%TO.N,Net-(Q3-Pad3)*%
X45445000Y-104500000D02*
X45085000Y-104140000D01*
X45445000Y-109220000D02*
X45445000Y-104500000D01*
%TO.N,Net-(C3-Pad2)*%
X47498000Y-72009000D02*
X47498000Y-69148000D01*
X47498000Y-72009000D02*
X50800000Y-75311000D01*
X47498000Y-69148000D02*
X46295000Y-67945000D01*
X45710000Y-75448000D02*
X45710000Y-73797000D01*
X45710000Y-73797000D02*
X47498000Y-72009000D01*
X50800000Y-75311000D02*
X51308000Y-75311000D01*
%TO.N,Net-(C4-Pad1)*%
X51308000Y-65151000D02*
X53153000Y-65151000D01*
X53153000Y-65151000D02*
X55499000Y-67497000D01*
X55499000Y-67497000D02*
X58353000Y-67497000D01*
X59817000Y-68961000D02*
X64897000Y-68961000D01*
X58353000Y-67497000D02*
X59817000Y-68961000D01*
%TO.N,Net-(A1-Pad1)*%
X42327183Y-158532183D02*
X45085000Y-161290000D01*
X40005000Y-158532183D02*
X42327183Y-158532183D01*
X56515000Y-162870000D02*
X52177183Y-158532183D01*
X52177183Y-158532183D02*
X40005000Y-158532183D01*
%TD*%
M02*
