%TF.GenerationSoftware,KiCad,Pcbnew,(6.0.5-0)*%
%TF.CreationDate,2022-08-16T12:13:12-04:00*%
%TF.ProjectId,Springer,53707269-6e67-4657-922e-6b696361645f,rev?*%
%TF.SameCoordinates,Original*%
%TF.FileFunction,Legend,Bot*%
%TF.FilePolarity,Positive*%
%FSLAX46Y46*%
G04 Gerber Fmt 4.6, Leading zero omitted, Abs format (unit mm)*
G04 Created by KiCad (PCBNEW (6.0.5-0)) date 2022-08-16 12:13:12*
%MOMM*%
%LPD*%
G01*
G04 APERTURE LIST*
%ADD10C,0.120000*%
G04 APERTURE END LIST*
D10*
X66421024Y-104132967D02*
G75*
G03*
X66421024Y-104132967I-1016024J0D01*
G01*
X66421001Y-101600000D02*
G75*
G03*
X66421001Y-101600000I-1047269J0D01*
G01*
%TO.C,G\u002A\u002A\u002A*%
G36*
X65726317Y-140416054D02*
G01*
X65726317Y-140057037D01*
X65865114Y-140057037D01*
X65869596Y-140138143D01*
X65891426Y-140166193D01*
X65943188Y-140157364D01*
X66027119Y-140125409D01*
X66125360Y-140079815D01*
X66229459Y-140026351D01*
X66142710Y-140003094D01*
X66067762Y-139983426D01*
X65960538Y-139956195D01*
X65949449Y-139953488D01*
X65892005Y-139946624D01*
X65869189Y-139975534D01*
X65865114Y-140057000D01*
X65865114Y-140057037D01*
X65726317Y-140057037D01*
X65726317Y-139734788D01*
X66228919Y-139859279D01*
X66249279Y-139864339D01*
X66457705Y-139918871D01*
X66598454Y-139961667D01*
X66672157Y-139992943D01*
X66679443Y-140012914D01*
X66670726Y-140017379D01*
X66604346Y-140047556D01*
X66491038Y-140096707D01*
X66344102Y-140159114D01*
X66176840Y-140229056D01*
X65891426Y-140347522D01*
X65726317Y-140416054D01*
G37*
G36*
X62736471Y-135197399D02*
G01*
X62843290Y-135414479D01*
X62975540Y-135646726D01*
X63106896Y-135830739D01*
X63245478Y-135977552D01*
X63399407Y-136098200D01*
X63453633Y-136135108D01*
X63581343Y-136225486D01*
X63658419Y-136289027D01*
X63691101Y-136333113D01*
X63685632Y-136365124D01*
X63648254Y-136392441D01*
X63613448Y-136404464D01*
X63543154Y-136405335D01*
X63435931Y-136385409D01*
X63277787Y-136342812D01*
X63029290Y-136284331D01*
X62763734Y-136262097D01*
X62528232Y-136294275D01*
X62313996Y-136382257D01*
X62112239Y-136527434D01*
X62049797Y-136578174D01*
X61989403Y-136608303D01*
X61949686Y-136594457D01*
X61943818Y-136588405D01*
X61916753Y-136543205D01*
X61928456Y-136494470D01*
X61985418Y-136430801D01*
X62094130Y-136340796D01*
X62189166Y-136257459D01*
X62320842Y-136096669D01*
X62423431Y-135899412D01*
X62501896Y-135655201D01*
X62561198Y-135353547D01*
X62622601Y-134954503D01*
X62736471Y-135197399D01*
G37*
G36*
X67426590Y-132438793D02*
G01*
X67295937Y-132438793D01*
X67228000Y-132436118D01*
X67177649Y-132416766D01*
X67141840Y-132364282D01*
X67102575Y-132262232D01*
X67091224Y-132231124D01*
X67044569Y-132132012D01*
X66984770Y-132069793D01*
X66889761Y-132019272D01*
X66859387Y-132006368D01*
X66811686Y-131989888D01*
X66756495Y-131977933D01*
X66684978Y-131970246D01*
X66588298Y-131966571D01*
X66457618Y-131966651D01*
X66284103Y-131970230D01*
X66058915Y-131977051D01*
X65773219Y-131986857D01*
X65525215Y-131995847D01*
X65259368Y-132006054D01*
X65011336Y-132016137D01*
X64794004Y-132025555D01*
X64620260Y-132033766D01*
X64502991Y-132040229D01*
X64361755Y-132048394D01*
X64267893Y-132049287D01*
X64213430Y-132039652D01*
X64183153Y-132016697D01*
X64161845Y-131977632D01*
X64148062Y-131954321D01*
X64113083Y-131922652D01*
X64051795Y-131891390D01*
X63953882Y-131856481D01*
X63809028Y-131813869D01*
X63606917Y-131759500D01*
X63089344Y-131623356D01*
X63089251Y-130386088D01*
X63089158Y-129148821D01*
X63410128Y-129129294D01*
X63512671Y-129123405D01*
X63715063Y-129112951D01*
X63934542Y-129102701D01*
X64138817Y-129094210D01*
X64546535Y-129078652D01*
X64546535Y-129228085D01*
X64545994Y-129281893D01*
X64535309Y-129349814D01*
X64497744Y-129381636D01*
X64416412Y-129399624D01*
X64206448Y-129446798D01*
X63996938Y-129515809D01*
X63816082Y-129597446D01*
X63684215Y-129683815D01*
X63603419Y-129762876D01*
X63534652Y-129862130D01*
X63486749Y-129983198D01*
X63456502Y-130137860D01*
X63440706Y-130337894D01*
X63436153Y-130595081D01*
X63436580Y-130738789D01*
X63439514Y-130890058D01*
X63446840Y-130995664D01*
X63460400Y-131069445D01*
X63482037Y-131125239D01*
X63513591Y-131176884D01*
X63524876Y-131192689D01*
X63595621Y-131272581D01*
X63661063Y-131321710D01*
X63680001Y-131326812D01*
X63768263Y-131334569D01*
X63911224Y-131336983D01*
X64098821Y-131333996D01*
X64320989Y-131325549D01*
X64452775Y-131319462D01*
X64660031Y-131310512D01*
X64847458Y-131303134D01*
X64998560Y-131297966D01*
X65096844Y-131295642D01*
X65282809Y-131293711D01*
X65269485Y-131029853D01*
X65266509Y-130974692D01*
X65256081Y-130856511D01*
X65237238Y-130779748D01*
X65202927Y-130723696D01*
X65146094Y-130667651D01*
X65051762Y-130599775D01*
X64865627Y-130523437D01*
X64659308Y-130495817D01*
X64635869Y-130495612D01*
X64574892Y-130486350D01*
X64550788Y-130448348D01*
X64546535Y-130361308D01*
X64546535Y-130226992D01*
X64746057Y-130206320D01*
X64843506Y-130198640D01*
X64995829Y-130189626D01*
X65187776Y-130180057D01*
X65404435Y-130170676D01*
X65630893Y-130162225D01*
X66316207Y-130138803D01*
X66316207Y-130247814D01*
X66314084Y-130295763D01*
X66292630Y-130344937D01*
X66235757Y-130356826D01*
X66127867Y-130368445D01*
X65968049Y-130414413D01*
X65818013Y-130484364D01*
X65707565Y-130566467D01*
X65675654Y-130601269D01*
X65636614Y-130657347D01*
X65613405Y-130724745D01*
X65600518Y-130822821D01*
X65592444Y-130970935D01*
X65580019Y-131268229D01*
X66150931Y-131252606D01*
X66162367Y-131252290D01*
X66409667Y-131243006D01*
X66598612Y-131228327D01*
X66739797Y-131204593D01*
X66843819Y-131168145D01*
X66921273Y-131115324D01*
X66982753Y-131042470D01*
X67038856Y-130945922D01*
X67064076Y-130895031D01*
X67088972Y-130830106D01*
X67103822Y-130757496D01*
X67110300Y-130661794D01*
X67110086Y-130527590D01*
X67104854Y-130339476D01*
X67102249Y-130270544D01*
X67081645Y-130001277D01*
X67041903Y-129790553D01*
X66976912Y-129630306D01*
X66880560Y-129512469D01*
X66746737Y-129428974D01*
X66569331Y-129371754D01*
X66342232Y-129332743D01*
X66267759Y-129322152D01*
X66205429Y-129302706D01*
X66181381Y-129264583D01*
X66177409Y-129192268D01*
X66177409Y-129072946D01*
X66484374Y-129072946D01*
X66504567Y-129072900D01*
X66699656Y-129069383D01*
X66915499Y-129061364D01*
X67108964Y-129050400D01*
X67426590Y-129027854D01*
X67426590Y-132438793D01*
G37*
G36*
X67418455Y-142438109D02*
G01*
X67409240Y-143415567D01*
X65899814Y-143905788D01*
X65834560Y-143926983D01*
X65490222Y-144039021D01*
X65205360Y-144132293D01*
X64974350Y-144208941D01*
X64791573Y-144271103D01*
X64651405Y-144320922D01*
X64548226Y-144360536D01*
X64476413Y-144392086D01*
X64430344Y-144417713D01*
X64404398Y-144439557D01*
X64392953Y-144459758D01*
X64390388Y-144480457D01*
X64390503Y-144487328D01*
X64394028Y-144507079D01*
X64406843Y-144525752D01*
X64434766Y-144545091D01*
X64483610Y-144566838D01*
X64559191Y-144592738D01*
X64667325Y-144624533D01*
X64813826Y-144663967D01*
X65004510Y-144712783D01*
X65245193Y-144772725D01*
X65541689Y-144845536D01*
X65899814Y-144932959D01*
X67409240Y-145301011D01*
X67427654Y-147290159D01*
X67293817Y-147290159D01*
X67266084Y-147289948D01*
X67191485Y-147280034D01*
X67150762Y-147241128D01*
X67119160Y-147153918D01*
X67109476Y-147125893D01*
X67028616Y-146991370D01*
X66909899Y-146880729D01*
X66776222Y-146816500D01*
X66738861Y-146810650D01*
X66624994Y-146804009D01*
X66457434Y-146801566D01*
X66245647Y-146802912D01*
X65999102Y-146807634D01*
X65727268Y-146815320D01*
X65439611Y-146825560D01*
X65145600Y-146837941D01*
X64854703Y-146852052D01*
X64576387Y-146867481D01*
X64320122Y-146883818D01*
X64095373Y-146900649D01*
X63911611Y-146917565D01*
X63778301Y-146934153D01*
X63704914Y-146950002D01*
X63619968Y-146999245D01*
X63513488Y-147098302D01*
X63425735Y-147216122D01*
X63378330Y-147327701D01*
X63377944Y-147329622D01*
X63356572Y-147395017D01*
X63312930Y-147423024D01*
X63223618Y-147428957D01*
X63089158Y-147428957D01*
X63089158Y-145693984D01*
X63227956Y-145693984D01*
X63249939Y-145694080D01*
X63328013Y-145700863D01*
X63360405Y-145728112D01*
X63366883Y-145789408D01*
X63370232Y-145831317D01*
X63419157Y-145966172D01*
X63513453Y-146086806D01*
X63636434Y-146169684D01*
X63652777Y-146176230D01*
X63694887Y-146189004D01*
X63749040Y-146198618D01*
X63822399Y-146205141D01*
X63922127Y-146208639D01*
X64055388Y-146209180D01*
X64229346Y-146206831D01*
X64451162Y-146201659D01*
X64728002Y-146193732D01*
X65067027Y-146183116D01*
X65084784Y-146182546D01*
X65381452Y-146172597D01*
X65658793Y-146162538D01*
X65908466Y-146152728D01*
X66122132Y-146143525D01*
X66291450Y-146135288D01*
X66408079Y-146128374D01*
X66463680Y-146123141D01*
X66480145Y-146119763D01*
X66532244Y-146098195D01*
X66554447Y-146050746D01*
X66559103Y-145955756D01*
X66559103Y-145806648D01*
X66203434Y-145719096D01*
X66184306Y-145714391D01*
X66057593Y-145683299D01*
X65875249Y-145638642D01*
X65646973Y-145582789D01*
X65382459Y-145518112D01*
X65091405Y-145446982D01*
X64783507Y-145371770D01*
X64468461Y-145294847D01*
X63089158Y-144958149D01*
X63089299Y-144658102D01*
X63089439Y-144358055D01*
X63365170Y-144180603D01*
X63430557Y-144139852D01*
X63506528Y-144096782D01*
X63591546Y-144054284D01*
X63692747Y-144009653D01*
X63817264Y-143960182D01*
X63972230Y-143903164D01*
X64164781Y-143835893D01*
X64402050Y-143755663D01*
X64691170Y-143659766D01*
X65039278Y-143545497D01*
X65202909Y-143491945D01*
X65491376Y-143397534D01*
X65756154Y-143310873D01*
X65990197Y-143234270D01*
X66186462Y-143170028D01*
X66337903Y-143120454D01*
X66437477Y-143087854D01*
X66478138Y-143074533D01*
X66489495Y-143064905D01*
X66510517Y-143001976D01*
X66518621Y-142900018D01*
X66518621Y-142738814D01*
X66356690Y-142758045D01*
X66315421Y-142761756D01*
X66198800Y-142768850D01*
X66032054Y-142776731D01*
X65827165Y-142784899D01*
X65596114Y-142792852D01*
X65350884Y-142800089D01*
X64507008Y-142822901D01*
X64535084Y-142688292D01*
X64536228Y-142682750D01*
X64561493Y-142430885D01*
X64534355Y-142198014D01*
X64506322Y-142085241D01*
X64716204Y-142085241D01*
X64847793Y-142084012D01*
X65045509Y-142079394D01*
X65271503Y-142071882D01*
X65514927Y-142062046D01*
X65764932Y-142050457D01*
X66010667Y-142037685D01*
X66241286Y-142024298D01*
X66445937Y-142010868D01*
X66613773Y-141997963D01*
X66733944Y-141986155D01*
X66795601Y-141976012D01*
X66889923Y-141922862D01*
X66994241Y-141820026D01*
X67081029Y-141692533D01*
X67132086Y-141562740D01*
X67133064Y-141558337D01*
X67155932Y-141493979D01*
X67200751Y-141466461D01*
X67291089Y-141460651D01*
X67427671Y-141460651D01*
X67418455Y-142438109D01*
G37*
G36*
X65024573Y-139559426D02*
G01*
X65138267Y-139589342D01*
X65128672Y-140094895D01*
X65119076Y-140600448D01*
X64843417Y-140700905D01*
X64804310Y-140714873D01*
X64669357Y-140758941D01*
X64556790Y-140789761D01*
X64487748Y-140801361D01*
X64437149Y-140797363D01*
X64401324Y-140774419D01*
X64422804Y-140734757D01*
X64496558Y-140682568D01*
X64617553Y-140622041D01*
X64780756Y-140557368D01*
X64997628Y-140479767D01*
X64997628Y-140087786D01*
X64997607Y-140055328D01*
X64996132Y-139894463D01*
X64990998Y-139788990D01*
X64980336Y-139726890D01*
X64962276Y-139696139D01*
X64934949Y-139684717D01*
X64893629Y-139663369D01*
X64891574Y-139601570D01*
X64907153Y-139562337D01*
X64945187Y-139544725D01*
X65024573Y-139559426D01*
G37*
G36*
X53413456Y-135800303D02*
G01*
X53330296Y-135770333D01*
X53282517Y-135724389D01*
X53254948Y-135697879D01*
X53246457Y-135687378D01*
X53233503Y-135665026D01*
X53356467Y-135665026D01*
X53368302Y-135695228D01*
X53423851Y-135719655D01*
X53497611Y-135731192D01*
X53564081Y-135722722D01*
X53593755Y-135708100D01*
X53615931Y-135672648D01*
X53581508Y-135643825D01*
X53580933Y-135643344D01*
X53496807Y-135631143D01*
X53486092Y-135631276D01*
X53455433Y-135635219D01*
X53402269Y-135642056D01*
X53356590Y-135664825D01*
X53356467Y-135665026D01*
X53233503Y-135665026D01*
X53188373Y-135587154D01*
X53165114Y-135492345D01*
X53165192Y-135490297D01*
X53269213Y-135490297D01*
X53269217Y-135493094D01*
X53273238Y-135566181D01*
X53282517Y-135596443D01*
X53300430Y-135571923D01*
X53312132Y-135509176D01*
X53312495Y-135466750D01*
X53388212Y-135466750D01*
X53396444Y-135503911D01*
X53400269Y-135507340D01*
X53455433Y-135527044D01*
X53469790Y-135520918D01*
X53454937Y-135494393D01*
X53546808Y-135494393D01*
X53549533Y-135506943D01*
X53581508Y-135509694D01*
X53591892Y-135502572D01*
X53616207Y-135472947D01*
X53615305Y-135469484D01*
X53581508Y-135457645D01*
X53571997Y-135459057D01*
X53546808Y-135494393D01*
X53454937Y-135494393D01*
X53450228Y-135485983D01*
X53426888Y-135467639D01*
X53391239Y-135462850D01*
X53388212Y-135466750D01*
X53312495Y-135466750D01*
X53312710Y-135441564D01*
X53299259Y-135402720D01*
X53297520Y-135401823D01*
X53277470Y-135422499D01*
X53269213Y-135490297D01*
X53165192Y-135490297D01*
X53165488Y-135482565D01*
X53193859Y-135384983D01*
X53244093Y-135304255D01*
X53408011Y-135304255D01*
X53408873Y-135316907D01*
X53434203Y-135344305D01*
X53506580Y-135337412D01*
X53513627Y-135335938D01*
X53604786Y-135338364D01*
X53662639Y-135393993D01*
X53694686Y-135509694D01*
X53709907Y-135613793D01*
X53715107Y-135501020D01*
X53715054Y-135476141D01*
X53681228Y-135361947D01*
X53602653Y-135280510D01*
X53494759Y-135249449D01*
X53437764Y-135259600D01*
X53408011Y-135304255D01*
X53244093Y-135304255D01*
X53254948Y-135286810D01*
X53306559Y-135232571D01*
X53383234Y-135190494D01*
X53491795Y-135180050D01*
X53569105Y-135186926D01*
X53696326Y-135241471D01*
X53777165Y-135345316D01*
X53805477Y-135492345D01*
X53798570Y-135569313D01*
X53743783Y-135695972D01*
X53709907Y-135722110D01*
X53639476Y-135776453D01*
X53497611Y-135803530D01*
X53491795Y-135804640D01*
X53413456Y-135800303D01*
G37*
G36*
X63833835Y-146039622D02*
G01*
X63730806Y-146019671D01*
X63657013Y-145989083D01*
X63605845Y-145946610D01*
X63570692Y-145891007D01*
X63544941Y-145821027D01*
X63521983Y-145735422D01*
X63480727Y-145572536D01*
X63215544Y-145562401D01*
X62950360Y-145552267D01*
X62950360Y-147585104D01*
X63227956Y-147585104D01*
X63335722Y-147584631D01*
X63431233Y-147580377D01*
X63481948Y-147568152D01*
X63502007Y-147543780D01*
X63505552Y-147503080D01*
X63521269Y-147421787D01*
X63572744Y-147304461D01*
X63643941Y-147194502D01*
X63718070Y-147122016D01*
X63735583Y-147114700D01*
X63822703Y-147096566D01*
X63966343Y-147077957D01*
X64157429Y-147059428D01*
X64386892Y-147041534D01*
X64645659Y-147024830D01*
X64924659Y-147009871D01*
X65214820Y-146997213D01*
X65507070Y-146987411D01*
X65792338Y-146981020D01*
X66061552Y-146978595D01*
X66795831Y-146977864D01*
X66885664Y-147084625D01*
X66941877Y-147170472D01*
X66975497Y-147310171D01*
X66975497Y-147428957D01*
X67565388Y-147428957D01*
X67565388Y-146303563D01*
X67565386Y-146272144D01*
X67565110Y-145968068D01*
X67564094Y-145725644D01*
X67561962Y-145537783D01*
X67558338Y-145397393D01*
X67552846Y-145297383D01*
X67545108Y-145230662D01*
X67534749Y-145190140D01*
X67521393Y-145168725D01*
X67504664Y-145159327D01*
X67497181Y-145157222D01*
X67431597Y-145140373D01*
X67308504Y-145109585D01*
X67135476Y-145066725D01*
X66920084Y-145013661D01*
X66669904Y-144952258D01*
X66392507Y-144884385D01*
X66095467Y-144811908D01*
X65993395Y-144787010D01*
X65705190Y-144716414D01*
X65441071Y-144651286D01*
X65208264Y-144593438D01*
X65013998Y-144544681D01*
X64865499Y-144506824D01*
X64769996Y-144481678D01*
X64734715Y-144471053D01*
X64747213Y-144462043D01*
X64812277Y-144435209D01*
X64920802Y-144396182D01*
X65059554Y-144349897D01*
X65102246Y-144336100D01*
X65244628Y-144290022D01*
X65436977Y-144227716D01*
X65668043Y-144152830D01*
X65926574Y-144069010D01*
X66201320Y-143979903D01*
X66481030Y-143889156D01*
X67565388Y-143537290D01*
X67565388Y-141287153D01*
X67017920Y-141287153D01*
X66993734Y-141416077D01*
X66966739Y-141523859D01*
X66891661Y-141684532D01*
X66788246Y-141791130D01*
X66780809Y-141795246D01*
X66699492Y-141817383D01*
X66552226Y-141838321D01*
X66341927Y-141857861D01*
X66071510Y-141875805D01*
X65743892Y-141891952D01*
X65361988Y-141906105D01*
X64928715Y-141918063D01*
X64806781Y-141920659D01*
X64804641Y-141920705D01*
X64651977Y-141922051D01*
X64551041Y-141918792D01*
X64490920Y-141909844D01*
X64460702Y-141894128D01*
X64449475Y-141870560D01*
X64447297Y-141856797D01*
X64448187Y-141837606D01*
X64457699Y-141817538D01*
X64480111Y-141794645D01*
X64486334Y-141790296D01*
X64789431Y-141790296D01*
X64806781Y-141807645D01*
X64824131Y-141790296D01*
X64806781Y-141772946D01*
X64789431Y-141790296D01*
X64486334Y-141790296D01*
X64519704Y-141766974D01*
X64580757Y-141732578D01*
X64667549Y-141689505D01*
X64784358Y-141635807D01*
X64935466Y-141569532D01*
X65125150Y-141488731D01*
X65357690Y-141391454D01*
X65637366Y-141275751D01*
X65968457Y-141139673D01*
X66355241Y-140981268D01*
X66802000Y-140798588D01*
X67548038Y-140493620D01*
X67557587Y-139954788D01*
X67567137Y-139415956D01*
X67002396Y-139237914D01*
X66793299Y-139171996D01*
X66420234Y-139054334D01*
X66105787Y-138954914D01*
X65844914Y-138871946D01*
X65632572Y-138803642D01*
X65463718Y-138748213D01*
X65333309Y-138703871D01*
X65236302Y-138668825D01*
X65167654Y-138641287D01*
X65122321Y-138619468D01*
X65095262Y-138601580D01*
X65081432Y-138585833D01*
X65075788Y-138570439D01*
X65073288Y-138553609D01*
X65071410Y-138505429D01*
X65085083Y-138476498D01*
X65087298Y-138476776D01*
X65138612Y-138490690D01*
X65252559Y-138524938D01*
X65426223Y-138578604D01*
X65656688Y-138650773D01*
X65941041Y-138740527D01*
X66276366Y-138846950D01*
X66659747Y-138969127D01*
X67088270Y-139106140D01*
X67738885Y-139314463D01*
X67738885Y-140584532D01*
X66966822Y-140898688D01*
X66935381Y-140911484D01*
X66660770Y-141023413D01*
X66361143Y-141145785D01*
X66058830Y-141269467D01*
X65776162Y-141385324D01*
X65535470Y-141484220D01*
X64876180Y-141755596D01*
X65171125Y-141765360D01*
X65241094Y-141766726D01*
X65409291Y-141766290D01*
X65615888Y-141762519D01*
X65841077Y-141755828D01*
X66065052Y-141746631D01*
X66245439Y-141737622D01*
X66441089Y-141724196D01*
X66584057Y-141705286D01*
X66683996Y-141676144D01*
X66750566Y-141632022D01*
X66793423Y-141568169D01*
X66822222Y-141479838D01*
X66846622Y-141362279D01*
X66887277Y-141148356D01*
X67738885Y-141148356D01*
X67738885Y-143671306D01*
X67487314Y-143746752D01*
X67474059Y-143750758D01*
X67365002Y-143784688D01*
X67203045Y-143836095D01*
X66999218Y-143901432D01*
X66764550Y-143977154D01*
X66510070Y-144059714D01*
X66246808Y-144145566D01*
X65257874Y-144468935D01*
X66498379Y-144772458D01*
X67738885Y-145075981D01*
X67738885Y-147602454D01*
X66836699Y-147602454D01*
X66836699Y-147454027D01*
X66835733Y-147424708D01*
X66817249Y-147312426D01*
X66782682Y-147228481D01*
X66766493Y-147207144D01*
X66742578Y-147186881D01*
X66705412Y-147172282D01*
X66645634Y-147162452D01*
X66553889Y-147156496D01*
X66420818Y-147153517D01*
X66237064Y-147152619D01*
X65993270Y-147152907D01*
X65929142Y-147153205D01*
X65689670Y-147156633D01*
X65429745Y-147163370D01*
X65159351Y-147172872D01*
X64888466Y-147184599D01*
X64627075Y-147198008D01*
X64385157Y-147212558D01*
X64172694Y-147227707D01*
X63999668Y-147242913D01*
X63876060Y-147257633D01*
X63811852Y-147271327D01*
X63764870Y-147309748D01*
X63706969Y-147398141D01*
X63662136Y-147506430D01*
X63643818Y-147607698D01*
X63640324Y-147662397D01*
X63618434Y-147716588D01*
X63565292Y-147747304D01*
X63468262Y-147760473D01*
X63314705Y-147762019D01*
X63298145Y-147761869D01*
X63145777Y-147764863D01*
X63005919Y-147774350D01*
X62906986Y-147788488D01*
X62776863Y-147818374D01*
X62777337Y-146730155D01*
X62777523Y-146604220D01*
X62778787Y-146341109D01*
X62781097Y-146102084D01*
X62784294Y-145896207D01*
X62788220Y-145732541D01*
X62792718Y-145620148D01*
X62797627Y-145568091D01*
X62827129Y-145511426D01*
X62908136Y-145457243D01*
X63042307Y-145425296D01*
X63519777Y-145425296D01*
X63527196Y-145441111D01*
X63574231Y-145477285D01*
X63578893Y-145480434D01*
X63630375Y-145553406D01*
X63663475Y-145676379D01*
X63663588Y-145677134D01*
X63678974Y-145762367D01*
X63702018Y-145826678D01*
X63741527Y-145872592D01*
X63806311Y-145902635D01*
X63905181Y-145919333D01*
X64046946Y-145925210D01*
X64240414Y-145922794D01*
X64494396Y-145914610D01*
X64705728Y-145906131D01*
X64898524Y-145896602D01*
X65059391Y-145886814D01*
X65175850Y-145877526D01*
X65235419Y-145869499D01*
X65242614Y-145863940D01*
X65209310Y-145843436D01*
X65111722Y-145810168D01*
X64948919Y-145763863D01*
X64719973Y-145704247D01*
X64423954Y-145631048D01*
X64191835Y-145575169D01*
X63976092Y-145524174D01*
X63792107Y-145481662D01*
X63648789Y-145449661D01*
X63555043Y-145430196D01*
X63519777Y-145425296D01*
X63042307Y-145425296D01*
X63042950Y-145425143D01*
X63238263Y-145412766D01*
X63488202Y-145409143D01*
X63132532Y-145318996D01*
X62776863Y-145228850D01*
X62776863Y-144479503D01*
X62863612Y-144479503D01*
X62869990Y-144479513D01*
X62908954Y-144483094D01*
X62932712Y-144502408D01*
X62945024Y-144550870D01*
X62949653Y-144641898D01*
X62950360Y-144788907D01*
X62950360Y-145098311D01*
X63266494Y-145172531D01*
X63341660Y-145190233D01*
X63582937Y-145247637D01*
X63851222Y-145312188D01*
X64138643Y-145381931D01*
X64437327Y-145454908D01*
X64739405Y-145529165D01*
X65037002Y-145602746D01*
X65322250Y-145673694D01*
X65587275Y-145740055D01*
X65824205Y-145799872D01*
X66025171Y-145851189D01*
X66182299Y-145892050D01*
X66287718Y-145920501D01*
X66333557Y-145934584D01*
X66368520Y-145952905D01*
X66365178Y-145965320D01*
X66298858Y-145970000D01*
X66269340Y-145971059D01*
X66171401Y-145974944D01*
X66018862Y-145981201D01*
X65820777Y-145989450D01*
X65586203Y-145999314D01*
X65324194Y-146010415D01*
X65043806Y-146022375D01*
X65018904Y-146023440D01*
X64670530Y-146037980D01*
X64384447Y-146048114D01*
X64154044Y-146052597D01*
X64046946Y-146051171D01*
X63972710Y-146050182D01*
X63833835Y-146039622D01*
G37*
G36*
X67426590Y-134173765D02*
G01*
X67322491Y-134173765D01*
X67275360Y-134171507D01*
X67229090Y-134148127D01*
X67218393Y-134084348D01*
X67218252Y-134078932D01*
X67187318Y-133986995D01*
X67112626Y-133889163D01*
X67006859Y-133783396D01*
X66201766Y-133798599D01*
X65937581Y-133804351D01*
X65716270Y-133811784D01*
X65548016Y-133821930D01*
X65424397Y-133836172D01*
X65336994Y-133855893D01*
X65277385Y-133882474D01*
X65237151Y-133917297D01*
X65207871Y-133961745D01*
X65205384Y-133967239D01*
X65205164Y-133987057D01*
X65222038Y-134011056D01*
X65261735Y-134042372D01*
X65329984Y-134084140D01*
X65432513Y-134139496D01*
X65575053Y-134211576D01*
X65763331Y-134303515D01*
X66003078Y-134418450D01*
X66300021Y-134559515D01*
X67426415Y-135093301D01*
X67426502Y-135830664D01*
X67426590Y-136568028D01*
X67322491Y-136568028D01*
X67299667Y-136567510D01*
X67235924Y-136550390D01*
X67218393Y-136501100D01*
X67211293Y-136464046D01*
X67159105Y-136375274D01*
X67072133Y-136284584D01*
X66969440Y-136210099D01*
X66870087Y-136169941D01*
X66823063Y-136165837D01*
X66709392Y-136163061D01*
X66545835Y-136162990D01*
X66343319Y-136165534D01*
X66112770Y-136170605D01*
X65865114Y-136178115D01*
X65698798Y-136183539D01*
X65429318Y-136190470D01*
X65223712Y-136192750D01*
X65078445Y-136190356D01*
X64989981Y-136183260D01*
X64954785Y-136171437D01*
X64945913Y-136147475D01*
X64933757Y-136065802D01*
X64928760Y-135956536D01*
X64928229Y-135778787D01*
X65630893Y-135755974D01*
X65641702Y-135755622D01*
X65872068Y-135747412D01*
X66093145Y-135738321D01*
X66289911Y-135729053D01*
X66447345Y-135720314D01*
X66550429Y-135712809D01*
X66767300Y-135692457D01*
X66767300Y-135433590D01*
X66324882Y-135222403D01*
X66170559Y-135148623D01*
X65954267Y-135045000D01*
X65712585Y-134929042D01*
X65465212Y-134810202D01*
X65231849Y-134697932D01*
X65173409Y-134669681D01*
X64984859Y-134576922D01*
X64822201Y-134494474D01*
X64694650Y-134427164D01*
X64611425Y-134379824D01*
X64581740Y-134357281D01*
X64583181Y-134347040D01*
X64600157Y-134283512D01*
X64629992Y-134191115D01*
X64638659Y-134162140D01*
X64663365Y-134044780D01*
X64686006Y-133892711D01*
X64702569Y-133731347D01*
X64727400Y-133410377D01*
X65148784Y-133408290D01*
X65256729Y-133407520D01*
X65595992Y-133401943D01*
X65911046Y-133392052D01*
X66194363Y-133378343D01*
X66438413Y-133361314D01*
X66635665Y-133341462D01*
X66778591Y-133319285D01*
X66859660Y-133295281D01*
X66890091Y-133278104D01*
X67004204Y-133186251D01*
X67084161Y-133077570D01*
X67114295Y-132971955D01*
X67114762Y-132953169D01*
X67128152Y-132911545D01*
X67173894Y-132893684D01*
X67270442Y-132889886D01*
X67426590Y-132889886D01*
X67426590Y-134173765D01*
G37*
G36*
X64424320Y-135047873D02*
G01*
X64442437Y-135095349D01*
X64437444Y-135120134D01*
X64407737Y-135128000D01*
X64398261Y-135120898D01*
X64373038Y-135073903D01*
X64374031Y-135066157D01*
X64407737Y-135041252D01*
X64424320Y-135047873D01*
G37*
G36*
X67426590Y-138372399D02*
G01*
X67346812Y-138372399D01*
X67327026Y-138371099D01*
X67268362Y-138338810D01*
X67223498Y-138252002D01*
X67222208Y-138248510D01*
X67163966Y-138143516D01*
X67086420Y-138058025D01*
X67084883Y-138056818D01*
X67048582Y-138031017D01*
X67008458Y-138012706D01*
X66953590Y-138001087D01*
X66873058Y-137995363D01*
X66755942Y-137994736D01*
X66591320Y-137998410D01*
X66368272Y-138005586D01*
X66221856Y-138010765D01*
X65987831Y-138019841D01*
X65763766Y-138029394D01*
X65569462Y-138038568D01*
X65424724Y-138046502D01*
X65105781Y-138066277D01*
X65092658Y-137898368D01*
X65087142Y-137827209D01*
X65077544Y-137690673D01*
X65074771Y-137606021D01*
X65079599Y-137560877D01*
X65092805Y-137542866D01*
X65115163Y-137539612D01*
X65148034Y-137538683D01*
X65243557Y-137535181D01*
X65390483Y-137529445D01*
X65578897Y-137521871D01*
X65798886Y-137512853D01*
X66040535Y-137502786D01*
X66261426Y-137492919D01*
X66518779Y-137479108D01*
X66716903Y-137464989D01*
X66861751Y-137450029D01*
X66959280Y-137433694D01*
X67015446Y-137415450D01*
X67035661Y-137403582D01*
X67124039Y-137320427D01*
X67191520Y-137211798D01*
X67218393Y-137107592D01*
X67240999Y-137068545D01*
X67322491Y-137053820D01*
X67426590Y-137053820D01*
X67426590Y-138372399D01*
G37*
G36*
X64521262Y-134577330D02*
G01*
X64592132Y-134596147D01*
X64695456Y-134635071D01*
X64837183Y-134696241D01*
X65023258Y-134781792D01*
X65259630Y-134893865D01*
X65552246Y-135034597D01*
X65586898Y-135051336D01*
X65898580Y-135203349D01*
X66147330Y-135327616D01*
X66333649Y-135424406D01*
X66458039Y-135493985D01*
X66520999Y-135536620D01*
X66523031Y-135552578D01*
X66497761Y-135554390D01*
X66405063Y-135559460D01*
X66260206Y-135566501D01*
X66074144Y-135575002D01*
X65857830Y-135584458D01*
X65622218Y-135594358D01*
X64806781Y-135627954D01*
X64720821Y-135542799D01*
X64634861Y-135457645D01*
X64859619Y-135457505D01*
X64977261Y-135455758D01*
X65146558Y-135450795D01*
X65340275Y-135443401D01*
X65535449Y-135434361D01*
X65986522Y-135411359D01*
X65214479Y-135037755D01*
X65049665Y-134957338D01*
X64853650Y-134859807D01*
X64686528Y-134774492D01*
X64556745Y-134705791D01*
X64472744Y-134658104D01*
X64442968Y-134635830D01*
X64443903Y-134620139D01*
X64453095Y-134591463D01*
X64476898Y-134576481D01*
X64521262Y-134577330D01*
G37*
G36*
X59792710Y-136585377D02*
G01*
X59775360Y-136602727D01*
X59758011Y-136585377D01*
X59775360Y-136568028D01*
X59792710Y-136585377D01*
G37*
G36*
X67738885Y-134495494D02*
G01*
X67577894Y-134473427D01*
X67497615Y-134464818D01*
X67347387Y-134455130D01*
X67197773Y-134451361D01*
X66978642Y-134451361D01*
X66956690Y-134321238D01*
X66948905Y-134274535D01*
X66928678Y-134170174D01*
X66900873Y-134109190D01*
X66850040Y-134080309D01*
X66760729Y-134072260D01*
X66617489Y-134073773D01*
X66585400Y-134074240D01*
X66432098Y-134077376D01*
X66321165Y-134083873D01*
X66255126Y-134097066D01*
X66236505Y-134120285D01*
X66267829Y-134156863D01*
X66351622Y-134210133D01*
X66490409Y-134283425D01*
X66686717Y-134380074D01*
X66943068Y-134503410D01*
X67738683Y-134885104D01*
X67738885Y-138719394D01*
X66940797Y-138719394D01*
X66940797Y-138566084D01*
X66940262Y-138506418D01*
X66930560Y-138395093D01*
X66900503Y-138335206D01*
X66839586Y-138313983D01*
X66737307Y-138318652D01*
X66723460Y-138319960D01*
X66625844Y-138326391D01*
X66475140Y-138333835D01*
X66284531Y-138341735D01*
X66067199Y-138349536D01*
X65836328Y-138356679D01*
X65096203Y-138377717D01*
X65107639Y-138296984D01*
X65119076Y-138216252D01*
X66030832Y-138185660D01*
X66106752Y-138183126D01*
X66366926Y-138174856D01*
X66568269Y-138169622D01*
X66719178Y-138167695D01*
X66828048Y-138169343D01*
X66903278Y-138174834D01*
X66953264Y-138184439D01*
X66986403Y-138198425D01*
X67011092Y-138217062D01*
X67055626Y-138279732D01*
X67079595Y-138412477D01*
X67079595Y-138545897D01*
X67565388Y-138545897D01*
X67565388Y-136880323D01*
X67322491Y-136880323D01*
X67243625Y-136880518D01*
X67149141Y-136884252D01*
X67100388Y-136897402D01*
X67082213Y-136925917D01*
X67079466Y-136975746D01*
X67079332Y-136981817D01*
X67058327Y-137079570D01*
X67012409Y-137180930D01*
X66974553Y-137235607D01*
X66925271Y-137274581D01*
X66849682Y-137296704D01*
X66726268Y-137311818D01*
X66715729Y-137312772D01*
X66604544Y-137319653D01*
X66440659Y-137326351D01*
X66238715Y-137332417D01*
X66013357Y-137337401D01*
X65779229Y-137340855D01*
X65550295Y-137342907D01*
X65362088Y-137343103D01*
X65226659Y-137340665D01*
X65135392Y-137335040D01*
X65079669Y-137325675D01*
X65050869Y-137312020D01*
X65040376Y-137293521D01*
X65041278Y-137280449D01*
X65057931Y-137265771D01*
X65099113Y-137253671D01*
X65172298Y-137243420D01*
X65284961Y-137234290D01*
X65444576Y-137225551D01*
X65658619Y-137216475D01*
X65934562Y-137206333D01*
X66217009Y-137195735D01*
X66438425Y-137185758D01*
X66605154Y-137175782D01*
X66724555Y-137165153D01*
X66803990Y-137153213D01*
X66850819Y-137139307D01*
X66872405Y-137122779D01*
X66876260Y-137115859D01*
X66896752Y-137036973D01*
X66906569Y-136919800D01*
X66906388Y-136785803D01*
X66896887Y-136656441D01*
X66878746Y-136553174D01*
X66852643Y-136497462D01*
X66834224Y-136487712D01*
X66783936Y-136476784D01*
X66699637Y-136469718D01*
X66574263Y-136466365D01*
X66400751Y-136466578D01*
X66172037Y-136470208D01*
X65881058Y-136477108D01*
X65715385Y-136481391D01*
X65475607Y-136487108D01*
X65292996Y-136490265D01*
X65159784Y-136490513D01*
X65068207Y-136487503D01*
X65010499Y-136480888D01*
X64978894Y-136470318D01*
X64965626Y-136455446D01*
X64962929Y-136435924D01*
X64963969Y-136422595D01*
X64975638Y-136401716D01*
X65008175Y-136386180D01*
X65071281Y-136374510D01*
X65174656Y-136365229D01*
X65327999Y-136356862D01*
X65541011Y-136347931D01*
X65627320Y-136344679D01*
X65865591Y-136336978D01*
X66105993Y-136330775D01*
X66324707Y-136326637D01*
X66497916Y-136325132D01*
X66607410Y-136325318D01*
X66739506Y-136327839D01*
X66827155Y-136335955D01*
X66885831Y-136352936D01*
X66931010Y-136382048D01*
X66978166Y-136426561D01*
X66983669Y-136432169D01*
X67052887Y-136527768D01*
X67079595Y-136617408D01*
X67080078Y-136643288D01*
X67089637Y-136679412D01*
X67123248Y-136698342D01*
X67196027Y-136705630D01*
X67323087Y-136706826D01*
X67566579Y-136706826D01*
X67557309Y-135838714D01*
X67548038Y-134970602D01*
X66515701Y-134479680D01*
X66347750Y-134399667D01*
X66114654Y-134288100D01*
X65908100Y-134188622D01*
X65735328Y-134104753D01*
X65603573Y-134040011D01*
X65520073Y-133997916D01*
X65492067Y-133981985D01*
X65494170Y-133981490D01*
X65543133Y-133978048D01*
X65648738Y-133973118D01*
X65800474Y-133967119D01*
X65987827Y-133960474D01*
X66200286Y-133953604D01*
X66248760Y-133952121D01*
X66499359Y-133945661D01*
X66690581Y-133944987D01*
X66830950Y-133952476D01*
X66928991Y-133970502D01*
X66993229Y-134001442D01*
X67032189Y-134047671D01*
X67054397Y-134111564D01*
X67068377Y-134195497D01*
X67087486Y-134337967D01*
X67326417Y-134333940D01*
X67565347Y-134329913D01*
X67565368Y-133540500D01*
X67565388Y-132751088D01*
X66975497Y-132751088D01*
X66975497Y-132854639D01*
X66952967Y-132951789D01*
X66876647Y-133068822D01*
X66867067Y-133079522D01*
X66826151Y-133121720D01*
X66783936Y-133150887D01*
X66726824Y-133170412D01*
X66641218Y-133183684D01*
X66513520Y-133194091D01*
X66330130Y-133205023D01*
X66284316Y-133207581D01*
X66067405Y-133218663D01*
X65815720Y-133230276D01*
X65556903Y-133241185D01*
X65318598Y-133250157D01*
X64754732Y-133269723D01*
X64754732Y-133188367D01*
X64755291Y-133168189D01*
X64764241Y-133138559D01*
X64793782Y-133118851D01*
X64856093Y-133105715D01*
X64963356Y-133095799D01*
X65127751Y-133085752D01*
X65195515Y-133082048D01*
X65388227Y-133072480D01*
X65617031Y-133062090D01*
X65858863Y-133051901D01*
X66090661Y-133042940D01*
X66324137Y-133033726D01*
X66511954Y-133022273D01*
X66647177Y-133005062D01*
X66738430Y-132978005D01*
X66794337Y-132937014D01*
X66823523Y-132878002D01*
X66834611Y-132796881D01*
X66836225Y-132689564D01*
X66832045Y-132525531D01*
X66817092Y-132398970D01*
X66789143Y-132322412D01*
X66745974Y-132285921D01*
X66722662Y-132283561D01*
X66636810Y-132282221D01*
X66498551Y-132283157D01*
X66317965Y-132286087D01*
X66105129Y-132290728D01*
X65870121Y-132296797D01*
X65623020Y-132304010D01*
X65373902Y-132312086D01*
X65132845Y-132320740D01*
X64909929Y-132329689D01*
X64715230Y-132338652D01*
X64558827Y-132347344D01*
X64453531Y-132352299D01*
X64378005Y-132347281D01*
X64336556Y-132325945D01*
X64310314Y-132283438D01*
X64275055Y-132206054D01*
X64870563Y-132183899D01*
X64902344Y-132182716D01*
X65309329Y-132167593D01*
X65653005Y-132155011D01*
X65939015Y-132144974D01*
X66172998Y-132137488D01*
X66360595Y-132132558D01*
X66507446Y-132130190D01*
X66619192Y-132130389D01*
X66701474Y-132133160D01*
X66759931Y-132138509D01*
X66800205Y-132146441D01*
X66827935Y-132156962D01*
X66848763Y-132170076D01*
X66868328Y-132185789D01*
X66929799Y-132262030D01*
X66972426Y-132407216D01*
X66992847Y-132560241D01*
X67279117Y-132570319D01*
X67565388Y-132580397D01*
X67565496Y-128882099D01*
X66793379Y-128903966D01*
X66684683Y-128907083D01*
X66471462Y-128913439D01*
X66287651Y-128919241D01*
X66143241Y-128924155D01*
X66048223Y-128927849D01*
X66012587Y-128929990D01*
X66011496Y-128932676D01*
X66007636Y-128981474D01*
X66004931Y-129078502D01*
X66003912Y-129206852D01*
X66003912Y-129479557D01*
X66290183Y-129497949D01*
X66399269Y-129506587D01*
X66566235Y-129531767D01*
X66686534Y-129573214D01*
X66774940Y-129637081D01*
X66846226Y-129729519D01*
X66875839Y-129782176D01*
X66897309Y-129839380D01*
X66911181Y-129912714D01*
X66919078Y-130015493D01*
X66922626Y-130161033D01*
X66923448Y-130362648D01*
X66923404Y-130441432D01*
X66922295Y-130618021D01*
X66918368Y-130742066D01*
X66909891Y-130825961D01*
X66895130Y-130882099D01*
X66872352Y-130922875D01*
X66839824Y-130960682D01*
X66825689Y-130975278D01*
X66779011Y-131014312D01*
X66721726Y-131042748D01*
X66642078Y-131062913D01*
X66528309Y-131077138D01*
X66368664Y-131087752D01*
X66151385Y-131097085D01*
X65761016Y-131111869D01*
X65761016Y-130927673D01*
X65776620Y-130788010D01*
X65829553Y-130681407D01*
X65927602Y-130604366D01*
X66078551Y-130550811D01*
X66290183Y-130514667D01*
X66489705Y-130490630D01*
X66489705Y-129964605D01*
X65995237Y-129986875D01*
X65954179Y-129988717D01*
X65719947Y-129999030D01*
X65452387Y-130010561D01*
X65181404Y-130022031D01*
X64936904Y-130032160D01*
X64373038Y-130055173D01*
X64373038Y-130622134D01*
X64652931Y-130659087D01*
X64793066Y-130682033D01*
X64941648Y-130726306D01*
X65036600Y-130790223D01*
X65086950Y-130880741D01*
X65101726Y-131004814D01*
X65101726Y-131154913D01*
X64621024Y-131154913D01*
X64599995Y-131154934D01*
X64401555Y-131156928D01*
X64209677Y-131161709D01*
X64045304Y-131168609D01*
X63929382Y-131176961D01*
X63718442Y-131199008D01*
X63646826Y-131081537D01*
X63611492Y-131011035D01*
X63589231Y-130926444D01*
X63578137Y-130810715D01*
X63575080Y-130644804D01*
X63575093Y-130630634D01*
X63586074Y-130346939D01*
X63621967Y-130121449D01*
X63689257Y-129945756D01*
X63794431Y-129811454D01*
X63943975Y-129710136D01*
X64144374Y-129633395D01*
X64402115Y-129572823D01*
X64422824Y-129568864D01*
X64543769Y-129546132D01*
X64632490Y-129530105D01*
X64671036Y-129524039D01*
X64673671Y-129518981D01*
X64679635Y-129464328D01*
X64683780Y-129362388D01*
X64685333Y-129229093D01*
X64685333Y-128934148D01*
X64416412Y-128934254D01*
X64349113Y-128934752D01*
X64189177Y-128937632D01*
X63989863Y-128942644D01*
X63770128Y-128949287D01*
X63548926Y-128957066D01*
X62950360Y-128979771D01*
X62950360Y-131675405D01*
X62776863Y-131675405D01*
X62776863Y-128839327D01*
X63358079Y-128816771D01*
X63431112Y-128813910D01*
X63682131Y-128803775D01*
X63945224Y-128792771D01*
X64193248Y-128782047D01*
X64399062Y-128772750D01*
X64858830Y-128751286D01*
X64858830Y-129659692D01*
X64746057Y-129675861D01*
X64629773Y-129693002D01*
X64363503Y-129738762D01*
X64156469Y-129789585D01*
X64001355Y-129852006D01*
X63890843Y-129932557D01*
X63817619Y-130037774D01*
X63774365Y-130174190D01*
X63753764Y-130348340D01*
X63748502Y-130566757D01*
X63750753Y-130714979D01*
X63757733Y-130854198D01*
X63768314Y-130954440D01*
X63781346Y-131000500D01*
X63799606Y-131006432D01*
X63877255Y-131013234D01*
X64001212Y-131016317D01*
X64157049Y-131016085D01*
X64330336Y-131012941D01*
X64506645Y-131007289D01*
X64671547Y-130999534D01*
X64810613Y-130990079D01*
X64909416Y-130979329D01*
X64953525Y-130967686D01*
X64954550Y-130939812D01*
X64918300Y-130887217D01*
X64900572Y-130872926D01*
X64831989Y-130845320D01*
X64718270Y-130826601D01*
X64547346Y-130814399D01*
X64234240Y-130799430D01*
X64234240Y-129905733D01*
X64347013Y-129905638D01*
X64358956Y-129905532D01*
X64448516Y-129903103D01*
X64592713Y-129897859D01*
X64779688Y-129890334D01*
X64997583Y-129881058D01*
X65234539Y-129870565D01*
X65478697Y-129859386D01*
X65718199Y-129848054D01*
X65941186Y-129837100D01*
X66135800Y-129827056D01*
X66290183Y-129818455D01*
X66628502Y-129798457D01*
X66628502Y-130669121D01*
X66394281Y-130669175D01*
X66212143Y-130681882D01*
X66056037Y-130722364D01*
X65951158Y-130787406D01*
X65905412Y-130873702D01*
X65893661Y-130956836D01*
X66281857Y-130938436D01*
X66301977Y-130937489D01*
X66484749Y-130927671D01*
X66614383Y-130911150D01*
X66699996Y-130877481D01*
X66750703Y-130816215D01*
X66775621Y-130716908D01*
X66783866Y-130569112D01*
X66784553Y-130362381D01*
X66784541Y-130348637D01*
X66779148Y-130111696D01*
X66759048Y-129934860D01*
X66717064Y-129809640D01*
X66646019Y-129727543D01*
X66538737Y-129680079D01*
X66388039Y-129658755D01*
X66186750Y-129655079D01*
X65865114Y-129658336D01*
X65865114Y-128760651D01*
X66275991Y-128760651D01*
X66295435Y-128760627D01*
X66496295Y-128758552D01*
X66734976Y-128753612D01*
X66983246Y-128746494D01*
X67212876Y-128737883D01*
X67738885Y-128715116D01*
X67738885Y-134495494D01*
G37*
G36*
X65612012Y-141110493D02*
G01*
X65342504Y-141221729D01*
X65120070Y-141314138D01*
X64940213Y-141389595D01*
X64798435Y-141449982D01*
X64690238Y-141497175D01*
X64611123Y-141533053D01*
X64556592Y-141559495D01*
X64542403Y-141566722D01*
X64438328Y-141615335D01*
X64375926Y-141627809D01*
X64338480Y-141602740D01*
X64309270Y-141538724D01*
X64307311Y-141533132D01*
X64284598Y-141422215D01*
X64273286Y-141277995D01*
X64274618Y-141133547D01*
X64289839Y-141021947D01*
X64306587Y-140981808D01*
X64349508Y-140959141D01*
X64436838Y-140963192D01*
X64467731Y-140965178D01*
X64576357Y-140953437D01*
X64726518Y-140914451D01*
X64928229Y-140845826D01*
X65292573Y-140712857D01*
X65301951Y-140090022D01*
X65587519Y-140090022D01*
X65588118Y-140279080D01*
X65590747Y-140431709D01*
X65596330Y-140532426D01*
X65605790Y-140590435D01*
X65620044Y-140614940D01*
X65640015Y-140615144D01*
X65640136Y-140615097D01*
X65688032Y-140595694D01*
X65788879Y-140554172D01*
X65931657Y-140495094D01*
X66105340Y-140423020D01*
X66298905Y-140342511D01*
X66390629Y-140304288D01*
X66578248Y-140225330D01*
X66713658Y-140165849D01*
X66805379Y-140120826D01*
X66861925Y-140085241D01*
X66891816Y-140054074D01*
X66903568Y-140022307D01*
X66905699Y-139984920D01*
X66906098Y-139879817D01*
X66290183Y-139728170D01*
X66104888Y-139682312D01*
X65925766Y-139637480D01*
X65779344Y-139600297D01*
X65677196Y-139573703D01*
X65630893Y-139560640D01*
X65628827Y-139560046D01*
X65612292Y-139573023D01*
X65600517Y-139624891D01*
X65592880Y-139723269D01*
X65588755Y-139875774D01*
X65587519Y-140090022D01*
X65301951Y-140090022D01*
X65302009Y-140086194D01*
X65311444Y-139459531D01*
X65117601Y-139413029D01*
X65046087Y-139394890D01*
X64969923Y-139367822D01*
X64939739Y-139337537D01*
X64941403Y-139294531D01*
X64948359Y-139261661D01*
X64965265Y-139162748D01*
X64982219Y-139044807D01*
X64991766Y-138980254D01*
X65010729Y-138884092D01*
X65027915Y-138830632D01*
X65040183Y-138827738D01*
X65111969Y-138838641D01*
X65244199Y-138870488D01*
X65433434Y-138922267D01*
X65676234Y-138992967D01*
X65969159Y-139081574D01*
X66308771Y-139187076D01*
X66691630Y-139308461D01*
X67114295Y-139444717D01*
X67409240Y-139540501D01*
X67417967Y-139954059D01*
X67426695Y-140367618D01*
X66671929Y-140676101D01*
X66310245Y-140824020D01*
X65933093Y-140978549D01*
X65640015Y-141098986D01*
X65612012Y-141110493D01*
G37*
G36*
X65309923Y-143276998D02*
G01*
X65171131Y-143323886D01*
X64917024Y-143409320D01*
X64684706Y-143486908D01*
X64482960Y-143553746D01*
X64320567Y-143606932D01*
X64206308Y-143643564D01*
X64148966Y-143660739D01*
X64046343Y-143686352D01*
X64142901Y-143588460D01*
X64176401Y-143559687D01*
X64258208Y-143510162D01*
X64380763Y-143454713D01*
X64552878Y-143389520D01*
X64783366Y-143310760D01*
X65327273Y-143130951D01*
X64415455Y-143170895D01*
X64449155Y-142994607D01*
X65061711Y-142972932D01*
X65190629Y-142968291D01*
X65428214Y-142959397D01*
X65659964Y-142950337D01*
X65864705Y-142941948D01*
X66021262Y-142935064D01*
X66368256Y-142918871D01*
X65309923Y-143276998D01*
G37*
G36*
X58155763Y-141772292D02*
G01*
X58016594Y-141732933D01*
X57902289Y-141696451D01*
X57850654Y-141679971D01*
X57677882Y-141619475D01*
X57536062Y-141567549D01*
X57338984Y-141495745D01*
X57154118Y-141428743D01*
X57007914Y-141376150D01*
X56967500Y-141361495D01*
X56848122Y-141315460D01*
X56761368Y-141277832D01*
X56723766Y-141255621D01*
X56723265Y-141249077D01*
X56756054Y-141213101D01*
X56828029Y-141166989D01*
X56850949Y-141154101D01*
X56919688Y-141107059D01*
X56947355Y-141073493D01*
X56947309Y-141070481D01*
X56938680Y-141044210D01*
X56931774Y-141043273D01*
X56873430Y-141033620D01*
X56769407Y-141015740D01*
X56635917Y-140992408D01*
X56496796Y-140964075D01*
X56242146Y-140883507D01*
X56015253Y-140763979D01*
X55790102Y-140593212D01*
X55587083Y-140418495D01*
X55697307Y-140380071D01*
X55711152Y-140374955D01*
X55770045Y-140342772D01*
X55778877Y-140316278D01*
X55754078Y-140303128D01*
X55673334Y-140270096D01*
X55552769Y-140225333D01*
X55407639Y-140174659D01*
X55389065Y-140168236D01*
X61147534Y-140168236D01*
X61167909Y-140322017D01*
X61211421Y-140439794D01*
X61288891Y-140528980D01*
X61440327Y-140619822D01*
X61640456Y-140677370D01*
X61694695Y-140685485D01*
X61754737Y-140679836D01*
X61765869Y-140636477D01*
X61736738Y-140543374D01*
X61730420Y-140527981D01*
X61682420Y-140469977D01*
X61596363Y-140454367D01*
X61531944Y-140446740D01*
X61420849Y-140387819D01*
X61346561Y-140280602D01*
X61319486Y-140137017D01*
X61319652Y-140098843D01*
X61323828Y-140032122D01*
X61338263Y-140021563D01*
X61369057Y-140057366D01*
X61391131Y-140085961D01*
X61419689Y-140103723D01*
X61441128Y-140066709D01*
X61447537Y-140021796D01*
X61427880Y-139941902D01*
X61410525Y-139894149D01*
X61431207Y-139836033D01*
X61452309Y-139785547D01*
X61428375Y-139704985D01*
X61397834Y-139645564D01*
X61367458Y-139635935D01*
X61314725Y-139677937D01*
X61301621Y-139692516D01*
X61256050Y-139743215D01*
X61194485Y-139836646D01*
X61179535Y-139871517D01*
X61151132Y-140008165D01*
X61147534Y-140168236D01*
X55389065Y-140168236D01*
X55290189Y-140134043D01*
X55182086Y-140092995D01*
X55126244Y-140064243D01*
X55114507Y-140043266D01*
X55138718Y-140025538D01*
X55184270Y-139996163D01*
X55212382Y-139950682D01*
X55203666Y-139926789D01*
X55143546Y-139862415D01*
X55033709Y-139776827D01*
X54882904Y-139675012D01*
X54699879Y-139561953D01*
X54493382Y-139442634D01*
X54411885Y-139398208D01*
X54272161Y-139322040D01*
X54044964Y-139205155D01*
X53994099Y-139180634D01*
X53820538Y-139096963D01*
X53607632Y-139002449D01*
X53414994Y-138926596D01*
X53358184Y-138905441D01*
X53336858Y-138895941D01*
X54969486Y-138895941D01*
X54970765Y-138904264D01*
X55005701Y-138927591D01*
X55018302Y-138929018D01*
X55094789Y-138950314D01*
X55217619Y-138993169D01*
X55373904Y-139052472D01*
X55550757Y-139123112D01*
X55735291Y-139199980D01*
X55914618Y-139277963D01*
X56075851Y-139351953D01*
X56200485Y-139409392D01*
X56382330Y-139482973D01*
X56537817Y-139529200D01*
X56687109Y-139554761D01*
X56701756Y-139556491D01*
X56863097Y-139580162D01*
X57050005Y-139613604D01*
X57224950Y-139650159D01*
X57262855Y-139658781D01*
X57418088Y-139692782D01*
X57558882Y-139721789D01*
X57658694Y-139740287D01*
X57676130Y-139743133D01*
X57792710Y-139763059D01*
X57888585Y-139780720D01*
X57902289Y-139783089D01*
X57961241Y-139778997D01*
X57962814Y-139777870D01*
X58478993Y-139777870D01*
X58493562Y-139791349D01*
X58531594Y-139793566D01*
X58566383Y-139792680D01*
X58773364Y-139767016D01*
X58933062Y-139703893D01*
X59057864Y-139598725D01*
X59174212Y-139465432D01*
X59081120Y-139630255D01*
X59045535Y-139699130D01*
X59019553Y-139768294D01*
X59024047Y-139795077D01*
X59031025Y-139793232D01*
X59083127Y-139759634D01*
X59166691Y-139692507D01*
X59267244Y-139603267D01*
X59358920Y-139520656D01*
X59424429Y-139469413D01*
X59454081Y-139460681D01*
X59454459Y-139490493D01*
X59450164Y-139504880D01*
X59411214Y-139592306D01*
X59354276Y-139689006D01*
X59335302Y-139718504D01*
X59297704Y-139788997D01*
X59290644Y-139825070D01*
X59298366Y-139827814D01*
X59346964Y-139806365D01*
X59421549Y-139749881D01*
X59507390Y-139671487D01*
X59589755Y-139584306D01*
X59653912Y-139501461D01*
X59703485Y-139436082D01*
X59741258Y-139412205D01*
X59753313Y-139442146D01*
X59737789Y-139519404D01*
X59692828Y-139637480D01*
X59669525Y-139695039D01*
X59648968Y-139766969D01*
X59654196Y-139795077D01*
X59659938Y-139793659D01*
X59702950Y-139755302D01*
X59764239Y-139677869D01*
X59831443Y-139579246D01*
X59892200Y-139477322D01*
X59934149Y-139389984D01*
X59971768Y-139291935D01*
X60023518Y-139389979D01*
X60028564Y-139399763D01*
X60057067Y-139493965D01*
X60037931Y-139595127D01*
X60035451Y-139602347D01*
X60014642Y-139677021D01*
X60012920Y-139714558D01*
X60032911Y-139702250D01*
X60092046Y-139648957D01*
X60179925Y-139562825D01*
X60286369Y-139453570D01*
X60454130Y-139262278D01*
X60562541Y-139098990D01*
X60611344Y-138960315D01*
X60601187Y-138841911D01*
X60532719Y-138739438D01*
X60406588Y-138648553D01*
X60364964Y-138621979D01*
X60259593Y-138540568D01*
X60136137Y-138432437D01*
X60013469Y-138313664D01*
X59765785Y-138060104D01*
X59315620Y-138060104D01*
X59300252Y-138352914D01*
X59290028Y-138492402D01*
X59267645Y-138627581D01*
X59226419Y-138753386D01*
X59157781Y-138902896D01*
X59065693Y-139064966D01*
X58923049Y-139260438D01*
X58731795Y-139477573D01*
X58626967Y-139589518D01*
X58540605Y-139684989D01*
X58492978Y-139745095D01*
X58478993Y-139777870D01*
X57962814Y-139777870D01*
X58016892Y-139739131D01*
X58088107Y-139651249D01*
X58128668Y-139594060D01*
X58177487Y-139517573D01*
X58196535Y-139475946D01*
X58171268Y-139448464D01*
X58108174Y-139451490D01*
X58029009Y-139480727D01*
X57955538Y-139531186D01*
X57866890Y-139614289D01*
X57485196Y-139531893D01*
X57380770Y-139510058D01*
X57175652Y-139470189D01*
X56975147Y-139434460D01*
X56810753Y-139408629D01*
X56668782Y-139384169D01*
X56510865Y-139342338D01*
X56340375Y-139279119D01*
X56134114Y-139186910D01*
X56032141Y-139139327D01*
X55753368Y-139015420D01*
X55526369Y-138925571D01*
X55345654Y-138867949D01*
X55205733Y-138840721D01*
X55101117Y-138842053D01*
X55075879Y-138846904D01*
X55000020Y-138870571D01*
X54969486Y-138895941D01*
X53336858Y-138895941D01*
X53263417Y-138863225D01*
X53220820Y-138827922D01*
X53219740Y-138792201D01*
X53252320Y-138713967D01*
X53287850Y-138619749D01*
X53288565Y-138616123D01*
X54067300Y-138616123D01*
X54067707Y-138650230D01*
X54077074Y-138736856D01*
X54106327Y-138796565D01*
X54165313Y-138833523D01*
X54263883Y-138851898D01*
X54411885Y-138855854D01*
X54619170Y-138849559D01*
X54729633Y-138843963D01*
X54815786Y-138836106D01*
X57167149Y-138836106D01*
X57190736Y-138870067D01*
X57252175Y-138936395D01*
X57339884Y-139022459D01*
X57509466Y-139167737D01*
X57685797Y-139276965D01*
X57870194Y-139341682D01*
X58082735Y-139371317D01*
X58172997Y-139376841D01*
X58270865Y-139377640D01*
X58336078Y-139363257D01*
X58390930Y-139327265D01*
X58457716Y-139263240D01*
X58493853Y-139226198D01*
X58551033Y-139152619D01*
X58572742Y-139078722D01*
X58571517Y-138972472D01*
X58567059Y-138913455D01*
X58552925Y-138840517D01*
X58521379Y-138807432D01*
X58460185Y-138794654D01*
X58456339Y-138794275D01*
X58424526Y-138795498D01*
X58369378Y-138797618D01*
X58243105Y-138815196D01*
X58103457Y-138843461D01*
X58051105Y-138855440D01*
X57926716Y-138878420D01*
X57813359Y-138886723D01*
X57684575Y-138881218D01*
X57513909Y-138862769D01*
X57424767Y-138852334D01*
X57375924Y-138847425D01*
X57296171Y-138839409D01*
X57205259Y-138833072D01*
X57167587Y-138834589D01*
X57167149Y-138836106D01*
X54815786Y-138836106D01*
X54939287Y-138824843D01*
X55115186Y-138793574D01*
X55281781Y-138746348D01*
X55304354Y-138738822D01*
X55421362Y-138697581D01*
X55480444Y-138670184D01*
X55489212Y-138651871D01*
X55455278Y-138637883D01*
X55385176Y-138622317D01*
X55258300Y-138598138D01*
X55097509Y-138569991D01*
X54915590Y-138539853D01*
X54725331Y-138509698D01*
X54539517Y-138481505D01*
X54370937Y-138457249D01*
X54299240Y-138447758D01*
X54232378Y-138438907D01*
X54136625Y-138428455D01*
X54096466Y-138427868D01*
X54086676Y-138443845D01*
X54072764Y-138513847D01*
X54067300Y-138616123D01*
X53288565Y-138616123D01*
X53299301Y-138561664D01*
X53288886Y-138522283D01*
X53258814Y-138484179D01*
X53218034Y-138425183D01*
X53205667Y-138327673D01*
X53256650Y-138213817D01*
X53270853Y-138191448D01*
X53294550Y-138136235D01*
X53289793Y-138076230D01*
X53284096Y-138060104D01*
X53997901Y-138060104D01*
X53997901Y-138180331D01*
X54008140Y-138260718D01*
X54054918Y-138327130D01*
X54148662Y-138361888D01*
X54299240Y-138371245D01*
X54443052Y-138354412D01*
X54550941Y-138299676D01*
X54635539Y-138229262D01*
X54533592Y-138145931D01*
X54518907Y-138134298D01*
X54443223Y-138089829D01*
X54350476Y-138067804D01*
X54214773Y-138061352D01*
X53997901Y-138060104D01*
X53284096Y-138060104D01*
X53271839Y-138025405D01*
X53994099Y-138025405D01*
X54171298Y-138025405D01*
X54280847Y-138013200D01*
X54400601Y-137981406D01*
X54510418Y-137937781D01*
X54590794Y-137890081D01*
X54609194Y-137864311D01*
X55678074Y-137864311D01*
X55706830Y-137911292D01*
X55774775Y-137965652D01*
X55863167Y-138014190D01*
X55953266Y-138043705D01*
X55962449Y-138045378D01*
X56047886Y-138060428D01*
X56182142Y-138083628D01*
X56348680Y-138112131D01*
X56530961Y-138143093D01*
X56532510Y-138143355D01*
X56720778Y-138176001D01*
X56852996Y-138202138D01*
X56941588Y-138225981D01*
X56998978Y-138251743D01*
X57037588Y-138283638D01*
X57069844Y-138325881D01*
X57136423Y-138418851D01*
X57216742Y-138521684D01*
X57291178Y-138608979D01*
X57348112Y-138667188D01*
X57375924Y-138682762D01*
X57372584Y-138646589D01*
X57363185Y-138604332D01*
X57980785Y-138604332D01*
X57990134Y-138630516D01*
X58033502Y-138646136D01*
X58255633Y-138717525D01*
X58424526Y-138752807D01*
X58545911Y-138751012D01*
X58625518Y-138711172D01*
X58669080Y-138632317D01*
X58682328Y-138513478D01*
X58682328Y-138407099D01*
X58477580Y-138407239D01*
X58465456Y-138407247D01*
X58423168Y-138407635D01*
X58297678Y-138417870D01*
X58199060Y-138448877D01*
X58094232Y-138509795D01*
X58032628Y-138553351D01*
X57980785Y-138604332D01*
X57363185Y-138604332D01*
X57352700Y-138557195D01*
X57319478Y-138428298D01*
X57276234Y-138273510D01*
X57229352Y-138111241D01*
X58057737Y-138111241D01*
X58057915Y-138111893D01*
X58090015Y-138131752D01*
X58160685Y-138163726D01*
X58243804Y-138207169D01*
X58303732Y-138254684D01*
X58311405Y-138262049D01*
X58380406Y-138291191D01*
X58477580Y-138303000D01*
X58528256Y-138301020D01*
X58611164Y-138276400D01*
X58670789Y-138212253D01*
X58700660Y-138161726D01*
X58710725Y-138102595D01*
X58679173Y-138030081D01*
X58618723Y-137963043D01*
X58595852Y-137955259D01*
X60833694Y-137955259D01*
X60833957Y-138145027D01*
X60835662Y-138308288D01*
X60840096Y-138422077D01*
X60848543Y-138497066D01*
X60862289Y-138543930D01*
X60882617Y-138573343D01*
X60910813Y-138595978D01*
X60967946Y-138632106D01*
X61009442Y-138649995D01*
X61018163Y-138639492D01*
X61045590Y-138576927D01*
X61083887Y-138470556D01*
X61127615Y-138334878D01*
X61135474Y-138308840D01*
X61192459Y-138065439D01*
X61204821Y-137856133D01*
X61171836Y-137662955D01*
X61092784Y-137467933D01*
X61076404Y-137435664D01*
X61028511Y-137347400D01*
X60993212Y-137307807D01*
X60955612Y-137306385D01*
X60900811Y-137332637D01*
X60885780Y-137341950D01*
X60865232Y-137365240D01*
X60850913Y-137406347D01*
X60841711Y-137475587D01*
X60836516Y-137583275D01*
X60834214Y-137739727D01*
X60833694Y-137955259D01*
X58595852Y-137955259D01*
X58534591Y-137934409D01*
X58509062Y-137925720D01*
X58371120Y-137940996D01*
X58214864Y-138009316D01*
X58154673Y-138045345D01*
X58084914Y-138089798D01*
X58057737Y-138111241D01*
X57229352Y-138111241D01*
X57162450Y-137879676D01*
X57216556Y-137690382D01*
X58092472Y-137690382D01*
X58110955Y-137710540D01*
X58177510Y-137749923D01*
X58273430Y-137796222D01*
X58378436Y-137840435D01*
X58472250Y-137873564D01*
X58534591Y-137886607D01*
X58642654Y-137862192D01*
X58719762Y-137791116D01*
X58747196Y-137689102D01*
X58715806Y-137572031D01*
X58706924Y-137558375D01*
X58632580Y-137513159D01*
X58519936Y-137504724D01*
X58447262Y-137519619D01*
X58385577Y-137532261D01*
X58246088Y-137594959D01*
X58188882Y-137628874D01*
X58119526Y-137671477D01*
X58092472Y-137690382D01*
X57216556Y-137690382D01*
X57259551Y-137539959D01*
X57286736Y-137445154D01*
X57327860Y-137302902D01*
X57352730Y-137217948D01*
X57917637Y-137217948D01*
X57964247Y-137227317D01*
X57977101Y-137229447D01*
X58043210Y-137259604D01*
X58127136Y-137314066D01*
X58210842Y-137365048D01*
X58310127Y-137393248D01*
X58447262Y-137400815D01*
X58475979Y-137400638D01*
X58596107Y-137390714D01*
X58660642Y-137357378D01*
X58680656Y-137289264D01*
X58667218Y-137175007D01*
X58656096Y-137122406D01*
X58631963Y-137075057D01*
X58580722Y-137056598D01*
X58481233Y-137053182D01*
X58408596Y-137057130D01*
X58339549Y-137067427D01*
X58261550Y-137079059D01*
X58118758Y-137113906D01*
X58107879Y-137117295D01*
X57996245Y-137157952D01*
X57930567Y-137193164D01*
X57917637Y-137217948D01*
X57352730Y-137217948D01*
X57360691Y-137190752D01*
X57379888Y-137127031D01*
X57385226Y-137108897D01*
X57388286Y-137060855D01*
X57357966Y-137069548D01*
X57296869Y-137133121D01*
X57207601Y-137249720D01*
X57190951Y-137272820D01*
X57091026Y-137407297D01*
X57016606Y-137494959D01*
X56956513Y-137545537D01*
X56899564Y-137568760D01*
X56834582Y-137574359D01*
X56788425Y-137576022D01*
X56639797Y-137592101D01*
X56456062Y-137621819D01*
X56259438Y-137660920D01*
X56072146Y-137705147D01*
X55916405Y-137750244D01*
X55807971Y-137789299D01*
X55720916Y-137826635D01*
X55680871Y-137851833D01*
X55678074Y-137864311D01*
X54609194Y-137864311D01*
X54622224Y-137846063D01*
X54619313Y-137839102D01*
X54577764Y-137800429D01*
X54502601Y-137748772D01*
X54450120Y-137720047D01*
X54340471Y-137687904D01*
X54207503Y-137685380D01*
X54198981Y-137685218D01*
X54015251Y-137695760D01*
X54004675Y-137860582D01*
X53994099Y-138025405D01*
X53271839Y-138025405D01*
X53256570Y-137982183D01*
X53242362Y-137945145D01*
X53218594Y-137860506D01*
X53223367Y-137787199D01*
X53256695Y-137687937D01*
X53276401Y-137635012D01*
X53295709Y-137563022D01*
X53291700Y-137541580D01*
X53997901Y-137541580D01*
X53997947Y-137558017D01*
X54003296Y-137607423D01*
X54029136Y-137632879D01*
X54091771Y-137642327D01*
X54207503Y-137643711D01*
X54326096Y-137638871D01*
X54433421Y-137615780D01*
X54519750Y-137567822D01*
X54622395Y-137491933D01*
X54546996Y-137411675D01*
X54545156Y-137409751D01*
X54449584Y-137353921D01*
X54320597Y-137330214D01*
X54186356Y-137340196D01*
X54128024Y-137363897D01*
X54075021Y-137385433D01*
X54027944Y-137433847D01*
X53997901Y-137541580D01*
X53291700Y-137541580D01*
X53286878Y-137515785D01*
X53248991Y-137467040D01*
X53245715Y-137463412D01*
X53206829Y-137411614D01*
X53206581Y-137364869D01*
X53244080Y-137291246D01*
X53291233Y-137175492D01*
X53293596Y-137130700D01*
X54067300Y-137130700D01*
X54067306Y-137136147D01*
X54072277Y-137235931D01*
X54090543Y-137283273D01*
X54128024Y-137294106D01*
X54130723Y-137293934D01*
X54189724Y-137286433D01*
X54304263Y-137269433D01*
X54462767Y-137244734D01*
X54653666Y-137214135D01*
X54865388Y-137179436D01*
X55542027Y-137067376D01*
X55430974Y-137008547D01*
X55412425Y-136999125D01*
X55382626Y-136987880D01*
X57138202Y-136987880D01*
X57259650Y-136969195D01*
X57390250Y-136950689D01*
X57678018Y-136924710D01*
X57906241Y-136928619D01*
X58077123Y-136962397D01*
X58191030Y-136994452D01*
X58339549Y-137016067D01*
X58460746Y-137010607D01*
X58536590Y-136977481D01*
X58577116Y-136896056D01*
X58575102Y-136784237D01*
X58534257Y-136664313D01*
X58461308Y-136555655D01*
X58362982Y-136477633D01*
X58227359Y-136439478D01*
X58055413Y-136438933D01*
X57869560Y-136474408D01*
X57691222Y-136543792D01*
X57584962Y-136608170D01*
X57451855Y-136705348D01*
X57329049Y-136809647D01*
X57138202Y-136987880D01*
X55382626Y-136987880D01*
X55255447Y-136939887D01*
X55177292Y-136921052D01*
X55063466Y-136893621D01*
X54853326Y-136861708D01*
X54641872Y-136845525D01*
X54445949Y-136846452D01*
X54282403Y-136865869D01*
X54168078Y-136905154D01*
X54150435Y-136915904D01*
X54096495Y-136961826D01*
X54072660Y-137024748D01*
X54067300Y-137130700D01*
X53293596Y-137130700D01*
X53297895Y-137049210D01*
X53251895Y-136949757D01*
X53242824Y-136938828D01*
X53234089Y-136913410D01*
X53253553Y-136887027D01*
X53310388Y-136853767D01*
X53413768Y-136807722D01*
X53506205Y-136770108D01*
X54990712Y-136770108D01*
X55014216Y-136807778D01*
X55090854Y-136845597D01*
X55109394Y-136851426D01*
X55177292Y-136864739D01*
X55251948Y-136860867D01*
X55352702Y-136837235D01*
X55498892Y-136791270D01*
X55584080Y-136761954D01*
X55765742Y-136695062D01*
X55963776Y-136617982D01*
X56148292Y-136542179D01*
X56295938Y-136481932D01*
X56473158Y-136420785D01*
X56634972Y-136382107D01*
X56807582Y-136358601D01*
X56905110Y-136347796D01*
X57095935Y-136322752D01*
X57305221Y-136291749D01*
X57502546Y-136259140D01*
X57901590Y-136188759D01*
X57988338Y-136291286D01*
X58014188Y-136320153D01*
X58083836Y-136371564D01*
X58153161Y-136372775D01*
X58158944Y-136371216D01*
X58209960Y-136354105D01*
X58224159Y-136329321D01*
X58200017Y-136280854D01*
X58136009Y-136192693D01*
X58122173Y-136173889D01*
X58108848Y-136155532D01*
X58475839Y-136155532D01*
X58476370Y-136156750D01*
X58504661Y-136192357D01*
X58569601Y-136267763D01*
X58662347Y-136372832D01*
X58774057Y-136497427D01*
X58890039Y-136631920D01*
X59008133Y-136780922D01*
X59105457Y-136916167D01*
X59168330Y-137019536D01*
X59173826Y-137030584D01*
X59261103Y-137257494D01*
X59320003Y-137511285D01*
X59341617Y-137754182D01*
X59341617Y-137886607D01*
X59551770Y-137886607D01*
X59592403Y-137886461D01*
X59676030Y-137882127D01*
X59743848Y-137865516D01*
X59807844Y-137828369D01*
X59880003Y-137762428D01*
X59972313Y-137659436D01*
X60096759Y-137511135D01*
X60145056Y-137458481D01*
X60256305Y-137360336D01*
X60362766Y-137290221D01*
X60397303Y-137272238D01*
X60495987Y-137214657D01*
X60564773Y-137165847D01*
X60575011Y-137155850D01*
X60618369Y-137062521D01*
X60616225Y-136937897D01*
X60568394Y-136800526D01*
X60523477Y-136723083D01*
X60442751Y-136605019D01*
X60345800Y-136477909D01*
X60242092Y-136352644D01*
X60141093Y-136240116D01*
X60052268Y-136151217D01*
X59985084Y-136096837D01*
X59949007Y-136087869D01*
X59946039Y-136101246D01*
X59956538Y-136165122D01*
X59985079Y-136258995D01*
X60017569Y-136392364D01*
X60017399Y-136530931D01*
X59995407Y-136649982D01*
X59934123Y-136513582D01*
X59928987Y-136502485D01*
X59878440Y-136411108D01*
X59814744Y-136315407D01*
X59750071Y-136231366D01*
X59696595Y-136174966D01*
X59666489Y-136162191D01*
X59664850Y-136168642D01*
X59676367Y-136221484D01*
X59707394Y-136305859D01*
X59733845Y-136376477D01*
X59753735Y-136462825D01*
X59745854Y-136503538D01*
X59713212Y-136491555D01*
X59658819Y-136419812D01*
X59594176Y-136333082D01*
X59512334Y-136247164D01*
X59428941Y-136175766D01*
X59359215Y-136131907D01*
X59318378Y-136128607D01*
X59313000Y-136146819D01*
X59335930Y-136196831D01*
X59344894Y-136209038D01*
X59386331Y-136282648D01*
X59430759Y-136379842D01*
X59486685Y-136515979D01*
X59336077Y-136372559D01*
X59302810Y-136341638D01*
X59201697Y-136256405D01*
X59114172Y-136194400D01*
X59052594Y-136163691D01*
X59029322Y-136172342D01*
X59031283Y-136181093D01*
X59056552Y-136237669D01*
X59101655Y-136321036D01*
X59173988Y-136446580D01*
X59092980Y-136355610D01*
X59047382Y-136308096D01*
X58951283Y-136236826D01*
X58832828Y-136192611D01*
X58668627Y-136164939D01*
X58585872Y-136156485D01*
X58506028Y-136151913D01*
X58475839Y-136155532D01*
X58108848Y-136155532D01*
X58079088Y-136114533D01*
X58041928Y-136072148D01*
X58000034Y-136045712D01*
X57942743Y-136034201D01*
X57859396Y-136036594D01*
X57739330Y-136051869D01*
X57571884Y-136079003D01*
X57346399Y-136116973D01*
X57239394Y-136134152D01*
X57041829Y-136163154D01*
X56853708Y-136187826D01*
X56704459Y-136204169D01*
X56697633Y-136204798D01*
X56517408Y-136232005D01*
X56338501Y-136283329D01*
X56132080Y-136366972D01*
X56102627Y-136379961D01*
X55942978Y-136446511D01*
X55763717Y-136516254D01*
X55578826Y-136584296D01*
X55402285Y-136645739D01*
X55248074Y-136695690D01*
X55130173Y-136729250D01*
X55062563Y-136741525D01*
X55023774Y-136745224D01*
X54990712Y-136770108D01*
X53506205Y-136770108D01*
X53572865Y-136742983D01*
X53602386Y-136731083D01*
X53814010Y-136641808D01*
X54042266Y-136539681D01*
X54239658Y-136447265D01*
X54592889Y-136447265D01*
X54594290Y-136451990D01*
X54638710Y-136460541D01*
X54724953Y-136463929D01*
X54808447Y-136454401D01*
X54954626Y-136425745D01*
X55157287Y-136379229D01*
X55411440Y-136316126D01*
X55712101Y-136237708D01*
X56054282Y-136145248D01*
X56432996Y-136040019D01*
X56843256Y-135923293D01*
X57039916Y-135866304D01*
X57275795Y-135795842D01*
X57458099Y-135737557D01*
X57594859Y-135688175D01*
X57694107Y-135644426D01*
X57763871Y-135603036D01*
X57812184Y-135560732D01*
X57847075Y-135514243D01*
X57879142Y-135467698D01*
X57951846Y-135378869D01*
X58035622Y-135289397D01*
X58116671Y-135212832D01*
X58181190Y-135162725D01*
X58215378Y-135152627D01*
X58225420Y-135178145D01*
X58241255Y-135257336D01*
X58255569Y-135367243D01*
X58275643Y-135561744D01*
X58886206Y-135561744D01*
X58905917Y-135561745D01*
X59121468Y-135562205D01*
X59281247Y-135564543D01*
X59397884Y-135570267D01*
X59484013Y-135580883D01*
X59552263Y-135597900D01*
X59615267Y-135622826D01*
X59685656Y-135657167D01*
X59701975Y-135665768D01*
X59827623Y-135747203D01*
X59977137Y-135863189D01*
X60134228Y-135999065D01*
X60282609Y-136140171D01*
X60405992Y-136271847D01*
X60488091Y-136379432D01*
X60504497Y-136404887D01*
X60555973Y-136471796D01*
X60590965Y-136498629D01*
X60599099Y-136496763D01*
X60652519Y-136465794D01*
X60726933Y-136408796D01*
X60783657Y-136352628D01*
X60825569Y-136268590D01*
X60824553Y-136162960D01*
X60783249Y-136017383D01*
X60777890Y-136001971D01*
X60752735Y-135906599D01*
X60753680Y-135858610D01*
X61077995Y-135858610D01*
X61116958Y-136039357D01*
X61217978Y-136224671D01*
X61247854Y-136264813D01*
X61301621Y-136315908D01*
X61342314Y-136306584D01*
X61382804Y-136237872D01*
X61394927Y-136208746D01*
X61400050Y-136144274D01*
X61353674Y-136081724D01*
X61343807Y-136071166D01*
X61298572Y-135983076D01*
X61284787Y-135850057D01*
X61285143Y-135794606D01*
X61289967Y-135730354D01*
X61304628Y-135720385D01*
X61334357Y-135754633D01*
X61359194Y-135786784D01*
X61386045Y-135801282D01*
X61407638Y-135760824D01*
X61413866Y-135721741D01*
X61389780Y-135649570D01*
X61375097Y-135629284D01*
X61367713Y-135575477D01*
X61422860Y-135536047D01*
X61543709Y-135508079D01*
X61638726Y-135487779D01*
X61697445Y-135451223D01*
X61731942Y-135384626D01*
X61750256Y-135322413D01*
X61738677Y-135290276D01*
X61680911Y-135284148D01*
X61536169Y-135309005D01*
X61373175Y-135385669D01*
X61228749Y-135500133D01*
X61125342Y-135638094D01*
X61102398Y-135690728D01*
X61077995Y-135858610D01*
X60753680Y-135858610D01*
X60754411Y-135821454D01*
X60782873Y-135709401D01*
X60794981Y-135665351D01*
X60822253Y-135526487D01*
X60833318Y-135403553D01*
X60833525Y-135382959D01*
X60843580Y-135282573D01*
X60877041Y-135213513D01*
X60945397Y-135167332D01*
X61060133Y-135135581D01*
X61232737Y-135109813D01*
X61278697Y-135104074D01*
X61451494Y-135081547D01*
X61570433Y-135062252D01*
X61647866Y-135042039D01*
X61696149Y-135016752D01*
X61727636Y-134982239D01*
X61754681Y-134934347D01*
X61768438Y-134905594D01*
X61799134Y-134772122D01*
X61767594Y-134661837D01*
X61677721Y-134578721D01*
X61533419Y-134526755D01*
X61338591Y-134509920D01*
X61248367Y-134514299D01*
X61055810Y-134555853D01*
X60881212Y-134647893D01*
X60706519Y-134798666D01*
X60645444Y-134855357D01*
X60561497Y-134910664D01*
X60506459Y-134914251D01*
X60486699Y-134864220D01*
X60507969Y-134824503D01*
X60565369Y-134750720D01*
X60646233Y-134659527D01*
X60731255Y-134575157D01*
X60918919Y-134437538D01*
X61120853Y-134358913D01*
X61351888Y-134332405D01*
X61449116Y-134334393D01*
X61562091Y-134350819D01*
X61671050Y-134389768D01*
X61795049Y-134458603D01*
X61953150Y-134564686D01*
X61994481Y-134584413D01*
X62039062Y-134568630D01*
X62100586Y-134503410D01*
X62186899Y-134399312D01*
X62168639Y-134902454D01*
X62167290Y-134939503D01*
X62155821Y-135223284D01*
X62141879Y-135449907D01*
X62121492Y-135630317D01*
X62090686Y-135775459D01*
X62045489Y-135896279D01*
X61981928Y-136003723D01*
X61896030Y-136108736D01*
X61783823Y-136222263D01*
X61641333Y-136355249D01*
X61337624Y-136634904D01*
X61519402Y-137183831D01*
X61575380Y-137355701D01*
X61642368Y-137580808D01*
X61684604Y-137767532D01*
X61702175Y-137931962D01*
X61695168Y-138090184D01*
X61663670Y-138258288D01*
X61607768Y-138452361D01*
X61527550Y-138688491D01*
X61485480Y-138809117D01*
X61431443Y-138970778D01*
X61398298Y-139084016D01*
X61383632Y-139159213D01*
X61385034Y-139206749D01*
X61400090Y-139237007D01*
X61424240Y-139265160D01*
X61490251Y-139341287D01*
X61586951Y-139452383D01*
X61705744Y-139588574D01*
X61838033Y-139739986D01*
X62229807Y-140188038D01*
X62215531Y-140719402D01*
X62201254Y-141250767D01*
X62503760Y-141551871D01*
X62806266Y-141852976D01*
X63025786Y-141792126D01*
X63116669Y-141765516D01*
X63279467Y-141704711D01*
X63390016Y-141636749D01*
X63460104Y-141553029D01*
X63501517Y-141444949D01*
X63532862Y-141297027D01*
X63537024Y-141192991D01*
X63510332Y-141126486D01*
X63450902Y-141084086D01*
X63413679Y-141068888D01*
X63343616Y-141061835D01*
X63307561Y-141108039D01*
X63297355Y-141214424D01*
X63281416Y-141321821D01*
X63214357Y-141417147D01*
X63089158Y-141478570D01*
X63023606Y-141503468D01*
X62937702Y-141549456D01*
X62859984Y-141578822D01*
X62787353Y-141546790D01*
X62719138Y-141447771D01*
X62703729Y-141420620D01*
X62631301Y-141321566D01*
X62543788Y-141227552D01*
X62423597Y-141115901D01*
X62448603Y-140544940D01*
X62473609Y-139973980D01*
X62301970Y-139789105D01*
X62205353Y-139681108D01*
X62079383Y-139532668D01*
X61968216Y-139394397D01*
X61806101Y-139184564D01*
X61907206Y-138943304D01*
X61996470Y-138694666D01*
X62077361Y-138342770D01*
X62109099Y-137992091D01*
X62090628Y-137657417D01*
X62020889Y-137353541D01*
X61954853Y-137157935D01*
X62172973Y-136991567D01*
X62353703Y-137465112D01*
X62372509Y-137514494D01*
X62441927Y-137698530D01*
X62505479Y-137869532D01*
X62556796Y-138010261D01*
X62589511Y-138103479D01*
X62610847Y-138161919D01*
X62646405Y-138238371D01*
X62672259Y-138268301D01*
X62702268Y-138241496D01*
X62742472Y-138157841D01*
X62793532Y-138014544D01*
X62856439Y-137808817D01*
X62932185Y-137537871D01*
X62946782Y-137484354D01*
X62992643Y-137320863D01*
X63032285Y-137186314D01*
X63061876Y-137093428D01*
X63077588Y-137054923D01*
X63081157Y-137061694D01*
X63085574Y-137121631D01*
X63087367Y-137233258D01*
X63086427Y-137385242D01*
X63082639Y-137566249D01*
X63080852Y-137640870D01*
X63079081Y-137825567D01*
X63081864Y-137967015D01*
X63088912Y-138056530D01*
X63099937Y-138085428D01*
X63105773Y-138079860D01*
X63136211Y-138024751D01*
X63183424Y-137920744D01*
X63242161Y-137779790D01*
X63307170Y-137613839D01*
X63320145Y-137579966D01*
X63389538Y-137407348D01*
X63445897Y-137282188D01*
X63486262Y-137210614D01*
X63507672Y-137198758D01*
X63510879Y-137205744D01*
X63533540Y-137269988D01*
X63569632Y-137383705D01*
X63614894Y-137533193D01*
X63665063Y-137704748D01*
X63682614Y-137764698D01*
X63730437Y-137917147D01*
X63772020Y-138034446D01*
X63803401Y-138105981D01*
X63820612Y-138121141D01*
X63821896Y-138118268D01*
X63838082Y-138062912D01*
X63865713Y-137952418D01*
X63902170Y-137797857D01*
X63944834Y-137610299D01*
X63991084Y-137400815D01*
X63998880Y-137365099D01*
X64044548Y-137160252D01*
X64086178Y-136980550D01*
X64121183Y-136836680D01*
X64146976Y-136739327D01*
X64160968Y-136699179D01*
X64163203Y-136698519D01*
X64186329Y-136731537D01*
X64225866Y-136816694D01*
X64276898Y-136942689D01*
X64334513Y-137098223D01*
X64360637Y-137171430D01*
X64473095Y-137481411D01*
X64571145Y-137742874D01*
X64653380Y-137952321D01*
X64718395Y-138106257D01*
X64764781Y-138201182D01*
X64791134Y-138233602D01*
X64808401Y-138206800D01*
X64806725Y-138138178D01*
X64806067Y-138133776D01*
X64798832Y-138066019D01*
X64787511Y-137940277D01*
X64772910Y-137766367D01*
X64755837Y-137554109D01*
X64737101Y-137313321D01*
X64717508Y-137053820D01*
X64704618Y-136883554D01*
X64682374Y-136608655D01*
X64662617Y-136394250D01*
X64644657Y-136234557D01*
X64627802Y-136123792D01*
X64611362Y-136056173D01*
X64594643Y-136025918D01*
X64592788Y-136024387D01*
X64547157Y-135972398D01*
X64476816Y-135877977D01*
X64392374Y-135756992D01*
X64304441Y-135625308D01*
X64223624Y-135498792D01*
X64160535Y-135393310D01*
X64125781Y-135324728D01*
X64090786Y-135269187D01*
X64025626Y-135224694D01*
X63985639Y-135203879D01*
X63955319Y-135149978D01*
X63943895Y-135109640D01*
X63905387Y-135017672D01*
X63846215Y-134892155D01*
X63773147Y-134748025D01*
X63592300Y-134402750D01*
X63314705Y-134290377D01*
X63107896Y-134217873D01*
X62916666Y-134181579D01*
X62752292Y-134190523D01*
X62699952Y-134209099D01*
X62601983Y-134243870D01*
X62550327Y-134269421D01*
X62493122Y-134288388D01*
X62469614Y-134268400D01*
X62474211Y-134200009D01*
X62501319Y-134073762D01*
X62510841Y-134029273D01*
X62523718Y-133946804D01*
X62522395Y-133907731D01*
X62516608Y-133907049D01*
X62463308Y-133922645D01*
X62368116Y-133959965D01*
X62246618Y-134013058D01*
X61984820Y-134132363D01*
X62051286Y-133939174D01*
X62079175Y-133852544D01*
X62100972Y-133769600D01*
X62103931Y-133732164D01*
X62085594Y-133735210D01*
X62016169Y-133762543D01*
X61908274Y-133811576D01*
X61775594Y-133876301D01*
X61461079Y-134034260D01*
X61451007Y-133748343D01*
X61440934Y-133462427D01*
X61290710Y-133670623D01*
X61140485Y-133878820D01*
X61164825Y-133583875D01*
X61189164Y-133288929D01*
X60839611Y-133630375D01*
X60737515Y-133729407D01*
X60623981Y-133835645D01*
X60542477Y-133904034D01*
X60483285Y-133941577D01*
X60436684Y-133955274D01*
X60392955Y-133952128D01*
X60323903Y-133940525D01*
X60205502Y-133923249D01*
X60055792Y-133902730D01*
X59891445Y-133881119D01*
X59729134Y-133860568D01*
X59585530Y-133843225D01*
X59477306Y-133831243D01*
X59421132Y-133826771D01*
X59396091Y-133837965D01*
X59376317Y-133891921D01*
X59376316Y-133892160D01*
X59358365Y-133967083D01*
X59299134Y-134011981D01*
X59190299Y-134029974D01*
X59023536Y-134024184D01*
X58958410Y-134018928D01*
X58852345Y-134014257D01*
X58785196Y-134023403D01*
X58736098Y-134051173D01*
X58684187Y-134102376D01*
X58629004Y-134153317D01*
X58563721Y-134187646D01*
X58470510Y-134209450D01*
X58328649Y-134225931D01*
X58191883Y-134241329D01*
X58106405Y-134259873D01*
X58057923Y-134286950D01*
X58030163Y-134328132D01*
X57988719Y-134384050D01*
X57875229Y-134459443D01*
X57707558Y-134522270D01*
X57494646Y-134568516D01*
X57375333Y-134592639D01*
X57291354Y-134620033D01*
X57259650Y-134645209D01*
X57259647Y-134645572D01*
X57239333Y-134699187D01*
X57191183Y-134771939D01*
X57156393Y-134808544D01*
X57092950Y-134846114D01*
X56995365Y-134875065D01*
X56846085Y-134902014D01*
X56815256Y-134906871D01*
X56686862Y-134930099D01*
X56610738Y-134952723D01*
X56572779Y-134980497D01*
X56558882Y-135019174D01*
X56551046Y-135042431D01*
X56503517Y-135095319D01*
X56406977Y-135160344D01*
X56253366Y-135243422D01*
X56132512Y-135306116D01*
X56039708Y-135359975D01*
X55988869Y-135401841D01*
X55968817Y-135441304D01*
X55968373Y-135487957D01*
X55968425Y-135538662D01*
X55938266Y-135591819D01*
X55857441Y-135640017D01*
X55815993Y-135657268D01*
X55690250Y-135695331D01*
X55557863Y-135721367D01*
X55469773Y-135734345D01*
X55410030Y-135752613D01*
X55391316Y-135783947D01*
X55398126Y-135839849D01*
X55402459Y-135884049D01*
X55387838Y-135941679D01*
X55341868Y-136000352D01*
X55256661Y-136067140D01*
X55124331Y-136149116D01*
X54936992Y-136253352D01*
X54829758Y-136311816D01*
X54711931Y-136377192D01*
X54628516Y-136424854D01*
X54592889Y-136447265D01*
X54239658Y-136447265D01*
X54275654Y-136430412D01*
X54502670Y-136319708D01*
X54711811Y-136213278D01*
X54891575Y-136116831D01*
X55030458Y-136036074D01*
X55116959Y-135976716D01*
X55154066Y-135943477D01*
X55226143Y-135852095D01*
X55246996Y-135773064D01*
X55212382Y-135717891D01*
X55188827Y-135699987D01*
X55184449Y-135665555D01*
X55246832Y-135637636D01*
X55377205Y-135615466D01*
X55400042Y-135612683D01*
X55574744Y-135585972D01*
X55713113Y-135555123D01*
X55804179Y-135523067D01*
X55836972Y-135492731D01*
X55826379Y-135468954D01*
X55776248Y-135426831D01*
X55760865Y-135417408D01*
X55739479Y-135393054D01*
X55750714Y-135363660D01*
X55801912Y-135322686D01*
X55900415Y-135263591D01*
X56053566Y-135179836D01*
X56071428Y-135170224D01*
X56211630Y-135092357D01*
X56298574Y-135036252D01*
X56340458Y-134993926D01*
X56345482Y-134957401D01*
X56321844Y-134918694D01*
X56304832Y-134896805D01*
X56299513Y-134875810D01*
X56321425Y-134857912D01*
X56380755Y-134838841D01*
X56487687Y-134814324D01*
X56652409Y-134780093D01*
X56731907Y-134763786D01*
X56883294Y-134732136D01*
X56978618Y-134708793D01*
X57026220Y-134689121D01*
X57034441Y-134668487D01*
X57011622Y-134642255D01*
X56966106Y-134605791D01*
X56866642Y-134526481D01*
X57002422Y-134491851D01*
X57046895Y-134480884D01*
X57167834Y-134452408D01*
X57321479Y-134417288D01*
X57485196Y-134380734D01*
X57589424Y-134357297D01*
X57718052Y-134326870D01*
X57808844Y-134303501D01*
X57846786Y-134290918D01*
X57847721Y-134289547D01*
X57832427Y-134254476D01*
X57783452Y-134194639D01*
X57776322Y-134186843D01*
X57735369Y-134127976D01*
X57734158Y-134094597D01*
X57769218Y-134086988D01*
X57861375Y-134075943D01*
X57994423Y-134063919D01*
X58153161Y-134052444D01*
X58293786Y-134041176D01*
X58423313Y-134025814D01*
X58511171Y-134009465D01*
X58543530Y-133994195D01*
X58536029Y-133960327D01*
X58506019Y-133890917D01*
X58485721Y-133844199D01*
X58482495Y-133806840D01*
X58503243Y-133804752D01*
X58580845Y-133809074D01*
X58701355Y-133820732D01*
X58849651Y-133838427D01*
X58979697Y-133854729D01*
X59101994Y-133865708D01*
X59172388Y-133860450D01*
X59200562Y-133834987D01*
X59196199Y-133785354D01*
X59168979Y-133707582D01*
X59157374Y-133678346D01*
X59149188Y-133650001D01*
X59156866Y-133632127D01*
X59189237Y-133624466D01*
X59255126Y-133626758D01*
X59363360Y-133638744D01*
X59522764Y-133660166D01*
X59742166Y-133690765D01*
X60261153Y-133762956D01*
X60382601Y-133625430D01*
X60430883Y-133563660D01*
X60513368Y-133441744D01*
X60605505Y-133292131D01*
X60647439Y-133218099D01*
X61042405Y-133218099D01*
X61076985Y-133236880D01*
X61118750Y-133225429D01*
X61211682Y-133192629D01*
X61341241Y-133143634D01*
X61493379Y-133083614D01*
X61495562Y-133082737D01*
X61642853Y-133026546D01*
X61763390Y-132986151D01*
X61844792Y-132965313D01*
X61874677Y-132967792D01*
X61868974Y-132990622D01*
X61836503Y-133063522D01*
X61784869Y-133158482D01*
X61753189Y-133216287D01*
X61719488Y-133293020D01*
X61714664Y-133331330D01*
X61716014Y-133332005D01*
X61757472Y-133318418D01*
X61844437Y-133274858D01*
X61965102Y-133207586D01*
X62107659Y-133122868D01*
X62125837Y-133111785D01*
X62265423Y-133028082D01*
X62380580Y-132961423D01*
X62459799Y-132918328D01*
X62491570Y-132905321D01*
X62491808Y-132912090D01*
X62471259Y-132962058D01*
X62427851Y-133041660D01*
X62408785Y-133074894D01*
X62375089Y-133141142D01*
X62368848Y-133167481D01*
X62397270Y-133155695D01*
X62471152Y-133118234D01*
X62571797Y-133064012D01*
X62660577Y-133016774D01*
X62744844Y-132975886D01*
X62788493Y-132959913D01*
X62786374Y-132981584D01*
X62750812Y-133044539D01*
X62688917Y-133134413D01*
X62629974Y-133219271D01*
X62586868Y-133291730D01*
X62576451Y-133325630D01*
X62588176Y-133328016D01*
X62649790Y-133317203D01*
X62742164Y-133288929D01*
X62787818Y-133273678D01*
X62867662Y-133252090D01*
X62905383Y-133249735D01*
X62900229Y-133263747D01*
X62856743Y-133312218D01*
X62782411Y-133380229D01*
X62732823Y-133424260D01*
X62665162Y-133490842D01*
X62633279Y-133531826D01*
X62635560Y-133542076D01*
X62681466Y-133566228D01*
X62768244Y-133583875D01*
X62915773Y-133601224D01*
X62779812Y-133826771D01*
X62766305Y-133849337D01*
X62706125Y-133954445D01*
X62666639Y-134031192D01*
X62655827Y-134064294D01*
X62656936Y-134065072D01*
X62699952Y-134065253D01*
X62779326Y-134051776D01*
X62798824Y-134046740D01*
X62934930Y-133975150D01*
X63086555Y-133836690D01*
X63253179Y-133631903D01*
X63434286Y-133361337D01*
X63436170Y-133358302D01*
X63537194Y-133198596D01*
X63636014Y-133047587D01*
X63721383Y-132922164D01*
X63782051Y-132839216D01*
X63830080Y-132773490D01*
X63874171Y-132678350D01*
X63880255Y-132579375D01*
X63879983Y-132576186D01*
X63871191Y-132517814D01*
X63848522Y-132472871D01*
X63799745Y-132430614D01*
X63712631Y-132380300D01*
X63574950Y-132311186D01*
X63501949Y-132276443D01*
X63306337Y-132200247D01*
X63131260Y-132165827D01*
X62952833Y-132170284D01*
X62747172Y-132210720D01*
X62637795Y-132234637D01*
X62469724Y-132263556D01*
X62308420Y-132284252D01*
X62142659Y-132305599D01*
X62008067Y-132339785D01*
X61891158Y-132396276D01*
X61771054Y-132485262D01*
X61626879Y-132616933D01*
X61600627Y-132642053D01*
X61466498Y-132769351D01*
X61330762Y-132896793D01*
X61219160Y-133000181D01*
X61144985Y-133071119D01*
X61065289Y-133162482D01*
X61042405Y-133218099D01*
X60647439Y-133218099D01*
X60694896Y-133134318D01*
X60720410Y-133087462D01*
X60817968Y-132920211D01*
X60909953Y-132789353D01*
X61013561Y-132672511D01*
X61145989Y-132547306D01*
X61286969Y-132422498D01*
X61416230Y-132315123D01*
X61528046Y-132234877D01*
X61639869Y-132170641D01*
X61769151Y-132111296D01*
X61933346Y-132045725D01*
X62199474Y-131952221D01*
X62439958Y-131891172D01*
X62679181Y-131858557D01*
X62945291Y-131848902D01*
X63095757Y-131852031D01*
X63222480Y-131866285D01*
X63336685Y-131897524D01*
X63468085Y-131951586D01*
X63594332Y-132004905D01*
X63733531Y-132057191D01*
X63842126Y-132091251D01*
X63930524Y-132122975D01*
X64024298Y-132192275D01*
X64103374Y-132304833D01*
X64179072Y-132473492D01*
X64203733Y-132531628D01*
X64271486Y-132667957D01*
X64345659Y-132796134D01*
X64451817Y-132962628D01*
X64435143Y-133559522D01*
X64434956Y-133566202D01*
X64428467Y-133782472D01*
X64421440Y-133943769D01*
X64411694Y-134064120D01*
X64397048Y-134157557D01*
X64375322Y-134238107D01*
X64344334Y-134319799D01*
X64301905Y-134416662D01*
X64296968Y-134427737D01*
X64228042Y-134603470D01*
X64189359Y-134763040D01*
X64171468Y-134944702D01*
X64166737Y-135048848D01*
X64168564Y-135153188D01*
X64186500Y-135233864D01*
X64227492Y-135317444D01*
X64298486Y-135430495D01*
X64407177Y-135595192D01*
X64492300Y-135714236D01*
X64556618Y-135789173D01*
X64607159Y-135828156D01*
X64650952Y-135839339D01*
X64653958Y-135839374D01*
X64701351Y-135861698D01*
X64714325Y-135934763D01*
X64715021Y-135956677D01*
X64724773Y-136053467D01*
X64743657Y-136188058D01*
X64768695Y-136338352D01*
X64772947Y-136362933D01*
X64798894Y-136558685D01*
X64817199Y-136774991D01*
X64824131Y-136969358D01*
X64824830Y-137037028D01*
X64831124Y-137185225D01*
X64842550Y-137306518D01*
X64857387Y-137379669D01*
X64870505Y-137429218D01*
X64886759Y-137557677D01*
X64895910Y-137728077D01*
X64898165Y-137923449D01*
X64893732Y-138126825D01*
X64882815Y-138321237D01*
X64865622Y-138489716D01*
X64842358Y-138615296D01*
X64823480Y-138699440D01*
X64796124Y-138863132D01*
X64772233Y-139052013D01*
X64755453Y-139239886D01*
X64740780Y-139411998D01*
X64705152Y-139651257D01*
X64655350Y-139828770D01*
X64614611Y-139918714D01*
X64545563Y-140053115D01*
X64457623Y-140214771D01*
X64359291Y-140388886D01*
X64259066Y-140560661D01*
X64165447Y-140715301D01*
X64086934Y-140838008D01*
X64032024Y-140913985D01*
X64031576Y-140914518D01*
X64007530Y-140958932D01*
X63995395Y-141029077D01*
X63994081Y-141139331D01*
X64002502Y-141304067D01*
X64012541Y-141435457D01*
X64028760Y-141558774D01*
X64055728Y-141666696D01*
X64099704Y-141777939D01*
X64166946Y-141911215D01*
X64263712Y-142085241D01*
X64326404Y-142212758D01*
X64362630Y-142343965D01*
X64365392Y-142483804D01*
X64334858Y-142649756D01*
X64271196Y-142859302D01*
X64199356Y-143058812D01*
X64108786Y-143265493D01*
X64012214Y-143429017D01*
X63900823Y-143563774D01*
X63765797Y-143684153D01*
X63761870Y-143687255D01*
X63647557Y-143783724D01*
X63546031Y-143879807D01*
X63478852Y-143955140D01*
X63470349Y-143966148D01*
X63389503Y-144042000D01*
X63305354Y-144085738D01*
X63238963Y-144107438D01*
X63126356Y-144152317D01*
X63002409Y-144207650D01*
X62981247Y-144217545D01*
X62829225Y-144278573D01*
X62724814Y-144297379D01*
X62706094Y-144300751D01*
X62587070Y-144285213D01*
X62447365Y-144233097D01*
X62432367Y-144226663D01*
X62304911Y-144186243D01*
X62143699Y-144159790D01*
X61931137Y-144144276D01*
X61865890Y-144141276D01*
X61689945Y-144131701D01*
X61568248Y-144120111D01*
X61489182Y-144103080D01*
X61441131Y-144077178D01*
X61412480Y-144038978D01*
X61391613Y-143985052D01*
X61351891Y-143908510D01*
X61278290Y-143840931D01*
X61154695Y-143768164D01*
X60955142Y-143664066D01*
X60757649Y-143212973D01*
X60743790Y-143181172D01*
X60666390Y-142998513D01*
X60595586Y-142823608D01*
X60538710Y-142674950D01*
X60503095Y-142571033D01*
X60476407Y-142493846D01*
X60424317Y-142379506D01*
X60373203Y-142301723D01*
X60274513Y-142228724D01*
X60111348Y-142174819D01*
X59892868Y-142152797D01*
X59616863Y-142162459D01*
X59298366Y-142201493D01*
X59281121Y-142203606D01*
X59171781Y-142220418D01*
X59040105Y-142240205D01*
X58946312Y-142253729D01*
X58905740Y-142258738D01*
X58903310Y-142256729D01*
X58917767Y-142220322D01*
X58961346Y-142152642D01*
X58974232Y-142133773D01*
X58986331Y-142111265D01*
X60836472Y-142111265D01*
X60839356Y-142119533D01*
X60866714Y-142178697D01*
X60918445Y-142284193D01*
X60989033Y-142425166D01*
X61072961Y-142590765D01*
X61164713Y-142770138D01*
X61258772Y-142952432D01*
X61349623Y-143126794D01*
X61431749Y-143282372D01*
X61465611Y-143347812D01*
X61528357Y-143477219D01*
X61575677Y-143584757D01*
X61590481Y-143621797D01*
X61610467Y-143661875D01*
X61638505Y-143692723D01*
X61683322Y-143716507D01*
X61753646Y-143735391D01*
X61858205Y-143751539D01*
X62005726Y-143767116D01*
X62204938Y-143784287D01*
X62464568Y-143805217D01*
X62724814Y-143826134D01*
X63019759Y-143600115D01*
X63090291Y-143547273D01*
X63255080Y-143430515D01*
X63419821Y-143321216D01*
X63557601Y-143237520D01*
X63586610Y-143221037D01*
X63702410Y-143147794D01*
X63783600Y-143074299D01*
X63836327Y-142986742D01*
X63866737Y-142871318D01*
X63880977Y-142714217D01*
X63885193Y-142501634D01*
X63887058Y-142137290D01*
X63747586Y-141981143D01*
X63608114Y-141824995D01*
X63634907Y-142033192D01*
X63645563Y-142152223D01*
X63652303Y-142316702D01*
X63653815Y-142494975D01*
X63650250Y-142666282D01*
X63641763Y-142809864D01*
X63628504Y-142904960D01*
X63627389Y-142908956D01*
X63581246Y-142972473D01*
X63500632Y-143024164D01*
X63461527Y-143041485D01*
X63331882Y-143106814D01*
X63175392Y-143192976D01*
X63014116Y-143287225D01*
X62870112Y-143376815D01*
X62806266Y-143420843D01*
X62765436Y-143448999D01*
X62733093Y-143473356D01*
X62670372Y-143513109D01*
X62631399Y-143514149D01*
X62594248Y-143480512D01*
X62557385Y-143426576D01*
X62516715Y-143334421D01*
X62496585Y-143285397D01*
X62450806Y-143187353D01*
X62385960Y-143053900D01*
X62308240Y-142897256D01*
X62223843Y-142729641D01*
X62138964Y-142563272D01*
X62059797Y-142410369D01*
X61992540Y-142283150D01*
X61943385Y-142193834D01*
X61918530Y-142154640D01*
X61918140Y-142154319D01*
X61913014Y-142178598D01*
X61915573Y-142252457D01*
X61924075Y-142357468D01*
X61936774Y-142475203D01*
X61951927Y-142587234D01*
X61967789Y-142675132D01*
X61970665Y-142690435D01*
X61965864Y-142714186D01*
X61935258Y-142702297D01*
X61871225Y-142650157D01*
X61766143Y-142553157D01*
X61757316Y-142544826D01*
X61694695Y-142486091D01*
X61573686Y-142372592D01*
X61436058Y-142247228D01*
X61340800Y-142167323D01*
X61284277Y-142131462D01*
X61262857Y-142138232D01*
X61272906Y-142186220D01*
X61310790Y-142274013D01*
X61372876Y-142400198D01*
X61500119Y-142652868D01*
X61331728Y-142510814D01*
X61259637Y-142448139D01*
X61133623Y-142332392D01*
X61026173Y-142227000D01*
X61009442Y-142210442D01*
X60966439Y-142167885D01*
X60898752Y-142108313D01*
X60861351Y-142085241D01*
X60858823Y-142085351D01*
X60836472Y-142111265D01*
X58986331Y-142111265D01*
X59011564Y-142064323D01*
X59016049Y-142025702D01*
X58988147Y-142020734D01*
X58902880Y-142020607D01*
X58775758Y-142026802D01*
X58621895Y-142038814D01*
X58497172Y-142049428D01*
X58364997Y-142058767D01*
X58272256Y-142063008D01*
X58233764Y-142061294D01*
X58232694Y-142056931D01*
X58256309Y-142016969D01*
X58311838Y-141952857D01*
X58328952Y-141934649D01*
X58382964Y-141871380D01*
X58404732Y-141835711D01*
X58395666Y-141827728D01*
X58336960Y-141809190D01*
X58270865Y-141796621D01*
X58241748Y-141791084D01*
X58155763Y-141772292D01*
G37*
%TD*%
M02*
