M48
; DRILL file {KiCad (6.0.5-0)} date Tuesday, August 16, 2022 at 12:13:15 PM
; FORMAT={-:-/ absolute / metric / decimal}
; #@! TF.CreationDate,2022-08-16T12:13:15-04:00
; #@! TF.GenerationSoftware,Kicad,Pcbnew,(6.0.5-0)
; #@! TF.FileFunction,Plated,1,2,PTH
FMAT,2
METRIC
; #@! TA.AperFunction,Plated,PTH,ComponentDrill
T1C0.750
; #@! TA.AperFunction,Plated,PTH,ComponentDrill
T2C0.800
; #@! TA.AperFunction,Plated,PTH,ComponentDrill
T3C1.000
; #@! TA.AperFunction,Plated,PTH,ComponentDrill
T4C1.100
; #@! TA.AperFunction,Plated,PTH,ComponentDrill
T5C1.300
%
G90
G05
T1
X34.015Y-109.22
X34.015Y-110.49
X34.015Y-111.76
X39.73Y-109.22
X39.73Y-110.49
X39.73Y-111.76
X45.445Y-109.22
X45.445Y-110.49
X45.445Y-111.76
T2
X33.655Y-93.98
X33.655Y-104.14
X34.29Y-115.57
X34.29Y-125.73
X37.338Y-72.009
X38.09Y-75.448
X38.09Y-83.068
X38.795Y-67.945
X39.37Y-93.98
X39.37Y-104.14
X39.37Y-115.57
X39.37Y-125.73
X40.63Y-75.448
X40.63Y-83.068
X43.17Y-75.448
X43.17Y-83.068
X43.815Y-115.57
X43.815Y-125.73
X45.085Y-93.98
X45.085Y-104.14
X45.085Y-161.29
X45.71Y-75.448
X45.71Y-83.068
X46.295Y-67.945
X47.085Y-161.29
X47.498Y-72.009
X51.308Y-65.151
X51.308Y-75.311
X55.499Y-67.497
X55.499Y-74.997
X67.0Y-156.25
X67.0Y-163.75
T3
X34.985Y-141.605
X34.985Y-144.145
X34.985Y-146.685
X34.985Y-149.225
X34.985Y-151.765
X34.985Y-154.305
X34.985Y-156.845
X34.985Y-159.385
X34.985Y-161.925
X34.985Y-164.465
X50.165Y-91.44
X50.165Y-93.98
X50.165Y-96.52
X50.165Y-99.06
X50.165Y-101.6
X50.165Y-104.14
X50.165Y-106.68
X50.165Y-109.22
X50.165Y-111.76
X50.165Y-114.3
X50.165Y-116.84
X50.165Y-119.38
X50.165Y-121.92
X50.165Y-124.46
X50.165Y-127.0
X64.897Y-61.341
X64.897Y-63.881
X64.897Y-66.421
X64.897Y-68.961
X64.897Y-71.501
X64.897Y-74.041
X64.897Y-76.581
X64.897Y-79.121
X64.897Y-81.661
X64.897Y-84.201
X65.405Y-91.44
X65.405Y-93.98
X65.405Y-96.52
X65.405Y-99.06
X65.405Y-101.6
X65.405Y-104.14
X65.405Y-106.68
X65.405Y-109.22
X65.405Y-111.76
X65.405Y-114.3
X65.405Y-116.84
X65.405Y-119.38
X65.405Y-121.92
X65.405Y-124.46
X65.405Y-127.0
T4
X40.005Y-158.532
X40.005Y-163.612
X56.515Y-162.87
X59.055Y-162.87
X61.595Y-162.87
T5
X37.03Y-170.95
X37.865Y-53.213
X42.03Y-170.95
X42.865Y-53.213
X47.03Y-170.95
X47.865Y-53.213
X52.03Y-170.95
X52.865Y-53.213
X57.03Y-170.95
X57.865Y-53.213
X62.03Y-170.95
X62.865Y-53.213
T0
M30
